<?xml version="1.0" standalone="no"?>
<!DOCTYPE svg PUBLIC "-//W3C//DTD SVG 20010904//EN"
 "http://www.w3.org/TR/2001/REC-SVG-20010904/DTD/svg10.dtd">
<svg version="1.0" xmlns="http://www.w3.org/2000/svg"
 width="723.750880pt" height="911.814910pt" viewBox="0 0 723.750880 911.814910"
 preserveAspectRatio="xMidYMid meet">
<metadata>
Created by potrace 1.16, written by Peter Selinger 2001-2019
</metadata>
<g transform="translate(-134.662282,966.414910) scale(0.100000,-0.100000)"
fill="currentColor" stroke="none">
<path d="M2545 9509 c25 -11 549 -162 896 -258 543 -150 739 -241 982 -457 55
-49 128 -128 167 -178 95 -127 298 -447 557 -876 379 -630 497 -811 715 -1100
306 -406 568 -679 1043 -1085 608 -519 604 -515 757 -785 36 -63 125 -225 198
-360 154 -285 175 -317 345 -510 183 -209 215 -260 162 -260 -41 0 -145 59
-186 107 -22 25 -68 88 -102 139 -34 52 -64 93 -66 91 -2 -2 19 -44 46 -93 27
-49 47 -91 45 -93 -5 -6 -76 54 -182 154 -130 123 -235 258 -443 568 -147 218
-195 282 -262 346 -122 117 -306 274 -547 466 -127 101 -226 188 -242 212 -53
81 -112 212 -160 358 -27 83 -52 152 -55 155 -11 11 11 -101 42 -215 37 -136
148 -421 235 -602 70 -146 135 -259 288 -498 125 -194 226 -379 267 -489 14
-38 55 -182 91 -320 140 -538 316 -1113 417 -1361 24 -60 83 -194 131 -296 47
-102 86 -193 86 -202 0 -52 -95 -14 -166 67 -53 60 -109 171 -200 391 -36 88
-70 164 -75 170 -22 22 135 -389 176 -462 13 -24 20 -43 16 -43 -16 0 -111
109 -156 178 -25 39 -88 158 -140 264 -98 201 -131 297 -380 1098 -89 287
-145 395 -394 765 -107 160 -204 313 -216 340 -56 127 -100 389 -115 695 -16
317 -26 391 -60 473 -37 89 -86 169 -165 272 -97 126 -125 170 -207 330 -43
83 -78 146 -78 141 0 -5 30 -76 67 -159 48 -107 96 -195 171 -306 114 -172
174 -287 191 -371 7 -30 16 -149 21 -264 13 -277 30 -417 89 -719 28 -138 64
-328 81 -422 17 -93 41 -222 55 -285 29 -135 31 -212 9 -335 -9 -49 -24 -146
-33 -215 l-17 -125 -23 100 c-34 148 -88 316 -204 640 -194 542 -260 814 -292
1218 -20 258 -47 337 -186 544 -91 134 -159 265 -205 392 -51 139 -55 112 -5
-37 44 -134 97 -243 200 -416 113 -190 130 -245 147 -466 17 -235 27 -308 70
-506 40 -187 94 -380 166 -584 110 -317 197 -580 222 -670 32 -119 65 -322
121 -755 54 -416 81 -566 152 -850 56 -227 183 -625 277 -870 30 -77 50 -144
46 -148 -4 -5 -25 0 -46 11 -138 71 -270 327 -349 677 -51 227 -56 199 -8 -50
20 -108 49 -209 97 -340 l8 -20 -17 20 c-26 31 -128 246 -183 385 -105 263
-248 728 -321 1037 -38 164 -79 348 -91 408 -33 163 -132 508 -201 693 -33 90
-80 220 -104 290 -194 569 -376 930 -614 1214 -144 172 -281 282 -383 310 -41
10 -52 10 -82 -4 l-35 -17 -7 67 c-15 123 -7 218 31 392 10 47 -35 -57 -52
-122 -15 -55 -18 -113 -17 -443 0 -419 4 -463 69 -754 74 -332 99 -520 98
-736 0 -123 -5 -182 -22 -258 -25 -117 -67 -245 -112 -342 l-32 -70 -8 40 c-4
22 -8 64 -8 93 -2 131 -76 384 -173 591 -59 128 -93 227 -153 446 -43 160
-172 578 -201 655 -7 19 -58 159 -113 310 -54 151 -140 383 -189 515 -113 302
-147 406 -171 525 -48 236 -50 350 -15 725 14 151 15 209 6 368 -10 165 -14
194 -35 242 -48 104 -180 257 -258 298 l-34 18 30 -23 c68 -53 112 -97 168
-173 74 -100 97 -151 103 -235 5 -76 4 -75 -39 50 -40 116 -87 188 -175 272
-63 59 -176 128 -232 142 -14 3 0 -6 30 -20 131 -62 266 -188 320 -299 26 -52
110 -313 110 -340 0 -19 -102 170 -124 230 -12 34 -35 83 -49 108 -32 54 -107
143 -139 165 -13 9 -3 -6 22 -34 62 -67 109 -137 132 -196 29 -78 0 -55 -51
40 -33 61 -64 102 -125 160 -76 73 -181 140 -246 156 -14 4 6 -9 43 -29 92
-47 121 -68 195 -139 54 -52 92 -101 92 -120 0 -3 -37 22 -82 54 -148 106
-337 195 -519 244 -318 86 -1014 207 -977 171 3 -3 115 -30 250 -60 351 -79
709 -169 813 -205 206 -73 389 -184 520 -315 91 -92 146 -179 177 -279 19 -62
20 -83 14 -210 -4 -78 -11 -175 -16 -216 -14 -116 -12 -302 6 -418 26 -178 67
-315 194 -652 251 -667 375 -1030 485 -1419 132 -468 148 -544 160 -771 19
-370 78 -570 167 -570 37 0 120 76 166 152 94 156 140 332 148 563 9 231 -19
467 -91 780 -49 216 -63 308 -75 508 -17 282 0 331 108 313 94 -15 312 -220
465 -436 62 -89 119 -189 198 -349 126 -256 177 -376 261 -615 32 -93 76 -214
98 -270 21 -56 42 -112 45 -126 9 -39 -11 -112 -66 -239 -28 -64 -82 -198
-120 -298 -38 -100 -95 -241 -127 -315 -188 -424 -257 -750 -223 -1057 16
-151 69 -290 114 -299 19 -4 37 44 107 278 161 545 175 588 255 756 29 61 88
167 132 235 44 68 88 139 97 157 9 17 20 32 24 32 7 0 101 -370 142 -555 24
-113 37 -248 50 -535 11 -254 28 -370 94 -641 59 -245 97 -362 161 -494 73
-152 150 -235 218 -235 31 0 47 18 47 51 0 16 -15 108 -34 206 -48 246 -77
423 -74 440 2 8 31 -21 68 -69 104 -131 219 -218 289 -218 52 0 50 29 -19 227
-286 818 -327 995 -436 1858 -32 255 -30 290 31 603 22 114 35 213 35 262 0
46 -17 179 -41 320 -22 133 -39 248 -37 257 3 16 177 -218 287 -386 91 -139
166 -295 212 -444 81 -260 231 -735 276 -871 49 -145 210 -485 278 -586 55
-81 107 -132 237 -230 116 -88 162 -109 207 -95 46 14 37 77 -36 239 -150 333
-332 866 -443 1293 -83 317 -190 703 -211 755 -32 83 -108 220 -287 518 -164
272 -306 536 -296 551 9 15 435 -317 604 -469 123 -111 163 -160 322 -396 241
-357 331 -468 492 -615 228 -208 439 -328 504 -285 49 32 26 76 -167 309 -155
186 -187 234 -306 450 -160 292 -337 599 -381 661 -47 67 -181 191 -524 485
-559 478 -828 753 -1129 1149 -198 261 -325 455 -666 1020 -388 644 -590 958
-681 1059 -62 69 -212 194 -309 257 -214 138 -449 221 -1090 384 -435 110
-697 165 -620 129z m1645 -5441 c52 -112 98 -248 125 -372 30 -135 8 -266 -45
-266 -59 0 -96 161 -120 520 -6 85 -13 170 -16 188 -3 17 -2 32 1 32 4 0 28
-46 55 -102z m1497 -479 c48 -165 56 -207 57 -279 1 -75 -3 -92 -30 -151 -17
-36 -59 -110 -94 -164 -156 -246 -273 -551 -376 -983 -20 -84 -38 -151 -41
-149 -2 3 0 62 6 132 6 69 10 147 10 173 l-1 47 -8 -55 c-5 -30 -16 -127 -25
-215 -10 -88 -21 -166 -25 -174 -6 -11 -15 -1 -33 36 -115 225 -45 696 174
1185 28 62 91 214 139 338 48 124 106 266 128 315 22 50 44 103 47 118 4 15 9
26 11 24 3 -2 30 -91 61 -198z m374 -1431 c56 -178 123 -355 197 -518 54 -121
62 -147 77 -255 9 -66 39 -233 67 -372 28 -139 48 -259 44 -268 -5 -14 -9 -14
-34 -1 -62 32 -131 130 -184 259 -54 130 -164 599 -187 797 -17 136 -36 490
-27 490 3 0 24 -60 47 -132z"/>
<path d="M6532 8779 c74 -11 116 -29 163 -70 51 -45 75 -100 75 -175 0 -116
-55 -210 -166 -283 -35 -23 -147 -75 -248 -115 -216 -86 -294 -128 -370 -197
-139 -127 -166 -334 -62 -471 93 -121 265 -121 350 0 26 37 31 55 34 116 5 92
-19 146 -78 176 -21 11 -45 20 -52 20 -7 -1 1 -8 17 -17 78 -41 112 -112 96
-198 -21 -111 -95 -171 -202 -163 -174 13 -261 227 -170 413 58 117 162 189
411 286 200 77 232 92 301 140 65 46 116 109 142 177 25 62 23 174 -4 229 -42
86 -144 145 -248 142 l-46 -1 57 -9z"/>
<path d="M6465 8518 c-46 -25 -59 -73 -27 -100 23 -20 67 -9 67 17 0 28 -35
32 -42 6 -7 -27 -23 -17 -23 14 0 32 35 55 85 55 76 0 133 -58 106 -108 -17
-32 -12 -39 9 -13 53 62 -14 142 -117 141 -21 0 -47 -6 -58 -12z"/>
<path d="M5955 8469 c-4 -6 -1 -15 6 -20 21 -14 64 -6 64 11 0 18 -60 26 -70
9z"/>
<path d="M7261 8300 c0 -8 -6 -103 -11 -210 -18 -343 -46 -489 -115 -605 -95
-158 -215 -227 -420 -241 -52 -4 -95 -10 -95 -14 0 -4 44 -10 98 -13 171 -10
274 -59 362 -169 110 -138 147 -298 170 -723 6 -109 12 -201 14 -203 2 -1 7
61 10 140 25 529 59 690 174 819 90 101 177 134 381 146 l126 8 -114 7 c-63 4
-139 12 -170 19 -176 35 -313 190 -355 400 -16 76 -29 234 -45 509 -4 80 -9
138 -10 130z m13 -704 c4 -20 25 -71 47 -115 46 -93 126 -179 200 -217 l52
-26 -50 -28 c-106 -61 -198 -187 -238 -325 -10 -33 -20 -67 -22 -75 -3 -8 -15
19 -29 60 -44 140 -144 272 -253 333 l-53 30 53 25 c78 37 168 132 217 231 23
45 44 97 48 116 8 42 19 38 28 -9z"/>
<path d="M5678 8283 c7 -3 16 -2 19 1 4 3 -2 6 -13 5 -11 0 -14 -3 -6 -6z"/>
<path d="M5678 8143 c6 -2 18 -2 25 0 6 3 1 5 -13 5 -14 0 -19 -2 -12 -5z"/>
<path d="M6520 7904 c0 -9 5 -14 12 -12 18 6 21 28 4 28 -9 0 -16 -7 -16 -16z"/>
<path d="M5634 7855 c-9 -21 3 -45 21 -45 16 0 19 17 9 44 -8 20 -23 21 -30 1z"/>
<path d="M6134 7685 c-13 -20 -14 -30 -4 -59 21 -66 90 -51 90 20 0 60 -55 86
-86 39z m66 -4 c0 -11 -44 -61 -54 -61 -11 0 -6 46 6 58 14 14 48 16 48 3z"/>
<path d="M7670 7515 c-7 -9 -11 -18 -8 -20 3 -3 11 1 18 10 7 9 11 18 8 20 -3
3 -11 -1 -18 -10z"/>
<path d="M6750 6686 c0 -8 5 -18 10 -21 6 -3 10 1 10 9 0 8 -4 18 -10 21 -5 3
-10 -1 -10 -9z"/>
<path d="M7841 6577 c-2 -68 -54 -125 -118 -128 -10 0 1 -7 24 -16 52 -18 93
-64 94 -106 1 -31 2 -30 15 12 18 58 38 79 93 96 29 8 37 14 23 14 -28 1 -74
24 -92 46 -7 9 -19 37 -26 63 -10 36 -13 41 -13 19z"/>
<path d="M2577 5974 c-14 -14 -7 -35 11 -32 9 2 17 10 17 17 0 16 -18 25 -28
15z"/>
<path d="M3041 5787 c-17 -17 -13 -37 7 -37 18 0 42 18 42 31 0 12 -38 17 -49
6z m39 -11 c0 -2 -7 -6 -15 -10 -8 -3 -15 -1 -15 4 0 6 7 10 15 10 8 0 15 -2
15 -4z"/>
<path d="M7642 5718 c-29 -29 3 -82 36 -61 25 15 22 67 -3 71 -11 1 -26 -3
-33 -10z"/>
<path d="M2675 5391 c-48 -22 -69 -44 -90 -95 -38 -89 32 -196 127 -196 43 0
102 44 112 84 9 35 -9 76 -34 76 -26 0 -26 -15 1 -34 20 -13 21 -18 9 -45 -15
-38 -50 -61 -92 -61 -64 0 -108 54 -108 133 0 54 27 92 84 118 115 52 247 -15
315 -161 23 -48 26 -68 26 -160 0 -103 -1 -108 -39 -185 -48 -97 -137 -189
-283 -294 -97 -68 -153 -121 -153 -142 0 -17 18 -9 22 9 7 26 67 70 135 98 32
13 49 24 38 24 -39 1 39 40 91 45 27 3 72 12 99 20 104 29 164 35 198 22 l31
-13 -59 -13 c-32 -7 -78 -22 -103 -32 -24 -11 -59 -19 -78 -19 -62 0 -27 -17
45 -22 227 -16 406 -240 335 -418 -39 -97 -171 -119 -228 -38 -33 47 -3 138
45 138 10 0 19 4 19 9 0 21 -57 -8 -77 -39 -28 -41 -29 -75 -3 -117 57 -94
201 -79 258 27 31 59 28 161 -6 232 -49 100 -151 183 -262 212 l-55 14 37 16
c20 9 68 21 106 28 65 11 72 10 118 -13 34 -17 56 -36 71 -64 13 -22 23 -33
23 -25 0 23 -36 77 -62 94 -13 8 -59 26 -102 41 -93 32 -142 30 -275 -10 -46
-14 -86 -23 -88 -21 -3 2 28 23 69 46 119 69 175 110 237 174 89 94 143 216
107 245 -23 20 -49 9 -53 -21 -4 -32 13 -38 22 -8 8 26 25 26 25 0 0 -39 -55
-135 -112 -196 -48 -51 -230 -184 -252 -184 -4 0 18 25 49 56 34 35 69 85 92
132 37 75 38 78 38 191 0 104 -3 122 -26 172 -72 154 -221 227 -344 170z"/>
<path d="M3250 5241 c0 -5 7 -11 15 -15 9 -3 15 0 15 9 0 8 -7 15 -15 15 -8 0
-15 -4 -15 -9z"/>
<path d="M3120 4185 c0 -8 7 -15 15 -15 8 0 15 7 15 15 0 8 -7 15 -15 15 -8 0
-15 -7 -15 -15z"/>
<path d="M3512 3438 c5 -15 27 -18 31 -3 1 5 -6 11 -17 13 -12 3 -17 -1 -14
-10z"/>
<path d="M3354 3205 c-9 -22 22 -53 37 -38 15 15 7 47 -14 51 -9 2 -20 -4 -23
-13z"/>
<path d="M4134 2701 c-33 -14 -64 -61 -64 -95 0 -57 65 -101 113 -78 20 10 18
11 -15 11 -99 2 -104 122 -6 146 65 16 168 -55 215 -150 35 -67 42 -163 18
-235 -44 -131 -198 -205 -237 -113 -11 28 -12 28 -16 5 -5 -31 22 -60 62 -68
75 -14 179 68 212 168 35 105 6 244 -68 329 -56 64 -160 103 -214 80z"/>
<path d="M4387 1804 c-8 -8 1 -24 14 -24 5 0 9 7 9 15 0 15 -12 20 -23 9z"/>
</g>
</svg>
