<?xml version="1.0" standalone="no"?>
<!DOCTYPE svg PUBLIC "-//W3C//DTD SVG 20010904//EN"
 "http://www.w3.org/TR/2001/REC-SVG-20010904/DTD/svg10.dtd">
<svg version="1.0" xmlns="http://www.w3.org/2000/svg"
 width="422.365372pt" height="1035.383225pt" viewBox="0 0 422.365372 1035.383225"
 preserveAspectRatio="xMidYMid meet">
<metadata>
Created by potrace 1.16, written by Peter Selinger 2001-2019
</metadata>
<g transform="translate(-290.709976,1038.450625) scale(0.100000,-0.100000)"
fill="currentColor" stroke="none">
<path d="M5510 10214 c0 -51 -24 -116 -54 -148 -35 -37 -83 -51 -221 -62 -82
-7 -83 -22 -1 -23 53 -1 41 -9 -30 -21 -56 -9 -55 -9 26 -5 137 7 207 -22 242
-102 13 -30 22 -84 29 -170 5 -70 12 -129 14 -132 3 -2 6 38 6 90 1 99 16 84
18 -18 0 -30 6 -53 12 -53 6 0 8 8 5 18 -2 9 -8 60 -11 113 -6 83 -5 102 12
140 11 24 29 52 41 62 29 26 89 46 142 47 62 2 100 18 45 19 -30 1 -36 4 -25
11 8 5 29 10 45 11 17 1 -8 5 -55 9 -140 13 -179 40 -194 133 -3 20 -8 53 -11
72 -7 41 -35 49 -35 9z m33 -179 c9 -20 28 -41 42 -47 32 -14 31 -22 0 -36
-14 -7 -35 -28 -47 -48 l-21 -36 -19 34 c-11 18 -35 44 -54 57 l-35 24 41 18
c22 10 45 29 52 44 15 33 21 32 41 -10z"/>
<path d="M5838 9963 c7 -3 16 -2 19 1 4 3 -2 6 -13 5 -11 0 -14 -3 -6 -6z"/>
<path d="M4797 9728 c-40 -37 -49 -82 -57 -308 -16 -398 -71 -987 -130 -1395
-56 -381 -61 -535 -25 -805 45 -350 77 -962 55 -1072 -14 -73 -47 -145 -61
-131 -5 5 -16 40 -25 78 -9 39 -40 156 -70 260 -93 330 -150 600 -191 895 -15
116 -17 182 -13 475 10 683 6 922 -14 1015 -43 200 -121 391 -179 434 -61 45
-126 11 -153 -82 -13 -45 -15 -92 -9 -300 5 -186 3 -303 -9 -472 -9 -124 -20
-319 -26 -435 -5 -115 -17 -300 -26 -410 -11 -134 -15 -256 -11 -370 5 -169 8
-191 80 -575 51 -268 70 -421 69 -560 0 -74 -4 -151 -9 -170 l-9 -35 -28 53
c-15 29 -55 128 -90 220 -35 92 -103 268 -151 392 -167 433 -174 469 -215
1162 -20 341 -73 526 -216 755 -74 119 -129 154 -183 117 -51 -36 -63 -121
-36 -249 48 -222 72 -493 85 -960 13 -452 31 -581 125 -880 24 -77 67 -225 95
-330 28 -104 71 -258 95 -340 62 -212 71 -254 100 -485 49 -386 118 -791 180
-1062 77 -333 157 -557 394 -1091 116 -262 157 -442 167 -727 11 -307 -32
-685 -142 -1245 -44 -220 -121 -563 -133 -590 -8 -17 -10 -16 -10 10 -1 45
-34 259 -41 265 -3 3 -14 32 -24 65 -36 120 -107 215 -160 215 -28 0 -76 -36
-76 -56 0 -11 4 -12 19 -4 51 27 97 -3 140 -93 56 -117 100 -327 107 -510 3
-96 1 -113 -17 -150 -18 -34 -19 -39 -5 -28 48 40 97 190 186 567 157 668 231
1204 216 1564 -4 85 -9 173 -11 195 -5 37 -3 34 30 -35 64 -133 80 -201 80
-332 0 -134 16 -134 23 -1 6 105 -21 226 -84 378 -120 292 -410 1013 -450
1118 -130 347 -256 947 -324 1547 -25 218 -36 271 -90 450 -23 74 -66 229 -96
343 -30 115 -81 295 -113 401 -92 297 -105 393 -116 821 -10 407 -42 794 -80
975 -23 110 -16 200 16 200 26 0 84 -80 139 -194 103 -210 142 -390 159 -736
28 -530 45 -629 171 -965 102 -273 239 -611 290 -718 56 -116 68 -127 138
-127 l37 0 -32 19 -31 20 16 43 c14 35 17 80 17 243 -1 226 -9 292 -85 675
-78 390 -84 503 -45 845 8 72 19 233 25 358 6 126 17 310 25 410 9 105 15 305
15 475 0 323 6 367 52 360 45 -6 119 -172 164 -368 21 -93 27 -548 11 -920 -8
-177 -7 -290 1 -405 21 -299 98 -721 183 -995 27 -91 67 -226 88 -300 37 -133
59 -188 89 -222 21 -24 35 -23 27 3 -5 15 2 31 22 57 17 21 35 46 41 57 52 98
40 695 -24 1179 -24 181 -14 533 20 761 60 389 112 917 136 1380 11 207 23
300 42 312 24 14 124 -137 180 -270 59 -145 73 -223 72 -427 -1 -154 -7 -231
-37 -455 -77 -569 -100 -911 -78 -1140 13 -132 53 -381 107 -665 74 -386 143
-621 200 -677 37 -38 63 -42 88 -14 17 19 17 19 -2 14 -29 -7 -36 13 -14 45
23 32 35 70 58 172 15 65 17 149 19 640 1 523 2 577 23 730 12 91 33 282 47
425 44 469 70 631 99 622 16 -4 111 -296 127 -386 10 -56 12 -158 9 -386 -8
-535 -4 -706 18 -930 12 -115 26 -257 31 -315 5 -58 19 -181 30 -275 11 -93
25 -247 31 -342 21 -356 92 -734 183 -973 13 -36 28 -85 32 -107 6 -38 3 -46
-35 -98 -23 -32 -101 -121 -173 -199 -172 -186 -318 -362 -383 -461 -99 -152
-186 -349 -233 -525 -52 -194 -72 -520 -37 -605 13 -32 15 -34 10 -10 -9 46
-6 226 6 323 38 306 165 609 371 882 84 111 144 179 372 425 217 235 315 430
417 828 50 198 67 326 80 598 11 248 26 332 86 473 61 145 183 343 263 429 39
42 87 77 106 77 7 0 -3 -69 -26 -170 -50 -214 -90 -580 -109 -980 -6 -124 -13
-238 -15 -255 -58 -362 -81 -559 -105 -890 -14 -186 -37 -305 -99 -521 -87
-297 -130 -404 -356 -884 -177 -375 -271 -592 -334 -768 -54 -151 -116 -405
-140 -577 -20 -141 -25 -201 -61 -730 -11 -159 -27 -342 -35 -406 -40 -311
-135 -515 -289 -617 -21 -15 -34 -28 -28 -30 37 -12 177 113 232 209 50 85
104 245 124 369 17 105 35 310 66 745 11 160 27 342 35 406 49 389 151 685
453 1314 160 335 205 437 277 620 154 395 203 606 225 970 11 180 26 309 65
570 35 232 44 324 55 570 12 272 24 411 51 585 20 139 29 182 69 356 24 103
23 140 -6 168 -19 20 -66 21 -102 2 -77 -40 -216 -224 -304 -401 -102 -205
-135 -325 -149 -545 -15 -249 -37 -454 -59 -562 -45 -217 -134 -480 -214 -627
l-34 -64 -12 59 c-7 32 -25 105 -40 161 -73 259 -123 541 -139 778 -26 365
-44 575 -72 835 -47 447 -50 520 -38 880 13 361 8 568 -15 677 -26 120 -87
325 -109 365 -25 47 -68 66 -102 48 -57 -31 -83 -145 -109 -480 -31 -388 -37
-448 -57 -610 -19 -143 -22 -243 -29 -740 -5 -361 -12 -598 -19 -638 -11 -59
-48 -172 -56 -172 -7 0 -53 153 -85 281 -47 184 -95 421 -139 680 -56 326 -65
421 -58 579 8 167 69 723 102 925 63 393 52 605 -46 853 -57 144 -150 292
-200 317 -38 20 -54 19 -82 -7z"/>
<path d="M6188 9525 c-3 -6 -10 -70 -14 -143 -4 -73 -10 -134 -13 -137 -13 -7
-71 47 -71 66 0 23 -15 25 -24 3 -7 -18 4 -42 33 -68 31 -28 26 -36 -21 -36
-24 0 -74 -3 -112 -7 -89 -8 -61 -21 66 -30 49 -3 91 -10 94 -15 4 -6 -8 -24
-25 -42 -17 -18 -31 -41 -31 -51 0 -15 7 -12 39 19 l40 39 5 -34 c3 -19 11
-86 18 -149 11 -104 13 -111 19 -70 4 25 8 82 8 128 1 77 11 122 29 122 4 0
23 -14 42 -30 47 -40 51 -18 5 30 -20 21 -33 40 -28 43 5 3 62 9 126 13 64 4
117 10 117 14 0 9 -88 20 -167 20 -34 0 -64 4 -67 9 -3 4 11 27 30 50 48 55
39 61 -16 10 -23 -22 -46 -36 -51 -32 -4 4 -11 71 -16 148 -4 77 -11 135 -15
130z m15 -351 c-6 -16 -29 -19 -38 -4 -4 6 -1 17 5 26 15 18 42 0 33 -22z"/>
<path d="M6326 8054 c-19 -19 -20 -36 -4 -52 24 -24 78 -8 78 24 0 17 -28 44
-45 44 -7 0 -21 -7 -29 -16z"/>
<path d="M4980 5548 c-1 -196 -27 -538 -45 -590 -9 -27 -18 -48 -20 -48 -1 0
-22 26 -45 58 -54 73 -111 132 -121 127 -4 -3 6 -18 21 -35 15 -16 49 -64 75
-106 74 -118 63 -125 -215 -144 -285 -19 -277 -30 39 -51 116 -7 171 -15 187
-26 13 -8 24 -18 24 -22 0 -3 -18 -33 -41 -66 -22 -33 -52 -79 -67 -102 -15
-24 -35 -43 -44 -43 -10 0 -18 -4 -18 -10 0 -12 26 -13 48 -1 9 5 44 48 77 95
33 47 65 84 70 82 6 -1 21 -29 34 -62 22 -55 24 -78 32 -334 8 -257 16 -367
24 -358 2 2 11 141 20 308 8 168 20 323 25 345 9 42 38 115 44 115 2 0 39 -46
81 -102 43 -57 83 -105 89 -107 6 -2 4 5 -5 15 -9 10 -28 44 -43 74 -14 31
-41 78 -61 105 -30 42 -33 52 -21 63 16 17 110 27 329 37 86 4 157 11 157 14
0 7 -186 26 -360 38 -142 9 -153 20 -97 94 19 24 42 59 51 77 9 18 33 51 53
73 19 21 31 39 26 39 -13 0 -92 -86 -141 -152 -24 -32 -46 -58 -51 -58 -15 0
-51 112 -61 184 -5 39 -11 152 -15 251 -7 231 -15 335 -26 335 -5 0 -9 -51 -9
-112z m91 -744 c18 -19 18 -22 4 -34 -9 -8 -30 -41 -47 -73 l-30 -60 -34 60
c-18 33 -40 66 -49 73 -13 10 -11 16 10 44 13 18 34 54 46 81 l22 49 29 -60
c17 -32 39 -68 49 -80z"/>
<path d="M3570 2022 c-25 -20 -31 -82 -10 -107 13 -15 65 -20 94 -9 27 10 20
68 -13 103 -34 36 -41 37 -71 13z"/>
<path d="M6439 1822 c-80 -33 -161 -93 -264 -196 -184 -185 -326 -438 -405
-718 -32 -114 -4 -75 35 48 57 183 180 404 318 573 103 126 260 236 373 261
54 12 138 3 131 -14 -19 -45 -19 -46 8 -56 59 -23 97 40 56 91 -17 22 -28 24
-113 27 -72 1 -104 -2 -139 -16z"/>
<path d="M3564 1520 c-57 -23 -83 -109 -44 -145 17 -15 24 -16 46 -6 24 11 25
13 11 29 -13 15 -14 22 -4 42 30 61 170 44 245 -29 51 -50 114 -180 137 -281
9 -41 20 -132 24 -202 4 -70 10 -130 13 -133 13 -14 19 146 9 255 -15 166 -59
281 -145 377 -63 70 -132 103 -210 102 -34 0 -71 -4 -82 -9z"/>
<path d="M6307 1299 c-95 -22 -200 -98 -297 -214 -131 -155 -236 -334 -260
-439 -8 -38 -33 -76 -114 -180 -149 -190 -219 -286 -214 -291 5 -5 202 218
287 325 132 164 281 280 360 280 35 0 56 -29 47 -66 -5 -19 -2 -24 12 -24 48
0 58 71 16 114 -59 58 -174 19 -305 -102 -38 -35 -69 -62 -69 -59 0 10 136
237 178 297 64 91 206 230 274 269 32 18 78 34 107 38 44 5 52 3 75 -20 42
-42 32 -84 -22 -90 -45 -5 -49 -13 -13 -31 40 -21 55 -20 87 7 21 18 27 32 27
65 0 90 -79 144 -176 121z"/>
</g>
</svg>
