<svg xmlns="http://www.w3.org/2000/svg" viewBox="0 0 475.452799 1052.81251" color="#C8A848"><rect width="475.452799" height="1052.81251" fill="#1A0A24"/><g transform="translate(-272.895815,1038.400000) scale(0.100000,-0.100000)"
fill="currentColor" stroke="none">
<path d="M5080 10085 l0 -156 -102 91 c-56 49 -106 90 -111 90 -12 0 36 -59
115 -142 l63 -68 -91 0 c-50 0 -186 -3 -303 -7 -160 -5 -208 -9 -194 -17 11
-7 129 -13 316 -16 l299 -5 -68 -65 c-79 -74 -137 -141 -130 -147 7 -8 106 76
159 134 l47 53 1 -247 c0 -250 6 -324 24 -330 13 -4 20 148 20 405 l0 193 50
-53 c64 -67 185 -172 191 -166 7 7 -118 150 -167 191 l-44 37 329 0 c245 0
327 3 319 11 -12 12 -502 34 -606 27 l-58 -4 106 102 c58 57 105 108 105 114
0 14 -65 -40 -163 -134 l-68 -66 7 165 7 165 -27 0 -26 0 0 -155z"/>
<path d="M4255 10120 c-6 -9 24 -50 36 -50 6 0 7 9 4 20 -4 11 -2 20 4 20 6 0
11 4 11 9 0 10 -48 12 -55 1z"/>
<path d="M5950 10108 c-15 -6 -20 -12 -12 -15 6 -3 9 -9 6 -15 -6 -10 12 -28
29 -28 12 0 8 28 -5 33 -8 3 -6 6 5 6 9 1 17 8 17 16 0 17 -6 18 -40 3z"/>
<path d="M3827 9630 c-4 -75 -14 -145 -27 -189 -19 -64 -23 -70 -59 -84 -22
-9 -62 -19 -90 -23 -69 -9 -72 -20 -9 -28 40 -6 116 -34 136 -51 1 -1 12 -33
23 -71 13 -44 22 -113 26 -192 8 -164 26 -160 34 9 12 235 31 273 149 293 41
7 74 17 73 22 -1 5 -30 15 -64 21 -133 27 -148 51 -160 256 -4 78 -8 145 -8
150 -1 4 -5 7 -9 7 -5 0 -12 -54 -15 -120z m76 -285 l36 -32 -29 -22 c-16 -12
-38 -37 -48 -57 l-18 -36 -27 40 c-14 23 -37 48 -50 58 l-23 18 37 33 c20 18
43 47 50 65 l13 31 11 -33 c6 -18 28 -48 48 -65z"/>
<path d="M6297 9725 c-5 -11 -13 -69 -18 -130 -18 -219 -33 -241 -183 -261
-37 -6 -44 -9 -35 -20 6 -8 26 -14 44 -14 19 0 54 -9 80 -20 61 -26 73 -58 91
-233 18 -176 33 -210 34 -71 0 76 6 120 25 185 29 102 49 122 139 139 36 7 66
16 66 20 0 4 -25 10 -55 13 -31 3 -72 14 -92 24 -53 26 -73 90 -81 258 -5 83
-10 123 -15 110z m23 -340 c12 -19 34 -42 49 -51 l28 -17 -33 -30 c-19 -16
-42 -42 -51 -57 l-16 -29 -28 44 c-15 24 -37 49 -49 55 -20 11 -20 11 10 36
16 14 38 39 47 55 10 16 18 29 19 29 1 0 12 -16 24 -35z"/>
<path d="M4500 9481 c0 -17 18 -21 24 -6 3 9 0 15 -9 15 -8 0 -15 -4 -15 -9z"/>
<path d="M4537 9483 c-13 -12 -7 -23 13 -23 13 0 18 5 14 15 -7 16 -17 19 -27
8z"/>
<path d="M5699 9483 c-10 -2 -20 -12 -23 -21 -3 -9 -9 -23 -12 -29 -3 -7 1
-13 9 -13 14 0 32 27 29 43 -1 4 3 6 9 5 6 -2 14 3 16 10 5 12 1 13 -28 5z"/>
<path d="M4511 9433 c14 -16 42 -17 37 -1 -2 6 -14 12 -26 13 -17 1 -19 -1
-11 -12z"/>
<path d="M5060 9042 c-40 -22 -66 -67 -80 -142 -18 -91 -28 -520 -35 -1415 -4
-467 -10 -913 -15 -990 -10 -163 -34 -260 -65 -260 -43 0 -62 105 -94 505 -32
390 -41 606 -51 1178 -12 660 -23 757 -95 829 -28 28 -40 33 -79 33 -121 0
-168 -77 -196 -315 -5 -49 -17 -247 -25 -440 -8 -192 -17 -375 -20 -405 -3
-30 -14 -149 -26 -265 -18 -177 -20 -246 -15 -440 20 -755 20 -738 1 -798 -9
-30 -30 -70 -45 -88 l-27 -33 -17 27 c-22 33 -80 344 -101 544 -8 81 -27 211
-41 288 -27 153 -43 363 -44 579 0 160 -22 330 -52 399 -24 54 -59 87 -96 87
-34 0 -90 -36 -108 -71 -32 -63 -71 -421 -79 -734 -3 -126 -10 -298 -16 -382
-8 -127 -6 -185 10 -360 36 -379 45 -609 30 -772 -21 -234 -15 -450 20 -731
17 -135 37 -328 46 -430 20 -242 27 -284 91 -545 65 -265 65 -263 174 -545
108 -278 151 -411 187 -577 l28 -128 -1 -550 c0 -415 -5 -635 -20 -895 -10
-190 -19 -421 -18 -515 0 -152 2 -176 23 -227 23 -61 106 -194 134 -217 23
-18 21 -5 -4 30 -32 45 -78 153 -94 222 -20 83 -19 199 5 652 11 209 23 571
26 805 9 607 -6 763 -106 1095 -27 88 -67 205 -90 260 -119 288 -141 352 -189
546 -80 327 -90 391 -121 769 -6 74 -19 196 -28 270 -13 110 -17 234 -17 660
-1 439 -4 557 -20 720 -23 229 -24 383 -8 850 10 269 18 383 38 518 14 96 30
182 35 193 22 39 76 51 103 22 44 -50 75 -264 81 -568 4 -199 9 -264 31 -380
14 -77 32 -219 41 -315 15 -175 25 -250 63 -453 35 -185 79 -229 154 -153 86
85 105 183 88 444 -35 543 -34 714 9 1097 11 99 27 331 35 515 24 542 57 690
155 690 101 0 139 -210 140 -770 1 -524 49 -1335 96 -1613 20 -121 47 -167 98
-167 32 0 73 49 89 107 27 100 29 155 32 688 4 720 23 1731 35 1845 6 52 18
111 28 130 15 32 21 35 64 38 100 6 136 -41 169 -227 20 -110 31 -299 49 -816
5 -165 17 -361 27 -435 12 -106 17 -245 19 -642 3 -559 4 -574 64 -657 17 -23
47 -49 67 -57 31 -13 38 -13 59 1 13 8 31 29 40 47 19 37 39 211 54 481 6 106
15 251 20 322 5 72 14 285 20 475 17 592 37 778 92 888 43 86 109 77 153 -21
49 -107 68 -269 85 -692 6 -143 15 -348 20 -455 8 -138 7 -290 -1 -522 -13
-342 -6 -568 26 -848 8 -69 17 -226 20 -350 3 -124 10 -274 16 -334 l11 -109
-43 -36 c-102 -84 -200 -174 -195 -178 5 -6 110 76 198 154 27 24 57 43 68 43
102 0 270 437 355 920 41 234 67 311 147 430 95 141 215 245 335 290 77 29 85
16 35 -57 -53 -79 -69 -112 -82 -169 -14 -60 -15 -190 -2 -224 7 -18 9 0 9 70
0 73 5 110 22 160 20 58 99 196 107 187 4 -3 -53 -221 -91 -346 -29 -95 -45
-218 -45 -341 0 -103 -23 -247 -55 -355 -30 -100 -78 -309 -99 -435 -8 -52
-34 -207 -56 -344 -53 -321 -69 -368 -254 -742 -217 -440 -443 -820 -548 -920
-155 -150 -276 -230 -383 -255 -74 -17 -100 -31 -45 -24 111 14 199 57 350
174 35 28 66 49 67 47 2 -2 -4 -19 -12 -40 -8 -20 -24 -88 -35 -151 -60 -352
-74 -784 -41 -1300 36 -571 44 -754 45 -985 l1 -225 -33 -81 c-18 -45 -41 -89
-52 -99 -24 -22 -25 -12 -5 45 19 54 19 160 1 205 -23 54 -77 72 -109 37 -24
-26 -21 -57 8 -100 14 -20 28 -54 32 -75 4 -26 8 -34 14 -25 16 24 9 75 -16
122 -14 26 -25 49 -25 52 0 3 15 4 33 2 28 -3 34 -9 45 -43 15 -45 10 -113
-14 -187 -19 -60 -109 -145 -202 -193 -37 -19 -60 -34 -51 -35 30 0 176 79
215 118 72 69 149 137 135 120 -7 -10 -9 -18 -4 -18 13 0 55 45 48 52 -3 2 7
15 22 29 l27 24 -17 -30 c-15 -26 -14 -25 10 5 34 44 216 225 358 355 112 103
179 184 222 269 27 53 55 126 48 126 -2 0 -18 -27 -35 -59 -62 -115 -246 -335
-353 -421 -86 -70 -300 -287 -293 -298 3 -5 -1 -9 -9 -9 -19 0 -19 2 5 35 30
41 50 145 50 262 0 58 -14 326 -30 595 -49 787 -52 871 -45 1045 12 329 54
682 95 797 11 30 62 126 114 212 117 194 200 343 301 536 43 83 120 230 172
327 156 296 195 412 237 706 37 253 120 668 162 802 33 106 37 129 44 295 10
206 12 223 81 478 83 311 79 364 -27 355 -80 -7 -173 -59 -272 -152 -183 -174
-233 -280 -312 -661 -33 -161 -93 -390 -135 -520 -26 -81 -134 -295 -147 -295
-5 0 -8 33 -8 73 -1 160 -20 455 -45 692 -26 243 -27 264 -23 785 4 740 -21
1400 -62 1598 -36 175 -82 242 -170 242 -94 0 -136 -69 -165 -267 -28 -197
-35 -325 -35 -623 0 -200 -5 -333 -15 -410 -8 -63 -19 -212 -24 -330 -24 -485
-32 -562 -62 -621 -20 -39 -20 -39 -49 -24 -16 9 -36 25 -44 38 -39 60 -41 97
-41 632 0 438 -3 540 -18 650 -22 165 -47 556 -47 745 0 275 -29 556 -66 645
-25 62 -63 105 -108 126 -52 24 -82 24 -126 1z"/>
<path d="M5100 8232 c0 -5 22 -8 50 -8 27 1 50 4 50 9 0 4 -22 7 -50 7 -27 0
-50 -4 -50 -8z"/>
<path d="M5063 8183 c-13 -2 -23 -11 -23 -20 0 -11 6 -13 23 -8 12 4 52 9 89
12 37 3 65 9 62 14 -5 9 -109 10 -151 2z"/>
<path d="M5085 8139 c-11 -17 0 -20 21 -4 17 13 17 14 2 15 -9 0 -20 -5 -23
-11z"/>
<path d="M4448 7927 c8 -9 28 -19 45 -23 18 -3 45 -13 60 -21 16 -8 31 -12 35
-9 10 11 -30 45 -62 51 -97 19 -92 19 -78 2z"/>
<path d="M5840 7673 c-25 -3 -49 -9 -55 -15 -7 -7 4 -9 39 -4 27 3 57 6 68 6
11 0 16 5 13 10 -3 6 -9 9 -13 8 -4 -1 -27 -3 -52 -5z"/>
<path d="M5785 7623 c-20 -15 -19 -15 5 -9 14 3 34 6 45 6 17 0 17 2 5 10 -21
13 -32 12 -55 -7z"/>
<path d="M5136 7241 c-61 -5 -67 -8 -53 -20 14 -11 31 -11 88 -3 39 6 77 8 85
5 7 -3 20 1 27 9 12 12 7 14 -32 14 -25 0 -77 -2 -115 -5z"/>
<path d="M3788 7209 c-20 -13 9 -18 65 -12 31 3 54 10 51 15 -6 9 -99 7 -116
-3z"/>
<path d="M5199 7173 c-12 -15 -12 -16 4 -10 10 4 32 7 48 7 18 0 28 4 24 10
-10 16 -61 11 -76 -7z"/>
<path d="M5108 7163 c12 -2 30 -2 40 0 9 3 -1 5 -23 4 -22 0 -30 -2 -17 -4z"/>
<path d="M4435 7064 c13 -10 33 -13 61 -8 31 4 54 0 89 -15 51 -23 66 -21 45
4 -18 22 -76 35 -150 34 -58 -1 -62 -3 -45 -15z"/>
<path d="M4521 7006 c11 -9 90 -16 84 -6 -3 5 -25 10 -47 10 -23 0 -39 -2 -37
-4z"/>
<path d="M5753 6961 c-52 -16 -70 -31 -35 -31 9 0 39 7 66 15 27 8 68 15 90
15 30 0 37 3 26 10 -22 14 -87 10 -147 -9z"/>
<path d="M5875 6940 c11 -5 27 -9 35 -9 13 -1 13 0 0 9 -8 5 -24 9 -35 9 l-20
0 20 -9z"/>
<path d="M5820 6912 c0 -4 16 -6 35 -4 19 2 35 6 35 8 0 2 -16 4 -35 4 -19 0
-35 -4 -35 -8z"/>
<path d="M5738 6883 c6 -2 18 -2 25 0 6 3 1 5 -13 5 -14 0 -19 -2 -12 -5z"/>
<path d="M3800 6603 c0 -11 69 -23 126 -23 18 0 36 -4 39 -10 8 -13 25 -13 25
0 0 17 -34 28 -112 35 -49 5 -78 4 -78 -2z"/>
<path d="M3815 6550 c-8 -13 15 -13 35 0 12 8 11 10 -7 10 -12 0 -25 -4 -28
-10z"/>
<path d="M3848 6513 c7 -3 16 -2 19 1 4 3 -2 6 -13 5 -11 0 -14 -3 -6 -6z"/>
<path d="M5228 6255 c-3 -3 -37 -9 -77 -14 -40 -5 -75 -12 -79 -15 -13 -13 7
-15 73 -5 39 6 100 10 138 10 66 0 88 11 45 23 -28 7 -93 8 -100 1z"/>
<path d="M5674 6178 c-7 -11 6 -12 118 -13 54 0 98 3 98 8 0 8 -16 10 -128 11
-46 1 -86 -2 -88 -6z"/>
<path d="M4604 6145 c-66 -15 -174 -62 -174 -76 0 -14 18 -11 68 14 47 24 134
45 207 52 22 1 45 3 50 4 6 1 3 6 -5 11 -20 13 -71 11 -146 -5z"/>
<path d="M3984 5851 c-64 -37 -169 -151 -139 -151 3 0 33 29 68 65 46 49 77
72 122 90 51 21 55 25 30 25 -16 0 -53 -13 -81 -29z"/>
<path d="M5106 5767 c-90 -188 -330 -359 -792 -560 -188 -83 -318 -146 -312
-152 6 -7 413 175 575 256 179 89 305 172 401 263 85 81 123 132 152 206 33
83 19 76 -24 -13z"/>
<path d="M6560 5740 c-42 -9 -40 -10 24 -14 32 -3 44 -1 35 5 -9 6 1 8 29 5
23 -3 42 -1 42 5 0 10 -78 10 -130 -1z"/>
<path d="M5504 5679 c-21 -22 -78 -70 -126 -107 -48 -36 -85 -68 -83 -71 3 -2
35 16 73 42 68 47 190 162 181 172 -3 2 -23 -14 -45 -36z"/>
<path d="M6572 5693 c-42 -8 -14 -18 40 -14 39 3 48 6 33 12 -22 8 -37 9 -73
2z"/>
<path d="M5802 5425 c-125 -60 -239 -151 -296 -235 -28 -42 -18 -45 13 -4 61
83 166 166 283 225 43 22 78 41 78 44 0 8 -1 7 -78 -30z"/>
<path d="M5070 5295 c0 -107 -14 -246 -30 -306 -23 -84 -123 -149 -231 -149
-59 0 -111 -17 -89 -29 8 -5 43 -11 76 -14 102 -8 194 -60 230 -129 21 -40 42
-177 50 -327 4 -79 10 -127 15 -118 8 13 12 49 39 301 20 186 89 247 315 275
35 4 51 11 53 22 3 15 -8 16 -85 12 -74 -4 -97 -2 -146 17 -122 46 -136 75
-162 345 -18 191 -35 238 -35 100z m30 -310 c0 -24 45 -108 72 -132 12 -12 36
-28 52 -37 l28 -14 -38 -20 c-62 -32 -84 -61 -118 -157 -6 -16 -11 -10 -25 32
-22 65 -64 120 -107 140 -35 17 -45 33 -20 33 27 0 115 90 127 131 12 39 29
53 29 24z"/>
<path d="M5729 4723 c-124 -126 -234 -275 -301 -406 -40 -80 -113 -285 -105
-294 3 -2 15 26 27 64 35 107 143 319 217 423 38 52 119 148 182 212 63 65
110 118 105 118 -5 0 -61 -53 -125 -117z"/>
<path d="M4470 4746 c0 -2 28 -51 62 -108 100 -168 234 -438 267 -539 16 -52
30 -85 31 -74 1 45 -58 199 -136 355 -92 185 -200 370 -214 370 -6 0 -10 -2
-10 -4z"/>
<path d="M5068 3811 c-5 -35 -7 -152 -6 -260 l1 -196 9 210 c4 116 7 233 6
260 l-3 50 -7 -64z"/>
<path d="M5695 3055 c-86 -29 -230 -33 -336 -9 -87 20 -102 11 -23 -12 91 -28
270 -26 354 4 62 21 106 43 85 41 -5 -1 -41 -12 -80 -24z"/>
<path d="M4257 3027 c25 -27 99 -63 170 -81 61 -16 183 -20 215 -8 10 4 -22 7
-70 7 -93 0 -162 19 -275 74 -46 22 -54 24 -40 8z"/>
<path d="M4363 2885 c39 -35 145 -65 231 -65 39 0 78 5 86 10 10 6 -4 7 -40 3
-72 -7 -159 10 -240 47 -63 29 -64 29 -37 5z"/>
<path d="M3114 2838 c-49 -16 -125 -79 -147 -121 -27 -53 -33 -117 -13 -154
21 -41 62 -73 95 -73 53 0 131 70 117 105 -11 29 -53 17 -88 -25 -39 -50 -65
-50 -92 0 -15 29 -17 46 -12 85 21 136 224 210 373 135 166 -83 247 -242 247
-485 -1 -104 -6 -161 -40 -418 -25 -191 -16 -187 27 14 29 128 32 166 37 350
5 225 -2 268 -55 373 -36 71 -122 157 -190 191 -48 24 -73 29 -143 31 -47 2
-99 -2 -116 -8z"/>
<path d="M6885 2826 c-89 -28 -156 -82 -220 -179 -67 -101 -80 -153 -79 -322
0 -157 19 -287 69 -485 13 -52 31 -147 39 -210 23 -172 25 -176 21 -40 -3 71
-11 149 -20 180 -37 126 -85 454 -85 570 1 244 154 450 347 467 111 10 200
-22 255 -93 18 -22 23 -41 23 -87 0 -52 -3 -62 -28 -83 -38 -33 -54 -30 -71
10 -8 19 -26 42 -41 52 -24 16 -27 16 -43 1 -36 -37 34 -117 104 -117 74 0
128 93 104 181 -17 63 -89 132 -159 153 -64 19 -160 20 -216 2z"/>
<path d="M5074 2818 c-4 -6 -9 -226 -10 -487 l-2 -476 8 377 c4 207 11 427 15
487 6 107 5 125 -11 99z"/>
<path d="M3154 2762 c-52 -18 -109 -50 -102 -58 2 -2 23 6 45 17 61 30 142 36
200 14 98 -38 161 -121 214 -285 22 -68 28 -78 28 -50 0 58 -32 163 -69 225
-42 69 -105 120 -173 140 -64 19 -80 18 -143 -3z"/>
<path d="M6889 2746 c-139 -37 -231 -189 -227 -376 0 -41 3 -61 5 -45 10 73
45 199 67 242 27 55 84 116 126 138 74 38 219 25 283 -26 15 -11 27 -16 27
-10 0 20 -81 70 -131 80 -62 14 -92 13 -150 -3z"/>
<path d="M3289 2258 c-15 -12 -39 -50 -39 -62 0 -3 10 -6 23 -6 31 0 124 -55
139 -83 7 -12 21 -40 30 -62 11 -27 17 -33 17 -19 1 11 -11 45 -26 75 -24 47
-36 58 -90 85 -47 23 -59 34 -51 42 20 20 52 14 94 -17 78 -58 114 -165 114
-341 0 -59 -3 -80 -10 -70 -12 18 -12 -312 0 -350 4 -15 10 54 13 165 3 105
10 224 15 265 26 193 -54 375 -170 386 -26 3 -49 0 -59 -8z"/>
<path d="M6820 2248 c-42 -29 -96 -117 -110 -180 -11 -54 -12 -219 -1 -258 5
-16 10 17 15 92 4 64 13 139 22 167 18 63 69 130 116 156 31 17 40 17 65 6
l28 -13 -49 -19 c-65 -24 -102 -61 -126 -126 -32 -85 -23 -92 16 -13 29 57 46
78 82 101 25 16 56 29 69 29 29 0 29 19 2 54 -27 34 -82 35 -129 4z"/>
<path d="M3775 2094 c-16 -8 -38 -23 -49 -32 -28 -26 -92 -139 -125 -223 -27
-68 -39 -125 -83 -389 -25 -156 13 -356 95 -502 57 -98 84 -126 44 -43 -40 82
-71 175 -88 262 -11 61 -8 258 5 313 4 16 -1 11 -12 -12 -35 -72 -35 -69 3
128 30 151 45 195 107 316 56 111 110 168 158 168 23 0 30 -4 30 -20 0 -13 -7
-20 -20 -20 -47 0 -131 -116 -175 -241 -26 -72 -9 -55 41 43 34 66 65 110 107
150 48 47 58 62 55 85 -2 23 -8 28 -33 31 -16 1 -43 -5 -60 -14z"/>
<path d="M6330 2071 c0 -24 10 -40 46 -73 54 -49 123 -144 170 -232 51 -94 40
-39 -13 64 -48 95 -120 186 -158 200 -12 5 -25 18 -28 30 -5 19 -3 21 26 14
47 -10 64 -23 114 -89 88 -114 152 -286 172 -458 l8 -72 2 75 c3 165 -81 398
-182 506 -48 52 -57 57 -105 62 l-52 5 0 -32z"/>
<path d="M2995 1690 c-53 -24 -100 -76 -115 -126 -10 -34 -10 -51 4 -97 28
-98 104 -136 149 -75 17 23 19 31 9 53 -14 31 -36 28 -40 -3 -5 -35 -37 -47
-61 -23 -53 53 -51 155 4 207 62 58 146 66 245 23 102 -45 235 -225 275 -372
12 -44 14 -47 14 -20 1 54 -44 178 -94 259 -49 79 -118 142 -190 175 -52 24
-147 24 -200 -1z"/>
<path d="M3809 1696 c-106 -38 -182 -117 -203 -211 -5 -22 1 -16 24 24 17 30
38 63 47 73 33 36 122 79 176 85 46 5 57 2 81 -19 23 -19 30 -35 34 -76 4 -47
2 -54 -26 -81 -18 -19 -53 -37 -91 -48 -33 -10 -61 -21 -61 -24 0 -14 52 -19
89 -9 78 21 121 76 121 155 0 117 -79 171 -191 131z"/>
<path d="M7033 1696 c-61 -20 -107 -51 -158 -108 -54 -60 -121 -193 -134 -263
-9 -51 -7 -73 5 -39 40 124 114 246 189 312 112 98 295 95 362 -7 28 -41 29
-82 4 -138 -27 -59 -81 -72 -81 -18 0 12 -6 25 -14 28 -35 14 -50 -57 -18 -86
32 -29 76 -21 110 18 35 39 47 85 39 152 -6 59 -31 91 -96 127 -62 33 -146 43
-208 22z"/>
<path d="M6259 1677 c-43 -28 -65 -87 -55 -142 13 -69 109 -136 172 -121 37
10 29 22 -22 35 -59 15 -91 37 -110 73 -20 39 -10 81 28 113 84 71 272 -22
323 -160 22 -60 39 -83 30 -40 -14 63 -66 154 -111 194 -80 70 -191 91 -255
48z"/>
<path d="M3030 1597 c-24 -13 -46 -29 -48 -35 -2 -8 10 -5 30 8 43 26 107 26
160 -1 54 -28 139 -109 179 -170 35 -55 43 -61 28 -22 -33 89 -111 175 -194
214 -73 35 -99 36 -155 6z"/>
<path d="M7050 1606 c-90 -24 -157 -84 -200 -177 -30 -68 -23 -80 11 -19 63
114 141 170 249 177 55 4 73 1 113 -20 49 -25 61 -22 28 7 -21 19 -102 46
-135 45 -12 0 -41 -6 -66 -13z"/>
<path d="M6345 1600 c3 -5 14 -10 23 -10 34 0 120 -48 142 -80 46 -64 69 -156
71 -275 l1 -110 14 55 c45 171 -39 376 -169 415 -58 17 -91 19 -82 5z"/>
<path d="M3732 1573 c-79 -39 -122 -142 -122 -293 0 -55 3 -100 8 -100 4 0 7
37 7 83 1 59 7 101 24 150 27 80 83 146 124 148 43 2 47 3 50 14 4 17 -56 16
-91 -2z"/>
<path d="M6681 1429 c-1 -53 -4 -99 -8 -103 -4 -4 -13 14 -20 41 l-12 48 7
-60 c10 -88 5 -139 -22 -246 -37 -145 -115 -289 -222 -408 -31 -35 -41 -50
-26 -42 92 49 233 272 298 471 24 76 27 99 27 215 0 72 -5 141 -11 155 -9 20
-11 6 -11 -71z"/>
<path d="M3205 1110 c-11 -4 -31 -20 -45 -35 -35 -37 -35 -112 -1 -149 37 -40
61 -35 61 12 0 52 27 77 75 69 56 -9 135 -49 198 -100 68 -56 75 -47 12 15
-63 62 -134 99 -204 105 -54 5 -59 4 -79 -22 -12 -15 -22 -42 -22 -58 0 -28
-2 -30 -15 -16 -9 8 -18 32 -22 52 -5 31 -1 40 26 68 31 30 35 31 91 26 112
-10 263 -116 383 -270 65 -83 129 -147 147 -147 6 0 -8 19 -30 41 -22 23 -64
74 -94 113 -89 118 -147 177 -225 228 -103 67 -198 93 -256 68z"/>
<path d="M6823 1081 c-106 -51 -181 -108 -219 -168 -20 -30 -33 -57 -30 -60 3
-3 11 7 18 21 15 34 147 134 221 170 77 36 153 43 193 18 36 -23 49 -67 33
-110 l-11 -27 -13 40 c-8 22 -22 45 -32 52 -23 17 -78 16 -139 -2 -50 -15
-175 -95 -204 -130 -18 -23 -18 -23 89 47 73 47 108 61 187 74 55 8 84 -18 84
-76 0 -46 11 -50 45 -15 20 19 25 34 25 75 0 28 -5 60 -10 71 -31 56 -140 65
-237 20z"/>
<path d="M3928 1074 c-74 -40 -90 -183 -34 -299 22 -43 64 -94 153 -185 67
-69 123 -120 123 -114 0 7 -48 63 -106 125 -117 125 -163 201 -171 285 -7 66
0 94 33 133 30 36 69 41 114 14 l29 -17 -46 -15 c-66 -23 -88 -57 -87 -134 0
-40 7 -74 19 -97 21 -40 77 -112 82 -106 2 2 -12 31 -32 64 -74 127 -60 236
34 259 54 12 59 35 18 81 -24 26 -87 30 -129 6z"/>
<path d="M6116 1068 c-14 -13 -28 -35 -32 -50 -5 -23 -3 -28 12 -28 47 0 94
-22 109 -50 26 -50 19 -93 -35 -197 -44 -85 -46 -93 -20 -63 17 19 44 63 61
97 27 54 31 70 27 119 -4 47 -10 62 -32 81 -15 13 -37 23 -49 23 -12 0 -28 4
-36 9 -11 7 -9 13 9 31 18 18 30 21 57 17 65 -11 93 -58 93 -157 0 -100 -26
-145 -176 -300 -50 -52 -99 -111 -108 -130 l-16 -35 22 30 c13 16 77 84 144
150 146 145 169 184 168 295 0 83 -16 124 -60 159 -37 29 -105 28 -138 -1z"/>
<path d="M3656 983 c53 -143 137 -250 301 -386 43 -36 121 -110 173 -164 52
-55 106 -106 120 -113 43 -23 -142 171 -249 260 -127 106 -265 278 -335 418
-14 28 -28 52 -31 52 -3 0 7 -30 21 -67z"/>
<path d="M3587 679 c-184 -43 -281 -240 -169 -342 25 -23 79 -32 114 -18 36
13 56 47 64 104 6 38 4 47 -8 47 -15 0 -28 -24 -43 -78 -4 -12 -17 -30 -31
-38 -22 -15 -26 -15 -49 0 -95 62 -60 204 67 269 81 42 160 47 230 14 76 -34
154 -86 213 -142 54 -51 51 -51 -39 7 -81 52 -156 78 -245 85 -93 7 -154 -8
-193 -47 -23 -24 -28 -36 -27 -77 l1 -48 14 42 c21 59 57 91 111 99 78 11 183
-1 246 -29 75 -34 208 -116 225 -139 22 -30 34 -20 15 13 -26 44 -219 217
-273 244 -25 13 -72 28 -105 34 -66 12 -66 12 -118 0z"/>
<path d="M6440 666 c-76 -28 -140 -67 -191 -117 l-54 -51 50 36 c28 20 79 53
115 74 64 36 67 37 170 37 93 0 111 -3 154 -25 27 -14 62 -42 79 -62 26 -32
30 -46 31 -99 1 -55 -2 -63 -27 -85 -16 -13 -36 -24 -45 -24 -30 0 -61 29 -73
70 -12 38 -39 56 -39 25 0 -30 33 -94 55 -109 51 -33 124 -14 150 39 50 107
-27 251 -156 289 -63 19 -170 20 -219 2z"/>
<path d="M6415 576 c-27 -7 -83 -29 -122 -49 -40 -20 -77 -37 -83 -37 -22 0
-82 -54 -128 -114 l-46 -61 60 56 c66 62 205 142 296 170 60 19 158 25 216 13
38 -8 110 -68 123 -102 5 -14 12 -22 16 -19 3 4 -2 27 -11 52 -26 67 -83 98
-190 102 -45 1 -103 -3 -131 -11z"/>
<path d="M4433 500 c-34 -14 -66 -86 -67 -151 -2 -107 96 -223 252 -301 45
-23 85 -39 88 -36 3 3 -15 16 -40 29 -79 39 -178 122 -220 184 -39 56 -41 64
-41 132 0 62 3 75 24 97 47 50 76 25 38 -32 -31 -48 -40 -77 -31 -104 6 -19 8
-17 19 16 8 21 25 50 39 65 27 29 33 60 16 92 -11 20 -40 24 -77 9z"/>
<path d="M3898 360 c-32 -24 -34 -45 -14 -95 10 -24 22 -35 35 -35 23 0 26 12
11 41 -10 17 -7 19 22 19 18 0 70 -13 115 -28 88 -30 95 -18 10 18 -31 14 -74
23 -109 24 -46 1 -58 4 -58 17 0 51 135 15 278 -73 60 -36 117 -84 182 -151
52 -53 103 -97 112 -97 24 0 -169 185 -277 264 -110 81 -165 108 -230 114 -40
3 -55 0 -77 -18z"/>
<path d="M6140 357 c-30 -12 -81 -41 -112 -62 -66 -47 -340 -286 -334 -293 6
-5 79 52 174 135 133 116 273 197 359 208 38 6 52 4 62 -9 20 -24 7 -50 -18
-36 -44 23 -151 -3 -221 -55 -44 -33 -36 -32 44 6 45 21 84 32 119 33 l52 1
-3 -32 c-3 -27 0 -33 17 -33 43 0 69 92 37 135 -21 30 -109 31 -176 2z"/>
<path d="M4778 324 c-35 -19 -48 -43 -48 -92 0 -33 6 -45 31 -66 37 -31 79
-33 105 -5 14 15 16 24 8 37 -17 26 -45 27 -51 3 -7 -26 -15 -26 -36 -3 -22
24 -21 54 2 83 40 49 151 21 198 -51 50 -74 19 -167 -72 -214 l-30 -16 36 0
c103 0 154 155 86 259 -46 70 -161 102 -229 65z"/>
<path d="M5270 324 c-75 -33 -110 -86 -110 -169 0 -62 9 -86 48 -127 19 -21
35 -28 61 -28 l36 0 -39 24 c-69 41 -103 124 -75 179 50 98 168 135 219 70 25
-33 25 -58 0 -83 -25 -25 -40 -25 -40 -1 0 11 -4 22 -9 25 -17 11 -41 -6 -41
-28 0 -78 131 -52 145 29 7 38 -21 95 -55 112 -34 17 -97 16 -140 -3z"/>
<path d="M4240 272 c24 -32 71 -70 69 -55 0 5 -22 26 -47 48 -44 39 -45 39
-22 7z"/>
</g></svg>