<svg xmlns="http://www.w3.org/2000/svg" viewBox="0 0 397.596755 964.828119" color="#C8A848"><rect width="397.596755" height="964.828119" fill="#1A0A24"/><g transform="translate(-309.577736,1000.517411) scale(0.100000,-0.100000)"
fill="currentColor" stroke="none">
<path d="M5558 9830 c-4 -25 -15 -130 -23 -234 -18 -203 -48 -348 -87 -417
-37 -67 -66 -78 -259 -99 -94 -10 -174 -21 -177 -24 -3 -3 3 -6 14 -6 103 -2
335 -30 361 -43 91 -47 130 -187 157 -559 14 -194 15 -191 40 102 19 217 35
305 73 379 41 80 62 89 250 106 87 8 167 15 178 15 11 0 15 3 10 9 -6 5 -75
14 -155 21 -210 17 -238 29 -280 118 -42 88 -82 357 -93 612 -2 64 -2 65 -9
20z m12 -418 c0 -27 9 -83 19 -125 32 -123 71 -184 136 -212 l29 -13 -34 -15
c-74 -31 -121 -112 -141 -238 -6 -41 -15 -85 -19 -99 -7 -21 -9 -18 -9 18 -1
69 -29 173 -61 229 -22 39 -44 61 -83 83 -41 24 -47 30 -28 30 37 0 104 75
131 145 12 33 27 102 33 153 12 99 27 123 27 44z"/>
<path d="M4184 9335 c-4 -9 -2 -21 4 -27 15 -15 44 -1 40 19 -4 23 -36 29 -44
8z"/>
<path d="M6224 8425 c-4 -9 -2 -21 4 -27 15 -15 44 -1 40 19 -4 23 -36 29 -44
8z"/>
<path d="M4971 8178 c-27 -57 -74 -168 -104 -248 -87 -228 -285 -679 -381
-864 l-88 -169 -9 -161 c-4 -89 -17 -228 -28 -311 -11 -82 -29 -224 -41 -315
-11 -91 -35 -232 -52 -313 -31 -147 -32 -150 -20 -265 7 -65 34 -241 62 -392
61 -335 81 -480 120 -855 82 -797 83 -868 33 -1245 -21 -156 -23 -426 -4 -657
11 -141 12 -232 2 -495 -17 -485 -13 -636 15 -645 14 -5 19 90 34 632 8 289 8
403 -2 520 -20 234 -16 510 10 709 39 290 31 512 -43 1241 -34 332 -50 446
-95 700 -44 245 -75 438 -85 532 -6 50 0 98 29 245 20 101 43 239 51 308 8 69
24 193 35 275 11 83 23 211 26 285 3 74 13 160 21 190 8 30 45 111 83 180 62
114 136 271 170 360 7 19 52 125 100 235 48 110 104 245 125 300 104 283 101
276 114 262 32 -39 54 -133 52 -226 -1 -119 -40 -299 -62 -286 -5 4 -6 0 -3
-8 3 -8 -20 -79 -51 -158 -31 -79 -67 -184 -81 -234 -26 -91 -105 -269 -146
-328 -17 -24 -18 -28 -4 -18 30 24 132 240 160 338 14 51 58 172 97 270 81
205 98 269 100 373 1 67 2 71 10 35 15 -73 -10 -238 -54 -355 -14 -36 -48
-112 -75 -170 -28 -58 -65 -157 -82 -220 -18 -63 -54 -162 -80 -220 -26 -58
-53 -123 -59 -145 -6 -22 -14 -123 -17 -225 -3 -102 -12 -221 -19 -265 -33
-199 -29 -272 25 -434 l29 -86 -26 30 c-27 32 -22 18 10 -29 53 -76 184 -395
187 -454 0 -1 -32 32 -71 73 -39 41 -75 75 -78 75 -4 0 19 -27 51 -60 55 -57
122 -149 114 -158 -2 -2 -32 18 -65 44 -34 26 -63 45 -66 43 -4 -5 101 -90
120 -98 6 -2 15 -11 22 -20 24 -31 13 -32 -24 -4 -21 16 -56 40 -78 52 l-40
23 30 -24 c186 -145 191 -172 13 -61 -21 13 -38 19 -38 14 0 -5 39 -34 88 -65
57 -36 110 -81 155 -131 38 -41 86 -85 108 -98 42 -24 45 -29 26 -45 -10 -8
-26 -3 -65 19 -29 16 -50 34 -47 39 4 6 0 10 -8 10 -9 0 -34 16 -58 36 -47 39
-139 89 -139 76 0 -5 26 -23 58 -40 31 -17 77 -49 102 -72 25 -23 59 -49 75
-58 l30 -16 -59 -10 c-37 -5 -79 -5 -112 1 -70 12 -60 -2 12 -17 40 -8 63 -9
86 -1 40 14 50 14 73 -3 17 -13 16 -16 -28 -72 -72 -92 -129 -236 -126 -322 0
-17 11 5 28 58 37 114 61 158 133 243 101 121 171 236 287 469 122 247 162
346 222 545 69 232 91 277 189 380 69 72 180 117 212 85 24 -24 20 -95 -10
-177 -16 -44 -39 -136 -51 -205 -39 -225 -48 -255 -141 -510 -62 -170 -141
-479 -154 -600 -3 -30 -8 -197 -11 -370 -5 -318 -12 -412 -40 -575 -38 -220
-105 -428 -179 -555 -50 -86 -85 -166 -113 -255 -16 -53 -18 -92 -16 -332 2
-289 11 -389 64 -705 49 -299 133 -673 159 -716 8 -14 9 -12 5 8 -21 100 -167
1058 -175 1150 -13 152 -13 433 1 522 15 95 40 166 93 257 59 102 89 177 148
361 79 250 87 315 98 765 5 215 15 424 21 465 24 167 98 438 193 710 30 86 57
177 61 204 9 55 16 60 115 70 107 12 188 36 249 76 88 57 138 133 126 190 -6
27 -6 27 -80 22 -40 -2 -130 -1 -199 3 l-127 7 8 37 c30 140 -22 237 -115 211
-64 -17 -138 -67 -193 -129 -47 -54 -57 -60 -103 -66 -28 -4 -125 -25 -216
-46 -201 -47 -219 -58 -313 -194 l-69 -100 6 55 c8 62 35 114 145 275 129 190
128 189 288 266 78 38 184 81 235 95 271 74 475 163 556 242 92 90 140 195
112 247 -18 33 -13 34 -241 -44 -158 -54 -274 -82 -594 -145 -65 -13 -228 -80
-390 -161 -38 -19 -70 -33 -72 -32 -1 2 30 30 70 63 69 58 292 291 369 386 21
25 95 93 165 150 185 151 271 261 334 422 25 63 33 102 37 173 4 86 3 95 -19
128 -13 19 -26 35 -29 35 -3 0 -18 -19 -35 -42 -88 -125 -334 -349 -532 -485
-99 -68 -354 -297 -617 -555 -60 -59 -112 -106 -114 -103 -5 5 26 96 72 207
20 47 52 139 72 205 20 65 60 170 89 233 130 282 154 481 85 704 -19 60 -66
126 -91 126 -5 0 -31 -46 -58 -102z m1136 -345 c-3 -49 -15 -117 -26 -153 -46
-146 -188 -323 -356 -443 -107 -76 -103 -72 -166 -152 -31 -38 -150 -164 -264
-279 -233 -235 -236 -240 -285 -427 -31 -122 -51 -184 -125 -379 -36 -98 -45
-132 -40 -160 11 -60 -11 -22 -39 67 -56 180 -67 272 -46 384 16 83 40 298 40
358 0 48 5 60 40 106 22 29 84 92 137 141 54 49 170 159 258 244 183 178 225
214 351 298 185 123 389 309 468 425 22 31 44 57 49 57 6 0 8 -33 4 -87z m333
-855 c-1 -69 -78 -174 -170 -233 -88 -57 -320 -143 -485 -180 -96 -22 -361
-152 -407 -199 -71 -73 -322 -461 -334 -515 -3 -14 6 -3 19 24 l25 50 1 -55
c1 -30 -4 -84 -10 -120 -6 -36 -12 -93 -14 -127 -2 -34 -13 -96 -24 -137 -12
-42 -21 -86 -21 -98 l0 -22 16 22 c29 42 73 191 80 274 6 73 11 88 39 123 18
22 60 82 94 133 67 100 97 124 175 142 191 44 255 59 284 64 l32 6 -24 -48
c-13 -26 -34 -81 -47 -122 -12 -41 -26 -79 -30 -84 -8 -10 -130 -36 -140 -30
-17 10 -77 -84 -161 -255 -84 -168 -91 -188 -89 -236 1 -29 -3 -56 -8 -60 -6
-3 -16 -16 -22 -28 -12 -22 -12 -22 13 1 l25 23 7 -53 c4 -29 14 -74 22 -100
14 -44 14 -49 -6 -88 l-21 -41 -38 30 c-42 33 -103 98 -142 151 -25 33 -56
118 -94 255 -9 33 -41 122 -71 198 l-55 138 76 202 c41 111 91 265 110 341 57
224 54 220 281 325 230 106 276 121 449 152 260 47 511 119 605 173 55 32 60
32 60 4z m59 -926 c-16 -48 -67 -100 -132 -136 -66 -36 -119 -50 -235 -62 -62
-6 -72 -4 -67 8 5 12 25 15 88 15 82 0 161 15 172 33 3 5 -13 3 -36 -5 -25 -9
-78 -15 -130 -15 -102 0 -98 -7 -70 105 l17 70 164 -3 c95 -2 176 1 190 7 43
17 50 14 39 -17z m-890 -284 c-42 -139 -64 -192 -172 -411 -127 -259 -123
-257 -134 -65 -7 127 -4 139 100 333 93 176 100 182 218 204 4 0 -2 -27 -12
-61z m-399 -832 c0 -11 -19 -15 -25 -6 -3 5 1 10 9 10 9 0 16 -2 16 -4z"/>
<path d="M6037 7646 c-60 -131 -210 -328 -238 -311 -5 4 -44 -24 -87 -62 -42
-37 -88 -76 -102 -86 -16 -12 -10 -10 17 4 23 12 55 34 72 49 16 15 32 26 34
24 8 -8 159 129 202 184 48 61 140 233 134 250 -2 5 -17 -18 -32 -52z m-242
-326 c-3 -5 -20 -19 -38 -31 l-32 -22 29 31 c28 30 55 44 41 22z"/>
<path d="M5554 7148 l-19 -23 23 19 c21 18 27 26 19 26 -2 0 -12 -10 -23 -22z"/>
<path d="M5322 6866 c-26 -25 -44 -47 -41 -50 3 -3 27 17 54 44 61 62 51 66
-13 6z"/>
<path d="M5149 6753 c-13 -16 -12 -17 4 -4 9 7 17 15 17 17 0 8 -8 3 -21 -13z"/>
<path d="M5112 6703 c-44 -63 -162 -347 -149 -360 3 -2 23 50 47 116 23 66 62
154 85 196 44 77 51 95 17 48z"/>
<path d="M5039 6623 c-13 -16 -12 -17 4 -4 16 13 21 21 13 21 -2 0 -10 -8 -17
-17z"/>
<path d="M4835 6010 c-9 -16 -13 -30 -11 -30 3 0 12 14 21 30 9 17 13 30 11
30 -3 0 -12 -13 -21 -30z"/>
<path d="M6305 6794 c-37 -29 -148 -77 -254 -110 -125 -39 -113 -45 15 -9 101
29 221 84 249 115 22 24 18 25 -10 4z"/>
<path d="M5918 6643 c7 -3 16 -2 19 1 4 3 -2 6 -13 5 -11 0 -14 -3 -6 -6z"/>
<path d="M5855 6630 c-13 -5 -14 -9 -5 -9 8 0 24 4 35 9 13 5 14 9 5 9 -8 0
-24 -4 -35 -9z"/>
<path d="M5721 6599 c-18 -6 -31 -12 -29 -14 2 -3 24 1 49 9 49 16 33 20 -20
5z"/>
<path d="M5620 6540 c-46 -25 -34 -25 21 0 24 11 37 19 29 19 -8 0 -31 -8 -50
-19z"/>
<path d="M5132 6073 c-42 -62 -75 -123 -70 -128 2 -1 29 40 60 91 64 105 69
124 10 37z"/>
<path d="M5351 5680 c-17 -28 -31 -54 -31 -58 0 -8 35 41 56 81 24 45 8 30
-25 -23z"/>
<path d="M5036 5694 c-4 -14 -5 -28 -3 -31 3 -2 8 8 11 23 4 14 5 28 3 31 -3
2 -8 -8 -11 -23z"/>
<path d="M5021 5634 c0 -11 3 -14 6 -6 3 7 2 16 -1 19 -3 4 -6 -2 -5 -13z"/>
<path d="M5006 5584 c-4 -14 -5 -28 -3 -31 3 -2 8 8 11 23 4 14 5 28 3 31 -3
2 -8 -8 -11 -23z"/>
<path d="M5241 5479 c-17 -40 -30 -74 -28 -76 2 -2 18 29 36 68 18 39 30 73
28 75 -2 2 -18 -28 -36 -67z"/>
<path d="M5206 5347 c-36 -61 -33 -70 5 -13 17 26 29 49 26 52 -3 3 -17 -14
-31 -39z"/>
<path d="M5232 5205 c-17 -37 -14 -45 4 -12 9 16 14 31 11 33 -2 2 -9 -7 -15
-21z"/>
<path d="M5245 5125 c-9 -26 -15 -48 -13 -51 3 -2 13 16 23 41 9 26 15 48 13
51 -3 2 -13 -16 -23 -41z"/>
<path d="M5265 5090 c-4 -12 -5 -24 -2 -27 3 -2 8 5 12 17 4 12 5 24 2 27 -3
2 -8 -5 -12 -17z"/>
<path d="M4110 8255 c-10 -11 -10 -19 -2 -27 15 -15 44 -2 40 19 -4 23 -22 27
-38 8z"/>
<path d="M3777 7803 c-4 -3 -7 -35 -7 -69 0 -56 -3 -65 -26 -83 -18 -14 -41
-21 -70 -21 -61 0 -55 -16 8 -23 68 -8 82 -24 88 -100 3 -34 10 -62 15 -62 6
0 11 29 13 65 4 77 12 86 88 96 67 8 71 24 5 24 -72 0 -89 19 -97 105 -6 75
-7 79 -17 68z m27 -171 c15 -18 15 -20 -1 -35 -16 -14 -20 -14 -40 2 -20 17
-20 19 -5 35 21 20 25 20 46 -2z"/>
<path d="M4916 7435 c-3 -9 -6 -22 -5 -28 0 -7 5 -1 10 12 5 13 8 26 5 28 -2
2 -6 -3 -10 -12z"/>
<path d="M6880 7314 c-11 -12 -10 -18 3 -32 16 -15 18 -15 34 0 13 14 14 20 3
32 -7 9 -16 16 -20 16 -4 0 -13 -7 -20 -16z"/>
<path d="M4811 7023 c-10 -26 -10 -27 4 -9 8 11 15 23 15 28 0 15 -7 8 -19
-19z"/>
<path d="M4730 6890 c-11 -21 -19 -54 -19 -72 l1 -33 8 35 c4 19 14 52 23 73
21 49 13 48 -13 -3z"/>
<path d="M4702 6750 c0 -14 2 -19 5 -12 2 6 2 18 0 25 -3 6 -5 1 -5 -13z"/>
<path d="M3707 6744 c-4 -4 -7 -16 -7 -26 0 -14 6 -19 23 -16 14 2 22 10 22
23 0 20 -25 32 -38 19z"/>
<path d="M4731 6733 c-1 -6 -4 -20 -7 -30 -5 -17 -5 -17 6 0 6 10 9 23 6 30
-3 9 -5 9 -5 0z"/>
<path d="M4691 6704 c0 -11 3 -14 6 -6 3 7 2 16 -1 19 -3 4 -6 -2 -5 -13z"/>
<path d="M4686 6494 c-10 -31 -16 -58 -13 -60 2 -2 12 21 22 51 9 31 15 58 13
60 -2 3 -12 -20 -22 -51z"/>
<path d="M4683 6393 c-8 -21 -22 -50 -29 -65 -8 -16 -12 -28 -9 -28 5 0 41 67
55 105 15 40 1 29 -17 -12z"/>
<path d="M5940 5867 c0 -11 39 -87 45 -87 3 0 5 3 5 8 0 10 -49 89 -50 79z"/>
<path d="M4778 5785 c23 -33 48 -80 58 -105 19 -51 41 -80 29 -40 -15 51 -56
126 -91 165 l-36 40 40 -60z"/>
<path d="M4870 5546 c0 -2 8 -10 18 -17 15 -13 16 -12 3 4 -13 16 -21 21 -21
13z"/>
<path d="M4910 5216 c0 -3 9 -10 20 -16 11 -6 20 -8 20 -6 0 3 -9 10 -20 16
-11 6 -20 8 -20 6z"/>
<path d="M6474 5025 c-4 -9 -2 -21 4 -27 15 -15 44 -1 40 19 -4 23 -36 29 -44
8z"/>
<path d="M5105 4882 c-22 -20 -49 -48 -60 -62 -10 -14 9 2 43 35 34 33 62 61
62 62 0 7 -7 1 -45 -35z"/>
<path d="M5191 4799 c-6 -18 -11 -37 -10 -43 0 -6 7 7 15 28 8 22 12 41 10 43
-2 2 -9 -10 -15 -28z"/>
<path d="M5131 4706 c-25 -80 -46 -195 -37 -203 3 -4 6 5 6 18 1 13 14 74 29
134 32 124 33 151 2 51z"/>
<path d="M5667 4683 c-31 -49 -59 -103 -53 -103 2 0 22 32 45 70 42 74 48 96
8 33z"/>
<path d="M5677 4598 c-35 -62 -61 -115 -49 -103 13 14 85 145 79 145 -3 0 -16
-19 -30 -42z"/>
<path d="M5642 4438 c-50 -75 -55 -85 -25 -52 33 36 101 144 91 144 -2 0 -32
-42 -66 -92z"/>
<path d="M5632 4327 c-23 -40 -33 -61 -21 -47 27 31 73 110 67 115 -2 2 -22
-29 -46 -68z"/>
<path d="M5638 4243 c-30 -46 -50 -83 -45 -83 7 0 79 112 74 116 -2 2 -15 -13
-29 -33z"/>
<path d="M5653 4188 c-15 -18 -35 -58 -29 -58 2 0 13 16 25 35 20 35 22 46 4
23z"/>
<path d="M3676 4014 c-8 -21 1 -34 24 -34 22 0 33 23 17 39 -16 16 -34 14 -41
-5z"/>
<path d="M6440 3790 c0 -16 5 -21 23 -18 12 2 22 10 22 18 0 8 -10 16 -22 18
-18 3 -23 -2 -23 -18z"/>
<path d="M5574 3718 c-63 -70 -77 -91 -31 -48 42 39 75 80 64 80 -2 0 -16 -15
-33 -32z"/>
<path d="M5534 3578 l-29 -33 33 29 c17 17 32 31 32 33 0 8 -8 1 -36 -29z"/>
<path d="M5357 3168 c-43 -39 -82 -80 -88 -92 -6 -11 9 -1 33 24 23 25 65 64
93 87 27 23 47 44 45 47 -3 2 -40 -27 -83 -66z"/>
<path d="M6468 3208 c-77 -45 -89 -139 -33 -256 19 -40 53 -104 75 -142 54
-93 114 -247 134 -343 22 -103 22 -257 1 -338 -41 -156 -160 -405 -244 -509
-30 -37 -216 -246 -268 -300 -8 -8 -1 13 16 46 74 150 94 236 80 346 -14 112
-71 220 -101 190 -9 -9 -6 -17 11 -36 33 -35 61 -136 61 -218 0 -57 -7 -87
-36 -162 -80 -201 -152 -296 -309 -405 -93 -65 -334 -180 -475 -226 -80 -26
-157 -54 -173 -62 -26 -13 -30 -12 -88 33 -42 32 -59 51 -55 63 2 9 21 56 41
105 51 121 55 182 22 288 -15 46 -38 100 -53 121 -24 36 -27 37 -47 24 -47
-31 -107 -178 -107 -263 0 -52 30 -148 70 -222 l28 -52 -56 -50 c-37 -33 -62
-48 -72 -44 -8 4 -71 27 -140 51 -86 31 -181 77 -304 147 -271 153 -356 241
-452 469 -35 83 -47 126 -51 181 -7 85 14 169 52 214 30 36 31 42 5 42 -25 0
-43 -28 -70 -110 -31 -92 -24 -185 22 -305 53 -136 52 -133 27 -101 -12 15
-42 51 -66 80 l-44 51 28 6 28 6 -30 7 c-121 30 -236 176 -328 416 -73 190
-81 224 -81 340 0 170 44 301 179 530 63 107 75 143 75 218 0 59 -26 121 -62
146 -31 22 -94 20 -133 -4 -39 -24 -49 -44 -35 -71 15 -26 30 -24 30 5 0 28
17 44 57 52 41 8 86 -17 107 -60 34 -71 14 -154 -68 -290 -77 -127 -133 -252
-158 -348 -32 -126 -23 -267 26 -413 40 -119 109 -270 158 -350 18 -27 98
-118 178 -200 81 -83 153 -162 160 -175 l13 -25 -29 26 c-16 15 -65 52 -109
84 -93 68 -310 277 -362 350 -63 87 -124 145 -154 145 -41 0 -59 -10 -59 -32
0 -18 5 -20 43 -14 51 7 59 1 144 -104 34 -41 102 -115 152 -165 50 -49 91
-92 91 -96 0 -3 -26 3 -57 14 -165 55 -341 20 -410 -82 -28 -42 -31 -126 -6
-178 43 -92 223 -80 223 15 0 20 -25 36 -41 26 -5 -3 -9 -16 -9 -29 0 -42 -73
-49 -117 -11 -24 21 -28 31 -28 79 0 40 6 63 21 84 55 76 217 105 356 63 141
-43 291 -138 449 -286 109 -101 169 -145 296 -215 59 -33 99 -58 88 -55 -11 3
-58 17 -105 32 -47 14 -122 28 -167 31 -79 6 -86 4 -149 -27 -42 -21 -72 -43
-85 -63 -33 -54 -21 -61 24 -14 54 55 100 71 202 71 83 -1 165 -22 514 -131
137 -43 143 -46 120 -59 -34 -19 -62 -17 -93 7 -41 32 -56 17 -19 -19 37 -37
69 -40 130 -13 l42 20 44 -30 c24 -16 51 -37 60 -47 16 -17 16 -22 2 -48 -18
-36 -19 -94 -2 -118 19 -26 59 -17 75 17 14 28 12 41 -13 123 -5 16 4 27 46
57 52 36 52 36 88 20 71 -31 97 -29 138 13 42 41 31 60 -13 25 -28 -22 -88
-28 -113 -12 -17 11 177 74 369 121 69 16 159 39 200 50 163 44 284 27 362
-52 27 -26 48 -43 48 -37 0 22 -32 69 -62 92 -91 69 -183 74 -368 22 -68 -19
-126 -33 -128 -30 -2 2 37 23 86 48 116 58 158 86 329 228 221 183 330 249
473 285 126 32 267 5 319 -61 43 -56 34 -157 -18 -185 -47 -25 -111 -4 -111
35 0 18 -5 25 -19 25 -26 0 -34 -15 -27 -46 13 -52 115 -82 176 -51 84 43 95
194 19 264 -44 40 -119 66 -205 71 -70 4 -91 1 -169 -26 l-88 -31 129 127 c71
70 156 157 189 195 50 56 65 67 91 67 37 0 60 20 42 38 -37 37 -92 -2 -206
-149 -28 -36 -100 -110 -160 -165 -128 -116 -322 -277 -327 -272 -3 2 53 65
124 140 70 74 147 164 170 199 60 89 143 263 188 394 37 109 38 112 37 260 0
135 -3 157 -26 225 -29 84 -88 210 -178 379 -69 131 -76 174 -37 232 38 57
140 63 154 8 7 -26 37 -21 41 8 2 16 -6 28 -30 43 -43 26 -93 25 -140 -2z
m-1388 -1881 c45 -91 49 -169 16 -272 -15 -44 -35 -96 -45 -115 l-19 -35 -35
75 c-54 118 -63 193 -32 280 17 47 66 130 77 130 4 0 21 -28 38 -63z m47 -539
l23 -24 -48 -35 c-26 -19 -50 -35 -54 -37 -3 -2 -27 12 -52 31 -24 19 -51 37
-58 40 -8 3 7 23 42 55 l55 50 35 -28 c19 -15 45 -39 57 -52z m-67 -208 c0
-51 -15 -68 -25 -27 -6 22 9 77 20 77 3 0 5 -22 5 -50z"/>
<path d="M5325 3058 c-37 -40 -71 -81 -77 -92 -11 -20 118 114 140 145 27 38
2 17 -63 -53z"/>
<path d="M5335 2977 c-10 -18 -31 -48 -46 -67 -15 -19 -27 -42 -26 -50 0 -8
-13 -44 -30 -80 -33 -71 -46 -113 -32 -104 5 3 9 11 9 18 0 12 62 139 126 259
29 55 28 74 -1 24z m-52 -102 c-3 -9 -8 -14 -10 -11 -3 3 -2 9 2 15 9 16 15
13 8 -4z"/>
<path d="M5316 2817 c-49 -122 -55 -148 -13 -61 37 77 61 143 55 149 -2 2 -21
-37 -42 -88z"/>
<path d="M5292 2663 c-17 -43 -33 -91 -37 -108 -3 -16 13 17 35 74 22 57 39
105 37 107 -2 3 -18 -31 -35 -73z"/>
<path d="M5341 2714 c0 -11 3 -14 6 -6 3 7 2 16 -1 19 -3 4 -6 -2 -5 -13z"/>
<path d="M5301 2484 c-13 -58 -21 -108 -18 -110 2 -3 14 43 27 101 12 59 20
108 18 111 -3 2 -15 -44 -27 -102z"/>
<path d="M6235 2462 c-64 -22 -95 -65 -95 -133 0 -63 24 -89 80 -89 31 0 43 5
56 24 23 36 15 71 -15 71 -13 0 -26 -6 -29 -14 -3 -10 0 -12 12 -8 23 9 21
-20 -3 -33 -29 -15 -39 -13 -57 15 -13 20 -14 30 -5 58 29 87 141 118 206 57
34 -32 65 -124 72 -210 11 -141 -22 -258 -124 -443 -30 -54 -52 -101 -49 -104
9 -9 104 148 137 226 46 110 62 199 56 316 -7 157 -44 234 -129 270 -46 18
-51 18 -113 -3z"/>
<path d="M3794 2452 c-53 -25 -80 -61 -104 -139 -24 -78 -27 -216 -6 -313 8
-36 34 -108 59 -160 24 -52 52 -120 62 -150 18 -57 52 -130 60 -130 2 0 -7 29
-20 65 -14 36 -25 68 -25 72 0 4 16 -8 35 -27 47 -45 44 -32 -8 43 -64 91
-102 163 -129 242 -19 58 -23 91 -23 195 0 110 3 131 24 178 32 70 70 102 124
102 24 0 56 -9 75 -20 37 -22 66 -81 57 -111 -9 -28 -41 -42 -65 -29 -23 12
-28 42 -5 34 8 -4 15 -2 15 4 0 5 -7 15 -15 22 -20 17 -45 -3 -45 -36 0 -57
73 -83 124 -43 52 41 25 157 -46 192 -56 28 -98 30 -144 9z"/>
<path d="M5320 2280 c-7 -28 -10 -53 -8 -55 3 -3 10 18 16 47 7 28 11 53 8 55
-2 2 -9 -19 -16 -47z"/>
<path d="M5403 2105 c0 -27 2 -38 4 -22 2 15 2 37 0 50 -2 12 -4 0 -4 -28z"/>
<path d="M5393 1940 c0 -30 2 -43 4 -27 2 15 2 39 0 55 -2 15 -4 2 -4 -28z"/>
<path d="M5113 1884 c-3 -8 -1 -20 5 -26 15 -15 43 8 35 28 -7 19 -32 18 -40
-2z"/>
<path d="M5483 1640 c0 -25 2 -35 4 -22 2 12 2 32 0 45 -2 12 -4 2 -4 -23z"/>
<path d="M4660 1081 c-25 -47 6 -131 49 -131 31 0 61 30 61 60 0 63 -85 118
-110 71z m80 -20 c24 -46 -9 -91 -45 -61 -15 13 -20 61 -8 73 13 14 43 7 53
-12z"/>
<path d="M5332 1079 c-55 -36 -53 -108 4 -129 55 -21 111 58 82 117 -17 35
-44 39 -86 12z m53 -39 c0 -31 -3 -35 -25 -35 -29 0 -40 36 -19 61 21 26 44
12 44 -26z"/>
</g></svg>