<svg xmlns="http://www.w3.org/2000/svg" viewBox="0 0 488.635362 1032.3" color="#C8A848"><rect width="488.635362" height="1032.3" fill="#1A0A24"/><g transform="translate(-267.682454,1038.400000) scale(0.100000,-0.100000)"
fill="currentColor" stroke="none">
<path d="M5969 10143 c-1 -54 -4 -130 -8 -170 l-6 -72 -110 99 c-60 55 -112
95 -113 90 -2 -6 41 -58 97 -118 l100 -107 -217 -6 c-119 -4 -241 -7 -269 -8
-29 0 -53 -5 -53 -11 0 -6 103 -11 274 -12 l275 -3 -141 -147 c-178 -188 -157
-200 29 -16 l133 132 0 -139 c0 -189 20 -578 31 -590 5 -5 9 150 9 364 l0 373
62 -54 c34 -29 92 -81 130 -115 113 -104 97 -71 -30 65 l-121 127 267 5 c147
3 260 8 252 13 -9 4 -132 11 -274 15 l-259 7 127 137 c69 75 126 140 126 143
0 19 -36 -10 -150 -121 l-130 -127 0 172 c0 145 -2 171 -15 171 -12 0 -15 -18
-16 -97z"/>
<path d="M4364 9855 c-8 -19 3 -35 26 -35 19 0 30 17 23 38 -6 17 -42 15 -49
-3z"/>
<path d="M4984 9666 c-39 -17 -80 -70 -104 -134 -58 -152 -70 -413 -63 -1307
6 -763 -9 -1653 -32 -1868 -23 -222 -42 -261 -84 -174 -37 77 -42 248 -40
1387 2 953 0 1077 -15 1177 -33 221 -98 353 -173 353 -13 0 -40 -16 -61 -34
-106 -97 -169 -327 -192 -704 -17 -275 -39 -582 -55 -747 -22 -228 -33 -445
-45 -840 -14 -480 -24 -629 -70 -960 -45 -329 -55 -408 -75 -655 -9 -101 -18
-186 -20 -188 -5 -5 -89 116 -129 186 -91 162 -181 406 -231 627 -72 323 -157
502 -320 674 -162 171 -360 261 -427 194 -45 -45 -28 -140 69 -393 75 -195
115 -313 173 -515 126 -436 189 -737 230 -1110 48 -431 115 -631 321 -955 99
-155 192 -315 304 -525 26 -49 93 -169 148 -265 121 -211 142 -258 173 -378
62 -242 55 -780 -21 -1857 -14 -192 -27 -360 -29 -372 -4 -26 20 -51 34 -37 5
5 18 122 29 259 72 869 91 1750 43 1970 -35 163 -73 243 -342 720 -59 105
-124 222 -145 260 -21 39 -83 140 -138 225 -55 85 -117 187 -138 225 -81 152
-141 357 -173 590 -48 348 -60 426 -88 580 -59 331 -167 722 -306 1115 -105
297 -112 321 -114 361 -3 84 44 100 147 50 159 -75 316 -250 413 -460 51 -112
68 -167 107 -350 98 -469 229 -727 521 -1031 288 -301 458 -549 595 -867 29
-68 54 -121 57 -119 16 17 -127 330 -227 495 -101 167 -202 303 -385 520 -111
132 -103 101 -86 366 13 191 22 275 70 625 54 395 58 445 70 875 9 370 19 531
60 975 11 118 26 349 35 513 26 511 69 745 156 850 77 94 147 2 185 -243 20
-130 22 -336 10 -1315 -11 -909 1 -1191 54 -1295 l19 -37 -106 -11 c-103 -12
-122 -16 -111 -27 3 -3 96 -8 207 -12 146 -4 201 -3 201 5 0 6 -15 15 -32 20
-25 7 -32 14 -30 28 2 10 9 71 17 134 33 263 56 1481 42 2169 -14 659 4 982
63 1119 41 94 105 119 155 61 89 -106 141 -328 165 -694 21 -332 55 -1334 65
-1935 7 -393 21 -703 37 -780 19 -99 76 -185 138 -208 29 -11 200 -27 200 -19
0 3 -42 19 -92 36 l-93 31 2 157 c1 87 8 350 14 584 17 602 10 775 -53 1344
-17 148 -23 260 -23 430 0 211 2 236 22 301 22 67 67 134 91 134 6 0 24 -11
41 -25 101 -86 220 -668 300 -1481 41 -410 50 -564 61 -1044 8 -344 13 -429
28 -497 10 -46 16 -83 12 -83 -4 0 -33 9 -66 20 -103 36 -92 16 24 -43 96 -49
245 -107 273 -107 23 0 4 18 -51 49 -52 28 -60 36 -55 54 4 12 8 29 10 37 3 8
21 177 41 375 33 328 36 378 31 560 -6 204 -15 274 -68 545 -51 258 -50 452 3
559 89 178 227 -128 357 -789 22 -113 48 -245 58 -295 30 -152 24 -466 -16
-795 -28 -230 -33 -316 -41 -650 -11 -445 -29 -712 -70 -1035 -74 -573 -111
-729 -308 -1271 -186 -514 -207 -645 -206 -1279 1 -427 6 -561 44 -1145 26
-387 26 -390 51 -390 11 0 19 7 19 18 0 9 -14 222 -30 472 -53 812 -61 1283
-25 1566 33 263 65 382 216 806 180 506 222 693 293 1308 36 306 44 432 61
900 15 411 25 563 66 960 32 312 21 453 -72 890 -99 465 -188 723 -276 800
-70 62 -146 26 -178 -83 -40 -137 -36 -383 10 -599 69 -327 83 -508 61 -779
-9 -107 -21 -228 -26 -269 -5 -41 -14 -133 -20 -203 -13 -141 -21 -179 -37
-184 -14 -5 -39 72 -52 157 -5 36 -12 225 -16 420 -10 594 -28 857 -95 1422
-74 623 -178 1070 -266 1150 -11 9 -32 22 -48 28 -62 23 -146 -57 -180 -173
-46 -159 -44 -339 9 -812 62 -550 61 -530 39 -1649 -7 -307 -7 -318 -24 -296
-46 60 -56 182 -70 785 -5 242 -12 521 -15 620 -41 1292 -46 1414 -75 1640
-51 394 -161 592 -296 531z"/>
<path d="M3817 9343 c-4 -3 -7 -19 -7 -34 0 -22 6 -30 25 -35 43 -11 73 34 43
64 -13 13 -50 16 -61 5z"/>
<path d="M6627 8955 c-10 -155 -37 -190 -156 -206 -36 -5 -70 -8 -74 -9 -5 0
-6 -4 -3 -9 3 -5 32 -12 63 -16 88 -11 133 -32 149 -72 8 -18 19 -93 25 -165
17 -209 26 -212 39 -15 14 206 32 232 171 251 43 6 79 14 79 18 0 4 -3 8 -7 8
-5 0 -39 5 -76 10 -129 19 -161 53 -172 184 -3 44 -9 89 -11 99 -12 39 -21 11
-27 -78z m75 -204 l29 -18 -26 -17 c-15 -10 -33 -32 -40 -49 -8 -18 -14 -25
-15 -16 0 10 -16 31 -36 48 l-36 32 26 20 c13 11 28 29 31 40 7 21 7 21 22 -1
8 -12 28 -30 45 -39z"/>
<path d="M3346 8649 c-2 -8 -15 -87 -29 -176 -28 -179 -48 -230 -100 -262 -36
-22 -131 -45 -234 -57 -35 -3 -63 -10 -63 -13 0 -4 47 -12 106 -19 108 -12
181 -36 221 -74 45 -42 66 -144 78 -373 7 -129 12 -158 25 -150 6 3 10 41 10
83 1 111 17 302 30 351 25 92 103 140 272 165 49 8 91 16 94 19 3 3 -16 8 -43
11 -215 27 -274 49 -314 118 -22 40 -24 54 -27 208 -3 147 -13 211 -26 169z
m31 -417 c27 -36 77 -70 127 -84 l41 -11 -30 -7 c-99 -22 -163 -101 -166 -205
-1 -35 -3 -30 -19 48 -15 73 -48 113 -124 147 l-59 27 33 6 c57 12 101 46 126
101 13 28 24 62 25 76 0 16 5 8 13 -23 7 -27 22 -61 33 -75z"/>
<path d="M6936 7597 c-21 -16 -18 -45 7 -61 37 -23 77 35 41 61 -10 7 -21 13
-24 13 -3 0 -14 -6 -24 -13z"/>
<path d="M2950 7201 c-16 -31 4 -63 37 -59 34 4 52 32 37 56 -16 26 -60 28
-74 3z"/>
<path d="M3568 7119 c-44 -25 -3 -93 42 -69 26 14 26 56 1 70 -23 12 -22 12
-43 -1z"/>
<path d="M5150 5628 c0 -24 -5 -144 -10 -268 -21 -512 -74 -580 -474 -619 -60
-6 -111 -13 -113 -15 -2 -2 24 -7 59 -10 281 -30 384 -69 443 -171 56 -95 77
-219 96 -580 7 -129 16 -235 20 -235 4 0 10 48 13 108 27 450 37 536 70 630
33 92 109 163 207 196 49 16 236 46 287 46 17 0 33 4 36 9 3 5 -34 12 -82 16
-195 15 -310 48 -377 107 -85 75 -109 150 -129 408 -9 102 -18 238 -22 303 -4
64 -11 117 -15 117 -5 0 -9 -19 -9 -42z m49 -675 c17 -61 70 -134 124 -170 45
-30 71 -40 152 -59 30 -7 30 -7 -11 -15 -99 -18 -196 -94 -234 -185 -24 -54
-50 -177 -51 -241 l-1 -48 -9 60 c-31 215 -51 268 -130 339 -35 31 -69 51
-107 62 -89 26 -90 27 -41 34 158 26 264 174 270 379 1 24 5 11 14 -39 7 -41
18 -94 24 -117z"/>
<path d="M4335 5269 c27 -17 69 -48 95 -70 58 -49 75 -51 29 -3 -41 44 -131
104 -155 104 -10 0 3 -13 31 -31z"/>
<path d="M3193 2936 c-174 -57 -266 -241 -234 -471 26 -186 61 -240 340 -515
227 -225 276 -278 201 -219 -149 118 -342 199 -474 199 -79 0 -111 -14 -104
-46 5 -27 44 -31 51 -5 4 18 13 21 62 21 138 0 387 -120 583 -281 74 -61 114
-114 171 -226 33 -67 37 -78 21 -68 -5 3 11 -26 35 -66 52 -85 96 -201 120
-319 14 -67 16 -119 13 -245 -5 -182 -22 -249 -30 -119 -7 108 -45 198 -115
274 -86 93 -170 121 -250 84 -49 -24 -69 -57 -54 -90 12 -27 35 -23 26 5 -7
24 34 60 77 67 75 13 195 -72 246 -172 74 -144 69 -295 -14 -499 -7 -17 -6
-18 8 -7 24 20 95 168 112 237 9 33 21 108 27 167 20 176 -4 322 -108 648 -51
161 -73 266 -73 353 0 63 9 87 48 130 25 27 25 27 4 27 -26 0 -59 -30 -73 -68
-16 -41 -11 -149 10 -232 10 -41 18 -76 16 -78 -5 -6 -87 101 -103 136 -16 32
-32 43 -32 20 0 -17 -35 17 -113 112 -39 47 -162 178 -273 291 -291 296 -319
345 -319 564 0 120 2 135 26 186 53 112 138 174 253 186 163 17 291 -113 241
-245 -26 -65 -55 -92 -103 -92 -39 0 -62 16 -75 53 -9 24 -37 33 -48 16 -21
-33 -9 -59 39 -89 39 -26 55 -30 92 -26 36 3 51 11 81 44 101 108 69 274 -66
345 -51 26 -180 33 -242 13z"/>
<path d="M6826 2935 c-120 -46 -177 -157 -142 -277 22 -75 81 -128 144 -128
16 0 50 12 76 26 53 30 69 65 42 92 -16 16 -19 15 -36 -8 -39 -52 -51 -60 -83
-60 -94 0 -149 138 -94 235 75 133 295 140 418 13 74 -76 104 -180 97 -328
-10 -173 -60 -254 -322 -515 -166 -166 -265 -279 -308 -351 -10 -16 -42 -58
-73 -94 -30 -36 -55 -71 -55 -78 0 -7 -4 -11 -9 -8 -5 3 -14 -1 -21 -9 -30
-37 -42 -2 -23 70 26 103 12 217 -33 262 -34 34 -40 24 -13 -21 14 -25 23 -60
26 -104 6 -78 -8 -143 -97 -457 -33 -115 -67 -253 -76 -305 -40 -230 19 -529
131 -665 l17 -20 -8 20 c-67 189 -68 190 -68 275 0 207 107 383 250 414 61 13
134 -37 117 -80 -8 -21 16 -15 31 8 25 40 -34 97 -109 106 -88 9 -201 -72
-259 -187 -31 -59 -56 -150 -56 -201 -1 -29 -2 -32 -11 -17 -6 10 -13 69 -16
130 -7 137 10 240 67 417 38 119 43 130 123 230 191 242 383 342 624 327 139
-8 229 -64 289 -177 27 -52 25 -177 -5 -252 -30 -77 -106 -159 -173 -188 -89
-38 -224 -15 -282 49 -26 29 -32 100 -12 139 18 36 50 47 100 38 47 -9 57 11
22 41 -38 32 -76 29 -124 -9 -48 -39 -66 -82 -56 -135 21 -118 116 -180 262
-171 130 7 217 69 283 200 27 53 33 77 37 153 3 70 1 99 -12 130 -67 161 -233
241 -443 215 -157 -20 -267 -75 -397 -199 -38 -36 -67 -61 -64 -56 74 130 162
243 190 245 4 0 40 24 81 53 145 104 330 177 449 177 47 0 60 -4 70 -20 16
-25 28 -26 28 0 0 33 -42 52 -112 51 -146 -1 -344 -88 -465 -204 -24 -23 -46
-38 -49 -34 -4 3 97 109 223 234 235 233 291 302 335 412 19 49 22 75 23 201
0 144 0 146 -32 211 -64 129 -157 191 -298 196 -53 2 -93 -2 -119 -12z m-373
-1550 c-9 -19 -18 -33 -21 -31 -4 5 26 66 33 66 3 0 -3 -16 -12 -35z"/>
<path d="M5006 2614 c-112 -49 -212 -73 -351 -85 -66 -5 -124 -12 -130 -14 -5
-3 58 -3 140 -1 99 3 171 10 210 21 69 19 225 93 225 106 0 13 -6 11 -94 -27z"/>
<path d="M3735 2314 c-134 -69 -191 -250 -132 -417 35 -99 149 -335 154 -320
2 7 -25 85 -61 175 -36 90 -70 187 -77 217 -31 145 49 303 165 325 42 8 82 -7
91 -33 8 -26 25 -28 25 -3 -1 59 -96 92 -165 56z"/>
<path d="M6385 2318 c-29 -16 -44 -40 -45 -65 0 -32 13 -29 26 6 22 56 113 48
177 -15 60 -61 72 -95 72 -214 l0 -105 -54 -115 c-56 -122 -81 -196 -81 -244
0 -43 15 -22 35 48 9 33 34 95 56 138 53 106 89 217 89 276 0 154 -109 303
-222 302 -18 0 -42 -6 -53 -12z"/>
<path d="M3120 1679 c-225 -39 -347 -232 -281 -446 35 -114 131 -215 229 -243
83 -23 191 -9 253 33 69 47 104 142 75 211 -30 72 -111 107 -164 70 -38 -27
-24 -49 29 -46 71 5 94 -20 94 -98 0 -60 -2 -64 -38 -95 -47 -40 -119 -60
-194 -52 -177 18 -309 241 -254 430 19 65 87 139 159 173 45 21 77 28 149 32
198 10 367 -65 557 -247 76 -72 72 -61 -14 38 -153 178 -395 275 -600 240z"/>
</g></svg>