<?xml version="1.0" standalone="no"?>
<!DOCTYPE svg PUBLIC "-//W3C//DTD SVG 20010904//EN"
 "http://www.w3.org/TR/2001/REC-SVG-20010904/DTD/svg10.dtd">
<svg version="1.0" xmlns="http://www.w3.org/2000/svg"
 width="544.043565pt" height="931.989246pt" viewBox="0 0 544.043565 931.989246"
 preserveAspectRatio="xMidYMid meet">
<metadata>
Created by potrace 1.16, written by Peter Selinger 2001-2019
</metadata>
<g transform="translate(-227.356435,980.989804) scale(0.100000,-0.100000)"
fill="currentColor" stroke="none">
<path d="M5117 9640 c-21 -149 -17 -454 6 -431 14 14 20 273 9 386 -8 83 -9
86 -15 45z"/>
<path d="M4790 9432 c0 -31 135 -220 181 -252 l31 -23 -15 30 c-28 54 -197
264 -197 245z"/>
<path d="M5354 9333 c-93 -118 -117 -153 -110 -160 11 -11 112 105 149 172 20
37 36 70 33 72 -2 2 -34 -36 -72 -84z"/>
<path d="M4197 9162 c-13 -14 -13 -19 -1 -30 11 -10 18 -10 34 0 25 16 25 20
1 35 -15 10 -22 9 -34 -5z"/>
<path d="M4650 9051 l-55 -6 70 -7 c147 -16 369 -3 276 15 -39 8 -210 7 -291
-2z"/>
<path d="M5300 9051 l-25 -7 25 -7 c33 -9 220 -9 301 0 l64 7 -45 7 c-58 10
-287 9 -320 0z"/>
<path d="M6095 8940 c-9 -15 4 -30 26 -30 12 0 19 7 19 20 0 21 -33 29 -45 10z"/>
<path d="M4970 8913 c-55 -36 -135 -125 -175 -193 -14 -24 19 3 103 84 106
102 141 156 72 109z"/>
<path d="M5250 8915 c0 -33 96 -135 126 -135 10 0 -6 25 -46 70 -55 62 -80 82
-80 65z"/>
<path d="M5106 8840 c-8 -43 -8 -181 1 -261 11 -95 20 -36 22 131 1 134 -10
194 -23 130z"/>
<path d="M3760 8586 c0 -8 -6 -16 -12 -19 -23 -8 14 -37 39 -31 20 6 20 7 5
35 -18 31 -32 38 -32 15z"/>
<path d="M5112 8473 c-33 -7 -91 -70 -119 -130 -62 -134 -110 -493 -133 -993
-6 -118 -16 -255 -24 -305 -8 -51 -22 -282 -31 -530 -14 -394 -38 -782 -50
-793 -11 -11 -62 18 -81 46 -31 45 -34 95 -34 497 1 198 -6 596 -14 885 -9
289 -16 622 -16 740 0 230 -10 320 -40 380 -36 70 -138 139 -207 140 -39 0
-95 -46 -124 -102 -19 -38 -39 -184 -54 -403 -3 -49 -10 -137 -15 -195 -52
-570 -80 -1078 -80 -1440 0 -378 -13 -725 -35 -930 -8 -80 -19 -220 -25 -313
-10 -167 -24 -264 -41 -281 -12 -14 -89 153 -144 314 -49 142 -125 444 -170
668 -14 74 -36 164 -48 200 -30 93 -120 223 -220 319 -79 76 -91 84 -169 108
-112 36 -211 44 -238 20 -36 -33 -27 -101 26 -202 52 -100 90 -242 123 -459
41 -268 53 -331 101 -560 47 -219 58 -291 94 -626 30 -264 71 -407 211 -723
52 -115 126 -289 165 -385 119 -288 171 -389 376 -725 90 -147 156 -351 174
-535 5 -52 10 -160 10 -240 0 -166 -25 -800 -40 -995 -17 -223 -11 -319 17
-283 18 23 23 60 37 295 28 438 38 750 34 1028 -5 243 -8 291 -27 364 -51 198
-91 288 -226 506 -100 162 -217 396 -305 610 -34 82 -104 245 -155 361 -111
249 -158 381 -184 513 -18 89 -24 137 -52 406 -14 141 -35 264 -80 465 -21 96
-50 247 -64 335 -69 440 -90 527 -156 661 -57 113 -60 147 -17 152 38 5 173
-34 231 -66 94 -50 236 -232 288 -366 15 -39 42 -148 59 -241 88 -475 216
-870 320 -989 17 -19 83 -71 148 -117 64 -46 143 -108 176 -139 144 -137 308
-423 402 -705 36 -109 43 -105 18 8 -22 97 -66 208 -134 342 -119 236 -233
370 -417 491 -62 41 -117 83 -123 94 -8 15 -6 29 6 57 26 62 43 173 49 320 4
76 13 197 21 268 24 219 34 455 34 810 0 456 20 835 80 1555 11 129 26 316 34
414 14 167 17 183 44 225 28 45 29 46 79 46 66 -1 112 -35 149 -111 l28 -57 7
-501 c5 -275 13 -670 18 -876 6 -206 11 -507 11 -668 0 -341 4 -366 66 -429
49 -48 97 -58 127 -25 36 39 51 195 72 742 8 223 22 475 31 560 24 237 33 364
33 493 1 199 57 643 101 797 16 58 67 129 104 147 32 15 38 15 87 -3 65 -23
92 -64 110 -165 13 -74 9 -354 -11 -684 -7 -121 -10 -494 -8 -1030 l3 -840 25
-44 c15 -27 39 -52 63 -64 34 -17 39 -18 61 -4 28 19 32 38 46 262 5 94 15
238 20 320 6 83 15 283 20 445 5 162 16 401 25 530 8 129 15 288 15 353 0 266
32 487 77 531 34 34 48 33 87 -6 82 -82 107 -252 141 -935 8 -164 20 -370 26
-458 7 -88 13 -387 14 -665 1 -591 2 -593 77 -675 27 -30 55 -55 62 -55 7 0
57 -26 112 -59 122 -72 171 -89 94 -32 -30 22 -81 54 -112 71 -49 26 -58 36
-58 58 0 76 24 332 50 527 43 327 48 382 60 590 22 397 42 590 74 685 11 34
69 84 90 77 42 -14 77 -182 111 -536 18 -181 20 -891 5 -1306 -33 -879 -41
-991 -106 -1375 -62 -364 -115 -564 -308 -1155 -62 -192 -126 -402 -142 -465
l-29 -115 0 -450 c0 -376 4 -499 23 -750 24 -306 40 -394 64 -351 12 22 7 151
-18 471 -21 272 -30 926 -15 1036 17 120 60 276 161 584 207 632 277 914 355
1425 39 264 61 710 75 1550 12 694 4 867 -59 1277 -20 130 -40 178 -82 202
-37 21 -93 7 -132 -33 -64 -64 -89 -214 -117 -696 -14 -244 -25 -360 -61 -632
-16 -124 -35 -295 -42 -380 l-12 -153 -21 36 c-48 80 -48 83 -49 659 -1 300
-7 617 -13 705 -6 88 -18 295 -27 460 -36 699 -70 870 -187 931 -44 23 -83 17
-123 -17 -65 -58 -80 -150 -100 -619 -8 -195 -20 -416 -25 -490 -6 -74 -15
-263 -20 -420 -9 -289 -34 -751 -46 -848 -4 -33 -11 -51 -18 -49 -23 8 -55 70
-61 121 -4 30 -5 440 -2 912 4 673 8 910 22 1094 37 513 -11 693 -187 705 -29
2 -63 1 -76 -2z"/>
<path d="M3308 7910 c-3 -8 -10 -53 -15 -100 -16 -145 -60 -202 -172 -223 -34
-6 -61 -15 -61 -18 0 -4 23 -12 50 -18 127 -27 167 -82 185 -253 6 -53 25 -92
25 -51 0 69 22 189 39 217 25 40 80 71 155 86 66 14 64 22 -13 39 -30 6 -69
20 -87 32 -44 27 -84 108 -85 173 0 63 -14 136 -21 116z m63 -300 l46 -45 -31
-20 c-17 -11 -40 -35 -51 -52 -11 -18 -22 -32 -25 -33 -3 0 -14 14 -24 30 -10
17 -33 41 -51 53 l-33 21 44 39 c24 21 47 51 51 65 6 25 7 25 17 7 6 -11 32
-40 57 -65z"/>
<path d="M6713 7876 c-17 -19 6 -50 30 -40 20 7 22 25 5 42 -15 15 -20 15 -35
-2z"/>
<path d="M5090 7565 c-11 -13 -7 -15 28 -15 47 0 74 8 66 21 -9 15 -80 10 -94
-6z"/>
<path d="M4357 7503 c-9 -2 -15 -9 -12 -14 8 -12 92 -12 99 0 11 17 -41 26
-87 14z"/>
<path d="M5700 7160 c-10 -7 5 -9 50 -9 48 1 58 3 40 9 -35 11 -72 11 -90 0z"/>
<path d="M3740 7003 c1 -19 19 -35 34 -30 26 10 19 37 -9 37 -14 0 -25 -3 -25
-7z"/>
<path d="M7307 7003 c-3 -5 -9 -41 -12 -79 -14 -154 -54 -219 -147 -245 -24
-6 -53 -14 -65 -18 -41 -11 -29 -23 38 -40 36 -9 78 -24 92 -34 40 -26 66 -86
73 -169 4 -40 11 -84 16 -98 10 -24 10 -24 18 -5 4 11 10 54 14 94 14 137 56
186 194 221 49 13 47 26 -6 36 -120 22 -173 92 -186 247 -5 68 -18 108 -29 90z
m88 -339 l26 -17 -31 -20 c-17 -11 -41 -34 -53 -51 l-22 -31 -51 52 -52 52 24
16 c13 8 36 33 50 55 l26 40 29 -40 c16 -22 40 -47 54 -56z"/>
<path d="M2662 6762 c-17 -12 -4 -42 18 -42 19 0 34 25 24 41 -6 11 -25 11
-42 1z"/>
<path d="M5095 6760 c-23 -10 -18 -12 53 -15 51 -2 68 7 36 19 -22 8 -65 6
-89 -4z"/>
<path d="M4383 6650 c-37 -15 -27 -20 43 -20 58 0 65 2 54 15 -14 16 -62 19
-97 5z"/>
<path d="M6344 6514 c-18 -15 -17 -15 15 -10 18 3 40 6 48 6 8 0 11 5 8 10 -9
15 -49 12 -71 -6z"/>
<path d="M5695 6405 c-30 -13 -29 -13 28 -14 32 -1 57 3 57 9 0 6 -6 10 -14
10 -8 0 -20 2 -28 5 -7 2 -26 -2 -43 -10z"/>
<path d="M6302 5844 c-24 -11 0 -24 44 -24 32 0 44 4 42 13 -5 12 -63 20 -86
11z"/>
<path d="M4352 5680 c-19 -4 -39 -13 -45 -20 -10 -10 2 -11 53 -6 137 14 162
19 148 27 -16 11 -111 10 -156 -1z"/>
<path d="M4990 5661 c-33 -6 -34 -7 -10 -14 14 -4 45 -7 70 -7 25 0 71 -6 103
-14 73 -17 74 1 1 26 -50 18 -102 20 -164 9z"/>
<path d="M5539 5534 c31 -22 159 -85 194 -95 59 -17 22 10 -82 59 -107 52
-157 67 -112 36z"/>
<path d="M3578 5460 c-57 -18 -133 -58 -124 -67 2 -2 21 4 43 15 21 11 63 27
93 36 30 9 62 20 70 26 24 16 -16 11 -82 -10z"/>
<path d="M7040 5335 c-9 -11 -9 -18 3 -35 14 -20 14 -20 32 0 15 16 15 22 5
35 -16 19 -24 19 -40 0z"/>
<path d="M5146 5035 c-3 -9 -10 -77 -16 -152 -17 -222 -43 -303 -127 -393 -68
-74 -131 -105 -253 -125 -51 -8 -95 -16 -97 -19 -6 -6 20 -13 97 -26 87 -16
150 -41 209 -84 98 -73 144 -179 161 -374 5 -65 13 -142 16 -172 10 -91 23
-36 34 137 10 180 24 235 79 320 67 104 163 158 318 178 29 4 55 10 58 15 2 4
-34 15 -80 23 -191 35 -283 112 -341 283 -22 65 -27 105 -33 236 -7 154 -12
185 -25 153z m122 -593 c27 -26 69 -58 94 -72 l46 -24 -57 -33 c-83 -51 -128
-99 -170 -185 l-37 -76 -32 69 c-38 81 -110 157 -181 190 -28 13 -50 26 -51
29 0 3 22 16 48 28 27 13 72 47 100 75 50 51 112 158 112 194 0 10 18 -19 40
-65 26 -54 55 -98 88 -130z"/>
<path d="M4360 5027 c0 -4 35 -33 78 -65 42 -33 130 -105 195 -161 112 -96
136 -114 122 -91 -28 46 -395 340 -395 317z"/>
<path d="M2650 4708 c-5 -79 -23 -188 -37 -216 -23 -48 -71 -79 -144 -93 -66
-13 -68 -24 -7 -34 119 -20 163 -70 174 -197 4 -40 10 -82 14 -93 6 -17 8 -16
13 10 3 17 9 55 12 87 7 66 39 134 75 160 14 10 53 24 88 30 34 6 62 15 62 18
0 4 -25 12 -57 19 -109 21 -158 87 -170 225 -3 42 -10 79 -14 82 -5 3 -9 4 -9
2z m20 -232 c0 -7 18 -32 40 -54 l40 -40 -38 -38 c-22 -22 -42 -46 -45 -54 -5
-12 -8 -11 -18 5 -18 28 -61 71 -79 77 -10 3 -2 15 28 42 22 21 44 46 47 57 7
22 25 26 25 5z"/>
<path d="M7264 4505 c-5 -22 -9 -112 -9 -200 l0 -161 -45 33 c-25 18 -57 42
-72 53 -16 12 -28 19 -28 15 0 -19 35 -68 73 -101 l44 -39 -75 4 c-72 3 -152
-11 -152 -28 0 -11 76 -21 151 -21 l58 0 -31 -32 c-32 -35 -68 -88 -68 -101 0
-9 67 40 115 84 l30 28 0 -164 c1 -107 5 -169 12 -176 17 -17 26 56 26 209 0
72 3 132 7 132 4 0 11 -10 17 -23 6 -12 30 -36 54 -52 24 -17 46 -33 47 -37 2
-5 8 -8 13 -8 16 0 -20 59 -64 108 l-42 45 39 -7 c45 -9 206 3 206 14 0 13
-41 21 -144 27 l-100 6 32 27 c33 28 82 88 82 101 0 12 -79 -36 -115 -69 l-32
-31 -2 162 c-2 89 -6 180 -10 202 l-8 40 -9 -40z"/>
<path d="M2996 3341 c-15 -16 -15 -19 2 -34 16 -14 19 -14 39 1 l22 17 -23 17
c-22 16 -25 16 -40 -1z"/>
<path d="M6798 2930 c-15 -17 -15 -19 2 -35 17 -16 21 -16 35 -2 19 19 19 25
1 43 -17 17 -17 17 -38 -6z"/>
<path d="M3205 2600 c-50 -20 -95 -100 -95 -169 0 -90 80 -224 197 -331 31
-28 122 -96 202 -150 197 -133 293 -219 369 -332 31 -45 76 -138 67 -138 -2 0
-22 26 -44 58 -92 136 -227 225 -390 258 -144 28 -242 6 -309 -70 -82 -94 -32
-256 79 -256 69 0 116 73 67 104 -25 15 -37 -3 -13 -20 20 -15 20 -15 -4 -35
-45 -37 -89 -16 -116 55 -14 38 -15 50 -5 83 7 21 20 47 29 57 69 80 288 72
454 -17 148 -78 299 -309 322 -492 6 -47 5 -49 -9 -30 -77 98 -116 118 -221
113 -71 -3 -86 -7 -118 -31 -106 -80 -79 -217 43 -217 41 0 39 17 -2 18 -38 1
-78 40 -78 75 0 32 35 84 67 100 67 34 159 31 216 -7 46 -31 94 -108 107 -173
14 -63 1 -201 -25 -276 -17 -50 -13 -58 11 -22 29 44 44 123 50 260 8 171 -11
277 -77 447 -63 161 -105 224 -210 321 -160 148 -237 253 -268 368 -11 38 -10
56 2 105 8 32 13 61 11 63 -2 2 -13 -17 -24 -43 -36 -86 -20 -179 48 -279 18
-25 32 -48 32 -51 0 -8 -143 98 -212 157 -67 57 -145 152 -182 221 -29 54 -36
148 -15 189 19 36 51 67 71 67 23 0 34 -26 19 -44 -14 -17 -2 -29 16 -15 20
17 16 56 -9 73 -25 18 -25 18 -53 6z"/>
<path d="M4340 2579 c116 -64 161 -74 323 -73 81 0 152 4 157 10 5 5 -22 8
-73 6 -109 -5 -265 20 -357 57 -97 39 -120 39 -50 0z"/>
<path d="M6980 2590 c-11 -11 -20 -28 -20 -39 0 -23 25 -45 41 -35 9 5 7 11
-6 20 -15 11 -16 16 -5 29 18 22 33 19 62 -12 110 -117 0 -328 -276 -533 -52
-38 -97 -70 -100 -70 -3 0 12 28 34 61 45 70 60 114 60 179 0 44 -35 139 -46
127 -3 -3 0 -16 7 -29 7 -12 13 -50 13 -83 1 -116 -77 -239 -256 -407 -118
-109 -150 -158 -220 -330 -81 -197 -110 -373 -89 -534 15 -109 27 -153 53
-185 16 -19 18 -20 12 -4 -18 50 -34 147 -36 220 -4 128 42 228 126 272 42 23
151 22 194 -1 37 -19 72 -69 72 -103 0 -38 -41 -75 -83 -75 -20 0 -34 -4 -31
-9 9 -15 78 -9 100 9 71 57 51 157 -41 209 -32 18 -56 23 -116 23 -68 0 -80
-3 -122 -31 -25 -16 -55 -44 -66 -62 -51 -80 5 119 67 237 58 111 157 220 239
264 135 71 318 94 403 49 75 -39 102 -127 60 -195 -26 -43 -62 -59 -95 -44
-31 14 -32 36 -2 49 20 10 20 12 4 18 -46 19 -63 -51 -21 -84 75 -59 174 12
174 124 0 90 -46 149 -141 180 -88 29 -248 7 -366 -51 -67 -33 -175 -131 -220
-201 -40 -62 -49 -68 -28 -15 62 147 200 281 480 467 149 100 282 247 320 356
34 95 8 192 -65 242 -32 22 -46 21 -70 -3z"/>
<path d="M5255 2294 c37 -30 159 -82 221 -94 89 -17 253 -10 288 13 34 23 29
32 -10 16 -16 -7 -81 -12 -149 -12 -130 -1 -181 10 -302 63 -37 17 -59 23 -48
14z"/>
<path d="M5655 2120 c-24 -6 -18 -8 30 -9 33 0 67 4 75 9 18 12 -59 12 -105 0z"/>
<path d="M5610 2006 c13 -13 172 -11 195 2 16 10 -2 11 -92 9 -62 -1 -108 -6
-103 -11z"/>
</g>
</svg>
