<?xml version="1.0" standalone="no"?>
<!DOCTYPE svg PUBLIC "-//W3C//DTD SVG 20010904//EN"
 "http://www.w3.org/TR/2001/REC-SVG-20010904/DTD/svg10.dtd">
<svg version="1.0" xmlns="http://www.w3.org/2000/svg"
 width="482.136404pt" height="977.487742pt" viewBox="0 0 482.136404 977.487742"
 preserveAspectRatio="xMidYMid meet">
<metadata>
Created by potrace 1.16, written by Peter Selinger 2001-2019
</metadata>
<g transform="translate(-273.289683,1004.689636) scale(0.100000,-0.100000)"
fill="currentColor" stroke="none">
<path d="M5176 9889 c-58 -46 -121 -218 -150 -409 -33 -218 -49 -560 -61
-1250 -6 -396 -13 -650 -26 -1055 -21 -662 -43 -916 -91 -1027 -37 -88 -68
-73 -98 47 -27 109 -36 243 -39 552 -1 145 -4 271 -5 280 -2 10 -6 212 -10
448 -16 1121 -34 1498 -82 1779 -27 161 -59 208 -106 158 -98 -104 -168 -432
-197 -932 -20 -335 -52 -1242 -66 -1915 -11 -492 -29 -753 -80 -1165 -51 -402
-82 -545 -120 -545 -65 0 -162 257 -270 720 -63 268 -112 412 -195 580 -104
211 -245 387 -440 549 -130 108 -206 158 -237 154 -25 -3 -28 -7 -25 -35 1
-18 25 -85 53 -150 162 -372 209 -498 294 -793 92 -318 143 -632 165 -1005 17
-304 32 -395 97 -590 115 -347 331 -773 655 -1290 198 -316 265 -453 312 -640
46 -178 57 -285 63 -567 7 -329 -8 -594 -67 -1217 -11 -112 -9 -148 9 -137 18
11 50 181 65 346 68 715 72 1095 15 1438 -28 172 -78 319 -163 485 -65 127
-253 446 -326 552 -100 146 -315 562 -419 811 -111 264 -155 430 -171 642 -6
70 -17 215 -25 322 -38 485 -149 928 -369 1467 -82 204 -95 243 -78 243 4 0
38 -24 76 -52 213 -160 398 -393 503 -632 61 -139 93 -247 173 -569 75 -307
119 -443 185 -582 55 -115 197 -319 321 -460 245 -282 471 -700 579 -1075 15
-52 30 -97 33 -100 10 -10 -10 118 -33 212 -29 121 -96 290 -187 475 -112 229
-148 281 -401 581 -87 103 -127 172 -127 219 0 23 5 54 11 70 24 63 61 273 94
538 62 500 65 563 105 1930 32 1117 64 1564 131 1835 24 96 67 210 79 210 10
0 25 -69 45 -210 21 -148 43 -560 50 -930 3 -173 7 -398 10 -500 3 -102 7
-318 10 -480 3 -162 8 -407 11 -545 10 -476 51 -655 148 -655 60 0 93 58 127
223 34 171 50 426 74 1262 3 99 7 234 10 300 3 66 7 284 10 485 13 771 30
1063 77 1280 29 138 77 258 98 245 13 -8 49 -137 64 -230 44 -268 55 -484 66
-1375 11 -890 27 -1572 40 -1785 24 -362 96 -549 187 -489 75 48 92 218 118
1179 36 1272 57 1643 111 1912 46 235 83 254 118 61 31 -166 48 -372 66 -773
22 -518 27 -714 41 -1530 10 -635 15 -737 50 -909 24 -119 49 -173 85 -182 41
-10 70 27 88 111 33 155 44 272 101 1040 47 627 78 910 115 1044 35 126 50
138 74 64 24 -76 44 -196 57 -353 21 -254 1 -1189 -46 -2150 -30 -611 -85
-1149 -151 -1475 -71 -352 -155 -600 -356 -1055 -166 -374 -205 -505 -245
-826 -25 -194 -24 -809 1 -1109 27 -325 67 -582 88 -568 13 7 5 193 -16 398
-40 386 -53 937 -27 1205 33 339 76 490 253 890 233 525 320 801 393 1253 54
339 84 703 120 1452 66 1411 71 1903 20 2195 -19 109 -38 180 -61 227 -17 33
-23 38 -54 38 -30 0 -37 -5 -57 -40 -73 -128 -101 -339 -173 -1300 -48 -650
-75 -882 -109 -942 -8 -16 -11 -14 -21 12 -51 129 -67 358 -75 1040 -17 1442
-60 2188 -137 2383 -26 64 -65 95 -95 76 -68 -42 -126 -289 -153 -650 -22
-294 -43 -831 -65 -1629 -20 -726 -33 -902 -71 -993 -16 -40 -29 -35 -54 23
-69 161 -83 436 -100 1940 -10 953 -13 1063 -36 1310 -17 187 -37 319 -65 428
-41 160 -65 194 -113 156z"/>
<path d="M6900 9652 c0 -92 -21 -451 -31 -515 -13 -90 -30 -122 -82 -148 -37
-20 -64 -23 -232 -28 l-190 -6 167 -13 c244 -19 300 -41 326 -130 15 -48 32
-238 33 -367 0 -55 4 -122 9 -150 l7 -50 2 60 c2 107 30 442 40 486 12 54 38
90 82 111 44 22 166 38 285 38 160 0 103 17 -73 22 -231 7 -265 23 -290 141
-12 59 -27 246 -37 475 -4 102 -16 155 -16 74z m65 -682 l25 -27 -21 -19 c-12
-10 -32 -40 -44 -67 l-22 -47 -6 29 c-4 16 -20 45 -38 65 l-31 36 30 34 c17
19 33 49 37 67 l7 33 19 -39 c11 -22 31 -51 44 -65z"/>
<path d="M3477 9543 c-4 -37 -10 -127 -13 -200 l-7 -132 -83 64 c-46 36 -84
61 -84 57 0 -5 15 -26 33 -48 18 -21 45 -55 59 -76 l28 -36 -68 -6 c-37 -3
-107 -9 -155 -12 -48 -4 -86 -8 -85 -10 3 -2 286 -34 305 -34 7 0 -36 -60 -85
-117 -24 -29 -40 -53 -35 -53 4 0 44 27 88 60 l80 60 7 -117 c13 -200 20 -285
23 -281 2 2 10 91 20 198 9 107 18 196 20 198 2 2 40 -26 86 -62 86 -68 114
-79 62 -23 -16 17 -47 55 -67 82 l-38 50 39 7 c21 3 91 10 156 14 64 4 117 10
117 13 0 4 -66 12 -147 19 -81 7 -148 14 -151 16 -2 3 25 40 61 83 36 42 65
79 63 81 -2 1 -43 -27 -91 -63 -48 -36 -89 -64 -91 -62 -2 1 -10 90 -18 196
-8 106 -17 195 -19 197 -2 3 -7 -26 -10 -63z"/>
<path d="M6660 9252 c0 -10 108 -142 116 -142 8 0 -5 19 -59 88 -48 61 -57 70
-57 54z"/>
<path d="M7067 9179 c-32 -38 -54 -69 -49 -69 10 0 122 123 122 134 0 16 -20
-1 -73 -65z"/>
<path d="M7049 8751 c55 -64 79 -86 86 -80 6 6 -115 139 -127 139 -5 0 13 -26
41 -59z"/>
<path d="M6726 8736 c-31 -35 -56 -67 -56 -72 0 -11 85 72 111 109 38 51 1 27
-55 -37z"/>
<path d="M3874 8465 c-4 -9 -2 -21 4 -27 16 -16 47 -5 47 17 0 26 -42 34 -51
10z"/>
<path d="M3034 8216 c-9 -22 4 -36 32 -36 21 0 25 4 22 23 -4 26 -45 37 -54
13z"/>
<path d="M3428 7624 c-5 -4 -8 -44 -9 -88 0 -45 -4 -101 -7 -124 l-7 -44 -52
42 c-29 23 -53 39 -53 35 0 -4 16 -26 35 -49 19 -24 35 -45 35 -48 0 -3 -36
-8 -81 -11 -75 -5 -99 -11 -88 -21 2 -3 42 -8 87 -13 l84 -8 -32 -43 c-17 -24
-29 -46 -26 -49 3 -3 25 11 49 31 l44 36 7 -61 c3 -34 6 -82 6 -105 0 -24 4
-44 9 -44 9 0 21 72 21 134 0 65 10 70 59 30 24 -19 46 -32 48 -30 3 2 -12 26
-33 53 l-37 48 102 9 c55 5 101 12 101 16 0 5 -43 11 -95 15 -52 4 -95 9 -95
12 0 2 16 25 35 50 19 25 33 48 30 51 -2 2 -26 -14 -53 -37 -28 -22 -53 -41
-56 -41 -3 0 -6 33 -7 73 -2 98 -12 190 -21 181z"/>
<path d="M7230 7225 c-10 -12 -10 -18 0 -30 7 -8 18 -15 25 -15 7 0 18 7 25
15 10 12 10 18 0 30 -7 8 -18 15 -25 15 -7 0 -18 -7 -25 -15z"/>
<path d="M7227 6185 c-4 -22 -7 -59 -7 -82 0 -46 -6 -51 -36 -28 -31 23 -37
17 -14 -15 l21 -30 -38 0 c-64 0 -75 -18 -15 -26 56 -7 59 -9 37 -38 -24 -31
-17 -39 13 -16 l27 22 3 -28 c9 -106 15 -138 22 -119 4 11 8 47 9 80 1 33 4
61 5 62 2 2 15 -6 29 -18 29 -22 36 -14 12 17 -22 29 -18 34 28 34 52 0 80 14
45 23 -12 4 -38 7 -55 7 -38 0 -39 2 -17 35 19 29 13 31 -21 9 l-25 -16 -1 58
c-1 33 -4 70 -8 84 -7 23 -8 21 -14 -15z"/>
<path d="M5191 5470 c-6 -173 -43 -692 -51 -722 -33 -117 -122 -149 -453 -165
-143 -6 -199 -23 -80 -23 121 -1 314 -19 376 -37 80 -22 130 -69 150 -143 14
-48 29 -223 56 -655 l7 -110 7 120 c37 594 44 652 80 707 52 76 106 91 400
110 103 6 187 15 187 20 0 4 -28 8 -61 8 -34 0 -136 7 -228 16 -250 23 -293
49 -325 194 -19 84 -34 242 -50 510 -7 118 -14 195 -15 170z m99 -867 l42 -31
-25 -17 c-32 -20 -94 -110 -103 -149 -7 -28 -8 -27 -34 31 -17 36 -43 73 -67
93 l-40 34 52 51 c35 34 57 66 66 93 l12 42 28 -57 c18 -37 43 -70 69 -90z"/>
<path d="M5589 4963 c-119 -81 -270 -216 -256 -229 3 -4 46 28 94 71 48 42
124 104 167 136 86 64 82 82 -5 22z"/>
<path d="M4780 4983 c0 -11 169 -179 224 -223 66 -52 55 -21 -17 46 -125 116
-207 186 -207 177z"/>
<path d="M6943 4824 c-7 -18 6 -45 24 -51 5 -2 21 5 34 17 24 20 24 20 5 35
-26 20 -55 19 -63 -1z"/>
<path d="M4968 4332 c-77 -67 -184 -180 -177 -186 2 -2 65 54 139 125 144 138
165 171 38 61z"/>
<path d="M5372 4357 c25 -23 89 -82 142 -130 53 -49 96 -84 96 -79 0 17 -91
112 -176 183 -90 75 -139 95 -62 26z"/>
</g>
</svg>
