<?xml version="1.0" standalone="no"?>
<!DOCTYPE svg PUBLIC "-//W3C//DTD SVG 20010904//EN"
 "http://www.w3.org/TR/2001/REC-SVG-20010904/DTD/svg10.dtd">
<svg version="1.0" xmlns="http://www.w3.org/2000/svg"
 width="443.730055pt" height="949.656402pt" viewBox="0 0 443.730055 949.656402"
 preserveAspectRatio="xMidYMid meet">
<metadata>
Created by potrace 1.16, written by Peter Selinger 2001-2019
</metadata>
<g transform="translate(-280.324599,988.256402) scale(0.100000,-0.100000)"
fill="currentColor" stroke="none">
<path d="M5076 9718 c-26 -41 -53 -120 -84 -253 -72 -302 -100 -570 -117
-1150 -3 -99 -7 -252 -10 -340 -3 -88 -9 -324 -15 -525 -5 -201 -12 -414 -15
-475 -2 -60 -7 -256 -10 -435 -10 -613 -19 -790 -46 -880 -7 -22 -15 -40 -20
-40 -8 0 -27 100 -39 215 -29 265 -35 459 -31 1120 9 1372 7 1554 -18 1850
-20 224 -74 517 -103 552 -23 28 -61 11 -85 -37 -47 -94 -107 -365 -142 -640
-33 -249 -83 -987 -116 -1695 -8 -181 -19 -406 -25 -500 -5 -93 -14 -267 -20
-385 -10 -203 -23 -486 -35 -720 -16 -302 -35 -720 -35 -760 l0 -44 -43 59
c-136 189 -196 336 -298 733 -93 364 -131 468 -224 607 -145 219 -386 405
-529 409 -39 1 -51 -3 -63 -20 -13 -20 -9 -32 55 -155 99 -190 185 -394 257
-614 99 -300 163 -608 220 -1057 33 -265 57 -398 95 -525 66 -221 154 -403
316 -653 256 -397 423 -702 492 -900 36 -104 66 -233 84 -360 20 -144 14 -688
-11 -1044 -12 -159 -21 -303 -21 -319 0 -145 -69 297 -95 608 -37 444 -91 684
-196 870 -71 126 -176 204 -255 189 -33 -6 -64 -35 -64 -61 0 -37 66 -57 90
-28 20 24 -3 44 -31 27 -18 -12 -20 -11 -17 5 5 26 58 28 105 4 61 -31 110
-92 167 -208 60 -123 90 -226 125 -439 21 -129 23 -151 46 -416 8 -97 19 -198
24 -225 5 -26 8 -49 6 -51 -2 -2 -13 27 -25 65 -40 125 -134 303 -195 370 -57
64 -143 115 -212 127 -48 8 -40 -6 16 -32 179 -82 303 -311 442 -817 27 -98
55 -183 62 -187 30 -20 42 -3 49 67 43 441 73 1237 52 1420 -47 430 -162 697
-581 1350 -283 443 -341 607 -417 1200 -92 706 -207 1116 -446 1593 -98 193
-99 186 28 127 201 -94 412 -338 497 -575 14 -41 58 -196 96 -345 81 -315 124
-446 186 -570 54 -107 71 -132 213 -317 60 -77 141 -196 182 -264 40 -68 77
-124 82 -124 16 0 -6 56 -58 150 -30 52 -76 147 -104 210 l-51 115 14 285 c8
157 21 434 30 615 9 182 22 456 30 610 8 154 22 424 30 600 16 329 41 809 50
950 3 44 9 154 15 245 32 517 53 741 91 970 22 133 94 429 107 442 5 5 21 -53
35 -129 75 -385 89 -760 73 -2008 -11 -844 2 -1197 50 -1464 19 -105 36 -141
68 -141 26 0 46 19 70 67 27 54 44 269 51 638 3 193 10 481 15 640 5 160 12
409 15 555 11 511 40 1282 55 1460 19 223 44 376 91 560 41 161 56 208 62 190
13 -34 57 -304 71 -435 36 -329 40 -453 86 -2665 15 -687 28 -855 71 -947 33
-69 89 -67 109 5 40 142 73 1120 68 2047 -3 615 1 701 42 935 23 137 49 218
61 199 31 -48 90 -311 119 -529 36 -276 51 -528 95 -1670 14 -355 30 -702 35
-773 27 -336 89 -506 162 -441 63 58 88 239 108 774 21 581 23 624 35 745 10
94 46 238 65 259 5 4 15 -5 24 -22 44 -86 84 -326 96 -583 32 -689 46 -2167
22 -2404 -40 -397 -119 -723 -283 -1167 -173 -469 -215 -614 -244 -848 -27
-223 -17 -798 25 -1430 12 -171 13 -180 33 -180 26 0 44 35 71 140 53 201 145
464 207 589 50 101 75 137 128 191 63 64 132 110 166 110 8 0 15 5 15 11 0 18
-74 2 -131 -27 -68 -34 -121 -84 -174 -165 -46 -68 -117 -227 -151 -333 -10
-31 -19 -54 -21 -53 -1 2 4 37 12 79 8 41 28 205 45 363 44 410 82 575 176
753 72 137 125 192 187 192 25 0 52 -22 41 -33 -4 -3 -20 -3 -36 0 -26 5 -29
3 -26 -13 7 -38 84 -29 94 12 10 38 -19 64 -73 64 -89 0 -146 -57 -229 -225
-97 -199 -132 -359 -174 -781 -18 -183 -36 -313 -82 -589 -16 -98 -27 -113
-29 -40 -1 33 -3 76 -5 95 -10 124 -25 489 -30 740 -12 523 23 723 212 1232
195 525 279 845 326 1253 32 274 2 2525 -36 2731 -2 10 -7 39 -11 64 -13 86
-57 255 -76 292 -39 77 -88 74 -126 -8 -56 -122 -74 -295 -93 -894 -15 -472
-34 -695 -67 -794 -14 -45 -17 -48 -29 -32 -20 28 -51 178 -64 302 -5 62 -26
496 -45 965 -35 875 -47 1107 -66 1334 -33 409 -122 795 -188 820 -26 10 -64
-29 -84 -86 -22 -63 -51 -206 -67 -334 -8 -58 -15 -418 -20 -1025 -9 -1060
-29 -1673 -59 -1775 -8 -30 -8 -29 -24 25 -33 114 -37 217 -67 1655 -31 1520
-44 1772 -111 2175 -12 69 -28 148 -37 175 -14 42 -21 51 -44 53 -19 2 -31 -3
-42 -20z"/>
<path d="M6115 9353 c-15 -128 -25 -177 -40 -200 -19 -29 -67 -51 -130 -60
-61 -8 -57 -19 9 -26 68 -7 108 -28 125 -64 8 -15 21 -73 30 -128 l17 -100 12
86 c20 154 47 191 150 205 29 3 52 10 52 15 0 5 -22 11 -49 15 -64 8 -109 36
-126 77 -7 17 -19 76 -25 130 -7 53 -14 97 -16 97 -1 0 -5 -21 -9 -47z m25
-274 c0 -14 -5 -19 -17 -17 -26 5 -29 38 -4 38 15 0 21 -6 21 -21z"/>
<path d="M6647 8483 c-4 -58 -7 -177 -7 -265 0 -87 -2 -158 -5 -158 -2 0 -41
38 -86 85 -45 47 -84 83 -87 81 -2 -3 26 -46 62 -96 37 -50 69 -97 72 -104 4
-12 -21 -14 -148 -16 -84 0 -169 -5 -188 -9 l-35 -8 48 -8 c26 -4 111 -10 188
-14 l140 -6 -75 -100 c-42 -55 -76 -104 -76 -110 0 -5 42 32 93 83 l94 93 7
-262 c4 -145 9 -265 11 -268 14 -13 17 29 22 268 4 144 9 261 13 261 4 0 25
-19 45 -42 84 -94 127 -139 131 -135 2 2 -28 50 -67 106 -38 57 -69 104 -67
106 2 2 66 6 143 9 284 13 298 34 24 35 -91 1 -168 4 -172 7 -3 4 13 32 37 63
67 89 108 151 98 151 -5 0 -44 -38 -87 -85 -42 -47 -81 -85 -86 -85 -5 0 -9
55 -9 123 0 170 -12 407 -20 407 -4 0 -10 -48 -13 -107z"/>
<path d="M3577 8043 c-16 -15 -6 -34 15 -31 29 4 38 38 10 38 -10 0 -22 -3
-25 -7z"/>
<path d="M3422 7563 c5 -40 -15 -261 -29 -313 -24 -93 -60 -119 -201 -146 -50
-10 -90 -19 -89 -21 2 -1 39 -8 82 -14 99 -13 150 -34 175 -69 27 -37 47 -125
55 -235 12 -179 15 -208 20 -213 3 -3 5 26 5 64 0 38 5 122 10 187 15 198 49
239 216 261 104 13 104 15 -16 40 -162 35 -192 84 -206 341 -3 74 -11 135 -15
135 -5 0 -8 -8 -7 -17z m39 -455 c23 -43 -21 -89 -59 -62 -27 19 -28 48 -2 74
22 22 45 18 61 -12z"/>
<path d="M6837 6676 c-8 -20 20 -43 35 -28 14 14 3 42 -16 42 -7 0 -16 -6 -19
-14z"/>
<path d="M5147 5140 c-4 -30 -10 -215 -13 -410 l-7 -355 -121 128 c-67 70
-125 127 -129 127 -11 0 40 -73 134 -191 43 -54 79 -101 79 -103 0 -2 -120 -5
-267 -8 -150 -2 -275 -8 -283 -13 -22 -15 56 -22 322 -31 l227 -7 -102 -121
c-131 -156 -132 -156 -119 -156 6 0 67 54 135 120 l124 119 7 -337 c5 -185 11
-371 15 -412 l6 -75 9 90 c5 50 12 234 15 410 l6 320 129 -125 c142 -138 143
-125 3 53 l-89 112 93 2 c159 4 442 24 457 32 21 12 -127 21 -350 21 -109 0
-198 3 -198 6 0 3 33 46 73 97 68 86 123 162 142 197 4 8 -53 -45 -127 -118
l-135 -134 -6 369 c-4 202 -10 386 -15 408 l-8 40 -7 -55z"/>
</g>
</svg>
