<svg xmlns="http://www.w3.org/2000/svg" viewBox="0 0 537.179378 1045.283532" color="#C8A848"><rect width="537.179378" height="1045.283532" fill="#1A0A24"/><g transform="translate(-252.981128,1037.019462) scale(0.100000,-0.100000)"
fill="currentColor" stroke="none">
<path d="M5137 10223 c-10 -17 -19 -713 -9 -713 13 0 20 111 28 436 4 186 3
273 -4 278 -6 3 -13 3 -15 -1z"/>
<path d="M4610 10098 c0 -15 35 -114 78 -221 44 -107 92 -240 107 -296 18 -65
32 -97 36 -88 8 13 -33 188 -64 272 -50 137 -131 332 -143 345 -12 12 -14 11
-14 -12z"/>
<path d="M5560 9858 c-51 -128 -104 -255 -117 -281 -13 -27 -23 -56 -21 -65 5
-23 46 58 104 205 26 65 68 170 95 234 27 65 49 122 49 128 0 41 -29 -18 -110
-221z"/>
<path d="M3895 9900 c-10 -17 85 -111 320 -317 110 -97 237 -209 282 -249 75
-68 103 -86 103 -66 0 12 -109 115 -295 278 -93 82 -208 185 -255 229 -143
135 -147 138 -155 125z"/>
<path d="M6254 9807 c-38 -34 -132 -119 -209 -187 -158 -140 -365 -340 -365
-352 0 -17 30 -7 45 15 19 30 207 204 442 410 161 141 194 177 164 177 -5 0
-39 -28 -77 -63z"/>
<path d="M3160 9796 c0 -9 5 -16 10 -16 6 0 10 4 10 9 0 6 -4 13 -10 16 -5 3
-10 -1 -10 -9z"/>
<path d="M3380 9450 c0 -5 7 -10 15 -10 8 0 15 5 15 10 0 6 -7 10 -15 10 -8 0
-15 -4 -15 -10z"/>
<path d="M5019 9287 c-70 -47 -119 -190 -155 -447 -12 -88 -18 -248 -23 -680
-4 -311 -10 -571 -14 -577 -4 -6 -11 -302 -17 -659 -5 -357 -15 -687 -20 -734
-12 -95 -36 -190 -49 -190 -13 0 -31 51 -42 116 -5 33 -15 318 -23 634 -11
436 -20 624 -36 775 -23 208 -23 205 -4 721 12 316 -20 501 -101 581 -48 49
-69 52 -132 22 -148 -72 -206 -300 -223 -879 -5 -168 -11 -314 -14 -325 -16
-60 -27 -377 -36 -1021 -10 -734 -15 -845 -51 -1134 -32 -260 -113 -682 -150
-778 l-9 -24 -30 37 c-51 64 -105 172 -175 350 -99 251 -123 326 -141 449 -38
261 -152 521 -313 714 -96 115 -235 202 -324 202 -42 0 -53 -5 -89 -38 -38
-36 -41 -42 -40 -90 1 -28 11 -77 23 -109 68 -181 100 -289 114 -389 42 -282
67 -396 140 -634 86 -280 106 -367 135 -605 12 -93 33 -224 46 -290 27 -132
16 -109 382 -775 74 -135 170 -310 214 -390 44 -80 120 -205 170 -279 149
-221 178 -327 187 -681 6 -247 -2 -1088 -14 -1370 -4 -91 -4 -163 -1 -160 16
16 39 240 56 539 14 255 15 1093 1 1206 -11 87 -41 229 -57 270 -7 16 -1 14
31 -11 72 -55 136 -96 166 -104 44 -13 33 1 -56 68 -87 65 -203 179 -259 254
-56 73 -131 201 -293 498 -83 151 -199 363 -258 470 -197 356 -202 366 -224
475 -11 55 -32 190 -46 299 -33 255 -50 336 -125 581 -81 265 -106 371 -130
547 -26 198 -44 271 -100 418 -63 167 -66 182 -34 220 20 23 34 30 61 30 67 0
196 -85 284 -186 138 -159 272 -452 299 -654 19 -137 37 -201 112 -399 131
-345 200 -462 334 -571 85 -68 332 -235 339 -228 11 11 -88 106 -174 167 -53
38 -113 84 -133 103 l-37 33 25 74 c32 97 97 420 129 641 48 341 55 460 60
1100 5 602 18 992 36 1125 5 39 14 210 19 380 11 406 37 584 102 722 30 64 72
106 119 118 22 5 31 0 57 -30 78 -96 96 -298 70 -811 -10 -213 -10 -258 5
-400 31 -282 37 -410 47 -894 9 -451 18 -608 39 -663 10 -26 56 -67 76 -67 22
0 53 45 69 100 29 100 37 248 46 880 5 344 14 706 19 805 6 99 10 335 9 525 0
259 4 382 16 492 30 273 65 410 119 473 28 32 37 37 60 31 54 -13 111 -121
141 -267 37 -182 49 -322 51 -634 1 -170 6 -445 10 -610 4 -165 9 -586 10
-935 2 -642 6 -724 40 -816 20 -53 57 -88 83 -80 56 18 69 150 77 764 3 251
10 576 16 722 8 194 8 312 0 440 -22 338 -23 406 -12 562 7 109 17 177 32 223
36 109 103 144 169 88 75 -62 99 -191 125 -653 8 -146 23 -348 34 -450 33
-305 41 -527 40 -1105 -1 -571 0 -595 42 -676 25 -51 75 -91 108 -87 52 6 79
110 106 412 54 617 58 678 61 1007 3 427 17 533 76 596 56 60 168 -4 197 -112
6 -22 15 -106 20 -185 15 -223 22 -988 11 -1125 -6 -66 -14 -385 -20 -710 -10
-621 -15 -727 -56 -1105 -71 -664 -148 -1072 -275 -1455 -70 -211 -114 -317
-181 -438 -52 -95 -64 -158 -14 -77 15 25 38 63 52 85 l25 40 -6 -40 c-38
-228 -33 -1020 10 -1617 15 -212 29 -336 39 -346 8 -7 8 5 -9 533 -17 542 -19
1086 -5 1275 14 173 36 277 105 480 152 449 223 798 300 1467 40 357 53 588
60 1078 3 253 13 600 21 771 13 258 14 387 5 770 -14 593 -21 645 -102 726
-88 88 -194 75 -250 -32 -34 -67 -41 -135 -49 -525 -9 -406 -15 -509 -55 -965
-30 -332 -51 -460 -74 -460 -16 0 -53 50 -74 101 -22 53 -22 62 -28 779 -5
650 -8 744 -27 910 -12 102 -29 309 -37 460 -23 401 -48 576 -92 649 -53 84
-111 114 -182 93 -74 -23 -120 -104 -142 -254 -14 -99 -14 -447 1 -639 7 -91
10 -225 7 -325 -4 -93 -11 -437 -16 -764 -9 -551 -21 -793 -40 -827 -11 -20
-40 47 -52 122 -6 35 -15 410 -20 885 -18 1696 -23 1825 -73 2043 -33 141 -87
241 -145 272 -41 21 -62 19 -102 -8z"/>
<path d="M6219 9182 c-185 -104 -198 -132 -20 -43 73 37 121 67 121 76 0 22
-6 20 -101 -33z"/>
<path d="M3962 9211 c4 -12 238 -134 245 -128 8 8 -75 66 -149 103 -66 33
-103 43 -96 25z"/>
<path d="M6986 9053 c-2 -16 -7 -50 -11 -78 -15 -121 -49 -162 -152 -180 -40
-8 -55 -13 -37 -14 17 0 53 -8 80 -16 81 -24 106 -73 119 -234 7 -76 9 -83 21
-66 8 10 14 42 14 71 0 160 61 241 185 245 19 1 8 5 -31 13 -68 14 -106 34
-130 71 -14 22 -32 125 -34 193 0 31 -17 28 -24 -5z  m54 -323 c-37 -38 -47
-44 -55 -32 -5 8 -23 30 -39 49 l-29 34 38 39 38 39 46 -41 47 -42 -46 -46z"/>
<path d="M3697 8894 c-12 -12 -8 -42 6 -47 21 -8 39 8 35 29 -3 19 -29 30 -41
18z"/>
<path d="M3162 8705 c-25 -241 -36 -280 -96 -343 -48 -51 -79 -63 -189 -70
l-102 -7 98 -13 c113 -14 151 -28 191 -68 50 -51 66 -97 83 -237 8 -73 18
-145 22 -162 8 -29 8 -28 14 15 3 25 10 96 16 157 7 74 18 130 32 163 23 53
75 107 112 114 43 10 166 26 204 27 21 1 -7 5 -62 10 -55 5 -119 15 -142 24
-57 22 -109 82 -127 147 -13 46 -32 209 -39 333 -1 22 -8 -18 -15 -90z  m94
-373 c21 -18 50 -35 63 -39 21 -5 19 -8 -25 -32 -54 -29 -114 -107 -114 -148
0 -32 -17 -21 -25 16 -9 40 -81 120 -125 139 -34 14 -34 15 -12 23 61 23 141
121 142 175 1 11 14 -8 29 -42 17 -36 44 -73 67 -92z"/>
<path d="M6452 8288 c-30 -30 9 -69 44 -43 15 11 17 17 8 32 -14 23 -36 27
-52 11z"/>
<path d="M5051 8179 c-24 -5 -47 -11 -50 -15 -7 -7 112 5 160 16 31 7 30 8
-16 8 -27 0 -70 -4 -94 -9z"/>
<path d="M5048 8123 c-16 -2 -28 -8 -28 -13 0 -9 43 -5 110 10 35 8 34 8 -10
7 -25 0 -57 -2 -72 -4z"/>
<path d="M4370 7860 c-20 -6 -15 -8 27 -9 28 -1 60 -4 70 -7 12 -5 15 -4 8 4
-14 15 -75 22 -105 12z"/>
<path d="M4365 7810 c-15 -6 -9 -9 27 -9 26 -1 58 -5 72 -11 16 -6 26 -6 26 0
0 9 -64 30 -90 29 -8 0 -24 -4 -35 -9z"/>
<path d="M5666 7789 c-59 -14 -58 -23 2 -16 58 7 107 27 62 26 -14 -1 -43 -5
-64 -10z"/>
<path d="M5660 7735 c-41 -12 -42 -13 -14 -14 16 -1 39 6 50 14 22 17 22 17
-36 0z"/>
<path d="M6985 7580 c-4 -7 -3 -16 3 -22 14 -14 45 -2 40 15 -6 16 -34 21 -43
7z"/>
<path d="M3488 7469 c-21 -12 -24 -59 -6 -77 7 -7 21 -12 33 -12 29 0 45 19
45 52 0 21 -6 31 -26 38 -30 12 -25 12 -46 -1z"/>
<path d="M2876 7283 c-3 -21 -6 -58 -6 -83 0 -48 -26 -102 -57 -118 -10 -5
-37 -13 -60 -17 -58 -9 -54 -22 9 -30 74 -10 93 -34 101 -122 4 -39 10 -78 13
-87 11 -29 24 -5 24 45 0 93 43 151 120 164 54 9 58 21 9 28 -85 11 -117 53
-128 167 -5 44 -11 83 -13 86 -3 2 -8 -12 -12 -33z  m52 -216 c9 -10 8 -19 -4
-35 -19 -27 -45 -28 -69 -2 -18 20 -18 21 5 45 24 25 43 23 68 -8z"/>
<path d="M5032 7213 c-83 -19 -73 -28 15 -13 47 7 81 8 108 1 22 -5 51 -12 65
-16 19 -5 16 -1 -10 13 -50 28 -106 33 -178 15z"/>
<path d="M7407 7217 c-4 -10 -11 -68 -17 -130 -21 -216 -90 -302 -255 -314
-41 -3 -75 -9 -75 -13 0 -4 30 -10 67 -14 37 -4 86 -15 108 -25 43 -19 100
-77 117 -120 17 -44 47 -232 48 -301 1 -103 17 -51 29 97 14 156 31 221 73
269 42 47 72 61 168 78 45 8 84 17 87 20 4 3 -20 6 -53 6 -103 0 -165 29 -216
99 -34 47 -45 94 -61 246 -7 69 -16 112 -20 102z  m57 -372 c32 -41 81 -75 111
-75 14 -1 7 -7 -21 -21 -57 -28 -101 -77 -128 -141 l-22 -56 -17 47 c-22 62
-77 125 -129 146 l-43 18 30 10 c53 17 92 55 124 118 17 34 31 69 31 78 1 9 9
-7 19 -36 9 -28 30 -68 45 -88z"/>
<path d="M5073 7131 c-28 -4 -55 -10 -60 -15 -12 -13 106 -1 119 12 7 7 8 11
3 11 -6 -1 -33 -5 -62 -8z"/>
<path d="M6331 7056 c6 -6 113 -36 127 -36 4 1 -5 7 -19 15 -28 15 -119 33
-108 21z"/>
<path d="M6345 6999 c-3 -4 13 -9 34 -11 22 -2 38 0 35 3 -6 10 -64 17 -69 8z"/>
<path d="M4355 6980 c-37 -5 -18 -7 70 -8 75 0 113 3 100 8 -23 10 -98 10
-170 0z"/>
<path d="M5735 6949 c-16 -5 -48 -8 -70 -5 -40 5 -40 5 -11 -8 30 -13 110 -4
131 15 12 11 -10 10 -50 -2z"/>
<path d="M4345 6901 c-14 -6 -2 -8 40 -7 33 0 78 -3 100 -7 31 -7 37 -6 28 4
-14 14 -140 22 -168 10z"/>
<path d="M5673 6863 c15 -2 37 -2 50 0 12 2 0 4 -28 4 -27 0 -38 -2 -22 -4z"/>
<path d="M3424 6595 c-4 -9 -2 -21 4 -27 15 -15 44 -1 40 19 -4 23 -36 29 -44
8z"/>
<path d="M6300 6401 c0 -15 32 -29 79 -37 28 -4 41 -3 41 5 0 6 -14 11 -30 11
-17 0 -44 7 -60 15 -17 9 -30 11 -30 6z"/>
<path d="M6335 6295 c17 -8 37 -14 45 -14 8 0 2 7 -15 14 -16 8 -37 14 -45 14
-8 0 -1 -7 15 -14z"/>
<path d="M4985 6001 c-30 -6 -13 -9 70 -10 61 0 126 -5 144 -11 42 -12 51 -6
19 11 -27 15 -175 21 -233 10z"/>
<path d="M4406 5987 c-35 -11 -26 -12 79 -12 105 0 114 1 79 12 -22 6 -57 11
-79 11 -22 0 -57 -5 -79 -11z"/>
<path d="M5620 5881 c8 -5 35 -11 58 -15 24 -4 70 -18 103 -31 67 -29 76 -30
60 -11 -20 24 -104 53 -171 59 -37 4 -59 3 -50 -2z"/>
<path d="M6180 5669 c0 -5 7 -9 15 -9 8 0 59 -23 112 -51 94 -49 97 -49 68
-19 -16 18 -41 38 -55 45 -38 20 -140 45 -140 34z"/>
<path d="M7022 5658 c-17 -17 -15 -53 3 -68 20 -17 62 -5 70 21 13 40 -44 76
-73 47z"/>
<path d="M4844 5452 c10 -16 178 -131 291 -199 55 -33 165 -93 245 -133 297
-149 842 -381 858 -365 3 2 -8 9 -24 16 -16 6 -56 21 -89 34 -139 53 -504 213
-680 299 -197 96 -327 170 -504 289 -57 38 -101 64 -97 59z"/>
<path d="M3283 5410 c-41 -25 -43 -36 -3 -15 16 8 51 15 77 16 36 0 43 3 28 9
-33 14 -68 11 -102 -10z"/>
<path d="M4432 5121 c120 -80 297 -244 388 -360 35 -45 66 -81 68 -81 9 0 -40
69 -114 158 -114 139 -267 267 -391 331 -70 35 -59 24 49 -48z"/>
<path d="M7465 5110 c-8 -14 3 -30 21 -30 8 0 14 9 14 20 0 21 -24 28 -35 10z"/>
<path d="M5138 4970 c-4 -14 -8 -48 -8 -75 0 -81 -19 -210 -41 -281 -16 -52
-31 -77 -67 -113 -55 -55 -105 -73 -248 -92 l-99 -13 99 -13 c118 -14 188 -46
247 -111 69 -75 89 -142 105 -352 13 -182 22 -161 44 112 6 71 16 123 31 157
23 56 85 118 146 150 45 23 159 51 205 51 54 0 23 11 -59 21 -124 15 -175 34
-231 84 -76 68 -98 143 -111 380 -4 76 -9 111 -13 95z  m54 -447 c33 -50 95
-94 158 -116 38 -13 42 -17 25 -23 -66 -24 -88 -37 -130 -75 -51 -47 -82 -99
-100 -169 l-12 -45 -18 63 c-29 101 -95 179 -185 219 l-35 15 48 15 c33 9 65
30 102 66 45 43 57 63 71 116 l18 64 15 -44 c7 -24 27 -63 43 -86z"/>
<path d="M7007 4396 c-7 -19 18 -40 39 -32 8 3 14 14 12 23 -4 22 -43 29 -51
9z"/>
<path d="M5086 3623 c-13 -236 -54 -475 -107 -632 -27 -76 -23 -87 6 -19 33
75 70 221 90 349 15 101 33 429 23 429 -3 0 -8 -57 -12 -127z"/>
<path d="M4882 2516 c-41 -8 -77 -18 -80 -21 -4 -4 9 -5 28 -1 19 4 98 9 176
13 160 6 256 -8 382 -57 39 -15 72 -26 72 -24 0 10 -88 46 -167 70 -110 32
-298 41 -411 20z"/>
<path d="M2779 2237 c-97 -66 -126 -229 -64 -364 44 -97 180 -219 436 -391 74
-50 164 -118 200 -152 l64 -61 -55 31 c-166 95 -281 133 -405 134 -105 1 -161
-20 -215 -81 -78 -89 -88 -216 -24 -300 79 -103 274 -90 274 18 0 28 -27 59
-51 59 -40 0 -53 -59 -18 -84 21 -14 21 -15 -14 -21 -69 -13 -139 21 -172 86
-32 61 -12 164 43 223 102 109 333 83 597 -68 135 -78 258 -217 413 -468 40
-64 97 -151 127 -192 30 -42 51 -76 48 -76 -3 0 -44 36 -90 81 -147 141 -333
246 -480 270 -170 28 -293 -72 -293 -238 1 -106 43 -183 122 -224 97 -50 198
11 198 119 0 53 -43 90 -82 70 -25 -12 -22 -28 5 -28 31 0 47 -18 47 -53 0
-90 -104 -125 -180 -60 -95 80 -102 239 -13 325 47 46 79 58 152 58 175 0 502
-205 683 -428 34 -42 53 -70 41 -62 -11 8 -51 38 -89 67 -64 48 -184 113 -359
194 -38 18 -73 35 -77 37 -5 2 -8 -3 -8 -12 0 -10 56 -43 163 -95 117 -58 191
-103 267 -161 58 -44 141 -108 185 -141 90 -69 230 -141 320 -164 33 -9 103
-18 155 -22 260 -16 423 122 371 315 -13 47 -60 106 -102 128 -36 18 -102 18
-139 -1 -55 -29 -75 -101 -43 -155 30 -51 93 -66 117 -28 8 14 6 22 -10 39
-27 26 -64 18 -64 -14 0 -20 0 -20 -15 -1 -20 27 -19 87 3 114 28 35 106 39
152 8 75 -51 102 -146 66 -231 -20 -48 -91 -105 -155 -124 -85 -24 -284 -14
-379 19 -87 31 -189 91 -254 148 -57 49 -209 268 -303 435 -124 220 -176 296
-305 445 -31 36 -63 77 -72 91 -43 69 -62 216 -33 255 14 18 14 18 15 -7 0
-38 24 -55 55 -41 19 9 25 19 25 41 0 52 -65 69 -115 29 -27 -21 -27 -23 -23
-102 3 -54 11 -95 25 -123 12 -24 19 -43 16 -43 -3 0 -44 36 -91 81 -97 91
-157 140 -389 316 -220 168 -264 237 -250 390 11 117 59 177 142 175 26 0 49
-2 51 -5 3 -3 -6 -16 -20 -30 -33 -33 -33 -64 -1 -79 22 -10 30 -8 53 9 40 30
41 75 3 113 -26 27 -36 30 -89 30 -45 0 -67 -5 -93 -23z"/>
<path d="M7303 2240 c-17 -10 -37 -28 -42 -39 -26 -48 0 -101 50 -101 49 0 65
44 28 81 -25 25 -22 28 23 35 122 20 184 -129 128 -308 -28 -92 -74 -138 -295
-303 -104 -78 -240 -187 -302 -243 l-112 -102 20 46 c12 25 23 79 26 119 5 69
4 75 -20 99 -44 44 -127 27 -127 -26 0 -42 67 -50 81 -10 7 19 5 25 -11 29
-19 5 -29 23 -12 23 28 -1 62 -57 62 -105 0 -104 -38 -182 -160 -335 -113
-142 -178 -240 -270 -406 -158 -286 -233 -385 -353 -466 -133 -91 -259 -129
-426 -130 -86 0 -117 4 -164 22 -72 27 -115 63 -138 115 -59 130 43 288 166
254 63 -18 95 -89 60 -135 -14 -18 -16 -18 -26 -2 -20 34 -79 16 -79 -24 0
-29 34 -41 73 -24 46 19 67 52 67 104 0 38 -5 50 -40 84 -39 39 -42 40 -94 36
-111 -9 -181 -92 -180 -213 0 -146 118 -241 314 -252 234 -14 433 71 700 297
97 82 158 121 313 199 151 76 167 89 153 128 -6 14 -12 11 -39 -14 -18 -17
-99 -65 -182 -107 -88 -45 -178 -99 -218 -131 -37 -30 -70 -55 -73 -55 -12 0
117 149 178 205 103 96 280 203 407 246 73 25 170 25 220 -1 80 -40 116 -112
109 -215 -7 -106 -71 -180 -156 -180 -55 0 -92 37 -92 91 0 30 4 37 30 47 33
13 36 19 16 36 -9 8 -21 8 -40 1 -73 -27 -51 -151 34 -195 87 -45 200 23 236
141 28 94 13 178 -44 244 -66 78 -150 101 -270 76 -133 -28 -285 -117 -434
-256 -79 -73 -93 -80 -59 -32 11 15 51 81 91 147 241 402 429 567 737 645 169
44 276 10 335 -104 59 -113 -12 -270 -113 -249 -24 4 -26 8 -22 42 6 47 -14
67 -54 54 -60 -20 -53 -102 12 -129 49 -20 94 -18 145 8 64 32 95 91 95 178 0
150 -117 260 -274 260 -104 -1 -266 -54 -394 -130 l-52 -31 40 37 c22 20 85
68 140 107 251 178 311 224 394 305 72 71 92 98 110 145 56 152 28 299 -68
364 -43 29 -113 31 -158 3z"/>
</g></svg>