<?xml version="1.0" standalone="no"?>
<!DOCTYPE svg PUBLIC "-//W3C//DTD SVG 20010904//EN"
 "http://www.w3.org/TR/2001/REC-SVG-20010904/DTD/svg10.dtd">
<svg version="1.0" xmlns="http://www.w3.org/2000/svg"
 width="504.707586pt" height="1052.741263pt" viewBox="0 0 504.707586 1052.741263"
 preserveAspectRatio="xMidYMid meet">
<metadata>
Created by potrace 1.16, written by Peter Selinger 2001-2019
</metadata>
<g transform="translate(-262.692414,1038.400000) scale(0.100000,-0.100000)"
fill="currentColor" stroke="none">
<path d="M5110 9694 c0 -432 3 -545 13 -542 9 4 13 124 15 546 2 478 0 542
-13 542 -13 0 -15 -66 -15 -546z"/>
<path d="M4440 9852 c0 -23 249 -754 261 -766 5 -5 11 -7 15 -4 5 6 -183 588
-238 736 -19 51 -38 69 -38 34z"/>
<path d="M5752 9758 c-110 -312 -226 -667 -219 -674 4 -4 9 -5 12 -2 11 11
265 752 265 773 0 41 -22 4 -58 -97z"/>
<path d="M3930 9360 c0 -6 39 -54 87 -108 194 -217 278 -309 309 -339 37 -36
64 -45 42 -14 -29 40 -421 471 -429 471 -5 0 -9 -5 -9 -10z"/>
<path d="M6117 9151 c-214 -237 -242 -270 -235 -277 9 -8 80 64 263 266 167
185 202 230 177 230 -5 0 -97 -98 -205 -219z"/>
<path d="M5036 8985 c-168 -59 -225 -341 -197 -965 9 -189 9 -489 2 -1160 -10
-863 -19 -1099 -43 -1127 -16 -19 -56 -16 -68 6 -23 44 -48 500 -55 1021 -2
213 -9 349 -25 490 -17 149 -24 296 -30 625 -9 446 -22 601 -55 651 -38 59
-133 83 -185 47 -63 -44 -88 -112 -119 -323 -42 -287 -53 -540 -71 -1570 -18
-1079 -66 -1626 -170 -1963 -12 -37 -25 -65 -29 -62 -15 9 -137 196 -201 309
-127 221 -180 356 -206 516 -46 289 -102 469 -201 645 -77 137 -204 265 -317
321 -131 64 -254 59 -272 -10 -4 -17 7 -53 35 -116 127 -280 186 -480 236
-795 22 -141 47 -256 115 -525 32 -129 80 -336 105 -460 57 -274 94 -400 188
-635 79 -201 320 -686 477 -960 317 -554 383 -753 397 -1190 5 -184 -8 -594
-27 -840 -20 -242 -29 -599 -17 -607 31 -20 34 -4 42 232 3 96 13 281 22 410
10 151 16 377 17 630 1 435 -3 475 -65 690 -56 190 -119 321 -368 764 -111
196 -308 588 -385 763 -126 288 -179 457 -245 783 -22 107 -71 319 -110 471
-38 152 -84 361 -101 465 -55 336 -95 479 -205 739 -72 172 -71 166 -50 182
26 18 66 16 137 -8 129 -43 253 -157 351 -322 108 -181 155 -320 191 -568 29
-197 48 -261 130 -433 115 -243 320 -552 350 -527 28 24 82 229 120 458 33
200 44 297 56 503 6 96 15 254 20 350 6 96 15 434 20 750 17 1079 40 1489 95
1726 36 155 96 209 176 159 53 -33 73 -191 71 -565 -1 -286 6 -423 43 -800 9
-95 15 -260 15 -425 0 -408 34 -964 63 -1024 21 -44 83 -53 130 -19 28 21 36
75 47 303 16 318 29 1720 18 1925 -5 96 -8 294 -5 440 4 232 7 275 26 343 31
113 63 178 105 215 41 36 67 39 126 16 54 -22 75 -54 106 -165 26 -92 27 -101
35 -524 4 -236 15 -560 23 -720 9 -163 20 -627 26 -1062 6 -460 14 -782 20
-797 19 -52 100 -54 119 -3 12 32 58 387 71 552 19 238 30 574 40 1280 10 730
16 838 50 949 30 94 70 128 135 112 75 -19 133 -249 150 -596 4 -69 20 -336
36 -595 25 -394 31 -581 39 -1160 5 -379 14 -719 19 -754 12 -76 39 -113 66
-91 28 23 42 61 64 170 29 151 49 296 66 487 18 204 39 886 32 1001 -11 157
22 392 60 434 24 27 68 23 92 -8 45 -57 83 -231 125 -564 44 -346 46 -816 6
-1215 -18 -179 -21 -291 -24 -750 -4 -656 -14 -767 -112 -1255 -91 -453 -172
-736 -293 -1030 -104 -250 -145 -441 -162 -760 -11 -196 -9 -1574 2 -1585 4
-3 13 -3 21 0 13 5 15 88 10 688 -8 1103 11 1266 198 1717 105 252 176 507
265 950 100 497 117 688 116 1320 -1 413 2 502 20 685 27 265 36 736 20 972
-28 400 -94 762 -155 856 -43 64 -140 58 -175 -12 -46 -89 -52 -166 -61 -721
-4 -289 -11 -550 -14 -580 -3 -30 -11 -111 -16 -180 -19 -221 -81 -582 -97
-566 -15 15 -24 242 -33 851 -5 380 -15 763 -24 885 -8 118 -22 341 -31 495
-34 613 -44 692 -96 825 -39 97 -63 122 -126 127 -98 9 -143 -44 -184 -212
-21 -86 -22 -121 -30 -800 -11 -963 -25 -1288 -74 -1671 -30 -234 -32 -246
-54 -242 -21 4 -26 147 -41 1088 -6 382 -15 763 -20 845 -26 419 -30 521 -30
777 0 160 -5 299 -11 330 -32 158 -71 226 -149 266 -51 25 -70 27 -124 7z"/>
<path d="M3506 8473 c-5 -11 -1 -22 10 -30 22 -16 34 -8 34 23 0 29 -34 34
-44 7z"/>
<path d="M6810 8288 c0 -87 -24 -178 -55 -205 -13 -12 -50 -27 -82 -33 -86
-17 -93 -22 -43 -32 80 -17 114 -33 136 -65 22 -32 44 -146 44 -223 0 -22 4
-40 9 -40 11 0 16 21 31 125 22 150 49 183 163 200 26 4 47 11 47 15 0 4 -30
13 -67 20 -38 7 -76 17 -86 22 -28 14 -48 71 -61 177 -14 114 -36 137 -36 39z
 m60 -223 c7 -8 27 -19 44 -24 l31 -8 -25 -11 c-39 -16 -61 -47 -81 -114 -13
-48 -18 -56 -19 -33 -1 47 -36 114 -70 133 -32 18 -39 32 -16 32 30 0 64 41
77 91 l13 50 17 -50 c9 -28 22 -57 29 -66z"/>
<path d="M5038 7883 c17 -2 47 -2 65 0 17 2 3 4 -33 4 -36 0 -50 -2 -32 -4z"/>
<path d="M5043 7833 c26 -2 67 -2 90 0 23 2 2 3 -48 3 -49 0 -68 -1 -42 -3z"/>
<path d="M5708 7623 c28 -2 76 -2 105 0 28 2 5 3 -53 3 -58 0 -81 -1 -52 -3z"/>
<path d="M4335 7580 c-26 -7 -23 -8 20 -8 28 0 70 3 95 7 44 8 43 8 -20 9 -36
0 -78 -4 -95 -8z"/>
<path d="M5660 7584 c84 -8 180 -8 180 -1 0 4 -48 6 -107 5 -60 -1 -92 -3 -73
-4z"/>
<path d="M3365 7388 c-25 -167 -47 -216 -100 -230 -17 -4 -49 -12 -72 -18 -24
-6 -43 -15 -43 -19 0 -5 21 -12 48 -16 65 -10 108 -29 125 -57 15 -23 29 -85
42 -182 9 -64 19 -49 33 48 7 43 21 98 31 121 20 45 40 57 129 70 23 4 42 10
42 15 0 4 -32 16 -70 25 -55 13 -75 23 -91 46 -22 31 -49 141 -49 202 0 50
-17 47 -25 -5z  m72 -237 c14 -12 35 -21 47 -22 17 0 16 -3 -9 -14 -43 -19 -65
-47 -86 -107 -13 -40 -18 -47 -18 -26 -2 64 -43 122 -94 134 l-31 7 34 11 c41
13 78 64 87 119 l6 40 19 -61 c12 -39 28 -68 45 -81z"/>
<path d="M5015 6949 c22 -4 87 -7 145 -7 l105 1 -90 8 c-49 4 -115 7 -145 7
-55 0 -55 0 -15 -9z"/>
<path d="M4941 6866 c2 -2 81 -5 174 -8 97 -3 153 -2 130 3 -39 8 -312 13
-304 5z"/>
<path d="M7083 6744 c-3 -8 -1 -20 6 -27 14 -14 47 15 37 32 -10 16 -36 13
-43 -5z"/>
<path d="M5690 6710 c-16 -5 -2 -6 35 -3 33 3 62 7 64 9 8 7 -74 2 -99 -6z"/>
<path d="M4348 6693 c12 -2 30 -2 40 0 9 3 -1 5 -23 4 -22 0 -30 -2 -17 -4z"/>
<path d="M5655 6650 c-37 -7 -35 -7 20 -8 33 0 85 3 115 8 l55 7 -75 0 c-41 0
-93 -3 -115 -7z"/>
<path d="M6373 6653 c15 -2 37 -2 50 0 12 2 0 4 -28 4 -27 0 -38 -2 -22 -4z"/>
<path d="M6290 6620 c8 -5 22 -9 30 -9 10 0 8 3 -5 9 -27 12 -43 12 -25 0z"/>
<path d="M4310 6580 c9 -5 63 -5 125 -1 l110 8 -125 1 c-78 1 -119 -2 -110 -8z"/>
<path d="M6383 6043 c20 -2 54 -2 75 0 20 2 3 4 -38 4 -41 0 -58 -2 -37 -4z"/>
<path d="M6304 6000 c16 -5 68 -11 115 -14 65 -4 74 -3 36 3 -89 14 -183 21
-151 11z"/>
<path d="M4980 5676 c3 -3 53 -10 110 -15 58 -6 123 -13 145 -16 34 -4 33 -3
-12 9 -53 14 -252 32 -243 22z"/>
<path d="M4467 5645 c-48 -7 -91 -16 -95 -20 -4 -4 13 -5 38 -1 25 4 78 11
119 17 76 9 108 20 55 18 -16 -1 -69 -7 -117 -14z"/>
<path d="M7285 5573 c-27 -201 -45 -230 -162 -254 -35 -7 -63 -16 -63 -19 0
-3 30 -11 66 -17 103 -18 125 -47 149 -200 9 -53 18 -99 20 -102 7 -6 12 17
25 104 22 150 49 183 163 200 26 4 47 11 47 15 0 4 -28 13 -62 20 -106 20
-134 64 -154 238 -3 34 -10 62 -15 62 -4 0 -11 -21 -14 -47z  m62 -225 c10 -12
32 -27 48 -34 l30 -13 -32 -11 c-38 -14 -61 -46 -84 -120 -14 -41 -18 -48 -18
-27 -2 60 -45 131 -90 149 l-24 9 34 17 c38 19 78 88 80 137 1 24 4 19 19 -28
10 -32 27 -68 37 -79z"/>
<path d="M5574 5571 c4 -5 21 -12 39 -16 17 -4 88 -33 157 -65 136 -64 180
-82 180 -75 0 6 -214 108 -280 134 -61 25 -103 34 -96 22z"/>
<path d="M3243 5453 c37 -2 96 -2 130 0 34 2 4 3 -68 3 -71 0 -99 -1 -62 -3z"/>
<path d="M6188 5300 c41 -22 93 -53 115 -68 59 -40 77 -48 43 -18 -42 35 -197
126 -215 126 -9 0 17 -18 57 -40z"/>
<path d="M5176 5059 c-3 -8 -10 -75 -16 -149 -32 -375 -94 -477 -310 -514 -37
-6 -67 -15 -67 -21 0 -5 34 -16 75 -23 213 -36 273 -145 307 -562 4 -47 11
-94 15 -105 8 -21 8 -24 31 195 21 206 60 328 122 388 45 43 132 81 206 88 34
4 60 11 58 17 -2 6 -42 18 -90 28 -213 43 -269 138 -300 506 -12 144 -21 184
-31 152z  m37 -437 c17 -56 40 -104 71 -145 24 -33 99 -83 139 -92 27 -7 26 -8
-25 -32 -66 -30 -113 -74 -145 -136 -28 -56 -63 -183 -64 -236 0 -23 -6 -8
-15 44 -34 196 -94 290 -211 335 l-44 17 42 12 c28 9 62 32 100 70 49 50 60
68 82 137 13 43 28 106 33 139 l8 60 7 -61 c4 -34 14 -84 22 -112z"/>
<path d="M4522 4838 c54 -28 145 -88 204 -132 145 -110 167 -125 114 -76 -73
67 -204 158 -303 211 -50 27 -96 49 -102 49 -5 0 34 -24 87 -52z"/>
<path d="M4069 4503 c94 -64 262 -214 364 -327 217 -238 348 -440 447 -689 67
-171 99 -298 110 -437 l9 -115 -4 125 c-4 140 -25 230 -95 408 -77 199 -159
341 -308 541 -139 186 -520 541 -580 541 -7 0 18 -21 57 -47z"/>
<path d="M2774 4036 c-9 -24 4 -48 23 -44 12 2 18 12 18 28 0 29 -32 41 -41
16z"/>
<path d="M6962 3658 c2 -12 10 -23 18 -23 22 0 19 39 -3 43 -15 3 -18 -1 -15
-20z"/>
<path d="M3116 3087 c-26 -142 -59 -181 -167 -194 -27 -3 -49 -9 -49 -14 0 -4
26 -13 58 -19 113 -24 135 -51 157 -202 20 -129 25 -129 44 2 15 95 41 155 78
173 15 8 54 20 86 27 56 11 69 30 21 30 -53 0 -115 23 -138 51 -25 29 -43 93
-53 187 -3 28 -9 52 -13 52 -4 0 -15 -42 -24 -93z  m85 -181 c17 -14 38 -26 47
-26 9 -1 3 -7 -15 -15 -37 -16 -60 -48 -84 -118 -15 -44 -18 -47 -18 -23 -2
53 -40 117 -82 135 l-38 18 34 16 c41 20 71 64 81 121 l7 40 18 -61 c13 -42
29 -70 50 -87z"/>
<path d="M6644 2516 c-10 -26 0 -51 21 -51 16 0 20 7 20 30 0 33 -30 49 -41
21z"/>
<path d="M5366 2231 c5 -5 34 -17 64 -27 72 -25 263 -25 330 -1 40 15 41 16
10 11 -164 -26 -241 -24 -355 11 -59 17 -62 18 -49 6z"/>
<path d="M3430 2019 c-48 -19 -93 -62 -116 -113 -60 -128 3 -266 122 -266 70
0 112 71 68 115 -21 20 -58 16 -62 -8 -3 -16 -1 -17 16 -8 38 20 58 -31 24
-62 -28 -26 -76 -21 -113 10 -79 67 -77 178 5 259 93 94 228 83 338 -26 108
-109 155 -252 165 -502 4 -116 3 -158 -5 -158 -7 0 -12 10 -12 23 0 29 -101
235 -136 276 -39 47 -83 39 -70 -13 3 -13 27 -53 53 -89 27 -36 54 -74 61 -84
13 -18 -29 61 -76 146 -22 38 -23 43 -7 40 39 -8 178 -311 195 -425 4 -33 20
-106 34 -163 14 -57 26 -112 26 -122 0 -43 -22 -23 -58 53 -47 100 -109 171
-207 237 -128 86 -250 116 -290 71 -27 -30 -13 -45 62 -65 117 -32 256 -108
339 -187 41 -39 84 -87 96 -107 11 -20 30 -45 40 -57 10 -11 29 -48 42 -81 27
-70 89 -175 190 -322 83 -121 106 -146 206 -223 91 -70 164 -110 264 -144 97
-32 143 -29 54 5 -233 87 -367 186 -494 366 -94 133 -156 242 -180 315 -9 30
-23 64 -31 75 -17 25 -17 85 2 253 25 221 65 352 109 360 19 4 19 -7 -1 -72
-11 -37 14 -6 27 34 12 36 12 43 -3 57 -15 15 -18 15 -42 -1 -59 -39 -104
-200 -112 -404 -3 -67 -8 -121 -10 -118 -2 2 -6 35 -8 73 -2 39 -12 96 -23
129 -17 52 -19 80 -14 234 3 107 0 204 -7 250 -34 219 -139 390 -269 434 -51
18 -154 20 -192 5z  m146 -849 c106 -52 221 -149 259 -220 4 -8 -14 6 -41 31
-27 25 -63 55 -80 67 -54 37 -187 99 -249 117 -70 20 -69 20 -60 36 12 19 103
3 171 -31z"/>
<path d="M6657 2016 c-122 -44 -210 -161 -263 -351 -13 -47 -18 -114 -21 -303
-2 -187 -6 -251 -18 -278 -8 -20 -15 -53 -15 -73 l0 -36 20 44 c11 24 23 69
26 100 3 31 15 81 27 111 45 119 160 330 179 330 18 0 5 -32 -44 -106 -60 -92
-113 -203 -123 -256 -11 -56 -1 -46 25 25 25 70 59 133 125 231 60 89 61 162
2 123 -26 -17 -103 -145 -142 -237 -16 -36 -33 -69 -38 -75 -16 -17 -1 292 18
375 22 96 73 203 123 261 74 83 182 123 270 100 81 -22 152 -111 152 -191 0
-51 -33 -116 -69 -134 -41 -22 -50 -20 -83 11 -15 15 -28 22 -28 16 0 -6 7
-16 15 -23 9 -7 13 -15 10 -18 -9 -9 -45 30 -45 49 0 10 9 23 19 29 16 8 23 6
34 -11 18 -25 33 -8 17 21 -14 27 -55 26 -74 -2 -21 -30 -20 -50 5 -82 17 -21
29 -26 67 -26 62 0 108 29 132 83 51 111 -1 245 -112 291 -46 19 -139 20 -191
2z"/>
<path d="M4053 1724 c-8 -21 13 -42 28 -27 13 13 5 43 -11 43 -6 0 -13 -7 -17
-16z"/>
<path d="M6193 1724 c-9 -23 13 -40 32 -24 12 10 13 16 4 26 -15 18 -28 18
-36 -2z"/>
<path d="M6167 1413 c-10 -10 -8 -39 5 -68 17 -37 28 -30 16 11 -17 63 9 58
43 -9 56 -108 83 -390 55 -550 -21 -117 -55 -190 -165 -355 -90 -135 -133
-183 -260 -285 -99 -80 -149 -111 -223 -137 l-53 -19 40 0 c26 0 61 11 100 32
73 39 297 217 322 256 10 15 57 86 104 157 157 236 164 258 164 509 -1 187 -8
253 -42 358 -24 76 -79 128 -106 100z"/>
<path d="M6732 1210 c-120 -43 -264 -166 -317 -271 -15 -29 -39 -71 -52 -92
-39 -62 -20 -66 21 -4 63 95 188 198 304 249 26 11 85 33 132 48 88 29 104 45
75 74 -22 22 -95 20 -163 -4z  m138 -10 c18 -11 21 -9 -80 -44 -117 -39 -204
-86 -285 -153 -83 -69 -70 -39 18 43 124 115 291 189 347 154z"/>
<path d="M6070 903 c0 -6 9 -28 21 -47 41 -70 33 -258 -15 -392 -16 -43 -19
-61 -10 -53 22 18 64 167 71 249 9 116 -3 185 -38 223 -15 18 -29 27 -29 20z"/>
<path d="M4161 874 c-28 -36 -34 -79 -28 -192 5 -98 45 -253 69 -268 8 -5 9
-1 3 12 -32 77 -47 167 -49 279 -1 110 1 123 22 158 27 42 14 50 -17 11z"/>
<path d="M3549 807 c-44 -29 -69 -80 -69 -140 0 -42 5 -54 34 -83 29 -29 41
-34 79 -34 78 0 125 72 77 120 -25 25 -42 25 -65 0 -22 -24 -14 -36 13 -19 44
27 73 -29 34 -64 -52 -48 -152 4 -152 78 0 52 24 102 62 125 97 62 309 -48
456 -236 l23 -29 -23 44 c-27 53 -122 150 -194 198 -98 65 -213 82 -275 40z"/>
<path d="M6560 821 c-90 -28 -243 -148 -290 -228 -19 -32 -14 -29 37 23 101
105 253 193 333 194 74 0 130 -61 130 -144 0 -37 -5 -48 -31 -70 -38 -32 -79
-33 -115 -3 -20 18 -25 29 -20 45 8 24 35 29 54 10 20 -20 53 22 58 73 l4 44
-13 -41 c-21 -63 -25 -66 -52 -48 -36 24 -65 4 -65 -45 0 -53 28 -76 90 -76
56 0 92 27 110 81 20 61 -18 147 -80 179 -30 16 -108 19 -150 6z"/>
<path d="M3628 612 c-10 -2 -18 -8 -18 -13 0 -13 27 -11 35 2 9 13 4 16 -17
11z"/>
<path d="M6630 610 c0 -5 7 -10 16 -10 8 0 12 5 9 10 -3 6 -10 10 -16 10 -5 0
-9 -4 -9 -10z"/>
</g>
</svg>
