<svg xmlns="http://www.w3.org/2000/svg" viewBox="0 0 64 64">
<g stroke="currentColor" stroke-width="2" stroke-linecap="round" stroke-linejoin="round" fill="none">
  <path d="M32 22.5 C29 18 30 13 32 8.5 C34 13 35 18 32 22.5 Z"/>
  <path d="M25 21.5 C23.5 18.5 24.5 16 26.5 13.5 C27.5 16.5 27 19.5 25 21.5 Z"/>
  <path d="M39 21.5 C40.5 18.5 39.5 16 37.5 13.5 C36.5 16.5 37 19.5 39 21.5 Z"/>
  <path d="M17.5 27 H46.5 C46.5 36.5 40.5 42 32 42 C23.5 42 17.5 36.5 17.5 27 Z"/>
  <path d="M32 42 V46.5"/>
  <path d="M23.5 52.5 C23.5 48.5 27 46.5 32 46.5 C37 46.5 40.5 48.5 40.5 52.5 Z"/>
</g>
</svg>