<svg xmlns="http://www.w3.org/2000/svg" viewBox="0 0 64 64">
<g fill="currentColor">
  <path d="M32 23 C29 18.5 30 13.5 32 9 C34 13.5 35 18.5 32 23 Z"/>
  <path d="M25.2 22 C23.7 19 24.6 16.4 26.6 14 C27.6 17 27.1 19.9 25.2 22 Z" fill-opacity=".7"/>
  <path d="M38.8 22 C40.3 19 39.4 16.4 37.4 14 C36.4 17 36.9 19.9 38.8 22 Z" fill-opacity=".7"/>
  <path d="M17.5 26.5 H26 V40.2 C21 38.3 17.9 33 17.5 26.5 Z" fill-opacity=".7"/>
  <path d="M28 26.5 H36 V41.8 C34.7 42 33.4 42 32 42 C30.6 42 29.3 42 28 41.8 Z"/>
  <path d="M46.5 26.5 H38 V40.2 C43 38.3 46.1 33 46.5 26.5 Z" fill-opacity=".7"/>
  <rect x="30.3" y="43.5" width="3.4" height="4.5"/>
  <path d="M23.5 53 C23.5 49.5 27 47.5 32 47.5 C37 47.5 40.5 49.5 40.5 53 Z" fill-opacity=".85"/>
</g>
</svg>