<svg xmlns="http://www.w3.org/2000/svg" viewBox="0 0 64 64">
<path fill="currentColor" fill-rule="evenodd" d="M18.1 34 V22 A2.4 2.4 0 0 1 22.9 22 V30 L23.6 30 V16 A2.4 2.4 0 0 1 28.4 16 V29 L29.1 29 V13 A2.4 2.4 0 0 1 33.9 13 V29 L34.6 29 V16 A2.4 2.4 0 0 1 39.4 16 V32 C40.5 30.5 43.5 26.8 45.8 25.6 C48 24.4 49.8 26.2 48.8 28.5 C47.6 31.2 43.5 34.8 41.8 38.2 C40.8 40.6 41.2 44.3 38 47.5 C35 50.5 28.6 51.4 24.6 49.3 C20.3 47 18.1 42 18.1 36.5 Z M24 41 Q30.5 46.4 37 40.7 Q30.5 44 24 41 Z"/>
</svg>