<svg xmlns="http://www.w3.org/2000/svg" viewBox="0 0 64 64">
<g fill="currentColor">
  <path fill-rule="evenodd" d="M27.4 8.1 a4.6 4.6 0 1 0 9.2 0 a4.6 4.6 0 1 0 -9.2 0 M29.9 8.1 a2.1 2.1 0 1 1 4.2 0 a2.1 2.1 0 1 1 -4.2 0"/>
  <rect x="30.8" y="12.6" width="2.4" height="3.4"/>
  <path d="M20.5 22.5 Q32 13 43.5 22.5 Z" fill-opacity=".8"/>
  <rect x="18.5" y="24" width="27" height="2.2" rx="1.1"/>
  <path d="M21.5 28 L20.3 41.5 H25.8 L26.4 28 Z" fill-opacity=".6"/>
  <path d="M42.5 28 L43.7 41.5 H38.2 L37.6 28 Z" fill-opacity=".6"/>
  <path d="M32 39.5 C28.8 35.5 29.6 31.8 32 28 C34.4 31.8 35.2 35.5 32 39.5 Z"/>
  <path d="M19.5 43.5 H44.5 L46.5 49.5 H17.5 Z" fill-opacity=".9"/>
</g>
</svg>