<svg xmlns="http://www.w3.org/2000/svg" viewBox="0 0 64 64">
<g fill="currentColor">
  <g transform="rotate(45 32 32)">
    <path d="M25.5 8.5 H38.5 A2.5 2.5 0 0 1 41 11 V13.9 H23 V11 A2.5 2.5 0 0 1 25.5 8.5 Z" fill-opacity=".7"/>
    <path d="M23 15 H41 V17.5 A2.5 2.5 0 0 1 38.5 20 H25.5 A2.5 2.5 0 0 1 23 17.5 Z"/>
    <rect x="30.6" y="21.5" width="2.8" height="29" rx="1.4" fill-opacity=".9"/>
  </g>
  <g transform="rotate(-45 32 32)">
    <rect x="27.5" y="11.5" width="9" height="2.8" rx="1.4" fill-opacity=".8"/>
    <path d="M30.7 15.8 V43 L32 51 L33.3 43 V15.8 Z" fill-opacity=".8"/>
  </g>
</g>
</svg>