<svg xmlns="http://www.w3.org/2000/svg" viewBox="0 0 64 64">
<circle cx="32" cy="32" r="27.5" fill="none" stroke="currentColor" stroke-width="1.5"/>
<g transform="translate(32 32) scale(0.68) translate(-32 -32)">
  <g fill="currentColor">
    <path fill-rule="evenodd" d="M27.4 7.1 a4.6 4.6 0 1 0 9.2 0 a4.6 4.6 0 1 0 -9.2 0 M29.9 7.1 a2.1 2.1 0 1 1 4.2 0 a2.1 2.1 0 1 1 -4.2 0"/>
    <rect x="30.8" y="11.6" width="2.4" height="3.6"/>
    <path d="M20.5 22 Q32 12.5 43.5 22 L44 24.5 H20 Z"/>
    <path fill-rule="evenodd" d="M21.5 26.5 L20 43.5 H44 L42.5 26.5 Z M26.6 29.5 L25.9 40.5 H38.1 L37.4 29.5 Z"/>
    <path d="M19.5 45.5 H44.5 L46.5 51.5 H17.5 Z"/>
  </g>
  <path d="M32 39.8 C29.2 36.2 29.9 32.6 32 29.4 C34.1 32.6 34.8 36.2 32 39.8 Z" fill="#D239F8"/>
</g>
</svg>