<svg xmlns="http://www.w3.org/2000/svg" viewBox="0 0 517.650661 1010.217447" color="#C8A848"><rect width="517.650661" height="1010.217447" fill="#1A0A24"/><g transform="translate(-244.603737,1019.333531) scale(0.100000,-0.100000)"
fill="currentColor" stroke="none">
<path d="M5117 10044 c-4 -4 -7 -204 -7 -445 0 -416 5 -488 28 -432 4 10 7
211 7 447 0 412 -3 455 -28 430z"/>
<path d="M4106 9761 c-12 -19 259 -761 288 -790 30 -29 31 18 4 93 -179 489
-252 683 -260 694 -12 14 -25 16 -32 3z"/>
<path d="M6116 9741 c-22 -36 -286 -738 -286 -761 0 -36 14 -39 34 -7 29 44
286 726 286 759 0 18 -24 25 -34 9z"/>
<path d="M3234 9276 c-3 -8 -2 -21 3 -29 14 -25 525 -567 534 -567 28 0 11 31
-62 113 -231 257 -453 497 -461 497 -5 0 -11 -6 -14 -14z"/>
<path d="M6853 9143 c-244 -262 -414 -454 -408 -463 3 -6 10 -10 15 -10 17 0
540 563 540 581 0 39 -31 16 -147 -108z"/>
<path d="M5104 8859 c-50 -14 -120 -84 -153 -152 -43 -88 -52 -181 -61 -632
-5 -222 -15 -457 -24 -545 -19 -183 -35 -713 -36 -1173 0 -437 -18 -585 -72
-595 -25 -5 -55 35 -67 87 -5 25 -12 275 -15 556 -3 281 -10 582 -15 670 -15
240 -17 497 -7 826 9 290 9 297 -13 370 -70 230 -201 291 -344 160 -50 -47
-88 -122 -117 -235 -29 -115 -39 -210 -50 -468 -5 -130 -12 -247 -15 -260 -17
-76 -51 -674 -65 -1128 -10 -331 -24 -541 -61 -890 -40 -388 -73 -553 -153
-764 -14 -37 -26 -70 -26 -71 0 -2 101 -94 224 -204 221 -198 313 -294 383
-399 49 -74 36 -75 -16 -1 -23 33 -73 92 -109 131 -83 88 -298 277 -373 328
-81 56 -150 136 -202 237 -89 172 -278 668 -296 778 -71 418 -201 698 -403
866 -77 64 -169 109 -241 116 -100 10 -187 -52 -187 -134 0 -18 25 -102 55
-185 95 -265 144 -440 180 -643 13 -72 44 -207 69 -300 76 -288 87 -356 116
-735 31 -402 28 -389 170 -668 66 -130 183 -365 259 -522 180 -368 259 -504
403 -697 179 -239 222 -339 264 -604 28 -174 25 -747 -5 -1119 -12 -151 -26
-313 -31 -359 -11 -95 -8 -101 52 -132 178 -91 751 -151 1236 -130 355 16 626
52 784 106 117 40 112 23 94 291 -20 309 -29 935 -16 1096 18 225 65 435 141
641 280 754 375 1132 454 1812 21 179 20 597 -2 825 -13 137 -15 251 -12 525
6 558 3 763 -15 1030 -31 459 -78 791 -127 905 -11 26 -34 61 -50 76 -25 24
-39 29 -78 28 -88 -1 -138 -59 -168 -198 -13 -58 -15 -138 -14 -434 2 -363
-15 -731 -54 -1174 -8 -91 -15 -194 -15 -228 0 -47 -4 -62 -17 -67 -23 -9 -49
27 -75 105 -22 66 -22 75 -24 637 -1 554 -4 650 -39 1010 -8 83 -24 274 -35
425 -38 517 -65 686 -123 749 -69 75 -206 64 -272 -23 -70 -92 -90 -251 -82
-646 9 -454 -17 -1792 -39 -1957 -7 -53 -34 -66 -70 -32 -46 43 -47 64 -42
539 6 460 3 536 -32 1100 -12 184 -25 506 -30 715 -8 371 -14 455 -46 579 -22
91 -33 113 -70 146 -51 44 -114 58 -180 39z m116 -3940 c53 -336 84 -431 172
-516 78 -76 276 -153 434 -169 59 -6 84 -17 70 -31 -3 -3 -60 -14 -128 -23
-206 -31 -301 -70 -376 -156 -77 -87 -140 -284 -183 -577 -14 -93 -28 -156
-34 -154 -5 2 -20 80 -32 173 -29 222 -65 373 -113 473 -78 162 -179 220 -433
251 -101 13 -128 25 -80 36 254 60 382 109 456 174 83 72 100 127 152 470 19
129 38 246 41 260 6 24 7 24 15 5 4 -11 22 -108 39 -216z m-1047 -225 c80 -34
232 -129 258 -161 17 -21 19 -22 -111 61 -52 33 -135 79 -185 103 -102 49 -79
48 38 -3z"/>
<path d="M2755 8481 c-3 -6 -3 -16 0 -21 6 -9 410 -253 546 -329 59 -33 89
-39 89 -18 -1 10 -567 356 -611 372 -10 4 -20 2 -24 -4z"/>
<path d="M7265 8374 c-330 -203 -425 -265 -420 -275 4 -5 12 -9 19 -9 7 0 138
76 292 168 348 210 325 195 321 207 -9 26 -54 6 -212 -91z"/>
</g></svg>