<?xml version="1.0" standalone="no"?>
<!DOCTYPE svg PUBLIC "-//W3C//DTD SVG 20010904//EN"
 "http://www.w3.org/TR/2001/REC-SVG-20010904/DTD/svg10.dtd">
<svg version="1.0" xmlns="http://www.w3.org/2000/svg"
 width="506.567865pt" height="974.224703pt" viewBox="0 0 506.567865 974.224703"
 preserveAspectRatio="xMidYMid meet">
<metadata>
Created by potrace 1.16, written by Peter Selinger 2001-2019
</metadata>
<g transform="translate(-256.772849,1010.384691) scale(0.100000,-0.100000)"
fill="currentColor" stroke="none">
<path d="M5083 9588 c4 -205 11 -376 15 -380 5 -5 17 -6 26 -2 16 6 17 29 11
338 -7 399 -9 415 -49 416 -6 0 -7 -150 -3 -372z"/>
<path d="M4477 9663 c-15 -14 -2 -40 106 -210 62 -98 130 -208 151 -245 25
-46 44 -68 56 -68 10 0 21 4 24 8 5 9 -71 139 -203 347 -46 72 -90 140 -97
153 -15 23 -26 27 -37 15z"/>
<path d="M5670 9568 c-213 -345 -248 -406 -237 -417 19 -19 33 -12 57 32 13
23 79 133 148 244 68 111 122 210 120 219 -7 38 -27 20 -88 -78z"/>
<path d="M4139 9179 c-11 -8 -8 -14 13 -32 46 -37 283 -185 303 -189 35 -6 29
29 -7 48 -18 9 -92 54 -164 99 -93 58 -136 80 -145 74z"/>
<path d="M5975 9124 c-55 -36 -128 -81 -162 -101 -60 -36 -75 -54 -53 -68 13
-8 72 26 207 117 110 75 131 94 117 108 -5 5 -49 -17 -109 -56z"/>
<path d="M5014 8951 c-23 -10 -54 -35 -69 -54 -57 -76 -103 -261 -113 -457
l-6 -125 -13 63 c-18 90 -45 145 -87 177 -38 29 -104 43 -150 31 -63 -16 -115
-89 -155 -221 -45 -146 -64 -318 -81 -765 -6 -146 -21 -348 -34 -450 l-23
-185 -5 225 c-7 261 -18 318 -78 381 -34 36 -41 39 -93 39 -67 0 -105 -27
-142 -100 -53 -105 -74 -222 -135 -760 -22 -195 -45 -380 -50 -410 -14 -84
-29 -281 -40 -535 -10 -230 -27 -371 -74 -626 -37 -202 -49 -379 -43 -659 8
-366 49 -656 148 -1049 88 -349 164 -568 343 -1002 68 -164 71 -192 71 -679 0
-464 -14 -1098 -24 -1104 -9 -6 -130 136 -168 196 -49 77 -106 330 -143 637
-25 201 -43 289 -80 403 -57 171 -147 316 -274 444 -97 98 -189 159 -390 261
-162 82 -235 131 -283 190 -62 78 -82 143 -64 211 29 104 130 153 191 92 26
-26 25 -46 -4 -75 -20 -20 -31 -23 -56 -18 -28 5 -32 3 -28 -13 7 -41 93 -24
128 26 40 56 12 120 -60 141 -76 23 -171 -37 -206 -128 -33 -87 3 -199 93
-284 68 -65 117 -96 283 -179 80 -39 177 -93 215 -118 102 -67 260 -230 317
-327 63 -107 71 -136 16 -55 -81 117 -189 210 -331 285 -108 57 -175 76 -269
76 -113 -1 -164 -17 -221 -70 -122 -113 -61 -301 97 -301 59 0 89 17 112 62
21 40 11 91 -23 118 -31 24 -46 25 -63 5 -18 -22 -18 -80 0 -80 10 0 14 8 12
28 -4 30 17 37 38 12 19 -22 4 -63 -30 -80 -47 -24 -93 -19 -129 14 -26 24
-31 36 -31 76 0 83 50 142 142 170 140 41 295 -5 476 -142 148 -113 244 -239
316 -415 43 -105 46 -135 6 -56 -64 123 -214 248 -364 303 -69 25 -115 28
-102 7 3 -5 40 -22 81 -37 219 -80 375 -251 436 -479 26 -95 23 -124 -5 -50
-65 175 -170 279 -321 319 -172 44 -315 -7 -379 -138 -75 -150 21 -329 179
-330 92 -1 154 56 141 131 -7 49 -32 72 -76 72 -37 0 -60 -14 -60 -37 0 -10
11 -13 38 -11 35 3 37 1 40 -28 5 -47 -38 -78 -97 -71 -55 6 -90 32 -118 87
-28 55 -29 101 -2 160 51 113 154 157 306 130 124 -21 215 -92 287 -224 49
-89 71 -158 120 -376 24 -107 47 -204 51 -215 5 -16 2 -15 -12 5 -109 149
-191 220 -254 220 -49 0 -89 -35 -89 -77 0 -31 41 -83 65 -83 21 0 18 23 -5
43 -38 32 -19 77 31 77 42 0 135 -92 262 -260 132 -173 286 -330 377 -382 35
-21 70 -38 77 -38 21 0 15 28 -7 35 -10 3 -45 25 -77 49 l-58 42 7 175 c3 96
11 404 17 684 16 733 10 797 -114 1091 -136 323 -217 565 -300 894 -111 445
-149 729 -149 1115 0 268 10 403 45 580 38 197 59 363 69 555 18 346 30 517
40 569 5 29 28 215 50 414 66 589 97 741 165 815 31 34 35 36 71 27 48 -12 78
-54 96 -133 16 -70 13 -1461 -3 -1692 -13 -176 -22 -216 -61 -256 -34 -36
-137 -86 -218 -107 -29 -8 -56 -19 -58 -26 -11 -32 199 44 280 101 15 10 44
44 64 74 49 74 53 115 59 649 6 468 10 536 56 818 37 236 56 416 64 627 16
439 42 650 95 789 48 125 114 162 198 111 40 -24 55 -59 76 -166 52 -274 59
-603 39 -1754 -14 -763 -18 -794 -108 -850 -49 -30 -128 -50 -202 -50 -40 0
-63 -4 -63 -11 0 -8 27 -10 93 -7 73 4 106 11 148 31 80 38 139 99 155 161 24
91 34 330 33 792 -1 249 3 459 7 466 5 7 12 328 15 713 6 666 8 705 28 798 29
133 58 206 97 245 31 31 36 32 94 29 91 -6 121 -43 159 -193 51 -202 62 -336
82 -994 23 -756 26 -996 21 -1385 -5 -458 -2 -497 54 -553 19 -19 34 -38 34
-43 0 -5 5 -9 11 -9 8 0 10 14 6 43 -19 135 -50 2088 -36 2256 10 116 28 200
60 286 29 78 66 115 113 115 62 0 100 -58 141 -213 38 -143 52 -249 80 -567
26 -305 66 -675 90 -840 13 -92 19 -167 50 -660 21 -326 33 -485 41 -528 3
-20 19 -104 34 -187 45 -233 71 -451 59 -483 -6 -15 -12 -48 -15 -74 -2 -26
-15 -80 -30 -120 -14 -40 -43 -125 -64 -188 -20 -63 -47 -138 -58 -167 -14
-34 -18 -54 -11 -59 6 -3 12 -4 14 -3 9 10 56 135 84 222 17 54 55 159 85 235
146 372 147 375 156 707 9 315 24 422 85 571 61 151 138 249 260 330 70 47
149 58 178 26 27 -30 32 -113 12 -217 -10 -49 -28 -157 -40 -240 l-22 -150
-19 80 c-29 124 -26 313 8 425 15 47 24 87 22 89 -17 18 -57 -108 -74 -236
-11 -86 0 -190 34 -326 22 -88 23 -106 21 -402 -2 -226 -7 -337 -18 -408 -21
-130 -35 -293 -47 -567 -5 -124 -17 -266 -25 -315 -43 -247 -365 -1027 -574
-1388 -132 -229 -151 -319 -158 -755 -3 -182 0 -425 6 -555 18 -372 40 -769
46 -814 5 -45 12 -38 -124 -121 -16 -9 -20 -17 -13 -24 15 -15 114 41 211 119
88 70 172 161 348 376 126 153 178 196 221 181 35 -12 41 -53 12 -79 -23 -21
-26 -45 -6 -45 23 0 66 59 66 90 0 33 -49 80 -83 80 -62 0 -176 -100 -265
-233 -14 -20 -26 -36 -28 -34 -2 1 8 33 21 70 14 37 41 146 60 243 77 380 193
524 436 541 97 7 166 -14 220 -68 116 -116 57 -309 -95 -309 -39 0 -86 35 -86
64 0 27 29 47 51 36 22 -12 39 -6 39 15 0 39 -80 46 -115 10 -66 -65 4 -185
107 -185 184 1 274 226 154 383 -82 108 -282 128 -454 47 -110 -52 -177 -139
-228 -295 -29 -87 -29 -77 -4 48 39 191 104 306 224 391 73 53 193 111 249
121 36 7 58 28 44 42 -12 11 -104 -19 -204 -67 -77 -38 -117 -65 -166 -112
-35 -35 -71 -74 -80 -88 l-17 -25 11 29 c20 59 90 182 134 238 59 76 189 185
283 239 112 64 172 83 272 83 75 1 92 -2 145 -29 71 -35 105 -80 105 -137 0
-45 -22 -93 -49 -108 -57 -30 -145 7 -139 59 4 37 36 41 40 4 4 -40 23 -30 23
13 0 43 -20 60 -57 51 -49 -13 -63 -113 -22 -158 22 -24 85 -41 121 -33 38 9
91 50 114 88 57 93 -15 229 -144 272 -68 23 -220 15 -302 -14 -128 -47 -302
-171 -391 -279 -56 -68 -52 -49 7 40 60 88 203 227 301 290 45 30 144 85 218
122 74 37 160 85 191 106 67 45 135 119 160 174 25 53 24 147 0 201 -52 115
-219 146 -266 49 -20 -43 -12 -78 27 -110 40 -33 108 -36 108 -4 0 18 -4 20
-26 15 -37 -10 -74 17 -74 53 0 65 89 86 150 35 100 -84 79 -217 -52 -338 -53
-50 -103 -82 -228 -147 -265 -136 -372 -216 -484 -362 -163 -213 -228 -400
-267 -767 -10 -102 -24 -212 -30 -245 -29 -169 -81 -311 -147 -407 -33 -49
-160 -188 -171 -188 -4 0 -13 114 -20 252 -6 139 -16 325 -21 413 -18 320 -23
754 -11 905 22 254 45 338 139 502 90 155 211 402 287 583 37 88 92 219 122
290 70 166 158 424 178 521 9 42 22 203 30 362 14 273 31 455 57 622 6 43 12
206 13 385 2 320 9 409 55 655 25 131 26 239 3 287 -89 188 -428 -26 -554
-350 -57 -149 -70 -233 -78 -537 -7 -238 -11 -288 -31 -368 -13 -50 -25 -91
-26 -89 -2 2 -13 68 -24 148 -12 79 -30 184 -41 232 -32 145 -50 329 -74 772
-14 247 -37 510 -60 680 -27 202 -56 483 -80 780 -35 438 -107 714 -197 761
-46 24 -120 21 -156 -5 -45 -31 -98 -147 -120 -260 l-19 -94 -7 154 c-13 293
-66 547 -133 637 -51 68 -147 90 -229 53z m393 -2978 c-3 -10 -5 -4 -5 12 0
17 2 24 5 18 2 -7 2 -21 0 -30z"/>
<path d="M3406 8823 c-3 -26 -9 -114 -12 -195 l-6 -148 -63 55 c-34 30 -65 55
-69 55 -16 0 -2 -27 39 -76 25 -28 45 -55 45 -58 0 -3 -35 -6 -77 -7 -43 -1
-105 -4 -138 -8 -60 -7 -60 -7 -30 -20 17 -7 83 -16 147 -19 l117 -5 -54 -61
c-48 -53 -67 -86 -50 -86 3 0 36 26 73 57 l67 57 6 -159 c8 -209 6 -192 24
-174 12 12 17 50 22 167 l6 151 46 -38 c47 -39 91 -66 91 -56 0 3 -26 36 -57
73 l-57 67 133 7 c73 4 136 10 139 13 19 18 -62 34 -175 35 -51 0 -93 2 -93 5
0 3 21 32 47 65 25 33 43 63 40 67 -4 3 -33 -17 -66 -45 l-59 -52 -4 180 c-2
117 -7 183 -14 190 -9 9 -13 0 -18 -37z"/>
<path d="M6786 8793 c-3 -42 -6 -127 -6 -190 0 -62 -3 -113 -7 -113 -3 0 -32
23 -64 50 -32 28 -60 50 -63 50 -16 0 -2 -28 39 -76 25 -28 45 -54 45 -57 0
-2 -56 -7 -124 -9 -68 -3 -130 -9 -136 -13 -26 -16 26 -28 150 -33 l128 -5
-49 -60 c-75 -93 -67 -103 21 -27 l58 50 3 -154 c3 -98 8 -159 15 -166 22 -22
29 13 32 162 l4 147 65 -49 c36 -27 70 -47 74 -44 5 3 -17 36 -50 72 l-60 67
112 6 c115 7 167 15 167 29 0 13 -58 20 -166 20 -57 0 -104 3 -104 6 0 4 18
26 40 50 36 39 49 64 35 64 -3 0 -29 -16 -58 -35 l-52 -35 -6 162 c-5 139 -16
208 -33 208 -2 0 -6 -34 -10 -77z"/>
<path d="M5050 7920 c-27 -6 -16 -8 47 -9 45 0 85 3 88 9 7 12 -80 12 -135 0z"/>
<path d="M4598 7663 c-80 -5 -92 -23 -15 -23 60 0 97 8 97 21 0 5 -3 8 -7 7
-5 -1 -38 -3 -75 -5z"/>
<path d="M3172 7498 c-21 -21 -15 -68 11 -77 44 -17 86 39 57 75 -15 17 -52
18 -68 2z"/>
<path d="M5628 7503 c-32 -2 -58 -8 -58 -13 0 -11 81 -13 129 -4 35 7 42 25 9
22 -13 -1 -49 -3 -80 -5z"/>
<path d="M6917 7417 c-4 -10 -7 -39 -7 -65 0 -39 -5 -50 -33 -76 -19 -17 -36
-37 -38 -43 -2 -8 -31 -15 -69 -19 -36 -3 -72 -8 -80 -11 -21 -8 32 -20 94
-22 42 -1 53 -6 87 -40 38 -37 39 -41 39 -105 0 -81 16 -80 25 2 6 49 13 63
48 100 36 37 46 42 87 42 52 0 82 13 55 24 -9 3 -35 6 -58 6 -36 0 -48 6 -84
44 -37 38 -43 51 -44 88 -1 24 -4 54 -8 68 -6 22 -8 23 -14 7z m-21 -182 c-3
-8 -12 -15 -21 -15 -14 0 -14 3 2 24 18 24 30 18 19 -9z m80 -13 c-9 -8 -26
10 -26 26 1 15 2 15 15 -2 8 -11 13 -21 11 -24z m-76 -63 c0 -4 -7 -6 -15 -3
-8 4 -15 10 -15 15 0 4 7 6 15 3 8 -4 15 -10 15 -15z m67 -6 c-9 -9 -19 -14
-22 -11 -3 3 2 13 11 22 9 9 19 14 22 11 3 -3 -2 -13 -11 -22z"/>
<path d="M2912 7131 c-8 -5 -12 -21 -10 -37 2 -25 8 -29 36 -32 36 -4 48 13
38 53 -7 26 -37 34 -64 16z"/>
<path d="M5155 7020 c-11 -5 -48 -9 -82 -9 -35 -1 -63 -5 -63 -11 0 -13 105
-13 153 1 20 5 37 14 37 19 0 12 -18 12 -45 0z"/>
<path d="M4624 6820 c-11 -4 -51 -11 -88 -15 -45 -5 -64 -11 -57 -18 11 -11
160 8 174 22 13 13 -5 20 -29 11z"/>
<path d="M4062 6790 c-64 -7 -94 -19 -51 -21 55 -2 115 3 122 11 15 13 -6 16
-71 10z"/>
<path d="M5725 6719 c-22 -4 -62 -8 -88 -8 -33 -1 -46 -5 -41 -12 5 -8 30 -10
78 -6 76 6 106 14 106 28 0 10 1 10 -55 -2z"/>
<path d="M4065 6155 c-27 -7 -71 -14 -97 -14 -27 -1 -48 -5 -48 -11 0 -24 169
-3 206 25 24 18 9 18 -61 0z"/>
<path d="M5072 5913 c-118 -5 -113 -23 7 -23 61 0 93 4 107 15 19 14 19 14 -1
13 -11 -1 -62 -4 -113 -5z"/>
<path d="M5610 5679 c0 -12 82 -19 146 -13 35 4 62 9 60 12 -8 7 -206 8 -206
1z"/>
<path d="M5363 5532 c-273 -408 -758 -759 -1265 -918 -32 -10 -58 -22 -58 -27
0 -35 414 133 596 243 302 182 565 425 742 687 47 69 59 93 46 93 -5 -1 -32
-35 -61 -78z"/>
<path d="M6373 5338 c-30 -10 -46 -28 -24 -28 19 0 71 23 71 31 0 11 -5 10
-47 -3z"/>
<path d="M5066 4798 c-3 -7 -7 -53 -11 -103 -12 -176 -57 -286 -156 -380 -89
-85 -236 -145 -356 -145 -38 0 -53 -4 -53 -14 0 -16 30 -26 80 -26 93 -1 242
-65 325 -141 98 -90 165 -267 165 -438 0 -38 4 -72 8 -75 21 -12 30 18 35 119
10 176 46 275 136 376 75 84 208 150 351 173 36 6 65 16 65 21 0 6 -40 13 -90
17 -283 20 -447 202 -464 512 -4 74 -10 111 -18 114 -7 2 -15 -2 -17 -10z m48
-383 c50 -102 120 -176 208 -220 39 -19 80 -35 92 -35 11 0 -15 -18 -59 -39
-108 -53 -191 -138 -245 -253 -22 -46 -40 -75 -40 -64 0 39 -73 156 -134 214
-58 56 -167 122 -201 122 -8 0 -15 5 -15 10 0 6 7 10 15 10 28 0 121 48 172
89 53 43 148 172 159 217 3 13 7 24 9 24 1 0 19 -34 39 -75z"/>
<path d="M5748 4713 c-99 -74 -278 -259 -343 -355 -32 -48 -55 -91 -51 -95 4
-4 10 -3 14 3 4 5 32 46 61 89 70 102 205 241 315 325 47 36 86 68 86 73 0 15
-20 5 -82 -40z"/>
<path d="M2906 3564 c-34 -34 -9 -78 40 -72 37 4 51 29 36 62 -13 30 -51 35
-76 10z"/>
<path d="M7242 3558 c-29 -29 -7 -78 35 -78 32 0 58 42 43 69 -12 24 -58 29
-78 9z"/>
<path d="M5063 3023 c14 -267 144 -462 354 -532 65 -22 153 -28 153 -11 0 6
-20 10 -43 10 -51 0 -142 29 -202 65 -140 82 -245 296 -245 499 0 38 -5 68
-12 72 -8 5 -10 -21 -5 -103z"/>
<path d="M3317 2772 c-10 -10 -17 -26 -17 -34 0 -45 75 -48 86 -3 12 48 -36
73 -69 37z"/>
<path d="M6834 2755 c-8 -33 11 -55 47 -55 22 0 30 6 35 25 10 40 -1 55 -40
55 -30 0 -37 -4 -42 -25z"/>
<path d="M4929 2345 c-118 -61 -327 -79 -443 -37 -73 27 -104 28 -54 2 47 -25
150 -50 209 -50 116 0 349 66 349 99 0 15 -9 13 -61 -14z"/>
</g>
</svg>
