<svg xmlns="http://www.w3.org/2000/svg" viewBox="0 0 64 64">
<path d="M48.5 4.78 Q48.845 7.655 50.8 8 Q48.845 8.345 48.5 11.219999999999999 Q48.155 8.345 46.2 8 Q48.155 7.655 48.5 4.78 Z" fill="currentColor"/>
<circle cx="42" cy="4.5" r="0.55" fill="currentColor"/><circle cx="53.5" cy="15.5" r="0.55" fill="currentColor"/><circle cx="24" cy="14" r="0.5" fill="currentColor"/>
<g stroke="currentColor" stroke-width="1.05" fill="none" stroke-linecap="round" stroke-linejoin="round">
  <path d="M7.5 44.5 C13 39.5 17.5 36 21 33"/>
  <path d="M13.5 55.5 C18 50 21.5 46.5 25.5 42.5"/>
  <path d="M21 33 C24.5 29.5 27 26.5 29.5 23.5"/>
  <path d="M29.5 23.5 C32.5 19.5 35.8 14.5 38.8 10.8 C39.6 9.8 40.9 10.4 40.6 11.7 C38.2 16 35.8 19.6 33.6 22.6"/>
  <path d="M33.6 22.6 C35.9 19.9 38.6 16.4 40.5 13.9 C41.3 12.9 42.4 13.6 41.9 14.8 C40 17.9 37.4 21 35.2 23.6"/>
  <path d="M35.2 23.6 C36.5 24.7 36.3 26.2 34.8 26.7 C35.6 27.7 35 28.9 33.6 29.2"/>
  <path d="M33.6 29.2 C31.5 31.5 28.5 34.5 26.8 37 C26 38.6 25.7 40.5 25.5 42.5"/>
  <path d="M26.8 37 C29 35.4 31.2 34.5 33.4 34.3 C34.4 34.25 34.7 35.1 33.9 35.7"/>
</g>
<g stroke="currentColor" stroke-width="0.7" fill="none" stroke-linecap="round" stroke-linejoin="round">
  <path d="M10.8 42.8 C13.8 44.6 16 47.6 16.8 51.2"/>
  <path d="M13.4 40.4 C16.4 42.2 18.6 45.2 19.4 48.8"/>
</g>
</svg>