<svg xmlns="http://www.w3.org/2000/svg" viewBox="0 0 64 64">
<path d="M32 16.28 Q32.345 19.155 34.3 19.5 Q32.345 19.845 32 22.72 Q31.655 19.845 29.7 19.5 Q31.655 19.155 32 16.28 Z" fill="currentColor"/>
<circle cx="26" cy="14.5" r="0.55" fill="currentColor"/><circle cx="38" cy="14.5" r="0.55" fill="currentColor"/><circle cx="32" cy="10.5" r="0.5" fill="currentColor"/>
<g transform="translate(3.5 18.8) scale(0.55)"><g transform="rotate(14 33 33)"><g stroke="currentColor" stroke-width="1.05" fill="none" stroke-linecap="round" stroke-linejoin="round"><path d="M21.55 35.5 V26 A1.55 1.55 0 0 1 24.65 26 V31.5 L25.6 31.5 V19 A1.55 1.55 0 0 1 28.7 19 V30 L29.75 30 V16 A1.55 1.55 0 0 1 32.85 16 V30 L33.9 30 V18.5 A1.55 1.55 0 0 1 37 18.5 V32.5 C38.1 31.3 40.2 29.1 41.8 28.3 C43.4 27.5 44.6 28.8 43.9 30.4 C42.9 32.5 40.2 34.7 39.1 37.4 C38.2 39.6 38.5 42.4 36.5 44.9 C34.2 47.6 29.4 48.2 26.2 46.5 C23.2 44.8 21.55 40.8 21.55 35.5 Z"/></g>
<g stroke="currentColor" stroke-width="0.7" fill="none" stroke-linecap="round" stroke-linejoin="round"><path d="M25 44.3 Q30 47 34.5 43.9"/></g></g></g>
<g transform="translate(60.5 18.8) scale(-0.55 0.55)"><g transform="rotate(14 33 33)"><g stroke="currentColor" stroke-width="1.05" fill="none" stroke-linecap="round" stroke-linejoin="round"><path d="M21.55 35.5 V26 A1.55 1.55 0 0 1 24.65 26 V31.5 L25.6 31.5 V19 A1.55 1.55 0 0 1 28.7 19 V30 L29.75 30 V16 A1.55 1.55 0 0 1 32.85 16 V30 L33.9 30 V18.5 A1.55 1.55 0 0 1 37 18.5 V32.5 C38.1 31.3 40.2 29.1 41.8 28.3 C43.4 27.5 44.6 28.8 43.9 30.4 C42.9 32.5 40.2 34.7 39.1 37.4 C38.2 39.6 38.5 42.4 36.5 44.9 C34.2 47.6 29.4 48.2 26.2 46.5 C23.2 44.8 21.55 40.8 21.55 35.5 Z"/></g>
<g stroke="currentColor" stroke-width="0.7" fill="none" stroke-linecap="round" stroke-linejoin="round"><path d="M25 44.3 Q30 47 34.5 43.9"/></g></g></g>
</svg>