<svg xmlns="http://www.w3.org/2000/svg" viewBox="0 0 528.410816 1020.3" color="#C8A848"><rect width="528.410816" height="1020.3" fill="#1A0A24"/><g transform="translate(-248.740299,1034.400000) scale(0.100000,-0.100000)"
fill="currentColor" stroke="none">
<path d="M5090 10133 c-1 -176 -20 -431 -35 -483 -24 -79 -69 -138 -121 -162
-46 -20 -191 -37 -324 -38 -143 -1 -50 -18 139 -25 102 -4 197 -12 211 -17 45
-17 80 -60 102 -128 18 -56 22 -95 25 -285 2 -121 7 -231 10 -245 11 -42 21
49 22 190 3 280 48 426 143 457 20 7 94 15 165 18 192 9 273 16 273 24 0 4
-75 11 -167 14 -248 9 -301 29 -344 126 -42 95 -69 274 -69 457 0 88 -10 164
-21 164 -5 0 -9 -30 -9 -67z m59 -537 c28 -64 65 -113 103 -136 l30 -18 -44
-20 c-47 -20 -70 -47 -107 -121 l-22 -43 -28 59 c-30 63 -85 119 -128 129
l-26 7 36 18 c63 33 113 120 133 229 l8 45 11 -50 c7 -27 22 -72 34 -99z"/>
<path d="M5472 9983 c5 -25 28 -28 28 -4 0 12 -6 21 -16 21 -9 0 -14 -7 -12
-17z"/>
<path d="M4822 9782 c4 -17 149 -182 159 -182 21 0 4 23 -77 106 -47 49 -84
83 -82 76z"/>
<path d="M5349 9693 c-87 -94 -103 -113 -89 -113 13 0 68 55 122 123 42 53 21
46 -33 -10z"/>
<path d="M5740 9700 c0 -5 5 -10 10 -10 6 0 10 5 10 10 0 6 -4 10 -10 10 -5 0
-10 -4 -10 -10z"/>
<path d="M4903 9321 c-66 -53 -130 -121 -114 -121 16 0 181 137 181 151 0 17
-18 9 -67 -30z"/>
<path d="M5260 9322 c0 -5 29 -42 64 -83 104 -121 149 -155 87 -66 -60 88
-151 177 -151 149z"/>
<path d="M4107 9241 c-4 -18 -7 -63 -8 -100 0 -120 -13 -200 -34 -215 -13 -9
-47 -13 -107 -13 -116 0 -137 -18 -31 -27 153 -13 162 -24 171 -189 2 -59 8
-110 13 -112 8 -5 11 11 27 169 13 118 22 126 137 134 105 6 94 19 -26 29 -83
8 -84 8 -101 43 -12 23 -18 61 -19 110 -1 41 -4 104 -8 140 -6 59 -7 62 -14
31z m18 -349 c0 -20 -19 -18 -23 2 -3 12 1 17 10 14 7 -3 13 -10 13 -16z"/>
<path d="M5671 9231 c-11 -19 -5 -31 14 -31 7 0 13 11 13 25 0 30 -13 33 -27
6z"/>
<path d="M6070 9030 c0 -62 -3 -74 -25 -95 -20 -21 -34 -25 -85 -25 -77 0 -78
-15 -1 -24 82 -9 102 -28 110 -101 l7 -60 13 57 c18 81 34 98 104 105 37 4 54
9 45 14 -7 5 -22 9 -33 9 -11 0 -37 5 -57 10 -31 9 -39 17 -48 48 -5 20 -10
58 -10 85 0 26 -4 47 -10 47 -6 0 -10 -30 -10 -70z m30 -134 c0 -3 -4 -8 -10
-11 -5 -3 -10 -1 -10 4 0 6 5 11 10 11 6 0 10 -2 10 -4z"/>
<path d="M4010 9010 c0 -5 5 -10 11 -10 5 0 7 5 4 10 -3 6 -8 10 -11 10 -2 0
-4 -4 -4 -10z"/>
<path d="M4794 8999 c-4 -7 1 -18 11 -26 27 -19 37 -16 33 9 -3 25 -32 36 -44
17z"/>
<path d="M5980 8990 c0 -5 5 -10 10 -10 6 0 10 5 10 10 0 6 -4 10 -10 10 -5 0
-10 -4 -10 -10z"/>
<path d="M6140 8830 c0 -5 5 -10 10 -10 6 0 10 5 10 10 0 6 -4 10 -10 10 -5 0
-10 -4 -10 -10z"/>
<path d="M4010 8801 c0 -6 5 -13 10 -16 6 -3 10 1 10 9 0 9 -4 16 -10 16 -5 0
-10 -4 -10 -9z"/>
<path d="M5052 8633 c-36 -7 -88 -67 -111 -128 -40 -108 -62 -311 -81 -750
-19 -449 -29 -829 -35 -1280 -8 -624 -14 -772 -32 -790 -21 -22 -31 -19 -50
18 -16 28 -18 72 -22 377 -7 501 -5 757 8 947 18 268 31 531 37 768 9 306 -12
428 -85 506 -34 35 -43 39 -85 39 -78 0 -132 -40 -179 -135 -51 -102 -82 -260
-122 -610 -13 -121 -36 -314 -50 -430 -51 -427 -57 -525 -65 -1075 -9 -605
-20 -752 -86 -1155 -21 -133 -24 -142 -35 -124 -15 25 -98 280 -118 369 -11
47 -30 166 -41 265 -34 294 -81 474 -163 625 -80 148 -122 191 -267 272 -91
52 -166 54 -215 8 -45 -43 -42 -78 29 -319 59 -200 76 -318 86 -603 7 -209 13
-275 35 -378 44 -214 56 -326 65 -610 10 -363 16 -388 198 -790 38 -85 95
-222 126 -305 84 -221 191 -431 364 -714 57 -92 65 -116 87 -241 26 -149 35
-334 35 -689 0 -394 -12 -685 -40 -1015 -11 -126 -19 -268 -19 -315 l1 -86 13
65 c20 98 63 439 75 580 22 285 34 887 22 1140 -18 367 -37 440 -181 683 -190
324 -241 423 -305 601 -55 151 -103 266 -181 431 -67 141 -78 170 -111 290
-23 81 -26 118 -34 365 -10 308 -18 386 -62 609 -27 136 -32 188 -38 401 -10
301 -43 503 -120 724 -28 82 -27 121 5 142 34 22 71 11 185 -54 59 -34 97 -64
123 -98 36 -47 147 -259 147 -282 0 -6 -19 -13 -42 -15 l-43 -4 46 -1 47 -2
15 -62 c24 -97 55 -284 62 -378 8 -105 28 -218 55 -318 90 -327 164 -460 354
-635 90 -83 124 -105 74 -48 l-23 26 25 -20 c14 -11 43 -35 65 -55 l40 -35
-40 44 c-22 25 -51 54 -65 65 -34 27 -120 118 -120 127 0 4 10 9 23 11 17 3
13 7 -20 16 -36 11 -63 35 -63 56 0 3 17 6 38 7 l37 1 -45 10 c-46 10 -79 32
-67 45 4 4 26 10 50 14 l42 6 -47 2 c-41 1 -48 4 -48 22 0 43 18 59 68 60 44
1 45 1 17 10 -16 5 -38 7 -47 5 -23 -5 -22 21 10 157 1 4 2 21 2 37 0 29 1 30
53 31 l52 2 -47 10 c-43 9 -48 13 -48 37 0 39 20 59 65 63 l40 4 -43 1 c-75 3
-67 52 11 71 l42 11 -47 -5 c-34 -3 -48 -1 -48 8 0 6 7 73 16 147 11 94 18
302 24 690 5 305 13 600 19 655 26 246 123 1039 137 1120 46 274 112 415 194
415 52 0 101 -64 124 -162 7 -31 -7 -38 -23 -10 -6 9 -11 12 -11 5 0 -6 10
-19 22 -28 23 -15 23 -17 21 -233 -2 -119 -7 -280 -12 -357 -6 -77 -13 -197
-17 -267 l-7 -128 -26 5 c-23 5 -24 4 -6 -5 20 -11 21 -19 20 -431 0 -369 -2
-418 -15 -413 -8 3 -24 8 -35 10 -11 2 -3 -3 18 -12 l37 -17 0 -237 c0 -258 9
-320 55 -366 46 -46 118 -17 129 53 3 21 10 259 16 528 11 588 36 1430 50
1685 17 326 43 505 84 595 32 71 59 85 112 59 21 -11 40 -25 42 -33 3 -10 -6
-8 -30 7 -49 30 -59 28 -14 -3 20 -14 41 -25 45 -25 5 0 14 -6 20 -14 9 -11 9
-15 -1 -19 -9 -4 -8 -6 3 -6 9 -1 20 -8 23 -17 10 -25 7 -36 -6 -28 -7 4 -3
-2 8 -14 16 -15 25 -46 38 -129 30 -199 43 -538 66 -1678 12 -647 26 -917 49
-970 22 -51 44 -69 75 -61 31 8 43 40 55 161 46 429 65 1313 40 1871 -12 264
-5 349 32 433 30 68 65 101 109 101 26 0 43 -7 60 -25 22 -23 22 -25 4 -25
-16 -1 -14 -3 8 -15 27 -15 44 -56 81 -195 36 -130 65 -410 83 -801 l7 -136
-34 4 c-26 3 -30 2 -19 -6 8 -6 22 -11 31 -11 9 0 20 -8 24 -17 3 -10 10 -304
16 -653 5 -349 14 -671 20 -715 18 -132 62 -212 112 -203 18 4 29 -3 45 -26
12 -17 35 -40 52 -50 26 -15 24 -10 -15 29 -37 36 -46 51 -41 68 10 35 46 242
62 362 21 152 29 621 15 815 -6 85 -14 248 -18 361 -8 269 8 339 77 339 25 0
58 -24 53 -39 -1 -3 1 -8 4 -11 4 -3 2 2 -2 10 -8 13 -7 13 8 1 20 -16 23 -35
5 -26 -7 4 -4 -1 6 -9 11 -9 17 -18 14 -22 -4 -3 2 -14 12 -24 36 -36 95 -278
119 -490 34 -291 53 -631 47 -840 -4 -118 -6 -366 -4 -550 5 -601 2 -742 -21
-935 -12 -99 -29 -243 -37 -320 -16 -144 -57 -375 -99 -550 -14 -55 -38 -159
-54 -232 -17 -73 -49 -188 -71 -255 -39 -120 -57 -157 -154 -323 -79 -136
-110 -262 -127 -530 -16 -238 -16 -1022 0 -1215 15 -185 46 -430 66 -520 l14
-65 -4 145 c-2 80 -12 260 -21 400 -13 202 -15 351 -11 720 9 726 30 862 176
1116 107 187 146 303 235 699 61 275 101 504 111 635 4 47 16 155 26 240 33
267 42 448 29 604 -16 182 -17 267 -7 776 7 385 6 449 -12 685 -37 455 -82
701 -161 862 -45 92 -82 123 -145 123 -30 0 -44 -7 -69 -33 -17 -19 -38 -51
-45 -73 -22 -67 -24 -243 -6 -526 25 -390 18 -749 -19 -1033 -33 -250 -32
-243 -51 -224 -45 45 -65 283 -65 769 0 369 -13 769 -35 1135 -25 396 -36 477
-91 670 -46 158 -91 215 -174 215 -67 0 -119 -40 -159 -122 -49 -102 -55 -169
-42 -475 19 -445 11 -973 -24 -1583 -16 -284 -24 -368 -35 -375 -27 -17 -43
275 -60 1060 -30 1342 -46 1623 -100 1767 -41 110 -126 175 -208 161z"/>
<path d="M6270 8354 c0 -8 5 -12 10 -9 6 3 10 10 10 16 0 5 -4 9 -10 9 -5 0
-10 -7 -10 -16z"/>
<path d="M3840 8345 c0 -8 7 -15 15 -15 8 0 15 7 15 15 0 8 -7 15 -15 15 -8 0
-15 -7 -15 -15z"/>
<path d="M6295 8160 c-7 -12 2 -30 16 -30 5 0 9 9 9 20 0 21 -15 27 -25 10z"/>
<path d="M4670 8041 c0 -5 7 -11 15 -15 8 -3 15 -1 15 3 0 5 -7 11 -15 15 -8
3 -15 1 -15 -3z"/>
<path d="M5200 7940 c20 -13 50 -13 50 0 0 6 -15 10 -32 10 -25 0 -29 -3 -18
-10z"/>
<path d="M5223 7873 c9 -2 23 -2 30 0 6 3 -1 5 -18 5 -16 0 -22 -2 -12 -5z"/>
<path d="M5208 7843 c7 -3 16 -2 19 1 4 3 -2 6 -13 5 -11 0 -14 -3 -6 -6z"/>
<path d="M5190 7793 c8 -3 27 -12 43 -20 15 -7 27 -9 27 -4 0 5 -14 14 -31 20
-32 11 -68 14 -39 4z"/>
<path d="M5054 7743 c9 -9 196 -20 196 -12 0 8 -90 19 -154 19 -27 0 -46 -3
-42 -7z"/>
<path d="M4670 7731 c0 -5 7 -12 16 -15 14 -5 15 -4 4 9 -14 17 -20 19 -20 6z"/>
<path d="M5798 7693 c7 -3 16 -2 19 1 4 3 -2 6 -13 5 -11 0 -14 -3 -6 -6z"/>
<path d="M5060 7670 c-74 -5 -65 -6 65 -7 91 -1 142 2 130 7 -22 9 -67 9 -195
0z"/>
<path d="M5805 7630 c3 -5 16 -10 28 -9 21 0 21 1 2 9 -28 12 -37 12 -30 0z"/>
<path d="M5141 7606 c2 -2 29 -6 59 -9 37 -4 50 -3 40 3 -14 9 -109 15 -99 6z"/>
<path d="M5810 7600 c8 -5 22 -10 30 -10 13 0 13 1 0 10 -8 5 -22 10 -30 10
-13 0 -13 -1 0 -10z"/>
<path d="M5828 7523 c6 -2 18 -2 25 0 6 3 1 5 -13 5 -14 0 -19 -2 -12 -5z"/>
<path d="M4665 7510 c3 -5 8 -10 11 -10 2 0 4 5 4 10 0 6 -5 10 -11 10 -5 0
-7 -4 -4 -10z"/>
<path d="M5235 7486 c17 -7 32 -11 35 -9 8 7 -24 23 -45 22 -15 0 -13 -3 10
-13z"/>
<path d="M5813 7473 c9 -2 23 -2 30 0 6 3 -1 5 -18 5 -16 0 -22 -2 -12 -5z"/>
<path d="M4610 7465 c0 -2 15 -12 33 -20 l32 -16 -24 21 c-22 19 -41 26 -41
15z"/>
<path d="M5750 7440 c14 -4 41 -8 60 -8 28 -1 31 1 15 8 -11 5 -38 8 -60 8
-34 0 -36 -1 -15 -8z"/>
<path d="M5200 7421 c0 -5 8 -11 18 -15 9 -3 24 -9 32 -12 8 -3 4 4 -9 15 -25
22 -41 27 -41 12z"/>
<path d="M4610 7417 c0 -3 16 -14 35 -26 19 -11 35 -17 35 -12 0 6 -17 17 -62
39 -5 2 -8 1 -8 -1z"/>
<path d="M4410 7407 c0 -3 37 -18 83 -33 45 -15 99 -35 119 -45 43 -22 72 -25
66 -7 -6 17 -268 100 -268 85z"/>
<path d="M5725 7390 c74 -12 147 -12 140 0 -3 6 -46 9 -98 9 -83 -2 -87 -2
-42 -9z"/>
<path d="M4620 7380 c8 -5 20 -10 25 -10 6 0 3 5 -5 10 -8 5 -19 10 -25 10 -5
0 -3 -5 5 -10z"/>
<path d="M5625 7330 c-28 -4 0 -8 90 -11 133 -5 184 0 130 12 -38 9 -168 8
-220 -1z"/>
<path d="M4502 7315 c6 -7 143 -45 160 -45 26 0 -4 13 -74 31 -76 19 -95 23
-86 14z"/>
<path d="M5237 7309 c7 -7 15 -10 18 -7 3 3 -2 9 -12 12 -14 6 -15 5 -6 -5z"/>
<path d="M5220 7246 c0 -2 15 -9 33 -15 29 -10 30 -9 13 4 -18 14 -46 20 -46
11z"/>
<path d="M5757 7233 c18 -2 50 -2 70 0 21 2 7 4 -32 4 -38 0 -55 -2 -38 -4z"/>
<path d="M4610 7190 c0 -9 39 -25 46 -18 2 3 -7 10 -21 16 -14 6 -25 7 -25 2z"/>
<path d="M5225 7180 c11 -5 29 -9 40 -9 17 -1 17 1 5 9 -8 5 -26 9 -40 9 -23
0 -23 -1 -5 -9z"/>
<path d="M5828 7153 c12 -2 30 -2 40 0 9 3 -1 5 -23 4 -22 0 -30 -2 -17 -4z"/>
<path d="M5220 7100 c8 -5 26 -9 40 -9 23 0 23 1 5 9 -11 5 -29 9 -40 9 -17 1
-17 -1 -5 -9z"/>
<path d="M4615 7030 c11 -5 27 -9 35 -9 13 -1 13 0 0 9 -8 5 -24 9 -35 9 l-20
0 20 -9z"/>
<path d="M5857 7029 c7 -7 15 -10 18 -7 3 3 -2 9 -12 12 -14 6 -15 5 -6 -5z"/>
<path d="M5171 7026 c12 -13 109 -44 109 -36 0 6 -8 10 -18 10 -10 0 -27 7
-38 15 -16 12 -65 22 -53 11z"/>
<path d="M5190 6961 c0 -6 -16 -11 -35 -11 -19 0 -35 -5 -35 -11 0 -8 11 -9
31 -5 17 3 52 6 77 6 30 0 43 3 36 10 -15 15 -74 24 -74 11z"/>
<path d="M4604 6935 c11 -8 27 -15 35 -15 10 1 7 6 -9 15 -33 19 -50 18 -26 0z"/>
<path d="M5215 6914 c28 -7 55 -12 60 -10 13 4 -64 26 -90 25 -11 0 3 -7 30
-15z"/>
<path d="M5064 6870 c16 -5 72 -11 125 -14 63 -4 87 -3 69 3 -15 5 -71 12
-125 15 -67 4 -89 3 -69 -4z"/>
<path d="M4604 6855 c11 -8 25 -15 30 -15 6 0 2 7 -8 15 -11 8 -25 15 -30 15
-6 0 -2 -7 8 -15z"/>
<path d="M5850 6860 c0 -5 4 -10 9 -10 5 0 18 -3 28 -6 16 -5 16 -4 -1 10 -23
18 -36 20 -36 6z"/>
<path d="M5116 6800 c62 -4 122 -11 135 -15 20 -6 22 -5 11 6 -9 10 -47 14
-135 16 l-122 1 111 -8z"/>
<path d="M4585 6770 c11 -5 31 -9 45 -9 23 0 23 1 5 9 -11 5 -31 9 -45 9 -23
0 -23 -1 -5 -9z"/>
<path d="M5845 6770 c11 -5 29 -9 40 -9 17 -1 17 1 5 9 -8 5 -26 9 -40 9 -23
0 -23 -1 -5 -9z"/>
<path d="M5075 6760 c-50 -6 -42 -7 50 -7 61 -1 121 3 135 7 31 10 -96 10
-185 0z"/>
<path d="M4575 6715 c17 -8 39 -14 50 -14 15 1 13 4 -10 14 -16 8 -39 14 -50
14 -15 -1 -13 -4 10 -14z"/>
<path d="M5870 6710 c20 -13 33 -13 25 0 -3 6 -14 10 -23 10 -15 0 -15 -2 -2
-10z"/>
<path d="M5140 6690 l-95 -6 125 -1 c77 -1 117 2 105 7 -11 5 -24 8 -30 7 -5
0 -53 -4 -105 -7z"/>
<path d="M5845 6690 c11 -5 27 -9 35 -9 13 -1 13 0 0 9 -8 5 -24 9 -35 9 l-20
0 20 -9z"/>
<path d="M4565 6658 c27 -10 28 -12 10 -19 -15 -5 -8 -8 23 -8 51 -1 48 14 -6
29 -48 13 -66 12 -27 -2z"/>
<path d="M5685 6653 c11 -11 164 -43 205 -43 52 0 2 18 -80 29 -47 6 -96 14
-110 18 -17 4 -22 2 -15 -4z"/>
<path d="M6398 6653 c7 -3 16 -2 19 1 4 3 -2 6 -13 5 -11 0 -14 -3 -6 -6z"/>
<path d="M4411 6600 c9 -5 49 -16 90 -24 136 -26 141 -27 137 -13 -3 6 -40 19
-84 29 -89 18 -169 23 -143 8z"/>
<path d="M5221 6596 c12 -10 60 -16 54 -6 -3 5 -18 10 -32 10 -15 0 -24 -2
-22 -4z"/>
<path d="M5645 6588 c22 -5 75 -18 117 -29 85 -21 143 -25 133 -9 -3 6 -17 10
-30 10 -13 0 -61 9 -107 20 -46 11 -99 19 -118 19 l-35 -1 40 -10z"/>
<path d="M6400 6570 c8 -5 22 -10 30 -10 13 0 13 1 0 10 -8 5 -22 10 -30 10
-13 0 -13 -1 0 -10z"/>
<path d="M4415 6520 c17 -6 62 -12 100 -15 55 -3 61 -3 30 4 -22 5 -67 11
-100 14 -46 5 -53 4 -30 -3z"/>
<path d="M6321 6516 c11 -10 139 -16 139 -6 0 6 -29 10 -72 10 -39 0 -69 -2
-67 -4z"/>
<path d="M5718 6503 c6 -2 18 -2 25 0 6 3 1 5 -13 5 -14 0 -19 -2 -12 -5z"/>
<path d="M5870 6476 c19 -7 37 -12 39 -10 8 7 -6 14 -40 19 l-34 5 35 -14z"/>
<path d="M6245 6471 c11 -4 65 -11 120 -14 61 -4 86 -3 65 2 -49 12 -209 22
-185 12z"/>
<path d="M4600 6436 c0 -3 9 -10 20 -16 11 -6 20 -8 20 -6 0 3 -9 10 -20 16
-11 6 -20 8 -20 6z"/>
<path d="M5880 6390 c20 -13 33 -13 25 0 -3 6 -14 10 -23 10 -15 0 -15 -2 -2
-10z"/>
<path d="M6368 6393 c6 -2 18 -2 25 0 6 3 1 5 -13 5 -14 0 -19 -2 -12 -5z"/>
<path d="M5241 6366 c2 -2 15 -9 29 -16 23 -12 24 -12 11 3 -7 10 -20 17 -29
17 -8 0 -13 -2 -11 -4z"/>
<path d="M4605 6350 c3 -5 16 -10 28 -10 18 0 19 2 7 10 -20 13 -43 13 -35 0z"/>
<path d="M6418 6333 c12 -2 30 -2 40 0 9 3 -1 5 -23 4 -22 0 -30 -2 -17 -4z"/>
<path d="M5870 6320 c8 -5 20 -10 25 -10 6 0 3 5 -5 10 -8 5 -19 10 -25 10 -5
0 -3 -5 5 -10z"/>
<path d="M5265 6250 c27 -12 43 -12 25 0 -8 5 -22 9 -30 9 -10 0 -8 -3 5 -9z"/>
<path d="M6428 6253 c7 -3 16 -2 19 1 4 3 -2 6 -13 5 -11 0 -14 -3 -6 -6z"/>
<path d="M4620 6195 c33 -19 49 -19 24 0 -10 8 -26 14 -34 14 -9 0 -4 -6 10
-14z"/>
<path d="M6426 6195 c10 -8 26 -14 34 -14 11 0 10 3 -4 14 -11 8 -27 15 -35
15 -11 0 -10 -4 5 -15z"/>
<path d="M5880 6155 c7 -8 17 -15 22 -15 6 0 5 7 -2 15 -7 8 -17 15 -22 15 -6
0 -5 -7 2 -15z"/>
<path d="M5255 6140 c3 -5 16 -15 28 -21 22 -12 22 -12 3 10 -19 21 -43 30
-31 11z"/>
<path d="M6398 6123 c18 -2 45 -2 60 0 15 2 0 4 -33 4 -33 0 -45 -2 -27 -4z"/>
<path d="M4615 6100 c17 -11 35 -20 40 -20 17 1 -36 40 -54 40 -10 0 -6 -7 14
-20z"/>
<path d="M5870 6081 c0 -5 7 -12 16 -15 14 -5 15 -4 4 9 -14 17 -20 19 -20 6z"/>
<path d="M6370 6057 c44 -17 120 -28 120 -17 0 9 -31 17 -105 25 l-50 5 35
-13z"/>
<path d="M4610 6045 c33 -19 46 -19 30 0 -7 8 -22 15 -34 15 -20 -1 -20 -2 4
-15z"/>
<path d="M6251 6016 c9 -10 110 -33 182 -41 90 -11 68 9 -25 23 -46 7 -101 15
-123 18 -22 4 -37 4 -34 0z"/>
<path d="M5890 5985 c7 -9 15 -13 17 -11 7 7 -7 26 -19 26 -6 0 -6 -6 2 -15z"/>
<path d="M3660 5950 c-18 -12 -2 -12 25 0 13 6 15 9 5 9 -8 0 -22 -4 -30 -9z"/>
<path d="M6232 5945 c9 -9 199 -55 226 -55 47 0 15 11 -103 36 -127 26 -131
27 -123 19z"/>
<path d="M5265 5920 c3 -5 11 -10 16 -10 6 0 7 5 4 10 -3 6 -11 10 -16 10 -6
0 -7 -4 -4 -10z"/>
<path d="M5895 5900 c3 -5 8 -10 11 -10 2 0 4 5 4 10 0 6 -5 10 -11 10 -5 0
-7 -4 -4 -10z"/>
<path d="M3678 5893 c12 -2 30 -2 40 0 9 3 -1 5 -23 4 -22 0 -30 -2 -17 -4z"/>
<path d="M4590 5896 c0 -3 9 -10 20 -16 11 -6 20 -8 20 -6 0 3 -9 10 -20 16
-11 6 -20 8 -20 6z"/>
<path d="M5269 5844 c18 -8 36 -13 39 -10 6 6 -43 26 -61 25 -7 0 3 -7 22 -15z"/>
<path d="M6308 5840 c13 -6 56 -12 95 -15 92 -6 49 10 -49 19 -50 4 -63 3 -46
-4z"/>
<path d="M5895 5830 c3 -5 8 -10 11 -10 2 0 4 5 4 10 0 6 -5 10 -11 10 -5 0
-7 -4 -4 -10z"/>
<path d="M4598 5817 c16 -9 19 -16 11 -24 -7 -7 -4 -12 11 -16 17 -4 19 -3 9
9 -6 8 -8 14 -3 14 5 0 0 7 -10 15 -11 8 -25 15 -30 15 -6 -1 -1 -6 12 -13z"/>
<path d="M3686 5810 c5 -4 27 -12 49 -15 26 -5 37 -4 30 2 -5 6 -28 13 -49 16
-23 4 -35 3 -30 -3z"/>
<path d="M5248 5784 c44 -19 40 -25 -10 -19 -39 4 -40 4 -10 -4 19 -5 39 -14
45 -20 17 -17 24 -13 22 10 -2 22 -38 49 -65 48 -8 0 0 -7 18 -15z"/>
<path d="M4505 5770 c-13 -5 -14 -9 -5 -9 8 0 24 4 35 9 13 5 14 9 5 9 -8 0
-24 -4 -35 -9z"/>
<path d="M4521 5731 c-71 -28 -61 -42 10 -16 24 10 56 19 72 22 15 3 27 9 27
14 0 15 -42 8 -109 -20z"/>
<path d="M5880 5742 c0 -12 19 -26 26 -19 2 2 -2 10 -11 17 -9 8 -15 8 -15 2z"/>
<path d="M3688 5733 c17 -2 47 -2 65 0 17 2 3 4 -33 4 -36 0 -50 -2 -32 -4z"/>
<path d="M5172 5709 c10 -5 42 -12 70 -14 l53 -5 -60 15 c-71 17 -86 18 -63 4z"/>
<path d="M5033 5703 c9 -2 25 -2 35 0 9 3 1 5 -18 5 -19 0 -27 -2 -17 -5z"/>
<path d="M6440 5706 c0 -2 7 -7 16 -10 8 -3 12 -2 9 4 -6 10 -25 14 -25 6z"/>
<path d="M3690 5660 c-10 -7 2 -8 40 -4 30 4 57 8 59 10 10 9 -86 3 -99 -6z"/>
<path d="M4403 5625 l-38 -38 40 28 c22 16 42 30 44 32 2 2 2 6 -2 9 -3 3 -23
-11 -44 -31z"/>
<path d="M5043 5653 c-18 -2 -33 -8 -33 -12 0 -8 108 4 118 13 6 6 -30 6 -85
-1z"/>
<path d="M5885 5640 c21 -24 26 -25 19 -6 -3 8 -13 17 -22 21 -13 5 -13 2 3
-15z"/>
<path d="M3768 5643 c6 -2 18 -2 25 0 6 3 1 5 -13 5 -14 0 -19 -2 -12 -5z"/>
<path d="M5505 5630 c8 -13 66 -43 71 -37 5 5 -58 47 -70 47 -4 0 -4 -5 -1
-10z"/>
<path d="M5800 5606 c0 -2 15 -9 33 -15 29 -10 30 -9 13 4 -18 14 -46 20 -46
11z"/>
<path d="M3748 5593 c7 -3 16 -2 19 1 4 3 -2 6 -13 5 -11 0 -14 -3 -6 -6z"/>
<path d="M3748 5573 c12 -2 30 -2 40 0 9 3 -1 5 -23 4 -22 0 -30 -2 -17 -4z"/>
<path d="M6460 5565 c7 -9 15 -13 17 -11 7 7 -7 26 -19 26 -6 0 -6 -6 2 -15z"/>
<path d="M5595 5561 c19 -9 93 -15 84 -7 -2 2 -26 6 -54 10 -34 4 -43 3 -30
-3z"/>
<path d="M5835 5560 c-25 -6 -20 -8 28 -9 37 -1 56 3 52 9 -7 11 -36 11 -80 0z"/>
<path d="M6450 5522 c0 -12 19 -26 26 -19 2 2 -2 10 -11 17 -9 8 -15 8 -15 2z"/>
<path d="M5675 5506 c34 -15 219 -31 211 -17 -3 4 -47 11 -98 14 -51 3 -104 8
-118 11 -21 5 -20 4 5 -8z"/>
<path d="M3710 5500 c-19 -12 66 -12 95 0 15 6 7 9 -30 9 -27 0 -57 -4 -65 -9z"/>
<path d="M3708 5440 c-53 -3 -100 -8 -104 -13 -9 -9 127 -8 181 1 65 12 27 18
-77 12z"/>
<path d="M6451 5414 c13 -16 29 -19 29 -5 0 5 -9 11 -21 14 -16 4 -18 3 -8 -9z"/>
<path d="M4244 5395 c-25 -19 -15 -19 27 0 25 10 29 14 13 15 -11 0 -29 -7
-40 -15z"/>
<path d="M3560 5380 c0 -11 97 -11 205 0 61 6 52 7 -67 8 -87 1 -138 -2 -138
-8z"/>
<path d="M6220 5365 c17 -22 252 -176 259 -170 9 10 -27 38 -113 90 -50 30
-107 64 -126 77 -30 19 -33 20 -20 3z"/>
<path d="M6455 5350 c10 -11 20 -20 22 -20 2 0 -1 9 -7 20 -6 11 -16 20 -22
20 -6 0 -3 -9 7 -20z"/>
<path d="M6136 5346 c3 -8 12 -17 19 -20 8 -3 23 -23 35 -46 13 -25 27 -40 39
-40 11 0 43 -16 71 -35 29 -20 47 -29 40 -20 -16 19 -7 19 31 -1 17 -8 33 -13
36 -10 6 6 -131 71 -162 77 -11 2 -31 21 -45 41 -28 42 -74 80 -64 54z"/>
<path d="M4248 5343 c7 -3 16 -2 19 1 4 3 -2 6 -13 5 -11 0 -14 -3 -6 -6z"/>
<path d="M3525 5322 c-87 -12 -24 -22 136 -22 93 0 149 4 149 10 0 6 -17 10
-37 10 -21 0 -74 2 -118 4 -44 2 -102 1 -130 -2z"/>
<path d="M6420 5300 c30 -25 60 -38 60 -26 0 6 -76 56 -86 56 -5 0 7 -14 26
-30z"/>
<path d="M3768 5263 c12 -2 30 -2 40 0 9 3 -1 5 -23 4 -22 0 -30 -2 -17 -4z"/>
<path d="M5140 5150 c-1 -198 -20 -540 -34 -609 -34 -164 -69 -193 -306 -252
l-95 -23 60 -11 c143 -27 261 -82 301 -143 38 -56 52 -186 58 -527 3 -170 6
-326 6 -344 0 -23 3 -32 10 -25 6 6 12 146 15 339 7 370 17 490 45 545 23 46
83 95 141 115 48 17 271 45 362 45 31 0 57 4 57 9 0 5 -46 9 -101 10 -56 0
-127 7 -158 15 -31 8 -78 20 -105 27 -70 18 -161 82 -192 135 -24 41 -26 56
-34 231 -5 104 -9 267 -10 363 0 96 -5 182 -10 190 -7 10 -10 -18 -10 -90z
m15 -711 c9 -40 77 -109 133 -135 23 -10 42 -22 42 -26 0 -3 -14 -10 -32 -13
-39 -9 -154 -120 -164 -159 -8 -32 -20 -34 -28 -2 -9 37 -85 113 -145 145
l-54 29 44 12 c100 25 147 64 170 140 15 48 25 51 34 9z"/>
<path d="M3748 5200 c-133 -9 -136 -20 -4 -16 99 3 130 8 109 18 -4 2 -52 1
-105 -2z"/>
<path d="M3588 5173 c6 -2 18 -2 25 0 6 3 1 5 -13 5 -14 0 -19 -2 -12 -5z"/>
<path d="M3825 5140 l-30 -8 27 -1 c15 0 30 4 33 9 3 6 5 9 3 9 -2 -1 -16 -5
-33 -9z"/>
<path d="M3833 5093 c9 -2 23 -2 30 0 6 3 -1 5 -18 5 -16 0 -22 -2 -12 -5z"/>
<path d="M3850 5050 c-8 -5 -10 -10 -5 -10 6 0 17 5 25 10 8 5 11 10 5 10 -5
0 -17 -5 -25 -10z"/>
<path d="M4576 5002 c5 -4 35 -25 68 -47 115 -77 235 -217 297 -346 25 -53 29
-58 24 -29 -16 98 -198 321 -323 393 -59 34 -89 48 -66 29z"/>
<path d="M4170 4990 c0 -5 17 -10 38 -9 30 0 33 2 17 9 -28 12 -55 12 -55 0z"/>
<path d="M3848 4963 c7 -3 16 -2 19 1 4 3 -2 6 -13 5 -11 0 -14 -3 -6 -6z"/>
<path d="M3854 4906 c-21 -19 -37 -36 -34 -39 3 -3 25 13 49 34 24 21 39 39
34 39 -5 0 -27 -15 -49 -34z"/>
<path d="M3898 4904 c-37 -19 -35 -26 2 -13 17 6 30 15 30 20 0 11 1 11 -32
-7z"/>
<path d="M4171 4909 c-31 -12 -24 -18 16 -12 18 3 30 9 27 14 -6 11 -12 11
-43 -2z"/>
<path d="M5373 4912 c18 -27 184 -126 291 -172 118 -51 318 -114 338 -108 6 2
-38 19 -97 37 -140 42 -341 130 -435 190 -102 65 -104 66 -97 53z"/>
<path d="M6470 4870 c6 -11 13 -20 16 -20 2 0 0 9 -6 20 -6 11 -13 20 -16 20
-2 0 0 -9 6 -20z"/>
<path d="M6440 4847 c0 -14 34 -67 42 -67 4 0 8 3 8 8 -1 10 -50 69 -50 59z"/>
<path d="M3905 4800 c-10 -11 -13 -20 -8 -20 13 0 38 29 31 35 -3 3 -13 -4
-23 -15z"/>
<path d="M4131 4796 c2 -2 27 -6 54 -9 32 -4 43 -3 30 3 -19 8 -93 14 -84 6z"/>
<path d="M6460 4740 c25 -36 25 -36 -36 -10 -26 11 -49 18 -51 16 -5 -4 110
-66 122 -66 18 0 -31 89 -48 90 -5 0 1 -13 13 -30z"/>
<path d="M3926 4719 c-26 -23 -45 -44 -42 -46 5 -6 105 69 105 80 2 16 -18 5
-63 -34z"/>
<path d="M5352 4690 c-6 -33 -21 -81 -33 -107 -41 -86 -41 -87 -24 -73 27 23
64 114 71 178 8 79 -1 81 -14 2z"/>
<path d="M4410 4716 c0 -3 30 -21 67 -42 75 -42 142 -100 214 -187 58 -69 66
-61 10 10 -53 67 -137 144 -191 176 -46 26 -100 50 -100 43z"/>
<path d="M3967 4651 c-32 -33 -57 -65 -57 -72 0 -8 3 -9 8 -3 5 5 32 35 62 67
29 31 51 59 48 62 -3 3 -30 -22 -61 -54z"/>
<path d="M6405 4627 c33 -19 62 -33 64 -31 13 12 -42 46 -94 58 -21 5 -13 -3
30 -27z"/>
<path d="M4027 4627 c-26 -40 -88 -169 -84 -174 5 -4 24 26 81 130 20 37 33
67 28 67 -5 0 -16 -10 -25 -23z"/>
<path d="M6302 4595 c7 -7 134 -55 163 -62 20 -4 20 -4 0 12 -27 22 -183 69
-163 50z"/>
<path d="M4035 4495 c-26 -53 -45 -98 -42 -101 5 -5 107 176 107 190 0 3 -4 6
-8 6 -5 0 -31 -43 -57 -95z"/>
<path d="M4124 4522 c-10 -16 -54 -162 -54 -179 0 -22 21 23 45 95 26 81 30
119 9 84z"/>
<path d="M6336 4505 c22 -7 55 -20 72 -29 39 -20 62 -22 42 -2 -22 20 -96 46
-128 45 -23 -1 -22 -3 14 -14z"/>
<path d="M4190 4478 c0 -6 47 -64 132 -162 15 -17 28 -28 28 -24 0 6 -44 59
-152 183 -4 5 -8 6 -8 3z"/>
<path d="M5385 4460 c-3 -6 1 -7 9 -4 18 7 21 14 7 14 -6 0 -13 -4 -16 -10z"/>
<path d="M5579 4444 c-8 -9 -32 -25 -54 -35 -35 -15 -37 -18 -15 -18 29 -1 65
21 80 50 13 23 7 25 -11 3z"/>
<path d="M6356 4427 c39 -19 74 -40 78 -46 4 -6 12 -11 18 -11 18 0 -24 41
-62 60 -19 10 -51 21 -70 24 -26 5 -17 -2 36 -27z"/>
<path d="M4203 4375 c0 -22 2 -30 4 -17 2 12 2 30 0 40 -3 9 -5 -1 -4 -23z"/>
<path d="M4420 4388 c0 -5 32 -50 70 -100 107 -140 176 -294 285 -633 43 -132
38 -83 -6 65 -70 233 -168 451 -250 555 -61 79 -98 121 -99 113z"/>
<path d="M6375 4331 c38 -17 74 -30 79 -28 15 5 -74 46 -114 52 -25 5 -16 -2
35 -24z"/>
<path d="M4390 4345 c0 -5 16 -28 36 -50 19 -22 30 -31 25 -20 -15 29 -61 82
-61 70z"/>
<path d="M6324 4284 c21 -7 55 -24 75 -36 l36 -22 -20 24 c-23 27 -74 50 -107
49 -17 0 -13 -4 16 -15z"/>
<path d="M4376 4280 c10 -19 144 -212 157 -225 18 -19 -16 40 -64 110 -47 69
-108 145 -93 115z"/>
<path d="M6316 4216 c23 -7 52 -21 65 -30 30 -21 45 -21 28 1 -19 22 -72 43
-106 42 -24 0 -23 -2 13 -13z"/>
<path d="M6348 4128 c35 -17 66 -28 69 -24 7 7 -101 56 -120 55 -7 0 16 -14
51 -31z"/>
<path d="M5464 4131 c7 -11 98 -43 104 -36 5 5 -83 45 -99 45 -6 0 -8 -4 -5
-9z"/>
<path d="M4957 4064 c-4 -26 -23 -63 -52 -99 -58 -75 -58 -91 0 -28 47 50 70
102 63 143 -3 20 -5 16 -11 -16z"/>
<path d="M5330 4065 c-8 -79 13 -166 57 -243 33 -58 40 -47 9 14 -30 60 -47
120 -56 199 -5 38 -8 49 -10 30z"/>
<path d="M6281 4067 c16 -14 119 -67 119 -63 0 10 -93 66 -109 66 -8 0 -12 -2
-10 -3z"/>
<path d="M6361 4056 c2 -2 15 -9 29 -16 23 -12 24 -12 11 3 -7 10 -20 17 -29
17 -8 0 -13 -2 -11 -4z"/>
<path d="M6258 4018 c5 -5 16 -8 23 -6 8 3 3 7 -10 11 -17 4 -21 3 -13 -5z"/>
<path d="M6310 3960 c0 -5 18 -19 40 -30 22 -11 40 -16 40 -10 0 5 -18 19 -40
30 -22 11 -40 16 -40 10z"/>
<path d="M6250 3920 c0 -6 7 -10 15 -10 8 0 15 2 15 4 0 2 -7 6 -15 10 -8 3
-15 1 -15 -4z"/>
<path d="M6291 3907 c24 -19 79 -47 79 -40 0 11 -53 43 -71 43 -7 0 -10 -1 -8
-3z"/>
<path d="M6258 3859 c18 -6 51 -28 72 -49 42 -42 54 -40 20 2 -22 28 -78 58
-107 57 -10 0 -3 -5 15 -10z"/>
<path d="M6266 3750 c23 -10 45 -23 48 -29 4 -6 16 -16 27 -22 20 -10 20 -10
4 14 -9 14 -34 32 -56 41 -55 22 -73 19 -23 -4z"/>
<path d="M6319 3656 c14 -14 26 -24 29 -22 7 8 -8 25 -31 37 -21 11 -21 10 2
-15z"/>
<path d="M6210 3640 c0 -6 7 -10 15 -10 8 0 15 2 15 4 0 2 -7 6 -15 10 -8 3
-15 1 -15 -4z"/>
<path d="M6308 3590 c9 -16 21 -30 25 -30 5 0 0 14 -10 30 -9 17 -21 30 -25
30 -4 0 1 -13 10 -30z"/>
<path d="M6263 3542 c15 -10 34 -27 42 -38 8 -10 15 -14 15 -8 0 17 -50 64
-69 64 -11 0 -7 -6 12 -18z"/>
<path d="M6201 3508 c2 -2 28 -25 57 -53 28 -27 52 -45 52 -40 0 17 -81 95
-98 95 -8 0 -13 -1 -11 -2z"/>
<path d="M6197 3422 c17 -9 41 -29 53 -44 25 -33 46 -38 30 -8 -13 24 -79 70
-100 70 -8 -1 -1 -9 17 -18z"/>
<path d="M6134 3352 c4 -7 13 -12 21 -12 29 0 66 -25 86 -57 12 -19 23 -32 26
-29 8 8 -27 66 -50 81 -31 20 -93 32 -83 17z"/>
<path d="M3925 3255 c4 -11 9 -32 12 -47 3 -16 9 -28 14 -28 12 0 10 9 -12 55
-11 22 -17 31 -14 20z"/>
<path d="M6134 3235 c11 -8 25 -15 30 -15 6 0 2 7 -8 15 -11 8 -25 15 -30 15
-6 0 -2 -7 8 -15z"/>
<path d="M6210 3243 c0 -5 9 -18 20 -28 11 -10 20 -14 20 -8 0 5 -9 18 -20 28
-11 10 -20 14 -20 8z"/>
<path d="M3976 3151 c-4 -6 0 -23 8 -38 l15 -28 -6 35 c-7 41 -9 45 -17 31z"/>
<path d="M6150 3138 c56 -38 67 -42 40 -15 -14 14 -36 28 -50 32 -21 6 -19 3
10 -17z"/>
<path d="M6090 3119 c21 -6 52 -28 78 -57 24 -26 39 -38 33 -26 -19 39 -89 94
-119 93 -25 -1 -24 -2 8 -10z"/>
<path d="M4030 3086 c0 -16 -4 -25 -10 -21 -12 7 -12 -2 -1 -30 7 -16 10 -12
16 23 4 24 4 46 1 49 -3 4 -6 -6 -6 -21z"/>
<path d="M6038 3043 c7 -3 16 -2 19 1 4 3 -2 6 -13 5 -11 0 -14 -3 -6 -6z"/>
<path d="M6105 2990 c17 -20 38 -47 47 -60 9 -14 17 -20 17 -14 1 18 -42 76
-69 93 -23 15 -23 13 5 -19z"/>
<path d="M4110 2975 c-7 -20 -10 -39 -7 -41 3 -3 10 11 17 31 7 20 10 39 7 41
-3 3 -10 -11 -17 -31z"/>
<path d="M6056 2942 c10 -9 27 -26 37 -37 18 -19 18 -19 3 11 -8 17 -25 34
-37 37 -22 6 -22 6 -3 -11z"/>
<path d="M2761 2921 c-6 -11 -11 -53 -11 -94 0 -65 4 -83 35 -145 22 -43 63
-100 105 -145 52 -55 75 -90 93 -138 27 -72 87 -193 124 -253 14 -21 26 -45
27 -52 1 -8 11 -24 23 -36 11 -13 26 -34 33 -48 7 -14 11 -23 8 -20 -2 3 -26
29 -53 58 -28 30 -40 50 -29 45 26 -10 -47 77 -131 156 -93 86 -150 113 -250
118 -44 2 -86 0 -94 -5 -23 -16 -5 -57 56 -122 80 -87 127 -112 228 -120 52
-4 98 -14 126 -28 66 -32 144 -105 194 -183 50 -77 66 -91 30 -26 -45 81 -243
502 -259 549 -8 26 -25 93 -36 150 -31 153 -93 268 -182 337 -27 21 -27 21
-37 2z m65 -67 c19 -15 47 -53 64 -88 29 -59 76 -223 67 -232 -8 -8 -84 148
-110 224 -27 79 -37 97 -37 64 0 -42 60 -192 110 -272 20 -33 19 -32 -18 9
-76 83 -148 255 -129 306 8 20 13 19 53 -11z m-27 -535 c61 -13 105 -42 206
-137 l77 -72 -48 20 c-26 12 -79 25 -116 30 -38 4 -81 16 -96 26 -36 23 -142
125 -142 136 0 11 59 10 119 -3z"/>
<path d="M7392 2899 c-35 -20 -63 -46 -83 -77 -33 -52 -41 -78 -75 -242 -41
-198 -76 -292 -199 -532 -64 -126 -114 -228 -112 -228 3 0 24 30 48 68 61 93
135 168 194 197 27 13 90 34 139 46 71 18 106 33 175 79 91 61 160 125 147
137 -4 5 -51 8 -104 8 -84 0 -105 -4 -152 -26 -75 -36 -157 -106 -235 -201
-70 -86 -84 -91 -33 -12 46 73 103 199 126 281 17 62 30 83 84 143 124 139
168 227 168 337 0 64 -10 67 -88 22z m55 -51 c-5 -37 -23 -90 -43 -128 -36
-68 -145 -222 -153 -214 -2 2 3 12 11 21 33 38 146 289 134 300 -5 5 -63 -110
-117 -236 -11 -24 -21 -42 -24 -40 -8 8 54 209 77 251 20 37 97 108 117 108 4
0 4 -28 -2 -62z m127 -539 c-31 -35 -206 -127 -273 -144 -36 -9 -82 -25 -103
-36 -21 -11 -38 -16 -38 -11 0 10 134 128 183 160 49 32 116 50 191 51 59 1
59 1 40 -20z"/>
<path d="M4211 2890 c-13 -11 -19 -20 -13 -20 5 0 20 9 33 20 13 10 20 19 14
19 -5 0 -21 -9 -34 -19z"/>
<path d="M4935 2797 c-58 -106 -135 -190 -217 -236 -65 -37 -75 -48 -23 -27
73 31 153 99 202 171 30 44 97 175 92 179 -2 2 -26 -37 -54 -87z"/>
<path d="M6010 2872 c14 -9 42 -32 62 -51 37 -32 51 -32 26 1 -17 21 -88 68
-102 67 -6 0 0 -8 14 -17z"/>
<path d="M4280 2825 c-13 -14 -21 -27 -18 -30 2 -3 15 6 28 20 13 14 21 27 18
30 -2 3 -15 -6 -28 -20z"/>
<path d="M4351 2801 c-12 -22 -34 -49 -49 -61 l-27 -21 30 15 c27 13 83 91 73
102 -3 2 -14 -14 -27 -35z"/>
<path d="M5975 2790 c28 -11 60 -32 72 -47 22 -27 30 -22 17 11 -7 19 -87 56
-118 56 -12 -1 0 -9 29 -20z"/>
<path d="M4403 2728 c-24 -17 -41 -33 -39 -36 4 -3 58 32 91 60 26 22 -15 3
-52 -24z"/>
<path d="M5905 2742 c13 -12 77 -34 83 -27 5 4 -21 16 -68 30 -16 5 -22 4 -15
-3z"/>
<path d="M4489 2714 c-19 -14 -47 -32 -64 -40 -25 -11 -26 -13 -9 -14 20 0 95
48 109 69 10 17 2 13 -36 -15z"/>
<path d="M4940 2624 c-58 -59 -96 -102 -85 -96 33 17 212 204 193 202 -2 0
-50 -48 -108 -106z"/>
<path d="M4508 2668 c-42 -29 -75 -54 -73 -57 5 -4 165 98 165 105 0 11 -22
-1 -92 -48z"/>
<path d="M5900 2700 c-11 -7 2 -10 41 -10 38 0 61 -5 69 -15 19 -23 34 -18 18
7 -11 16 -26 22 -64 24 -27 2 -56 -1 -64 -6z"/>
<path d="M4558 2639 c-26 -22 -78 -54 -115 -70 -41 -17 -59 -29 -45 -29 33 0
130 52 182 99 59 53 39 52 -22 0z"/>
<path d="M4670 2615 c-53 -54 -155 -115 -191 -115 -10 0 -21 -5 -25 -11 -9
-15 47 -3 104 21 42 19 145 108 163 142 15 28 8 22 -51 -37z"/>
<path d="M4332 2650 c-18 -4 -36 -11 -40 -15 -8 -8 52 3 83 16 25 10 1 10 -43
-1z"/>
<path d="M5927 2635 c25 -8 53 -10 70 -6 25 7 24 8 -21 14 -75 11 -97 7 -49
-8z"/>
<path d="M4388 2614 c-3 -3 -28 -9 -55 -14 -42 -7 -43 -8 -13 -8 31 -1 111 25
84 27 -6 1 -13 -2 -16 -5z"/>
<path d="M3312 2577 c-40 -41 -107 -186 -121 -258 -11 -63 -1 -157 25 -236 9
-26 56 -129 104 -228 72 -145 106 -201 175 -290 136 -172 140 -178 70 -121
-33 27 -88 62 -122 77 -34 16 -100 51 -146 78 -191 113 -311 143 -433 106 -66
-19 -146 -71 -142 -91 2 -9 47 -36 103 -62 l100 -47 230 -2 c301 -2 322 -9
503 -180 45 -43 82 -76 82 -74 0 2 -18 27 -39 55 -21 28 -49 69 -61 91 -12 22
-48 76 -79 120 -132 184 -180 266 -228 395 -51 134 -48 213 12 369 29 75 35
103 35 168 0 77 -13 148 -29 157 -4 3 -22 -9 -39 -27z m45 -147 c-4 -42 -19
-97 -43 -155 -30 -74 -38 -107 -43 -185 l-6 -95 -19 85 c-27 118 -26 230 3
300 26 64 68 149 84 169 18 21 30 -42 24 -119z m-254 -769 c66 -23 230 -111
206 -111 -8 0 -69 15 -135 34 -127 36 -230 52 -263 41 -35 -11 -13 -25 40 -25
28 0 104 -13 169 -30 65 -16 131 -30 147 -30 15 0 34 -4 41 -9 12 -7 -209 -6
-333 3 -32 2 -78 17 -128 41 l-78 38 41 23 c103 59 177 65 293 25z"/>
<path d="M5039 2602 c-2 -5 -31 -32 -64 -60 -71 -61 -157 -104 -262 -133 -90
-25 -107 -34 -43 -24 66 10 137 33 201 67 60 31 188 142 178 153 -4 3 -9 2
-10 -3z"/>
<path d="M5835 2590 c3 -5 16 -10 28 -10 12 0 42 -11 66 -25 52 -30 60 -31 36
-5 -10 11 -41 27 -68 35 -59 18 -70 18 -62 5z"/>
<path d="M6849 2573 c-6 -16 -9 -62 -6 -103 3 -60 14 -98 52 -189 26 -63 49
-138 52 -167 12 -114 -30 -227 -146 -398 -143 -209 -329 -491 -326 -494 2 -2
38 32 80 76 96 101 169 158 237 184 48 19 75 21 288 22 l235 1 61 28 c34 16
78 46 99 67 l37 38 -55 31 c-79 45 -138 56 -230 43 -101 -16 -156 -35 -257
-92 -47 -27 -119 -64 -161 -84 -42 -20 -102 -59 -133 -86 -31 -28 -59 -50 -62
-50 -6 0 -2 5 134 195 129 179 227 346 264 452 28 77 32 101 32 198 1 106 0
113 -35 185 -33 69 -116 170 -140 170 -5 0 -14 -12 -20 -27z m121 -155 c21
-43 42 -98 45 -122 7 -45 -7 -160 -27 -231 l-12 -40 -7 80 c-5 63 -16 104 -54
195 -41 97 -49 127 -52 195 l-4 80 36 -40 c19 -22 53 -75 75 -117z m405 -745
c27 -9 60 -22 73 -29 25 -12 24 -13 -38 -53 -35 -23 -79 -45 -99 -50 -30 -8
-424 -21 -417 -14 1 2 38 9 82 17 43 8 129 26 189 40 61 14 127 26 148 26 23
0 36 4 32 10 -13 20 -116 9 -270 -30 -87 -22 -160 -38 -162 -36 -6 6 101 64
160 87 119 47 225 59 302 32z"/>
<path d="M5795 2530 c11 -5 36 -9 55 -9 21 -1 51 -12 74 -27 21 -15 36 -20 34
-13 -8 25 -89 59 -137 58 -35 0 -41 -2 -26 -9z"/>
<path d="M4325 2474 c54 -42 157 -74 237 -74 58 0 17 17 -52 22 -53 4 -86 13
-131 37 -64 33 -86 40 -54 15z"/>
<path d="M5750 2460 c-11 -7 -5 -10 25 -10 22 0 64 -9 93 -19 49 -17 52 -17
37 -1 -9 10 -33 21 -53 24 -20 4 -48 9 -62 11 -14 3 -32 1 -40 -5z"/>
<path d="M4340 2401 c0 -17 55 -41 107 -46 l48 -5 -53 15 c-28 8 -63 22 -77
31 -15 10 -25 12 -25 5z"/>
<path d="M5768 2375 c45 -7 96 -18 114 -24 37 -13 38 -13 38 -2 0 14 -124 41
-182 40 -51 -1 -50 -2 30 -14z"/>
<path d="M5100 2373 c-14 -2 -68 -18 -120 -35 -52 -17 -124 -39 -160 -49 -63
-18 -63 -19 -16 -13 26 3 101 22 165 42 107 34 125 37 236 37 99 0 130 -4 180
-23 32 -12 64 -22 70 -22 22 0 -23 21 -98 45 -75 24 -177 31 -257 18z"/>
<path d="M4350 2314 c0 -8 63 -35 76 -32 8 2 -5 10 -30 19 -25 9 -46 15 -46
13z"/>
<path d="M5687 2303 c-3 -4 36 -9 86 -10 51 -1 106 -7 122 -13 29 -11 29 -10
12 7 -14 14 -37 19 -116 21 -54 2 -101 0 -104 -5z"/>
<path d="M4371 2246 c9 -9 40 -23 69 -31 61 -16 56 -6 -10 20 -78 30 -77 30
-59 11z"/>
<path d="M4991 2215 c-35 -8 -66 -17 -70 -21 -3 -4 5 -4 19 0 14 4 73 10 131
13 106 5 151 -2 304 -52 16 -5 17 -5 4 4 -8 5 -50 22 -92 36 -97 32 -209 40
-296 20z"/>
<path d="M5735 2219 c44 -5 104 -21 134 -34 37 -18 50 -20 40 -9 -27 33 -73
47 -164 50 l-90 3 80 -10z"/>
<path d="M4364 2175 c11 -8 27 -15 35 -15 10 1 7 6 -9 15 -33 19 -50 18 -26 0z"/>
<path d="M3769 2153 c-55 -9 -133 -66 -166 -122 -83 -138 -71 -323 34 -549 41
-87 263 -465 270 -458 7 7 -80 185 -143 292 -79 134 -140 273 -160 363 -29
131 -8 276 53 359 30 40 110 82 159 82 49 0 108 -35 141 -83 68 -99 0 -272
-93 -236 -37 14 -44 25 -44 79 0 80 48 98 73 28 l15 -43 1 42 c1 32 -4 45 -21
57 -30 21 -44 20 -68 -4 -32 -32 -28 -129 6 -169 71 -85 183 8 184 152 0 88
-37 159 -100 192 -29 15 -103 25 -141 18z"/>
<path d="M6316 2124 c-78 -53 -110 -194 -67 -290 32 -71 79 -90 137 -55 57 35
85 139 46 174 -25 23 -68 21 -92 -3 -22 -22 -22 -25 -11 -55 7 -18 9 -17 22
10 16 33 42 43 64 25 33 -27 5 -113 -42 -131 -54 -20 -113 51 -113 139 0 60
15 94 59 136 42 40 128 48 187 18 109 -56 154 -173 134 -349 -14 -129 -37
-191 -136 -370 -70 -126 -186 -364 -180 -370 3 -3 90 141 158 262 77 137 150
292 169 357 29 105 37 267 15 342 -21 73 -98 155 -162 174 -72 21 -144 16
-188 -14z"/>
<path d="M5672 2135 c2 -3 45 -9 94 -15 49 -5 100 -12 113 -16 16 -5 22 -4 17
4 -9 15 -97 32 -168 32 -34 0 -59 -2 -56 -5z"/>
<path d="M4378 2073 c7 -3 16 -2 19 1 4 3 -2 6 -13 5 -11 0 -14 -3 -6 -6z"/>
<path d="M5740 2050 c47 -4 95 -12 107 -18 12 -7 28 -12 35 -11 7 0 -5 9 -27
20 -30 14 -60 18 -120 17 l-80 -1 85 -7z"/>
<path d="M4375 2000 c11 -5 29 -9 40 -9 l20 0 -20 9 c-11 5 -29 9 -40 9 l-20
0 20 -9z"/>
<path d="M5720 1960 c31 -4 65 -12 77 -18 38 -21 73 -32 73 -23 0 18 -103 51
-154 50 l-51 -2 55 -7z"/>
<path d="M4364 1925 c11 -8 27 -15 35 -15 10 1 7 6 -9 15 -33 19 -50 18 -26 0z"/>
<path d="M4374 1865 c11 -8 25 -15 30 -15 6 0 2 7 -8 15 -11 8 -25 15 -30 15
-6 0 -2 -7 8 -15z"/>
<path d="M5680 1863 c0 -5 30 -8 68 -9 43 0 78 -6 100 -17 17 -10 32 -13 32
-8 0 22 -60 41 -130 41 -38 0 -70 -3 -70 -7z"/>
<path d="M5755 1770 c39 -3 81 -12 93 -19 13 -7 26 -10 29 -8 3 3 -9 13 -26
21 -20 11 -53 16 -98 15 l-68 -2 70 -7z"/>
<path d="M5104 1515 c0 -110 2 -156 3 -103 2 53 2 143 0 200 -1 57 -3 13 -3
-97z"/>
<path d="M5735 1700 c33 -6 73 -14 89 -20 36 -13 46 -6 15 11 -13 6 -55 13
-94 15 l-70 3 60 -9z"/>
<path d="M5705 1620 c-4 -6 12 -10 40 -10 25 0 62 -7 82 -15 52 -22 54 -9 2
15 -47 21 -114 27 -124 10z"/>
<path d="M5720 1520 c-10 -7 6 -10 55 -10 39 0 81 -3 95 -5 22 -5 21 -3 -5 9
-34 17 -123 21 -145 6z"/>
<path d="M3985 1512 c-32 -6 -73 -52 -92 -101 -36 -93 -8 -346 46 -421 20 -28
51 -86 51 -95 0 -3 -24 20 -52 51 -181 198 -262 258 -397 298 -69 20 -174 21
-233 0 -147 -49 -212 -209 -143 -349 38 -79 95 -115 180 -115 75 0 120 26 149
83 15 32 16 42 6 68 -26 62 -98 89 -133 51 -21 -23 -22 -66 -1 -86 25 -26 34
-18 20 15 -20 47 -10 71 27 67 42 -4 74 -48 61 -85 -14 -42 -78 -75 -135 -70
-67 6 -113 38 -145 102 -21 45 -25 63 -20 99 11 71 55 129 123 162 51 26 69
29 148 28 73 0 101 -5 151 -26 77 -32 165 -92 235 -158 l54 -51 -55 30 c-101
55 -205 83 -307 85 -57 1 -96 -3 -103 -10 -9 -9 10 -12 77 -11 73 0 104 -5
180 -30 197 -65 292 -143 387 -316 32 -59 60 -107 62 -107 3 0 -41 106 -114
275 -23 53 -26 73 -25 170 0 74 7 137 21 195 27 113 31 140 22 170 l-7 25 -6
-25 c-46 -216 -58 -296 -52 -355 8 -74 0 -68 -26 21 -45 155 -32 314 29 371
22 20 34 24 65 20 20 -3 37 -1 37 4 0 5 -1 9 -3 9 -1 0 -16 4 -32 8 -17 5 -39
6 -50 4z"/>
<path d="M6175 1490 c-4 -6 11 -10 38 -10 48 0 71 -18 102 -79 15 -29 16 -52
12 -140 -6 -111 -23 -204 -36 -196 -5 2 -9 33 -10 67 -2 61 -44 257 -62 288
-17 29 -9 -37 16 -141 51 -210 44 -291 -38 -456 -44 -88 -89 -196 -101 -243
-4 -14 26 38 66 115 110 213 191 284 394 348 45 14 116 29 158 33 79 7 105 19
63 29 -52 13 -204 -20 -362 -79 -53 -20 100 100 174 137 83 41 86 42 190 42
90 0 112 -3 147 -22 117 -62 157 -193 90 -293 -51 -77 -177 -110 -230 -61 -45
42 -42 108 6 144 25 19 28 19 52 3 32 -20 35 -62 6 -71 -20 -6 -28 -25 -11
-25 63 0 76 94 17 122 -51 23 -126 -40 -126 -106 0 -85 59 -131 160 -124 114
8 200 110 200 237 0 55 -35 135 -76 173 -70 65 -199 92 -317 64 -138 -32 -235
-100 -334 -233 -29 -40 -62 -77 -73 -83 -25 -14 -25 -12 5 47 64 123 89 329
52 425 -25 65 -66 98 -122 98 -24 0 -47 -4 -50 -10z"/>
<path d="M5787 1450 c29 -4 60 -10 68 -14 8 -3 15 -1 15 3 0 14 -29 21 -83 20
l-52 -1 52 -8z"/>
<path d="M5783 1383 c12 -12 107 -32 107 -22 0 9 -17 14 -75 24 -22 4 -36 3
-32 -2z"/>
<path d="M5808 1293 c7 -3 16 -2 19 1 4 3 -2 6 -13 5 -11 0 -14 -3 -6 -6z"/>
<path d="M5840 1286 c0 -2 7 -7 16 -10 8 -3 12 -2 9 4 -6 10 -25 14 -25 6z"/>
<path d="M5735 1260 c-13 -6 -5 -7 25 -3 25 3 47 7 49 9 9 8 -55 2 -74 -6z"/>
<path d="M5760 1175 l-25 -15 30 7 c17 5 51 8 77 8 25 0 44 3 41 7 -8 14 -97
8 -123 -7z"/>
<path d="M5775 1099 c-14 -6 -6 -8 27 -4 27 4 56 1 68 -5 25 -13 42 -4 20 10
-19 12 -89 11 -115 -1z"/>
<path d="M5843 1023 c9 -2 25 -2 35 0 9 3 1 5 -18 5 -19 0 -27 -2 -17 -5z"/>
<path d="M5857 943 c-3 -5 9 -9 26 -10 24 -2 28 0 17 7 -18 12 -37 13 -43 3z"/>
<path d="M5860 860 c-20 -6 -21 -8 -5 -8 11 0 29 3 40 8 25 11 -1 11 -35 0z"/>
<path d="M3783 774 c-36 -8 -73 -50 -73 -83 0 -68 34 -107 103 -114 43 -5 46
4 17 47 l-19 30 -10 -27 c-13 -34 -36 -34 -57 -1 -22 32 -10 73 26 91 39 20
135 16 179 -6 65 -34 145 -145 207 -290 45 -103 39 -53 -6 64 -80 204 -158
284 -282 290 -35 2 -73 1 -85 -1z"/>
<path d="M5845 770 c-15 -7 -9 -9 25 -9 33 -1 41 2 30 9 -18 12 -28 12 -55 0z"/>
<path d="M6321 768 c-90 -25 -153 -98 -217 -248 -48 -115 -42 -121 14 -15 30
58 68 112 107 151 52 53 68 63 114 73 97 20 161 -14 161 -87 0 -33 -36 -82
-60 -82 -23 0 -59 47 -53 70 4 16 3 21 -5 16 -22 -13 -14 -63 14 -85 36 -28
68 -26 105 7 23 21 32 39 36 72 11 103 -92 164 -216 128z"/>
</g></svg>