<?xml version="1.0" standalone="no"?>
<!DOCTYPE svg PUBLIC "-//W3C//DTD SVG 20010904//EN"
 "http://www.w3.org/TR/2001/REC-SVG-20010904/DTD/svg10.dtd">
<svg version="1.0" xmlns="http://www.w3.org/2000/svg"
 width="555.282114pt" height="1013.800000pt" viewBox="0 0 555.282114 1013.800000"
 preserveAspectRatio="xMidYMid meet">
<metadata>
Created by potrace 1.16, written by Peter Selinger 2001-2019
</metadata>
<g transform="translate(-236.475851,1036.400000) scale(0.100000,-0.100000)"
fill="currentColor" stroke="none">
<path d="M5132 9533 c0 -448 4 -637 8 -543 5 80 10 389 12 688 4 442 2 542 -8
542 -11 0 -13 -127 -12 -687z"/>
<path d="M4280 9951 c0 -5 21 -67 46 -138 25 -70 90 -254 143 -408 54 -154
107 -302 119 -330 11 -27 48 -121 83 -207 34 -87 66 -158 70 -158 14 0 11 10
-35 126 -102 257 -131 334 -229 614 -107 302 -185 510 -193 510 -2 0 -4 -4 -4
-9z"/>
<path d="M5972 9929 c-39 -105 -86 -236 -176 -499 -101 -295 -131 -379 -216
-597 -43 -110 -44 -113 -31 -113 9 0 77 160 101 235 7 22 32 87 55 145 56 138
289 840 281 847 -3 3 -9 -5 -14 -18z"/>
<path d="M6641 9437 c-19 -23 -158 -202 -309 -397 -152 -195 -297 -380 -324
-411 -26 -31 -48 -60 -48 -65 0 -18 71 62 199 226 312 399 485 616 507 641 23
24 32 50 17 48 -5 0 -23 -19 -42 -42z"/>
<path d="M3610 9435 c0 -3 35 -47 78 -98 43 -51 196 -239 340 -419 223 -279
302 -368 302 -344 0 3 -17 24 -39 48 -21 24 -62 72 -90 108 -473 600 -563 710
-582 710 -5 0 -9 -2 -9 -5z"/>
<path d="M5432 9253 c-33 -139 -64 -311 -60 -330 2 -10 23 78 46 196 43 216
51 296 14 134z"/>
<path d="M4846 9248 c25 -153 62 -333 63 -304 1 36 -59 368 -69 379 -4 5 -1
-29 6 -75z"/>
<path d="M5967 9053 c-37 -59 -170 -314 -166 -318 4 -3 51 80 161 283 42 76
45 98 5 35z"/>
<path d="M4290 9077 c0 -13 193 -357 198 -352 4 4 -158 308 -182 340 -9 11
-16 16 -16 12z"/>
<path d="M3120 8861 c19 -17 113 -81 208 -143 95 -62 310 -204 478 -315 168
-112 304 -197 302 -190 -6 18 -215 164 -468 326 -124 80 -288 186 -365 237
-162 106 -208 131 -155 85z"/>
<path d="M7005 8772 c-609 -399 -817 -541 -832 -565 -14 -22 35 7 206 124 97
66 312 210 477 319 277 182 330 220 307 220 -5 0 -76 -44 -158 -98z"/>
<path d="M5043 8710 c-43 -26 -78 -83 -109 -177 -26 -81 -53 -236 -55 -313 l0
-45 -20 45 c-37 84 -98 130 -169 130 -139 0 -236 -156 -285 -460 -14 -89 -46
-416 -60 -630 -4 -52 -14 -149 -24 -214 l-17 -119 -12 131 c-21 225 -65 348
-141 399 -67 45 -144 21 -200 -64 -75 -112 -115 -302 -141 -663 -6 -80 -19
-206 -30 -280 -46 -320 -62 -510 -75 -895 -9 -258 -23 -430 -55 -650 -16 -110
-34 -256 -41 -325 -34 -354 48 -1226 162 -1730 40 -176 92 -330 178 -527 118
-272 143 -375 162 -674 9 -132 9 -270 0 -550 -13 -447 -14 -699 -2 -699 13 0
19 57 38 365 10 166 17 423 17 630 1 346 -3 406 -40 584 -6 28 -4 33 7 26 8
-5 5 1 -5 13 -11 12 -17 24 -14 27 3 3 11 -1 18 -10 7 -8 17 -15 23 -15 6 0
-1 12 -16 27 -29 31 -179 370 -237 539 -96 277 -171 718 -220 1284 -41 482
-38 621 20 1022 33 226 45 378 60 773 12 308 27 483 65 740 13 94 29 240 35
325 26 374 73 571 154 656 54 56 85 58 131 9 86 -91 122 -370 86 -675 -23
-200 -29 -297 -36 -605 -3 -121 -8 -259 -11 -307 -4 -48 -1 -199 6 -336 11
-212 11 -256 -1 -297 -17 -57 -60 -93 -151 -126 -74 -28 -86 -43 -16 -23 65
19 131 56 178 99 19 17 65 53 102 78 60 42 88 67 75 67 -3 0 -31 -20 -62 -45
-57 -44 -82 -53 -54 -19 11 14 13 46 9 153 -7 203 -1 723 11 916 13 211 30
364 69 615 17 107 39 314 50 460 40 532 80 744 166 873 49 74 133 99 188 56
99 -78 129 -366 86 -814 -26 -271 -43 -840 -44 -1525 -1 -525 4 -496 -99 -551
-32 -17 -57 -33 -54 -35 2 -2 26 3 53 13 69 23 132 70 146 110 9 24 21 36 43
42 l30 9 -31 1 -32 1 -7 285 c-4 157 -5 354 -1 438 4 83 11 337 15 562 6 270
16 484 29 625 11 118 23 328 26 465 9 344 29 513 77 641 43 115 90 152 154
121 67 -32 122 -153 161 -357 22 -116 25 -476 6 -672 -14 -139 -5 -370 24
-573 16 -120 32 -627 34 -1090 1 -159 5 -343 8 -409 6 -95 4 -123 -7 -139 -13
-19 -13 -20 3 -14 10 4 19 7 22 7 2 0 10 13 18 28 12 24 13 119 5 693 -5 365
-14 759 -20 874 -35 696 -21 963 61 1125 73 144 176 145 231 2 52 -137 97
-443 118 -797 7 -117 21 -227 45 -350 44 -233 42 -220 65 -435 44 -408 70
-714 75 -890 8 -256 28 -436 76 -710 37 -208 41 -247 37 -345 -5 -127 -16
-168 -56 -219 -17 -21 -33 -51 -36 -67 -8 -36 -43 -56 -71 -41 -11 5 -35 7
-54 3 -34 -6 -34 -6 15 -11 l50 -5 -48 -17 c-134 -48 -352 -250 -424 -393 -20
-40 -7 -24 51 58 100 143 244 264 380 319 81 33 79 33 66 9 -12 -24 -13 -81
-1 -81 5 0 12 12 16 28 3 15 17 41 31 59 33 44 56 34 99 -43 20 -35 38 -64 41
-64 6 0 -65 130 -83 151 -7 8 -13 20 -13 24 0 5 22 57 49 115 28 58 55 134 62
170 6 36 22 90 34 120 13 30 31 98 40 150 9 52 23 127 31 167 10 48 16 148 18
295 3 207 5 230 30 317 52 184 109 290 220 409 61 65 126 106 187 116 59 11
66 -2 45 -83 -25 -95 -22 -233 9 -507 32 -280 34 -527 6 -665 -42 -205 -57
-365 -80 -904 -6 -121 -16 -240 -22 -265 -19 -72 -200 -540 -278 -718 -71
-163 -191 -396 -271 -527 -74 -122 -194 -265 -221 -265 -20 -1 -68 -39 -49
-40 10 0 4 -9 -15 -25 l-30 -26 40 20 c22 10 60 35 85 55 24 19 46 34 47 32 2
-1 -8 -34 -22 -72 -30 -80 -68 -265 -86 -409 -17 -141 -15 -635 5 -965 22
-385 27 -431 40 -427 8 3 10 85 6 293 -9 539 -6 1053 8 1161 31 239 90 410
200 576 151 227 399 775 556 1226 49 141 54 180 65 511 12 339 31 549 67 734
25 128 26 137 19 386 -11 387 -11 422 9 610 23 212 19 259 -29 307 -28 28 -40
33 -82 33 -27 0 -69 -7 -94 -15 -132 -45 -293 -254 -362 -470 -50 -156 -60
-226 -63 -458 -3 -225 -6 -251 -51 -446 l-27 -114 -43 239 c-49 273 -59 358
-73 644 -25 505 -88 1104 -145 1390 -24 118 -38 227 -45 335 -29 461 -71 722
-140 860 -35 70 -66 96 -125 102 -72 9 -143 -47 -191 -150 l-23 -50 -4 34 c-3
19 -13 86 -21 150 -19 138 -38 215 -72 289 -64 141 -154 193 -241 140z m294
-1452 c-2 -18 -4 -4 -4 32 0 36 2 50 4 33 2 -18 2 -48 0 -65z m10 -110 c-3 -8
-6 -5 -6 6 -1 11 2 17 5 13 3 -3 4 -12 1 -19z m1493 -1090 c-1 -66 -26 -277
-34 -285 -15 -15 -10 219 5 290 14 62 29 60 29 -5z"/>
<path d="M3955 8625 c106 -100 177 -160 169 -143 -8 18 -204 197 -229 209 -11
6 16 -24 60 -66z"/>
<path d="M6287 8593 c-109 -103 -169 -172 -90 -103 76 66 214 202 210 207 -3
2 -57 -44 -120 -104z"/>
<path d="M5270 8241 c0 -5 5 -13 10 -16 6 -3 10 -2 10 4 0 5 -4 13 -10 16 -5
3 -10 2 -10 -4z"/>
<path d="M3736 8155 c136 -65 216 -96 129 -49 -62 33 -243 114 -253 113 -4 0
52 -29 124 -64z"/>
<path d="M6570 8171 c-107 -48 -210 -100 -210 -106 0 -5 50 16 193 83 59 28
107 53 107 57 0 7 4 9 -90 -34z"/>
<path d="M5270 8165 c13 -14 26 -23 28 -20 7 7 -29 45 -41 45 -6 0 0 -11 13
-25z"/>
<path d="M5250 8123 c8 -3 24 -10 35 -16 18 -9 19 -9 6 6 -7 10 -23 17 -35 16
-14 0 -16 -2 -6 -6z"/>
<path d="M2950 8083 c0 -5 55 -22 123 -39 388 -99 750 -195 758 -200 5 -3 9
-1 9 5 0 11 -13 15 -390 116 -157 42 -325 88 -375 101 -94 25 -125 29 -125 17z"/>
<path d="M5254 8081 c3 -5 16 -11 28 -14 22 -6 22 -5 4 8 -22 17 -40 20 -32 6z"/>
<path d="M7090 8020 c-360 -93 -605 -161 -615 -172 -7 -8 -3 -9 15 -4 14 4
202 53 418 108 215 56 392 105 392 110 0 12 -9 10 -210 -42z"/>
<path d="M5660 8010 c8 -5 20 -10 25 -10 6 0 3 5 -5 10 -8 5 -19 10 -25 10 -5
0 -3 -5 5 -10z"/>
<path d="M4800 7976 c0 -2 8 -10 18 -17 15 -13 16 -12 3 4 -13 16 -21 21 -21
13z"/>
<path d="M5235 7943 c6 -6 24 -14 40 -17 20 -5 27 -4 20 3 -5 5 -23 13 -40 17
-20 4 -27 3 -20 -3z"/>
<path d="M4800 7921 c0 -5 7 -11 15 -15 8 -3 15 -1 15 3 0 5 -7 11 -15 15 -8
3 -15 1 -15 -3z"/>
<path d="M5690 7895 c13 -14 28 -25 33 -25 6 0 0 11 -13 25 -13 14 -28 25 -33
25 -6 0 0 -11 13 -25z"/>
<path d="M5240 7873 c14 -3 31 -10 38 -15 9 -8 12 -6 12 6 0 12 -9 16 -37 15
-28 -1 -31 -3 -13 -6z"/>
<path d="M5661 7867 c2 -2 18 -11 34 -22 l30 -18 -19 21 c-11 12 -26 22 -34
22 -9 0 -13 -1 -11 -3z"/>
<path d="M5260 7817 c27 -15 36 -14 25 2 -3 6 -16 11 -28 11 -21 0 -21 -1 3
-13z"/>
<path d="M4815 7810 c3 -5 11 -10 16 -10 6 0 7 5 4 10 -3 6 -11 10 -16 10 -6
0 -7 -4 -4 -10z"/>
<path d="M5730 7801 c0 -8 -8 -11 -20 -8 -11 3 -23 1 -26 -4 -3 -5 6 -9 20 -9
25 0 43 16 32 27 -3 4 -6 1 -6 -6z"/>
<path d="M5255 7761 c17 -10 32 -16 35 -14 8 7 -32 33 -49 33 -9 0 -3 -8 14
-19z"/>
<path d="M5715 7740 c27 -12 43 -12 25 0 -8 5 -22 9 -30 9 -10 0 -8 -3 5 -9z"/>
<path d="M5205 7733 c17 -3 36 -9 43 -15 8 -7 12 -7 12 0 0 13 -26 22 -58 21
-26 -2 -26 -2 3 -6z"/>
<path d="M4790 7695 c0 -1 11 -10 25 -19 19 -13 23 -13 19 -2 -4 12 -44 31
-44 21z"/>
<path d="M5706 7681 c17 -4 36 -11 42 -15 7 -4 12 -3 12 2 0 13 -26 22 -58 21
-26 -1 -26 -1 4 -8z"/>
<path d="M5073 7663 c37 -2 97 -2 135 0 37 2 6 3 -68 3 -74 0 -105 -1 -67 -3z"/>
<path d="M4770 7649 c3 -2 17 -15 33 -28 15 -14 27 -20 27 -15 0 17 -15 31
-40 39 -14 4 -23 6 -20 4z"/>
<path d="M5680 7639 c0 -5 8 -9 18 -9 9 0 28 -3 42 -7 14 -3 22 -3 18 1 -11
12 -78 25 -78 15z"/>
<path d="M3615 7620 c28 -12 93 -12 100 0 4 6 -17 10 -57 9 -44 0 -57 -3 -43
-9z"/>
<path d="M6545 7610 c3 -5 33 -10 66 -10 33 0 59 4 59 10 0 6 -29 10 -66 10
-41 0 -63 -4 -59 -10z"/>
<path d="M4780 7593 c8 -4 22 -16 32 -27 20 -24 24 -10 4 17 -7 9 -22 17 -32
16 -14 0 -15 -2 -4 -6z"/>
<path d="M5678 7580 c29 -4 62 -16 73 -26 10 -9 22 -15 25 -12 3 3 -7 15 -22
27 -20 16 -40 21 -78 20 l-51 -1 53 -8z"/>
<path d="M5198 7573 c7 -3 16 -2 19 1 4 3 -2 6 -13 5 -11 0 -14 -3 -6 -6z"/>
<path d="M5050 7560 c-39 -6 -34 -7 37 -8 45 -1 85 2 88 8 7 11 -53 11 -125 0z"/>
<path d="M4760 7553 c8 -3 25 -15 38 -26 12 -11 22 -15 22 -9 0 14 -40 42 -60
41 -13 0 -13 -1 0 -6z"/>
<path d="M5240 7531 c0 -5 7 -12 16 -15 14 -5 15 -4 4 9 -14 17 -20 19 -20 6z"/>
<path d="M4778 7493 c17 -9 32 -20 32 -25 0 -4 6 -8 13 -8 6 0 -1 12 -16 25
-15 14 -36 25 -45 24 -10 0 -4 -7 16 -16z"/>
<path d="M5662 7500 c-45 -4 -85 -9 -87 -12 -3 -2 42 -4 100 -4 65 1 104 5
102 11 -5 13 -17 14 -115 5z"/>
<path d="M5229 7489 c13 -5 30 -17 37 -27 7 -9 14 -12 14 -6 0 17 -34 44 -56
43 -16 0 -15 -2 5 -10z"/>
<path d="M4600 7450 c-15 -6 12 -7 68 -3 87 5 94 4 117 -17 14 -13 25 -19 25
-13 0 5 -8 17 -18 26 -14 13 -37 17 -93 16 -41 -1 -85 -5 -99 -9z"/>
<path d="M5665 7450 c-48 -6 -46 -6 33 -11 78 -4 101 1 66 15 -17 6 -23 6 -99
-4z"/>
<path d="M5200 7413 c14 -3 37 -14 53 -25 15 -11 31 -18 33 -15 3 3 -4 11 -16
17 -18 10 -20 14 -9 21 9 6 -4 8 -36 7 -27 0 -39 -3 -25 -5z"/>
<path d="M5637 7400 c-59 -4 -110 -10 -114 -14 -3 -3 41 -3 98 0 78 5 111 3
130 -6 23 -13 23 -12 9 5 -14 17 -13 18 3 12 9 -3 17 -2 17 3 0 6 -8 9 -17 8
-10 0 -67 -4 -126 -8z"/>
<path d="M4760 7390 c19 -13 30 -13 30 0 0 6 -10 10 -22 10 -19 0 -20 -2 -8
-10z"/>
<path d="M4621 7376 c2 -2 26 -7 53 -10 33 -5 46 -4 41 3 -3 6 -27 11 -52 11
-26 0 -44 -2 -42 -4z"/>
<path d="M5210 7363 c8 -3 30 -12 48 -19 17 -7 32 -9 32 -4 0 9 -56 30 -79 29
-14 0 -14 -1 -1 -6z"/>
<path d="M5728 7353 c7 -3 16 -2 19 1 4 3 -2 6 -13 5 -11 0 -14 -3 -6 -6z"/>
<path d="M4685 7325 l-80 -13 93 0 c78 0 91 3 81 14 -6 8 -12 13 -13 13 0 -1
-37 -7 -81 -14z"/>
<path d="M5615 7328 c-38 -4 -83 -12 -100 -18 -24 -8 -19 -8 25 -3 30 3 89 9
130 12 49 4 65 8 45 11 -16 3 -61 2 -100 -2z"/>
<path d="M3033 7314 c-3 -8 1 -22 9 -30 13 -13 16 -13 28 0 10 13 10 19 0 31
-16 19 -29 19 -37 -1z"/>
<path d="M7142 7317 c-15 -17 1 -42 23 -33 18 6 17 37 -1 43 -6 2 -16 -2 -22
-10z"/>
<path d="M5249 7304 c18 -8 36 -13 39 -10 6 6 -43 26 -61 25 -7 0 3 -7 22 -15z"/>
<path d="M5755 7290 c3 -5 8 -10 11 -10 2 0 4 5 4 10 0 6 -5 10 -11 10 -5 0
-7 -4 -4 -10z"/>
<path d="M4760 7280 c0 -5 5 -10 11 -10 5 0 7 5 4 10 -3 6 -8 10 -11 10 -2 0
-4 -4 -4 -10z"/>
<path d="M5259 7255 c42 -19 52 -19 27 0 -11 8 -29 15 -40 15 -16 -1 -12 -5
13 -15z"/>
<path d="M4728 7253 c7 -3 16 -2 19 1 4 3 -2 6 -13 5 -11 0 -14 -3 -6 -6z"/>
<path d="M5226 7239 c3 -5 10 -9 16 -9 7 0 22 -10 35 -22 13 -12 23 -17 23
-11 0 5 -8 17 -17 25 -20 17 -66 31 -57 17z"/>
<path d="M4751 7229 c-1 -9 9 -24 22 -35 22 -19 22 -19 6 1 -9 11 -19 27 -22
35 -5 13 -6 13 -6 -1z"/>
<path d="M5625 7225 l-50 -12 70 5 c39 2 88 8 110 12 37 7 36 8 -20 8 -33 0
-82 -6 -110 -13z"/>
<path d="M4703 7223 c9 -2 23 -2 30 0 6 3 -1 5 -18 5 -16 0 -22 -2 -12 -5z"/>
<path d="M5760 7200 c0 -5 5 -10 11 -10 5 0 7 5 4 10 -3 6 -8 10 -11 10 -2 0
-4 -4 -4 -10z"/>
<path d="M5200 7197 c8 -8 94 -37 98 -32 2 2 -5 8 -15 13 -21 11 -90 27 -83
19z"/>
<path d="M4715 7164 c28 -9 57 -21 65 -27 8 -6 6 -1 -5 11 -12 13 -37 23 -65
27 l-45 5 50 -16z"/>
<path d="M5695 7161 c-14 -6 -2 -8 35 -8 40 0 48 2 30 8 -32 9 -41 9 -65 0z"/>
<path d="M5220 7142 c23 -14 96 -24 83 -11 -6 6 -30 13 -54 15 -30 4 -39 2
-29 -4z"/>
<path d="M4721 7116 c2 -2 20 -11 39 -20 l35 -17 -24 21 c-13 11 -30 20 -39
20 -8 0 -13 -2 -11 -4z"/>
<path d="M5245 7096 c22 -7 42 -12 44 -10 9 8 -8 15 -45 19 l-39 5 40 -14z"/>
<path d="M5731 7106 c12 -10 59 -15 59 -6 0 5 -14 10 -32 10 -17 0 -29 -2 -27
-4z"/>
<path d="M7157 6973 c-7 -140 -17 -180 -55 -216 -25 -24 -101 -49 -207 -69
-11 -2 22 -12 73 -22 157 -31 178 -60 189 -254 3 -62 9 -115 13 -117 4 -2 12
40 20 93 29 217 48 248 171 276 110 26 111 27 26 42 -89 16 -130 34 -152 68
-9 13 -27 88 -40 167 -14 78 -27 144 -29 146 -1 2 -6 -50 -9 -114z m34 -175
c13 -54 42 -85 93 -99 l41 -11 -40 -14 c-46 -15 -82 -52 -91 -92 -11 -52 -17
-58 -24 -22 -3 19 -12 45 -19 58 -16 31 -69 62 -106 63 -20 1 -23 3 -10 6 11
2 37 11 58 20 42 18 77 72 77 119 0 37 10 25 21 -28z"/>
<path d="M4761 7051 c13 -11 26 -17 29 -14 6 6 -30 33 -43 33 -5 0 1 -9 14
-19z"/>
<path d="M5769 7055 c42 -19 52 -19 27 0 -11 8 -29 15 -40 15 -16 -1 -12 -5
13 -15z"/>
<path d="M5245 7044 c16 -8 39 -23 50 -32 19 -16 19 -16 5 3 -23 30 -43 44
-65 45 -16 0 -13 -4 10 -16z"/>
<path d="M4710 7026 c19 -7 43 -17 53 -21 29 -12 19 3 -13 20 -16 8 -39 15
-52 15 -18 -1 -16 -4 12 -14z"/>
<path d="M5190 7018 c14 -6 44 -20 68 -31 23 -11 42 -23 42 -28 0 -5 5 -9 12
-9 24 0 -35 48 -73 59 -70 21 -75 22 -49 9z"/>
<path d="M5759 6999 c24 -4 51 -14 60 -21 11 -9 10 -6 -3 10 -14 17 -29 22
-60 21 l-41 -1 44 -9z"/>
<path d="M4710 6983 c8 -4 30 -14 48 -24 17 -10 32 -14 32 -9 0 13 -54 40 -77
39 -14 0 -15 -2 -3 -6z"/>
<path d="M5170 6973 c8 -3 37 -14 63 -24 37 -13 45 -14 37 -3 -12 14 -73 34
-100 33 -13 0 -13 -1 0 -6z"/>
<path d="M5760 6951 c8 -5 29 -11 45 -15 l30 -6 -25 15 c-14 8 -34 14 -45 14
-16 0 -17 -1 -5 -8z"/>
<path d="M4710 6934 c45 -17 74 -24 64 -14 -5 5 -25 12 -44 15 -19 3 -28 3
-20 -1z"/>
<path d="M4194 6915 c11 -8 25 -15 30 -15 6 0 2 7 -8 15 -11 8 -25 15 -30 15
-6 0 -2 -7 8 -15z"/>
<path d="M5215 6915 c56 -16 77 -19 55 -6 -8 5 -35 11 -60 15 l-45 6 50 -15z"/>
<path d="M5300 6905 c7 -8 17 -15 22 -15 6 0 5 7 -2 15 -7 8 -17 15 -22 15 -6
0 -5 -7 2 -15z"/>
<path d="M5771 6906 c12 -11 79 -34 79 -26 0 4 -14 13 -31 19 -32 11 -56 15
-48 7z"/>
<path d="M4710 6879 c14 -6 37 -17 53 -24 15 -8 27 -10 27 -6 0 9 -38 26 -80
35 l-25 6 25 -11z"/>
<path d="M5285 6860 c17 -11 35 -20 40 -20 17 1 -36 40 -54 40 -10 0 -6 -7 14
-20z"/>
<path d="M4185 6860 c28 -12 37 -12 30 0 -3 6 -16 10 -28 9 -21 0 -21 -1 -2
-9z"/>
<path d="M5771 6866 c2 -2 18 -6 34 -10 22 -5 26 -4 15 4 -14 9 -59 15 -49 6z"/>
<path d="M5218 6853 c12 -2 30 -2 40 0 9 3 -1 5 -23 4 -22 0 -30 -2 -17 -4z"/>
<path d="M4170 6836 c0 -2 12 -11 26 -21 17 -11 25 -12 22 -4 -4 11 -48 34
-48 25z"/>
<path d="M5290 6815 c33 -19 50 -18 26 0 -11 8 -27 15 -35 15 -10 -1 -7 -6 9
-15z"/>
<path d="M4720 6813 c69 -23 73 -23 60 -8 -7 8 -27 15 -44 14 -17 0 -24 -3
-16 -6z"/>
<path d="M5795 6808 c17 -6 36 -15 43 -21 7 -5 15 -7 19 -4 7 8 -59 37 -79 36
-7 0 1 -5 17 -11z"/>
<path d="M5220 6800 c0 -5 6 -10 14 -10 8 0 17 -4 20 -9 4 -5 -43 -13 -106
-17 -62 -5 -97 -10 -78 -12 19 -2 78 -1 130 3 86 7 92 8 75 22 -36 26 -55 34
-55 23z"/>
<path d="M4165 6770 c7 -11 45 -33 45 -26 0 2 -7 12 -16 20 -17 18 -39 22 -29
6z"/>
<path d="M4736 6766 c23 -7 47 -16 55 -20 8 -4 3 2 -10 13 -13 12 -36 21 -55
20 -30 0 -30 -1 10 -13z"/>
<path d="M5802 6746 c26 -7 54 -18 62 -26 11 -8 16 -9 16 -1 0 17 -55 41 -92
40 -31 0 -30 -1 14 -13z"/>
<path d="M5295 6740 c-3 -5 1 -10 10 -10 9 0 13 5 10 10 -3 6 -8 10 -10 10 -2
0 -7 -4 -10 -10z"/>
<path d="M2811 6720 c-8 -104 -37 -274 -51 -306 -22 -50 -57 -68 -167 -85 -46
-7 -81 -14 -79 -16 2 -2 45 -13 95 -23 149 -32 160 -46 187 -248 9 -73 18
-131 20 -129 2 2 10 63 19 136 23 194 34 209 172 243 l96 23 -88 17 c-147 30
-157 44 -184 258 -10 80 -19 138 -20 130z m20 -316 c13 -42 47 -72 94 -82 l40
-9 -41 -11 c-52 -15 -84 -50 -99 -108 l-12 -47 -12 47 c-13 54 -46 92 -88 101
-53 12 -59 18 -23 25 72 13 99 43 116 125 6 33 8 36 11 15 2 -14 8 -39 14 -56z"/>
<path d="M4170 6715 c7 -8 17 -15 22 -15 6 0 5 7 -2 15 -7 8 -17 15 -22 15 -6
0 -5 -7 2 -15z"/>
<path d="M4691 6726 c9 -8 98 -13 93 -5 -3 5 -26 9 -51 9 -26 0 -44 -2 -42 -4z"/>
<path d="M5761 6710 c26 -4 56 -13 69 -20 12 -6 24 -9 27 -6 11 11 -66 36
-104 35 l-38 -1 46 -8z"/>
<path d="M4090 6691 c8 -6 25 -11 38 -11 13 0 32 -5 44 -11 11 -6 22 -8 25 -6
8 9 -33 26 -78 32 -33 5 -40 4 -29 -4z"/>
<path d="M4672 6695 c4 -4 34 -18 65 -31 35 -14 50 -17 38 -8 -11 9 -19 20
-17 25 1 5 -11 9 -27 9 -16 0 -38 3 -48 7 -10 3 -15 3 -11 -2z"/>
<path d="M5130 6690 l-125 -5 82 -9 c91 -9 215 0 192 15 -8 5 -16 8 -19 7 -3
-1 -61 -5 -130 -8z"/>
<path d="M5621 6649 c-34 -4 -68 -10 -75 -13 -15 -6 165 4 234 14 l55 8 -75 0
c-41 -1 -104 -4 -139 -9z"/>
<path d="M4080 6640 c-24 -8 -23 -8 8 -9 20 -1 31 3 27 9 -3 6 -7 10 -8 9 -1
-1 -13 -5 -27 -9z"/>
<path d="M4700 6648 c3 -3 21 -13 40 -23 27 -13 32 -14 20 -2 -8 8 -26 18 -40
22 -14 4 -23 5 -20 3z"/>
<path d="M5300 6641 c0 -6 5 -13 10 -16 6 -3 10 1 10 9 0 9 -4 16 -10 16 -5 0
-10 -4 -10 -9z"/>
<path d="M5845 6620 c28 -12 37 -12 30 0 -3 6 -16 10 -28 9 -21 0 -21 -1 -2
-9z"/>
<path d="M4083 6613 c15 -2 39 -2 55 0 15 2 2 4 -28 4 -30 0 -43 -2 -27 -4z"/>
<path d="M4655 6596 c55 -12 75 -12 64 -2 -2 2 -31 7 -64 9 l-60 6 60 -13z"/>
<path d="M5255 6599 c-16 -5 -68 -13 -115 -19 -121 -15 -153 -21 -147 -26 6
-7 190 13 255 27 29 6 52 15 52 20 0 11 -5 10 -45 -2z"/>
<path d="M4766 6585 c25 -19 35 -19 28 0 -4 8 -16 15 -27 15 -20 0 -20 0 -1
-15z"/>
<path d="M5647 6593 c18 -2 50 -2 70 0 21 2 7 4 -32 4 -38 0 -55 -2 -38 -4z"/>
<path d="M5803 6570 c-13 -5 -73 -17 -135 -26 -62 -9 -115 -18 -118 -21 -10
-11 165 9 234 27 70 18 94 18 66 0 -13 -8 -13 -10 1 -10 23 0 30 11 18 27 -13
15 -34 16 -66 3z"/>
<path d="M4153 6564 c3 -5 -31 -7 -76 -5 -108 4 -96 -5 17 -14 70 -5 87 -4 84
6 -2 7 -10 15 -18 17 -7 3 -10 1 -7 -4z"/>
<path d="M4705 6552 c35 -16 81 -24 70 -13 -5 5 -28 12 -50 15 -27 4 -33 3
-20 -2z"/>
<path d="M4593 6523 c20 -2 54 -2 75 0 20 2 3 4 -38 4 -41 0 -58 -2 -37 -4z"/>
<path d="M4705 6496 c61 -18 83 -20 69 -6 -6 6 -35 13 -65 15 l-54 5 50 -14z"/>
<path d="M4040 6490 c-24 -8 -24 -8 7 -9 17 -1 35 4 38 9 7 11 -9 11 -45 0z"/>
<path d="M4125 6490 c-25 -11 1 -11 35 0 20 6 21 8 5 8 -11 0 -29 -3 -40 -8z"/>
<path d="M5280 6484 c56 -17 60 -17 36 1 -11 8 -34 15 -50 14 -28 0 -27 -2 14
-15z"/>
<path d="M5855 6490 c3 -5 10 -10 16 -10 5 0 9 5 9 10 0 6 -7 10 -16 10 -8 0
-12 -4 -9 -10z"/>
<path d="M4492 6460 c-18 -4 -36 -11 -40 -15 -4 -4 4 -4 18 0 13 4 70 11 125
15 l100 7 -85 0 c-47 1 -100 -3 -118 -7z"/>
<path d="M4140 6453 c8 -3 23 -10 33 -15 12 -6 17 -5 17 7 0 10 -10 15 -32 14
-18 0 -26 -3 -18 -6z"/>
<path d="M5190 6450 c-35 -5 -25 -7 41 -6 48 1 82 4 75 8 -13 9 -51 8 -116 -2z"/>
<path d="M5854 6445 c8 -8 20 -15 27 -15 7 0 4 6 -7 15 -25 19 -40 19 -20 0z"/>
<path d="M4558 6443 c6 -2 18 -2 25 0 6 3 1 5 -13 5 -14 0 -19 -2 -12 -5z"/>
<path d="M5678 6443 c18 -2 45 -2 60 0 15 2 0 4 -33 4 -33 0 -45 -2 -27 -4z"/>
<path d="M4601 6436 c2 -2 36 -6 74 -9 54 -4 61 -4 30 3 -40 9 -112 13 -104 6z"/>
<path d="M5265 6420 c3 -5 18 -10 33 -10 21 0 24 2 12 10 -20 13 -53 13 -45 0z"/>
<path d="M4141 6397 c2 -1 12 -9 22 -16 15 -12 17 -12 11 3 -3 9 -13 16 -22
16 -8 0 -13 -1 -11 -3z"/>
<path d="M5865 6390 c3 -5 8 -10 11 -10 2 0 4 5 4 10 0 6 -5 10 -11 10 -5 0
-7 -4 -4 -10z"/>
<path d="M5290 6386 c0 -2 7 -6 15 -10 8 -3 15 -1 15 4 0 6 -7 10 -15 10 -8 0
-15 -2 -15 -4z"/>
<path d="M5780 6374 l-55 -14 50 5 c27 3 54 10 59 15 6 6 8 9 6 9 -3 -1 -30
-8 -60 -15z"/>
<path d="M4147 6356 c15 -13 30 -22 32 -20 7 7 -31 44 -46 44 -8 0 -2 -10 14
-24z"/>
<path d="M5236 6361 c12 -11 76 -32 82 -27 2 3 -13 12 -33 20 -42 18 -64 21
-49 7z"/>
<path d="M4500 6349 c-30 -5 -59 -11 -65 -13 -19 -8 240 6 270 14 42 12 -134
10 -205 -1z"/>
<path d="M5678 6353 c7 -3 16 -2 19 1 4 3 -2 6 -13 5 -11 0 -14 -3 -6 -6z"/>
<path d="M5844 6335 c36 -19 47 -19 22 0 -11 8 -27 15 -35 15 -9 0 -3 -7 13
-15z"/>
<path d="M4135 6315 c17 -13 34 -24 39 -25 17 0 -25 38 -47 44 -18 4 -16 1 8
-19z"/>
<path d="M4660 6318 c14 -5 33 -14 42 -19 22 -11 28 -11 28 1 0 5 -17 14 -37
19 -48 14 -66 13 -33 -1z"/>
<path d="M4736 6315 c4 -8 8 -15 10 -15 2 0 4 7 4 15 0 8 -4 15 -10 15 -5 0
-7 -7 -4 -15z"/>
<path d="M5260 6300 c14 -4 36 -8 50 -9 20 -1 22 1 10 9 -8 5 -31 9 -50 9 -32
-1 -33 -2 -10 -9z"/>
<path d="M5840 6295 c14 -8 32 -14 40 -14 9 0 4 6 -10 14 -14 8 -32 14 -40 14
-9 0 -4 -6 10 -14z"/>
<path d="M4142 6271 c18 -16 35 -27 38 -24 6 6 -47 53 -61 53 -5 0 5 -13 23
-29z"/>
<path d="M4110 6266 c0 -2 7 -7 16 -10 8 -3 12 -2 9 4 -6 10 -25 14 -25 6z"/>
<path d="M4561 6266 c2 -2 45 -6 94 -10 58 -4 83 -2 70 3 -19 9 -173 15 -164
7z"/>
<path d="M5285 6246 c49 -12 65 -12 52 0 -3 4 -28 8 -54 10 l-48 3 50 -13z"/>
<path d="M5839 6235 c18 -8 38 -15 45 -14 15 1 -46 28 -64 28 -8 0 0 -6 19
-14z"/>
<path d="M4115 6230 c3 -5 16 -10 28 -9 21 0 21 1 2 9 -28 12 -37 12 -30 0z"/>
<path d="M4671 6206 c2 -2 21 -6 42 -10 27 -5 37 -4 32 3 -3 6 -22 11 -42 11
-20 0 -34 -2 -32 -4z"/>
<path d="M5283 6203 c9 -2 25 -2 35 0 9 3 1 5 -18 5 -19 0 -27 -2 -17 -5z"/>
<path d="M4140 6185 c33 -19 46 -19 30 0 -7 8 -22 15 -34 15 -20 -1 -20 -2 4
-15z"/>
<path d="M5315 6160 c20 -22 31 -20 22 5 -4 8 -14 15 -23 15 -16 0 -16 -2 1
-20z"/>
<path d="M5857 6169 c18 -5 35 -14 38 -19 3 -6 12 -10 18 -10 7 1 1 10 -12 20
-13 11 -35 20 -50 19 -25 -1 -24 -1 6 -10z"/>
<path d="M4119 6159 c14 -5 32 -15 40 -22 9 -6 8 -2 -3 11 -11 12 -29 22 -40
21 -19 0 -19 -1 3 -10z"/>
<path d="M4705 6142 c50 -18 67 -19 49 -3 -5 5 -29 12 -54 15 l-45 6 50 -18z"/>
<path d="M5855 6125 c34 -16 64 -20 50 -6 -6 4 -26 11 -45 14 l-35 6 30 -14z"/>
<path d="M4130 6125 c0 -7 39 -45 45 -45 11 0 -15 38 -30 44 -8 3 -15 3 -15 1z"/>
<path d="M5304 6101 c40 -21 57 -23 34 -3 -7 6 -27 13 -43 17 -27 6 -26 5 9
-14z"/>
<path d="M4705 6093 c17 -8 38 -22 48 -31 9 -8 17 -10 17 -4 0 17 -50 52 -74
52 -18 -1 -17 -3 9 -17z"/>
<path d="M5250 6085 c0 -8 82 -47 87 -42 3 3 -4 10 -15 16 -30 16 -72 31 -72
26z"/>
<path d="M5855 6080 c3 -5 16 -10 28 -9 21 0 21 1 2 9 -28 12 -37 12 -30 0z"/>
<path d="M4134 6040 c50 -25 58 -25 27 0 -13 11 -33 20 -45 20 -16 -1 -11 -6
18 -20z"/>
<path d="M4688 6040 c18 -4 45 -18 59 -31 25 -24 26 -24 14 -2 -15 29 -42 43
-78 42 -27 -1 -27 -1 5 -9z"/>
<path d="M5880 6029 c13 -6 33 -17 42 -26 10 -9 18 -11 18 -5 0 16 -41 42 -65
41 -17 0 -17 -2 5 -10z"/>
<path d="M5265 6019 c17 -6 40 -15 52 -21 13 -6 26 -9 29 -5 9 9 -27 25 -71
31 -38 6 -38 5 -10 -5z"/>
<path d="M4112 6003 c15 -2 37 -16 48 -30 13 -16 20 -20 20 -11 0 24 -34 48
-66 47 l-29 -2 27 -4z"/>
<path d="M4684 5989 c-3 -5 2 -9 11 -9 9 0 28 -8 43 -17 l27 -17 -18 21 c-21
24 -54 36 -63 22z"/>
<path d="M5882 5986 c16 -8 34 -18 40 -21 7 -4 2 3 -11 14 -13 12 -31 21 -40
21 -10 0 -5 -6 11 -14z"/>
<path d="M5291 5957 c56 -38 59 -39 54 -24 -6 15 -57 47 -75 47 -7 0 2 -10 21
-23z"/>
<path d="M4128 5945 c17 -14 33 -25 38 -25 4 0 -3 11 -16 25 -13 14 -30 25
-38 25 -7 0 0 -11 16 -25z"/>
<path d="M5885 5935 c60 -30 65 -31 34 -7 -13 11 -37 22 -54 26 -22 4 -16 -1
20 -19z"/>
<path d="M4716 5930 c12 -12 28 -20 35 -18 9 3 0 12 -21 22 l-35 18 21 -22z"/>
<path d="M5285 5905 c90 -54 83 -51 60 -25 -22 24 -67 50 -87 50 -7 0 5 -11
27 -25z"/>
<path d="M3970 5900 c-33 -5 -15 -7 65 -8 69 0 101 3 85 8 -30 10 -88 10 -150
0z"/>
<path d="M4680 5903 c8 -3 30 -14 48 -25 17 -11 32 -17 32 -15 0 9 -67 47 -81
46 -11 0 -10 -2 1 -6z"/>
<path d="M5865 5898 c17 -6 38 -17 48 -26 9 -8 20 -13 23 -10 10 11 -49 48
-75 47 -26 -1 -26 -1 4 -11z"/>
<path d="M4660 5860 c0 -5 10 -10 23 -10 12 0 38 -10 57 -21 26 -16 31 -17 21
-5 -24 29 -101 57 -101 36z"/>
<path d="M4056 5851 c34 -3 68 -12 77 -20 12 -9 17 -10 17 -2 0 18 -46 31
-103 29 l-52 -1 61 -6z"/>
<path d="M5254 5846 c22 -8 52 -24 68 -36 15 -11 28 -16 28 -11 0 17 -59 52
-97 57 l-38 5 39 -15z"/>
<path d="M5841 5856 c15 -13 90 -45 84 -36 -4 7 -22 18 -41 26 -32 13 -52 18
-43 10z"/>
<path d="M7544 5815 c-17 -12 -18 -15 -3 -30 17 -17 49 -11 49 10 0 24 -25 36
-46 20z"/>
<path d="M4671 5806 c2 -2 22 -6 44 -9 27 -4 35 -3 25 3 -14 9 -79 15 -69 6z"/>
<path d="M5240 5793 c8 -3 36 -14 62 -23 27 -10 45 -14 42 -8 -9 15 -70 38
-96 37 -15 0 -18 -3 -8 -6z"/>
<path d="M5885 5775 c22 -13 49 -29 60 -36 l20 -12 -20 23 c-18 21 -73 50 -92
50 -4 0 10 -11 32 -25z"/>
<path d="M3965 5770 c-30 -5 -17 -8 55 -9 68 -1 102 -5 118 -17 12 -8 22 -13
22 -9 0 3 -15 14 -32 25 -34 21 -86 24 -163 10z"/>
<path d="M4705 5755 c33 -7 62 -11 64 -9 8 8 -52 24 -87 23 -32 -1 -29 -2 23
-14z"/>
<path d="M5231 5757 c26 -21 121 -66 110 -53 -16 19 -83 56 -102 56 -7 0 -10
-1 -8 -3z"/>
<path d="M5871 5737 c2 -2 22 -15 44 -31 l40 -28 -33 31 c-18 17 -37 31 -44
31 -6 0 -9 -1 -7 -3z"/>
<path d="M4107 5720 c18 -4 41 -14 50 -21 15 -11 15 -10 -1 9 -13 15 -29 22
-50 21 l-31 -1 32 -8z"/>
<path d="M4690 5721 c-21 -7 -17 -8 23 -12 26 -2 47 -1 47 3 0 5 -4 8 -9 8 -5
0 -15 2 -23 4 -7 2 -24 1 -38 -3z"/>
<path d="M5240 5693 c30 -8 65 -24 78 -35 12 -12 22 -17 22 -11 0 26 -82 64
-135 62 -11 0 5 -7 35 -16z"/>
<path d="M5850 5696 c0 -2 11 -6 25 -8 13 -3 22 -1 19 3 -5 9 -44 13 -44 5z"/>
<path d="M4120 5682 c0 -5 11 -14 25 -20 29 -14 34 2 6 18 -24 12 -31 13 -31
2z"/>
<path d="M4685 5675 c6 -2 27 -8 48 -14 33 -8 37 -8 26 5 -6 8 -27 14 -48 13
-20 0 -31 -2 -26 -4z"/>
<path d="M4129 5630 c13 -11 27 -20 32 -20 18 0 8 10 -23 25 l-33 16 24 -21z"/>
<path d="M5170 5642 c0 -5 26 -12 58 -14 31 -2 66 -8 77 -13 19 -7 19 -7 4 9
-19 20 -139 36 -139 18z"/>
<path d="M6722 5641 c-11 -7 -10 -10 3 -15 23 -9 25 -8 25 9 0 17 -9 19 -28 6z"/>
<path d="M4700 5629 c19 -6 44 -15 55 -21 18 -9 19 -9 4 6 -8 9 -33 19 -55 21
l-39 5 35 -11z"/>
<path d="M5880 5630 c20 -13 33 -13 25 0 -3 6 -14 10 -23 10 -15 0 -15 -2 -2
-10z"/>
<path d="M5937 5619 c7 -7 15 -10 18 -7 3 3 -2 9 -12 12 -14 6 -15 5 -6 -5z"/>
<path d="M4135 5585 c16 -13 32 -22 34 -19 7 6 -40 44 -54 43 -5 0 3 -11 20
-24z"/>
<path d="M5926 5595 c4 -8 11 -15 16 -15 6 0 5 6 -2 15 -7 8 -14 15 -16 15 -2
0 -1 -7 2 -15z"/>
<path d="M5240 5584 c56 -17 58 -17 34 1 -10 8 -32 14 -49 14 -27 0 -25 -2 15
-15z"/>
<path d="M4670 5580 c-11 -7 1 -10 40 -10 39 0 51 3 40 10 -8 5 -26 10 -40 10
-14 0 -32 -5 -40 -10z"/>
<path d="M4966 5579 c8 -13 84 -51 94 -47 5 2 -16 15 -46 30 -30 14 -52 22
-48 17z"/>
<path d="M5568 5563 c6 -2 18 -2 25 0 6 3 1 5 -13 5 -14 0 -19 -2 -12 -5z"/>
<path d="M5840 5560 c-30 -6 -26 -8 28 -9 40 -1 61 3 57 9 -7 11 -32 11 -85 0z"/>
<path d="M4060 5556 c0 -2 9 -6 20 -9 11 -3 20 -1 20 4 0 5 -9 9 -20 9 -11 0
-20 -2 -20 -4z"/>
<path d="M4141 5544 c12 -15 11 -16 -11 -9 -29 9 -25 3 9 -15 15 -8 21 -8 17
-1 -4 6 -2 11 5 11 8 0 8 4 -1 15 -7 8 -17 15 -22 15 -6 0 -4 -7 3 -16z"/>
<path d="M5180 5549 c0 -7 16 -8 48 -3 64 9 66 14 4 14 -30 0 -52 -4 -52 -11z"/>
<path d="M5295 5550 c3 -5 11 -10 16 -10 6 0 7 5 4 10 -3 6 -11 10 -16 10 -6
0 -7 -4 -4 -10z"/>
<path d="M5623 5553 c9 -2 25 -2 35 0 9 3 1 5 -18 5 -19 0 -27 -2 -17 -5z"/>
<path d="M4693 5543 c9 -2 17 -9 17 -14 0 -5 5 -9 11 -9 8 0 8 5 -1 15 -7 8
-20 14 -29 14 -13 -1 -13 -2 2 -6z"/>
<path d="M4921 5533 c8 -9 34 -25 59 -36 37 -17 63 -19 160 -17 63 1 132 2
153 2 33 0 36 2 21 12 -11 9 -31 10 -63 5 -117 -19 -253 -5 -303 31 -33 24
-45 26 -27 3z"/>
<path d="M6718 5543 c12 -2 30 -2 40 0 9 3 -1 5 -23 4 -22 0 -30 -2 -17 -4z"/>
<path d="M5225 5530 c3 -5 14 -10 23 -10 15 0 15 2 2 10 -20 13 -33 13 -25 0z"/>
<path d="M5469 5520 c37 -16 412 -42 425 -29 3 3 -81 11 -187 18 -106 7 -208
14 -227 17 -31 4 -32 3 -11 -6z"/>
<path d="M4124 5480 c26 -17 50 -29 53 -27 6 7 -48 43 -77 52 -15 4 -5 -6 24
-25z"/>
<path d="M4645 5500 c3 -6 20 -10 37 -10 38 0 34 5 -10 13 -21 4 -31 3 -27 -3z"/>
<path d="M3020 5474 c-11 -12 -10 -18 3 -31 18 -18 44 -12 54 13 11 30 -35 45
-57 18z"/>
<path d="M6720 5480 c19 -4 44 -11 55 -14 20 -8 20 -7 1 8 -11 9 -36 15 -55
15 l-36 -1 35 -8z"/>
<path d="M4718 5473 c6 -2 18 -2 25 0 6 3 1 5 -13 5 -14 0 -19 -2 -12 -5z"/>
<path d="M4510 5460 c-60 -6 -58 -7 35 -7 55 0 114 3 130 7 38 10 -69 10 -165
0z"/>
<path d="M4100 5456 c0 -2 16 -13 35 -25 19 -11 35 -16 35 -11 0 5 -13 16 -30
25 -30 15 -40 18 -40 11z"/>
<path d="M4418 5443 c7 -3 16 -2 19 1 4 3 -2 6 -13 5 -11 0 -14 -3 -6 -6z"/>
<path d="M5876 5430 c29 -4 58 -11 64 -15 8 -5 11 -3 8 6 -3 10 -23 14 -64 16
l-59 1 51 -8z"/>
<path d="M4130 5391 c37 -32 61 -42 39 -15 -7 8 -26 22 -43 31 l-31 15 35 -31z"/>
<path d="M6760 5410 c0 -5 5 -10 11 -10 5 0 7 5 4 10 -3 6 -8 10 -11 10 -2 0
-4 -4 -4 -10z"/>
<path d="M4570 5390 c-11 -7 -5 -8 20 -4 43 8 51 14 19 14 -13 0 -31 -5 -39
-10z"/>
<path d="M5865 5375 c33 -16 81 -21 55 -6 -8 5 -31 11 -50 14 l-35 6 30 -14z"/>
<path d="M4415 5370 c-17 -7 -16 -9 10 -9 17 0 50 4 75 8 l45 8 -55 1 c-30 0
-64 -3 -75 -8z"/>
<path d="M4090 5363 c8 -3 33 -20 54 -36 21 -17 37 -25 34 -17 -6 20 -66 60
-87 59 -14 0 -14 -1 -1 -6z"/>
<path d="M6775 5360 c3 -5 8 -10 11 -10 2 0 4 5 4 10 0 6 -5 10 -11 10 -5 0
-7 -4 -4 -10z"/>
<path d="M5940 5356 c0 -2 7 -9 15 -16 13 -11 14 -10 9 4 -5 14 -24 23 -24 12z"/>
<path d="M6705 5350 c11 -5 29 -9 40 -9 17 -1 17 1 5 9 -8 5 -26 9 -40 9 -23
0 -23 -1 -5 -9z"/>
<path d="M5858 5313 c12 -2 30 -2 40 0 9 3 -1 5 -23 4 -22 0 -30 -2 -17 -4z"/>
<path d="M4120 5306 c0 -2 7 -7 16 -10 8 -3 12 -2 9 4 -6 10 -25 14 -25 6z"/>
<path d="M5930 5303 c8 -3 22 -11 30 -17 13 -10 13 -9 1 7 -7 9 -21 17 -30 16
-13 0 -14 -1 -1 -6z"/>
<path d="M6695 5291 c6 -5 23 -13 39 -17 26 -6 28 -5 16 7 -7 8 -25 16 -39 17
-16 1 -22 -1 -16 -7z"/>
<path d="M4133 5259 c11 -7 23 -7 28 -2 5 5 -3 9 -19 11 -24 1 -25 0 -9 -9z"/>
<path d="M5340 5251 c0 -23 -106 -235 -153 -307 -75 -114 -160 -198 -276 -275
-131 -87 -605 -323 -763 -380 -65 -23 -118 -46 -118 -51 0 -12 21 -5 150 45
133 53 608 289 720 359 103 64 232 188 293 283 77 120 168 317 153 332 -3 3
-6 1 -6 -6z"/>
<path d="M5930 5240 c8 -5 20 -10 25 -10 6 0 3 5 -5 10 -8 5 -19 10 -25 10 -5
0 -3 -5 5 -10z"/>
<path d="M6770 5230 c13 -11 26 -18 28 -15 6 6 -28 34 -42 35 -5 0 1 -9 14
-20z"/>
<path d="M4138 5219 c25 -23 33 -24 26 -5 -3 8 -15 16 -26 19 l-20 6 20 -20z"/>
<path d="M6708 5233 c6 -2 18 -2 25 0 6 3 1 5 -13 5 -14 0 -19 -2 -12 -5z"/>
<path d="M4053 5203 c15 -2 37 -2 50 0 12 2 0 4 -28 4 -27 0 -38 -2 -22 -4z"/>
<path d="M6685 5200 c3 -5 16 -10 28 -10 12 0 35 -14 51 -30 16 -17 32 -27 35
-24 12 11 -69 74 -94 74 -15 0 -24 -4 -20 -10z"/>
<path d="M3958 5193 c7 -3 16 -2 19 1 4 3 -2 6 -13 5 -11 0 -14 -3 -6 -6z"/>
<path d="M5945 5190 c3 -5 16 -15 28 -21 22 -12 22 -12 3 10 -19 21 -43 30
-31 11z"/>
<path d="M4125 5180 c3 -5 11 -10 16 -10 6 0 7 5 4 10 -3 6 -11 10 -16 10 -6
0 -7 -4 -4 -10z"/>
<path d="M6360 5155 c13 -14 26 -25 28 -25 3 0 -5 11 -18 25 -13 14 -26 25
-28 25 -3 0 5 -11 18 -25z"/>
<path d="M6668 5173 c12 -2 32 -2 45 0 12 2 2 4 -23 4 -25 0 -35 -2 -22 -4z"/>
<path d="M5890 5159 c0 -5 11 -9 23 -9 13 0 32 -9 42 -20 10 -11 23 -20 29
-20 6 0 1 9 -10 20 -22 23 -84 44 -84 29z"/>
<path d="M6717 5140 c12 -5 24 -18 28 -29 6 -20 25 -30 25 -13 0 14 -45 52
-61 51 -8 0 -4 -4 8 -9z"/>
<path d="M4065 5125 c-5 -2 -64 -9 -130 -16 -66 -7 -110 -15 -97 -17 25 -4
303 26 311 33 5 6 -69 5 -84 0z"/>
<path d="M6425 5108 c25 -15 206 -22 265 -10 35 7 14 9 -90 8 -74 -1 -148 2
-165 7 -26 6 -27 6 -10 -5z"/>
<path d="M5920 5084 c0 -11 60 -33 65 -24 3 6 0 12 -7 14 -27 9 -58 14 -58 10z"/>
<path d="M6350 5076 c0 -4 25 -19 56 -33 42 -19 80 -27 162 -33 59 -4 115 -11
125 -15 10 -4 17 -3 17 4 0 6 -9 11 -21 11 -11 0 -18 4 -15 8 2 4 -39 8 -92 9
-93 1 -113 5 -214 48 -10 4 -18 4 -18 1z"/>
<path d="M6720 5063 c0 -5 5 -15 10 -23 8 -12 10 -11 10 8 0 12 -4 22 -10 22
-5 0 -10 -3 -10 -7z"/>
<path d="M5920 5043 c0 -8 73 -53 86 -53 9 0 -35 34 -63 49 -13 6 -23 8 -23 4z"/>
<path d="M5910 4995 c0 -11 83 -56 97 -53 8 2 -10 15 -41 30 -31 15 -56 26
-56 23z"/>
<path d="M6364 4981 c7 -11 46 -35 46 -28 0 3 -12 12 -26 22 -15 9 -23 12 -20
6z"/>
<path d="M6665 4951 l-50 -7 42 -8 c30 -5 49 -3 70 8 31 17 26 18 -62 7z"/>
<path d="M5930 4947 c0 -8 91 -69 96 -64 3 3 -7 14 -23 24 -33 24 -73 45 -73
40z"/>
<path d="M7509 4845 c0 -44 0 -118 1 -165 l2 -85 -30 28 c-33 32 -57 20 -26
-14 17 -19 16 -19 -52 -20 -38 0 -87 -3 -109 -8 -37 -6 -38 -7 -14 -14 14 -4
65 -10 112 -13 l86 -7 -26 -33 c-28 -38 -19 -44 19 -14 l25 19 7 -46 c3 -25 6
-76 7 -112 0 -36 4 -84 8 -106 10 -55 25 183 15 245 l-7 45 61 -54 c34 -29 62
-50 62 -46 0 4 -18 29 -40 55 l-40 48 106 7 c61 4 102 11 97 16 -5 5 -54 12
-110 15 l-102 7 31 38 c39 49 33 57 -14 19 l-35 -29 -7 91 c-3 50 -6 112 -6
137 0 25 -5 53 -10 61 -7 10 -10 -9 -11 -65z"/>
<path d="M5929 4875 c36 -19 77 -47 93 -62 15 -15 28 -22 28 -16 0 18 -60 63
-118 89 -77 34 -78 29 -3 -11z"/>
<path d="M6658 4879 c24 -11 51 -19 60 -17 9 2 -6 11 -35 21 -68 22 -78 21
-25 -4z"/>
<path d="M5916 4831 c29 -15 65 -38 82 -49 32 -24 47 -28 37 -12 -9 15 -139
90 -156 90 -8 0 9 -13 37 -29z"/>
<path d="M2774 4835 c-4 -9 -2 -21 4 -27 16 -16 47 -5 47 17 0 26 -42 34 -51
10z"/>
<path d="M6708 4833 c7 -3 16 -2 19 1 4 3 -2 6 -13 5 -11 0 -14 -3 -6 -6z"/>
<path d="M6660 4820 c20 -13 43 -13 35 0 -3 6 -16 10 -28 10 -18 0 -19 -2 -7
-10z"/>
<path d="M4902 4756 c-46 -33 -53 -43 -14 -20 19 10 38 25 44 32 15 17 8 14
-30 -12z"/>
<path d="M5960 4754 c36 -14 69 -29 74 -34 16 -16 30 -11 17 4 -12 14 -124 57
-145 56 -6 -1 18 -12 54 -26z"/>
<path d="M6670 4761 c35 -20 60 -23 60 -7 0 12 -10 16 -37 16 -26 -1 -33 -3
-23 -9z"/>
<path d="M6638 4748 c7 -9 24 -19 37 -22 44 -11 29 -29 -17 -22 -41 5 -42 5
-18 -8 17 -10 37 -12 60 -7 l34 7 -22 22 c-12 12 -30 22 -40 22 -10 0 -24 6
-32 13 -12 10 -12 9 -2 -5z"/>
<path d="M5549 4697 c-117 -59 -188 -105 -339 -221 -216 -165 -511 -426 -634
-563 -44 -48 -77 -86 -74 -83 4 3 69 66 145 140 221 216 548 489 741 619 34
23 113 69 175 101 61 33 107 60 101 60 -6 0 -58 -24 -115 -53z"/>
<path d="M5980 4704 c76 -33 85 -35 70 -20 -8 9 -31 18 -50 21 -19 3 -28 2
-20 -1z"/>
<path d="M5896 4660 c23 -5 66 -21 95 -37 71 -37 73 -38 64 -23 -13 22 -129
70 -165 69 l-35 -1 41 -8z"/>
<path d="M6042 4634 c10 -10 20 -15 24 -12 3 4 -5 12 -18 18 -22 12 -22 12 -6
-6z"/>
<path d="M4650 4625 c-14 -8 -20 -14 -15 -14 6 0 21 6 35 14 14 8 21 14 15 14
-5 0 -21 -6 -35 -14z"/>
<path d="M6680 4630 c-24 -6 -24 -7 8 -11 17 -3 32 -2 32 2 0 13 -14 16 -40 9z"/>
<path d="M5936 4601 c27 -10 64 -26 82 -35 18 -9 32 -12 32 -7 0 11 -84 47
-130 55 -28 5 -25 2 16 -13z"/>
<path d="M6670 4606 c0 -2 12 -12 28 -21 l27 -18 -19 21 c-17 20 -36 29 -36
18z"/>
<path d="M5715 4576 c-106 -49 -236 -167 -327 -296 -216 -305 -362 -917 -319
-1337 6 -62 16 -123 21 -135 9 -19 9 -17 5 12 -13 94 -17 374 -6 485 26 257
106 566 200 769 102 220 264 406 429 491 28 15 52 29 52 31 0 6 -1 6 -55 -20z"/>
<path d="M6686 4545 c4 -8 11 -15 16 -15 6 0 5 6 -2 15 -7 8 -14 15 -16 15 -2
0 -1 -7 2 -15z"/>
<path d="M5975 4526 c33 -14 61 -26 62 -26 1 0 0 7 -1 17 -2 9 -13 17 -27 18
-13 2 -40 6 -59 9 -25 5 -19 0 25 -18z"/>
<path d="M5950 4496 c0 -2 12 -11 28 -18 15 -8 39 -22 55 -32 15 -10 27 -14
27 -10 0 5 -15 18 -33 30 -34 22 -77 39 -77 30z"/>
<path d="M6620 4476 c7 -9 17 -16 23 -16 6 0 19 -7 29 -17 10 -9 18 -11 18 -6
0 13 -16 25 -54 42 -26 11 -28 10 -16 -3z"/>
<path d="M6663 4483 c9 -2 23 -2 30 0 6 3 -1 5 -18 5 -16 0 -22 -2 -12 -5z"/>
<path d="M5980 4431 c0 -5 -12 -7 -27 -4 -24 3 -25 2 -8 -6 22 -9 113 -26 105
-19 -13 13 -70 36 -70 29z"/>
<path d="M6610 4417 c0 -3 20 -17 45 -30 46 -26 64 -21 23 5 -26 17 -68 32
-68 25z"/>
<path d="M5936 4386 c18 -8 35 -19 38 -25 4 -6 13 -11 19 -11 7 0 -1 12 -16
25 -15 14 -38 25 -50 25 -18 -1 -17 -3 9 -14z"/>
<path d="M5892 4351 c21 -4 46 -15 55 -23 10 -8 25 -18 33 -22 8 -4 5 2 -8 13
-13 11 -21 24 -18 29 3 5 -18 9 -47 9 -49 1 -50 1 -15 -6z"/>
<path d="M6630 4330 c19 -16 43 -30 54 -30 25 0 20 4 -40 35 l-49 25 35 -30z"/>
<path d="M6670 4286 c0 -2 7 -7 16 -10 8 -3 12 -2 9 4 -6 10 -25 14 -25 6z"/>
<path d="M6633 4240 c23 -21 44 -36 47 -33 3 2 -8 16 -23 29 -32 27 -24 32 13
8 l25 -17 -20 20 c-11 11 -34 23 -52 26 l-31 6 41 -39z"/>
<path d="M5629 4223 c-13 -16 -12 -17 4 -4 16 13 21 21 13 21 -2 0 -10 -8 -17
-17z"/>
<path d="M2800 4221 c0 -5 -7 -62 -15 -127 -17 -126 -31 -165 -71 -191 -22
-14 -156 -49 -204 -53 -8 -1 26 -10 75 -21 114 -24 150 -40 170 -79 14 -28 29
-117 39 -233 2 -26 6 -50 8 -53 3 -2 11 31 17 73 26 161 31 185 43 210 21 43
59 63 153 82 l90 18 -100 23 c-149 34 -160 51 -181 278 -4 40 -11 75 -15 78
-5 3 -9 1 -9 -5z m53 -328 c11 -13 41 -29 66 -37 34 -10 39 -14 21 -15 -57 -2
-114 -60 -122 -124 -5 -36 -18 -46 -18 -13 0 69 -47 122 -118 133 l-36 6 46
14 c57 16 95 59 105 116 l7 42 14 -50 c8 -27 23 -60 35 -72z"/>
<path d="M3970 4220 c-8 -5 -10 -10 -5 -10 6 0 17 5 25 10 8 5 11 10 5 10 -5
0 -17 -5 -25 -10z"/>
<path d="M3880 4190 c-25 -10 -38 -19 -30 -19 8 0 35 9 60 19 25 10 38 19 30
19 -8 0 -35 -9 -60 -19z"/>
<path d="M6645 4158 c52 -62 68 -74 40 -32 -9 15 -12 23 -6 20 6 -4 11 -3 11
1 0 10 -48 63 -57 63 -3 0 1 -8 10 -18 29 -32 18 -37 -15 -6 -18 17 -11 5 17
-28z"/>
<path d="M5002 4048 c-100 -256 -234 -779 -231 -903 0 -16 11 31 24 105 38
221 139 586 220 804 19 49 33 92 31 94 -2 2 -22 -43 -44 -100z"/>
<path d="M6620 4147 c0 -11 73 -107 78 -102 5 5 -15 36 -52 80 -14 17 -25 27
-26 22z"/>
<path d="M6632 4050 c14 -19 32 -48 41 -65 13 -24 16 -26 17 -10 0 11 -19 40
-41 65 -33 36 -36 38 -17 10z"/>
<path d="M6626 3995 c11 -16 28 -49 39 -73 10 -23 20 -40 23 -37 7 7 -46 111
-65 126 -13 11 -13 7 3 -16z"/>
<path d="M6603 3943 c14 -16 36 -50 47 -76 25 -57 39 -57 15 -1 -19 47 -62
104 -77 104 -7 0 0 -12 15 -27z"/>
<path d="M6590 3887 c12 -21 35 -62 51 -90 16 -29 29 -45 29 -36 0 18 -64 127
-87 149 -9 9 -6 -1 7 -23z"/>
<path d="M6452 3895 c10 -16 159 -240 164 -245 12 -11 -12 39 -35 75 -37 58
-149 206 -129 170z"/>
<path d="M6594 3771 c17 -33 32 -56 34 -51 4 12 -33 83 -51 98 -8 7 -1 -14 17
-47z"/>
<path d="M6486 3755 c20 -27 49 -75 63 -105 17 -36 27 -49 29 -37 5 23 -35 91
-87 147 l-42 45 37 -50z"/>
<path d="M6396 3730 c4 -8 18 -29 30 -45 13 -17 44 -71 69 -120 25 -49 45 -80
45 -70 0 24 -82 170 -121 215 -17 19 -27 28 -23 20z"/>
<path d="M6496 3654 c19 -30 37 -64 39 -75 5 -25 14 -39 25 -39 5 0 2 15 -7
33 -27 56 -77 137 -85 137 -4 0 8 -25 28 -56z"/>
<path d="M6420 3610 c6 -11 13 -20 16 -20 2 0 0 9 -6 20 -6 11 -13 20 -16 20
-2 0 0 -9 6 -20z"/>
<path d="M4401 3616 c2 -2 15 -9 29 -15 24 -11 24 -11 6 3 -16 13 -49 24 -35
12z"/>
<path d="M6424 3520 c18 -36 42 -90 51 -120 10 -30 21 -59 26 -65 35 -38 -55
180 -95 230 -9 11 -1 -9 18 -45z"/>
<path d="M6440 3569 c0 -3 20 -44 45 -92 25 -48 45 -82 45 -75 0 14 -66 148
-81 163 -5 5 -9 7 -9 4z"/>
<path d="M6417 3445 c49 -142 63 -176 58 -140 -4 22 -20 67 -36 100 -16 33
-26 51 -22 40z"/>
<path d="M6370 3325 c22 -43 43 -95 46 -115 10 -52 27 -74 20 -26 -5 41 -62
166 -90 201 -9 11 2 -16 24 -60z"/>
<path d="M6419 3328 c10 -24 21 -56 26 -73 4 -16 9 -25 12 -19 5 14 -35 121
-48 129 -5 3 0 -13 10 -37z"/>
<path d="M6345 3258 c30 -60 55 -114 55 -122 0 -8 5 -18 11 -22 8 -4 9 1 4 17
-10 38 -83 181 -105 209 -11 14 5 -23 35 -82z"/>
<path d="M6295 3250 c9 -16 18 -30 21 -30 2 0 -2 14 -11 30 -9 17 -18 30 -21
30 -2 0 2 -13 11 -30z"/>
<path d="M4572 3214 c10 -10 20 -16 22 -13 3 3 -5 11 -17 18 -21 13 -21 12 -5
-5z"/>
<path d="M6280 3209 c0 -3 11 -34 25 -68 14 -35 32 -86 40 -114 9 -34 14 -43
14 -26 1 31 -28 119 -57 175 -12 21 -21 36 -22 33z"/>
<path d="M7194 3155 c-4 -9 -2 -21 4 -27 15 -15 44 -1 40 19 -4 23 -36 29 -44
8z"/>
<path d="M6366 3100 c4 -19 10 -42 15 -50 11 -18 1 34 -13 65 -5 13 -6 9 -2
-15z"/>
<path d="M4762 3080 c0 -19 2 -27 5 -17 2 9 2 25 0 35 -3 9 -5 1 -5 -18z"/>
<path d="M6199 3014 c16 -32 36 -75 45 -94 15 -34 15 -34 10 -5 -8 40 -51 130
-70 146 -9 7 -3 -13 15 -47z"/>
<path d="M6294 3045 c15 -52 45 -118 46 -103 0 21 -29 99 -43 113 -6 6 -7 3
-3 -10z"/>
<path d="M6095 3016 c69 -116 85 -148 101 -201 9 -33 19 -54 21 -48 10 30 -63
191 -113 248 l-26 30 17 -29z"/>
<path d="M6173 2975 c19 -27 44 -70 57 -93 12 -24 24 -42 26 -39 9 9 -43 101
-80 142 l-37 40 34 -50z"/>
<path d="M6252 2998 c3 -7 13 -38 23 -68 17 -55 45 -100 30 -50 -15 51 -47
130 -52 130 -3 0 -3 -6 -1 -12z"/>
<path d="M3124 2865 c-4 -9 -2 -21 4 -27 15 -15 44 -1 40 19 -4 23 -36 29 -44
8z"/>
<path d="M6110 2873 c0 -4 7 -17 15 -27 8 -11 15 -31 15 -45 0 -21 2 -23 11
-11 8 12 10 12 8 -5 -3 -40 1 -65 11 -65 17 0 11 43 -14 96 -22 47 -46 78 -46
57z"/>
<path d="M6040 2864 c0 -6 7 -17 16 -25 17 -14 59 -92 80 -149 10 -28 13 -30
13 -12 1 13 -10 47 -24 75 -25 54 -84 130 -85 111z"/>
<path d="M6020 2798 c17 -27 44 -76 60 -110 16 -35 29 -56 29 -47 1 24 -54
130 -89 169 l-31 35 31 -47z"/>
<path d="M5984 2728 c18 -29 47 -81 65 -115 36 -73 49 -83 21 -17 -20 47 -106
184 -115 184 -2 0 10 -24 29 -52z"/>
<path d="M5111 2714 c0 -11 3 -14 6 -6 3 7 2 16 -1 19 -3 4 -6 -2 -5 -13z"/>
<path d="M5956 2683 c10 -16 35 -58 57 -95 40 -71 71 -105 42 -47 -22 42 -106
169 -112 169 -3 0 3 -12 13 -27z"/>
<path d="M5908 2655 c6 -11 28 -43 49 -72 21 -28 46 -66 56 -84 10 -17 20 -29
23 -26 4 3 -14 37 -40 74 -50 74 -104 140 -88 108z"/>
<path d="M7017 2600 c-3 -8 -11 -61 -17 -118 -17 -143 -30 -161 -140 -188 -90
-23 -90 -26 5 -45 105 -20 117 -36 135 -182 7 -54 16 -97 20 -97 4 0 12 43 19
96 18 146 36 170 149 194 71 15 67 25 -16 36 -58 7 -98 33 -114 73 -5 14 -16
76 -22 136 -7 61 -16 103 -19 95z m13 -229 c0 -41 34 -79 78 -87 l37 -7 -32
-9 c-38 -10 -83 -60 -83 -93 0 -13 -4 -27 -10 -30 -6 -4 -10 6 -10 24 0 39
-35 78 -85 96 -35 12 -36 14 -13 15 38 0 86 44 94 86 8 41 24 45 24 5z"/>
<path d="M5849 2545 c6 -11 40 -51 77 -90 36 -38 52 -52 36 -30 -43 57 -125
144 -113 120z"/>
<path d="M5910 2551 c0 -6 4 -13 10 -16 6 -3 7 1 4 9 -7 18 -14 21 -14 7z"/>
<path d="M5829 2502 c33 -47 118 -138 124 -132 3 3 -29 41 -71 85 -42 44 -66
65 -53 47z"/>
<path d="M5817 2445 c63 -74 120 -129 105 -100 -6 11 -43 52 -83 90 l-73 70
51 -60z"/>
<path d="M5950 2494 c0 -8 63 -84 67 -81 7 8 -38 81 -52 83 -8 1 -15 0 -15 -2z"/>
<path d="M5800 2375 c30 -33 79 -69 86 -63 2 3 -22 24 -53 48 -40 29 -50 34
-33 15z"/>
<path d="M5756 2353 c43 -39 112 -84 100 -65 -3 6 -37 31 -74 57 -66 45 -66
45 -26 8z"/>
<path d="M5690 2340 c28 -23 130 -73 136 -68 2 2 -33 23 -79 46 -45 24 -71 33
-57 22z"/>
<path d="M5679 2290 c13 -11 35 -20 50 -19 15 0 20 3 11 6 -8 3 -31 12 -50 19
l-35 14 24 -20z"/>
<path d="M5605 2280 c8 -13 96 -62 101 -57 3 3 -20 18 -50 35 -31 17 -54 26
-51 22z"/>
<path d="M4930 2253 c0 -15 19 -37 26 -31 3 4 -1 14 -10 23 -9 9 -16 13 -16 8z"/>
<path d="M5632 2210 c9 -5 38 -12 65 -15 l48 -4 -44 9 c-23 5 -53 12 -65 15
-18 5 -18 4 -4 -5z"/>
<path d="M4923 2155 c-40 -17 -322 -110 -381 -125 -102 -26 -247 -13 -318 29
-19 11 -34 17 -34 12 0 -11 77 -47 130 -61 24 -7 62 -9 85 -6 29 5 36 3 25 -4
-31 -21 90 7 245 56 136 44 277 95 290 106 14 12 -6 9 -42 -7z"/>
<path d="M5760 2160 c-8 -5 -10 -10 -5 -10 6 0 17 5 25 10 8 5 11 10 5 10 -5
0 -17 -5 -25 -10z"/>
<path d="M4175 2145 c17 -7 48 -16 70 -19 27 -4 19 0 -25 14 -75 22 -88 24
-45 5z"/>
<path d="M5870 2120 c-108 -37 -205 -60 -253 -60 -33 0 -46 -4 -41 -11 4 -7
24 -9 58 -4 62 8 287 72 300 85 14 14 -1 12 -64 -10z"/>
<path d="M5695 2120 l-30 -8 30 0 c17 0 39 3 50 8 l20 9 -20 -1 c-11 0 -33 -4
-50 -8z"/>
<path d="M5468 2103 c7 -3 16 -2 19 1 4 3 -2 6 -13 5 -11 0 -14 -3 -6 -6z"/>
<path d="M4940 2054 c-245 -80 -426 -124 -515 -124 -63 0 -155 28 -205 61
l-45 31 37 -35 c73 -71 226 -87 404 -42 122 31 386 114 399 126 12 12 11 12
-75 -17z"/>
<path d="M5865 2064 c-94 -35 -242 -65 -330 -66 l-90 -1 54 -10 c39 -8 75 -7
130 2 90 16 258 64 274 80 13 13 12 13 -38 -5z"/>
<path d="M5458 2043 c6 -2 18 -2 25 0 6 3 1 5 -13 5 -14 0 -19 -2 -12 -5z"/>
<path d="M5770 1975 c-52 -13 -85 -24 -74 -24 32 -1 178 30 189 40 13 13 -8
10 -115 -16z"/>
<path d="M5398 1963 c23 -2 59 -2 80 0 20 2 1 4 -43 4 -44 0 -61 -2 -37 -4z"/>
<path d="M3334 1945 c-8 -19 3 -35 26 -35 19 0 34 25 24 41 -8 14 -44 10 -50
-6z"/>
<path d="M4180 1945 c0 -7 73 -55 84 -55 5 0 -10 14 -32 30 -41 29 -52 35 -52
25z"/>
<path d="M5638 1943 c6 -2 18 -2 25 0 6 3 1 5 -13 5 -14 0 -19 -2 -12 -5z"/>
<path d="M5720 1924 c-41 -13 -109 -28 -150 -34 -132 -18 -136 -19 -60 -14
218 12 351 32 364 53 3 5 -27 0 -66 -10 -96 -25 -143 -23 -53 2 38 11 71 22
74 25 11 10 -40 0 -109 -22z"/>
<path d="M5790 1854 c-73 -28 -156 -48 -245 -60 -53 -6 -56 -8 -30 -15 18 -4
22 -7 11 -8 -11 0 -17 -4 -14 -7 13 -12 348 92 348 108 0 10 7 12 -70 -18z
m-217 -71 c-7 -2 -19 -2 -25 0 -7 3 -2 5 12 5 14 0 19 -2 13 -5z"/>
<path d="M5083 1854 c-18 -8 -95 -31 -170 -51 -106 -28 -167 -38 -263 -44
l-125 -7 130 3 c110 3 151 8 266 38 74 19 153 44 175 55 44 24 36 28 -13 6z"/>
<path d="M5393 1863 c9 -2 23 -2 30 0 6 3 -1 5 -18 5 -16 0 -22 -2 -12 -5z"/>
<path d="M5695 1860 c-13 -5 -14 -9 -5 -9 8 0 24 4 35 9 13 5 14 9 5 9 -8 0
-24 -4 -35 -9z"/>
<path d="M4220 1850 c0 -6 7 -10 15 -10 8 0 15 2 15 4 0 2 -7 6 -15 10 -8 3
-15 1 -15 -4z"/>
<path d="M5765 1764 c-49 -20 -128 -46 -175 -59 -47 -13 -74 -24 -60 -24 29
-1 307 92 323 108 15 15 13 15 -88 -25z"/>
<path d="M4198 1783 c6 -2 18 -2 25 0 6 3 1 5 -13 5 -14 0 -19 -2 -12 -5z"/>
<path d="M5415 1750 l-40 -7 35 0 c19 -1 49 3 65 7 27 7 27 8 5 7 -14 0 -43
-3 -65 -7z"/>
<path d="M5805 1729 c-11 -5 -33 -13 -49 -19 -16 -6 -27 -13 -24 -15 6 -7 68
15 93 32 22 15 10 16 -20 2z"/>
<path d="M5770 1658 c-36 -17 -105 -46 -155 -64 -49 -18 -83 -33 -75 -33 25
-1 272 97 289 113 20 20 18 20 -59 -16z"/>
<path d="M5478 1673 c7 -3 16 -2 19 1 4 3 -2 6 -13 5 -11 0 -14 -3 -6 -6z"/>
<path d="M5745 1593 c-44 -24 -69 -41 -55 -37 31 8 108 47 135 68 35 27 2 15
-80 -31z"/>
<path d="M5001 1434 c1 -109 5 -282 9 -384 5 -117 5 -45 2 195 -2 209 -6 382
-8 384 -2 2 -3 -85 -3 -195z"/>
<path d="M4220 1585 c0 -2 10 -10 23 -16 20 -11 21 -11 8 4 -13 16 -31 23 -31
12z"/>
<path d="M5740 1533 c-36 -18 -54 -31 -40 -27 30 8 120 52 120 59 0 8 -12 3
-80 -32z"/>
<path d="M5498 1553 c7 -3 16 -2 19 1 4 3 -2 6 -13 5 -11 0 -14 -3 -6 -6z"/>
<path d="M5770 1484 c-36 -19 -54 -32 -40 -28 34 9 97 41 105 54 8 14 9 14
-65 -26z"/>
<path d="M5814 1450 c-6 -6 -46 -27 -90 -46 -43 -20 -65 -33 -49 -29 42 9 155
64 155 76 0 12 -4 11 -16 -1z"/>
<path d="M6512 1398 c-15 -18 1 -41 24 -36 23 4 26 41 3 46 -9 1 -21 -3 -27
-10z"/>
<path d="M5760 1369 c-36 -17 -53 -28 -39 -25 37 8 97 34 104 46 8 13 12 14
-65 -21z"/>
<path d="M5618 1363 c7 -3 16 -2 19 1 4 3 -2 6 -13 5 -11 0 -14 -3 -6 -6z"/>
<path d="M5755 1329 c-16 -10 -26 -19 -22 -19 11 0 67 29 67 35 0 9 -15 4 -45
-16z"/>
<path d="M5793 1317 c-18 -12 -33 -25 -33 -29 0 -9 68 30 76 43 9 15 -9 9 -43
-14z"/>
<path d="M5755 1239 c-33 -16 -49 -27 -35 -23 29 8 110 44 110 50 0 8 -16 2
-75 -27z"/>
<path d="M5765 1184 c-33 -18 -57 -34 -53 -34 15 0 116 48 122 59 11 17 -4 12
-69 -25z"/>
<path d="M5796 1150 c-52 -40 -58 -47 -18 -24 29 17 72 54 61 54 -2 0 -21 -14
-43 -30z"/>
<path d="M5638 1133 c7 -3 16 -2 19 1 4 3 -2 6 -13 5 -11 0 -14 -3 -6 -6z"/>
<path d="M5598 1123 c7 -3 16 -2 19 1 4 3 -2 6 -13 5 -11 0 -14 -3 -6 -6z"/>
<path d="M5548 1113 c6 -2 18 -2 25 0 6 3 1 5 -13 5 -14 0 -19 -2 -12 -5z"/>
<path d="M5755 1085 c-33 -19 -56 -35 -52 -35 11 0 127 59 127 65 0 10 -17 3
-75 -30z"/>
<path d="M5819 1084 c-7 -9 -36 -29 -64 -45 -27 -16 -45 -29 -40 -29 6 0 33
13 60 29 51 29 86 61 67 61 -5 0 -16 -7 -23 -16z"/>
<path d="M5820 1030 c-15 -11 -19 -20 -11 -20 7 0 1 -10 -15 -22 -46 -34 -51
-41 -19 -25 30 15 75 57 60 57 -4 0 -2 7 5 15 17 20 10 19 -20 -5z"/>
<path d="M4195 1010 c3 -5 11 -10 16 -10 6 0 7 5 4 10 -3 6 -11 10 -16 10 -6
0 -7 -4 -4 -10z"/>
<path d="M5819 955 c-8 -8 -44 -31 -79 -50 -36 -20 -54 -33 -40 -29 53 14 151
76 139 88 -3 3 -12 -1 -20 -9z"/>
<path d="M5840 905 c-7 -9 -54 -36 -104 -61 -101 -50 -81 -50 29 0 66 31 104
60 93 71 -3 3 -11 -2 -18 -10z"/>
<path d="M5830 835 c-13 -14 -46 -37 -74 -51 -28 -13 -40 -22 -26 -18 33 8
103 49 120 69 22 26 5 27 -20 0z"/>
<path d="M5854 799 c-12 -21 -109 -76 -181 -104 -89 -35 -89 -44 -2 -15 76 26
175 84 189 111 11 20 6 27 -6 8z"/>
<path d="M5825 723 c-39 -35 -39 -36 -7 -17 19 10 38 27 43 37 13 23 10 22
-36 -20z"/>
<path d="M5845 690 c-4 -6 -30 -26 -58 -45 -28 -19 -47 -35 -41 -35 6 0 29 13
50 28 39 28 72 62 61 62 -3 0 -9 -5 -12 -10z"/>
<path d="M5815 613 c-64 -45 -70 -52 -20 -24 50 28 80 50 74 55 -2 2 -26 -12
-54 -31z"/>
<path d="M5700 600 c-8 -5 -10 -10 -5 -10 6 0 17 5 25 10 8 5 11 10 5 10 -5 0
-17 -5 -25 -10z"/>
<path d="M5798 552 c-36 -26 -74 -53 -85 -60 -10 -7 6 0 34 15 45 24 138 93
123 92 -3 -1 -35 -22 -72 -47z"/>
<path d="M5650 580 c-8 -5 -10 -10 -5 -10 6 0 17 5 25 10 8 5 11 10 5 10 -5 0
-17 -5 -25 -10z"/>
<path d="M5840 509 c-19 -17 -56 -42 -82 -55 -52 -26 -64 -40 -22 -24 33 13
104 62 128 89 27 30 17 26 -24 -10z"/>
<path d="M5802 419 c-35 -27 -59 -49 -53 -49 10 0 106 73 116 90 9 15 6 13
-63 -41z"/>
</g>
</svg>
