<svg xmlns="http://www.w3.org/2000/svg" viewBox="0 0 64 64">
<path fill-rule="evenodd" fill="currentColor" d="M32 22.5 C28.7 17.8 30.3 12.6 32 7.5 C33.7 12.6 35.3 17.8 32 22.5 Z M32 19.3 C30.9 16.9 31.4 14.6 32 12.3 C32.6 14.6 33.1 16.9 32 19.3 Z"/>
<path fill="currentColor" d="M26.3 20.5 C24.6 18 24.7 14.8 26 12 C27.2 14.9 27.4 18 26.3 20.5 Z"/>
<path fill="currentColor" d="M37.7 20.5 C39.4 18 39.3 14.8 38 12 C36.8 14.9 36.6 18 37.7 20.5 Z"/>
<path d="M22.2 6.9350000000000005 Q22.503999999999998 9.196 24.099999999999998 9.5 Q22.503999999999998 9.804 22.2 12.065 Q21.896 9.804 20.3 9.5 Q21.896 9.196 22.2 6.9350000000000005 Z" fill="currentColor"/><path d="M41.8 6.9350000000000005 Q42.104 9.196 43.699999999999996 9.5 Q42.104 9.804 41.8 12.065 Q41.495999999999995 9.804 39.9 9.5 Q41.495999999999995 9.196 41.8 6.9350000000000005 Z" fill="currentColor"/>
<circle cx="23.5" cy="15.5" r="0.6" fill="currentColor"/><circle cx="40.5" cy="15.5" r="0.6" fill="currentColor"/>
<g stroke="currentColor" stroke-width="1.2" fill="none" stroke-linecap="round" stroke-linejoin="round">
  <path d="M18 26.5 H46 C45.5 34.3 39.6 39.3 32 39.3 C24.4 39.3 18.5 34.3 18 26.5 Z"/>
  <path d="M32 39.3 V41.8"/>
  <path d="M32 45.8 V47.3"/>
  <path d="M24.2 51.3 C24.2 48.3 27.6 46.9 32 46.9 C36.4 46.9 39.8 48.3 39.8 51.3"/>
  <path d="M22.6 52.6 H41.4"/>
</g>
<g stroke="currentColor" stroke-width="0.8" fill="none" stroke-linecap="round" stroke-linejoin="round">
  <path d="M20.3 29 H43.7"/>
  <circle cx="32" cy="43.8" r="1.7"/>
</g>
<circle cx="24.4" cy="31.8" r="0.6" fill="currentColor"/><circle cx="27.6" cy="33.9" r="0.6" fill="currentColor"/><circle cx="32" cy="34.7" r="0.6" fill="currentColor"/><circle cx="36.4" cy="33.9" r="0.6" fill="currentColor"/><circle cx="39.6" cy="31.8" r="0.6" fill="currentColor"/>
<circle cx="21.5" cy="52.6" r="0.7" fill="currentColor"/><circle cx="42.5" cy="52.6" r="0.7" fill="currentColor"/>
</svg>