<svg xmlns="http://www.w3.org/2000/svg" viewBox="0 0 64 64">
<path d="M32 2.1649999999999996 Q32.336 4.664 34.1 5 Q32.336 5.336 32 7.835000000000001 Q31.664 5.336 29.9 5 Q31.664 4.664 32 2.1649999999999996 Z" fill="currentColor"/>
<g stroke="currentColor" stroke-width="1.2" fill="none" stroke-linecap="round" stroke-linejoin="round">
  <path d="M32 8.5 V11"/>
  <path d="M32 11 C26.2 13 23.6 16.4 23.6 20 H40.4 C40.4 16.4 37.8 13 32 11 Z"/>
  <path d="M22.3 20 H41.7"/>
  <path d="M24.6 22 C22.6 27 22.6 33 25.1 38.5"/>
  <path d="M39.4 22 C41.4 27 41.4 33 38.9 38.5"/>
  <path d="M25.1 38.5 H38.9"/>
  <path d="M26.8 40.5 C25.9 42.2 25.4 43.3 25.4 44.2 H38.6 C38.6 43.3 38.1 42.2 37.2 40.5"/>
</g>
<g stroke="currentColor" stroke-width="0.8" fill="none" stroke-linecap="round" stroke-linejoin="round">
  <path d="M32 11 C30.2 14 29.3 17 29.3 20"/>
  <path d="M32 11 C33.8 14 34.7 17 34.7 20"/>
  <path d="M28.6 36.5 V28 C28.6 24.6 30.1 23.2 32 21.8 C33.9 23.2 35.4 24.6 35.4 28 V36.5 Z"/>
</g>
<circle cx="21.3" cy="20" r="0.7" fill="currentColor"/><circle cx="42.7" cy="20" r="0.7" fill="currentColor"/>
<path d="M32 33.8 C30.4 31.7 30.9 29.7 32 27.8 C33.1 29.7 33.6 31.7 32 33.8 Z" fill="currentColor"/>
<circle cx="27.7" cy="47" r="0.75" fill="currentColor"/><circle cx="32" cy="47.8" r="0.75" fill="currentColor"/><circle cx="36.3" cy="47" r="0.75" fill="currentColor"/>
<path d="M32 50.2 L33.3 52.3 L32 54.4 L30.7 52.3 Z" stroke="currentColor" stroke-width="0.8" fill="none" stroke-linecap="round" stroke-linejoin="round"/>
</svg>