<svg xmlns="http://www.w3.org/2000/svg" viewBox="0 0 64 64">
<path d="M32 2.0999999999999996 Q32.32 4.4799999999999995 34.0 4.8 Q32.32 5.12 32 7.5 Q31.68 5.12 30.0 4.8 Q31.68 4.4799999999999995 32 2.0999999999999996 Z" fill="currentColor"/>
<path d="M21.5 12.475 Q21.74 14.26 23.0 14.5 Q21.74 14.74 21.5 16.525 Q21.26 14.74 20.0 14.5 Q21.26 14.26 21.5 12.475 Z" fill="currentColor"/><path d="M43.5 16.38 Q43.692 17.808 44.7 18 Q43.692 18.192 43.5 19.62 Q43.308 18.192 42.3 18 Q43.308 17.808 43.5 16.38 Z" fill="currentColor"/>
<circle cx="38.5" cy="11" r="0.6" fill="currentColor"/>
<g stroke="currentColor" stroke-width="1.2" fill="none" stroke-linecap="round" stroke-linejoin="round">
  <path d="M32 9.5 C29.6 25 21.5 40.5 11.5 51"/>
  <path d="M32 9.5 C34.4 25 42.5 40.5 52.5 51"/>
  <path d="M11.5 51 H52.5"/>
  <path d="M29.1 51 V41 C29.1 37.6 30.3 36.1 32 34.9 C33.7 36.1 34.9 37.6 34.9 41 V51"/>
</g>
<g stroke="currentColor" stroke-width="0.8" fill="none" stroke-linecap="round" stroke-linejoin="round">
  <path d="M32 9.5 C28.9 26 24.6 40 18.6 51"/>
  <path d="M32 9.5 C35.1 26 39.4 40 45.4 51"/>
  <path d="M32 9.5 C30.6 27 29.1 41 27.7 51"/>
  <path d="M32 9.5 C33.4 27 34.9 41 36.3 51"/>
  <path d="M29.1 44 C27.6 42.8 26.9 41.4 27 39.8"/>
  <path d="M34.9 44 C36.4 42.8 37.1 41.4 37 39.8"/>
</g>
<circle cx="9.3" cy="51" r="0.75" fill="currentColor"/><circle cx="54.7" cy="51" r="0.75" fill="currentColor"/>
</svg>