<svg xmlns="http://www.w3.org/2000/svg" viewBox="0 0 528.548482 969.796622" color="#C8A848"><rect width="528.548482" height="969.796622" fill="#1A0A24"/><g transform="translate(-246.851518,1005.400000) scale(0.100000,-0.100000)"
fill="currentColor" stroke="none">
<path d="M5106 9404 c-4 -278 -5 -508 -3 -510 2 -3 12 -1 22 2 17 7 18 26 12
348 -4 188 -7 414 -7 504 0 89 -4 162 -8 162 -5 0 -12 -228 -16 -506z"/>
<path d="M4410 9623 c0 -9 170 -519 270 -810 49 -141 70 -182 70 -135 0 11 -9
45 -21 78 -12 32 -83 241 -159 464 -76 222 -143 406 -149 408 -6 2 -11 0 -11
-5z"/>
<path d="M5800 9573 c-12 -32 -57 -159 -100 -283 -43 -124 -110 -314 -149
-424 -65 -181 -86 -266 -62 -241 10 10 50 121 242 673 60 172 111 318 114 323
4 5 -1 9 -9 9 -9 0 -23 -23 -36 -57z"/>
<path d="M3941 9239 c6 -12 64 -99 128 -193 65 -94 159 -233 209 -308 83 -124
123 -170 105 -120 -14 37 -428 642 -441 642 -10 0 -10 -5 -1 -21z"/>
<path d="M4824 9245 c-4 -9 -2 -21 4 -27 15 -15 44 -1 40 19 -4 23 -36 29 -44
8z"/>
<path d="M5351 9197 c-15 -19 10 -53 33 -44 21 8 21 43 0 51 -21 8 -20 8 -33
-7z"/>
<path d="M6137 9033 c-167 -234 -367 -523 -373 -538 -11 -27 14 -16 39 18 75
101 428 607 433 621 3 9 1 16 -4 16 -6 0 -49 -53 -95 -117z"/>
<path d="M3390 9042 c0 -4 21 -28 48 -53 70 -68 741 -639 758 -646 44 -17 -15
39 -282 268 -163 140 -340 291 -393 337 -99 86 -131 109 -131 94z"/>
<path d="M6554 8772 c-83 -75 -242 -218 -352 -317 -180 -160 -222 -205 -193
-205 4 0 48 37 97 83 49 46 208 190 354 321 146 131 267 242 268 247 12 30
-41 -9 -174 -129z"/>
<path d="M4990 8628 c-40 -66 -82 -239 -115 -483 -9 -60 -20 -258 -25 -440 -5
-181 -14 -366 -20 -410 -5 -44 -14 -314 -19 -600 -6 -286 -12 -592 -15 -680
-6 -149 -23 -275 -40 -292 -15 -15 -34 29 -45 107 -32 213 -41 1216 -16 1610
23 364 16 652 -19 774 -9 28 -28 66 -43 84 -25 30 -35 34 -88 38 -111 9 -131
-20 -194 -281 -72 -297 -96 -455 -151 -965 -35 -324 -38 -364 -45 -675 -7
-367 -24 -568 -76 -925 -55 -373 -122 -730 -138 -730 -23 1 -144 202 -217 362
-66 144 -82 186 -134 358 -72 235 -131 332 -299 492 -135 129 -283 210 -413
225 -63 8 -133 -18 -152 -56 -14 -26 -8 -39 128 -311 93 -187 180 -382 253
-565 165 -412 202 -545 248 -880 48 -346 82 -444 294 -829 43 -77 118 -217
166 -311 48 -93 123 -228 165 -300 104 -174 194 -357 230 -464 56 -168 65
-244 65 -586 0 -274 -24 -996 -41 -1222 -6 -79 -5 -83 15 -83 14 0 21 6 21 19
0 11 7 127 15 258 38 622 52 1141 36 1312 -13 129 -46 277 -82 371 -37 94
-142 299 -226 440 -44 74 -119 212 -168 305 -48 94 -119 226 -158 294 -103
182 -192 374 -222 476 -25 88 -31 122 -74 425 -35 245 -85 415 -221 756 -152
381 -238 563 -361 770 -27 45 -49 87 -49 93 0 6 14 18 32 27 93 48 306 -45
472 -205 153 -148 213 -251 284 -486 45 -150 91 -265 169 -420 99 -200 146
-260 388 -500 243 -241 237 -232 459 -618 38 -65 71 -116 73 -113 7 6 -125
257 -189 360 -89 144 -191 269 -330 406 l-137 136 19 74 c47 179 140 740 176
1060 8 74 19 304 24 510 5 206 16 438 24 515 9 77 23 205 31 285 45 424 65
551 125 810 16 69 37 165 46 215 21 105 43 135 98 135 55 0 83 -32 107 -125
18 -69 21 -113 22 -330 1 -137 -4 -371 -12 -520 -10 -199 -12 -404 -8 -775 8
-580 18 -742 53 -834 4 -10 -18 -15 -93 -20 -54 -4 -114 -11 -133 -17 -26 -6
-13 -7 50 -4 47 3 163 5 259 5 175 0 225 6 98 12 -56 2 -66 5 -61 18 29 64 35
157 44 600 10 477 25 913 40 1125 5 66 9 197 9 290 1 163 18 373 41 521 16
102 60 293 77 336 15 37 16 38 70 38 102 0 127 -49 165 -325 20 -143 22 -198
20 -510 -1 -238 3 -411 14 -540 20 -255 34 -632 34 -960 1 -351 25 -539 81
-631 10 -17 45 -49 76 -71 87 -61 243 -154 243 -145 0 5 -37 34 -83 65 -139
94 -124 32 -128 547 -1 245 1 578 5 740 6 200 5 348 -3 460 -20 287 -25 513
-12 582 16 86 58 216 83 256 25 41 59 42 98 4 23 -23 33 -52 59 -163 27 -118
69 -380 100 -624 36 -276 60 -717 71 -1275 5 -245 14 -469 19 -499 24 -117 78
-191 221 -302 86 -66 90 -66 18 2 l-67 64 14 145 c45 468 43 637 -13 1060 -32
243 -36 300 -36 485 1 248 3 258 66 243 61 -13 84 -31 112 -86 64 -127 148
-527 205 -983 22 -166 30 -422 21 -610 -6 -101 -10 -377 -9 -614 0 -315 -4
-470 -16 -580 -36 -362 -96 -683 -179 -970 -62 -215 -91 -299 -172 -488 -130
-304 -194 -516 -213 -711 -6 -60 -11 -219 -11 -353 0 -359 40 -1317 56 -1332
2 -3 10 2 17 10 11 11 12 51 6 184 -38 886 -42 1389 -15 1550 34 200 84 360
196 619 181 421 284 826 360 1421 16 128 34 1583 21 1751 -27 347 -122 862
-198 1066 -42 113 -118 178 -210 178 -37 0 -69 -50 -76 -122 -23 -235 -20
-297 33 -693 41 -306 46 -459 26 -753 -19 -284 -24 -332 -35 -332 -4 0 -18 18
-30 41 -49 86 -52 116 -61 609 -5 256 -11 497 -14 535 -3 39 -11 158 -17 265
-16 305 -84 858 -135 1100 -35 170 -78 230 -164 230 -43 0 -52 -4 -77 -35 -30
-36 -63 -118 -89 -221 -24 -94 -28 -306 -11 -534 14 -172 15 -328 10 -958 -6
-731 -7 -752 -24 -725 -50 75 -67 255 -74 768 -5 387 -19 736 -31 780 -3 11
-9 243 -14 515 -7 429 -11 512 -29 620 -25 152 -37 196 -64 234 -27 39 -74 56
-152 56 -63 0 -66 -1 -85 -32z"/>
<path d="M3192 8508 c5 -14 -5 -8 483 -282 204 -115 353 -192 358 -187 5 5
-63 49 -165 106 -95 54 -275 156 -401 227 -242 137 -281 156 -275 136z"/>
<path d="M6485 8197 c-280 -150 -365 -199 -365 -210 0 -6 211 100 245 123 6 4
87 47 180 95 94 48 177 94 185 101 38 36 -31 6 -245 -109z"/>
<path d="M3571 8041 c-17 -11 -7 -41 12 -41 19 0 40 26 32 40 -8 12 -25 13
-44 1z"/>
<path d="M6765 7896 c-71 -23 -219 -69 -327 -101 -118 -35 -194 -63 -189 -68
5 -5 104 20 243 62 371 112 411 126 416 139 5 16 7 16 -143 -32z"/>
<path d="M3132 7891 c-9 -5 12 -15 65 -29 198 -52 752 -192 762 -192 20 0 11
18 -11 24 -13 3 -192 49 -398 102 -206 52 -382 97 -390 99 -8 3 -21 1 -28 -4z"/>
<path d="M6926 7589 c-3 -17 -6 -61 -6 -98 -1 -78 -13 -138 -33 -158 -8 -8
-47 -19 -88 -23 -70 -8 -129 -24 -129 -34 0 -3 36 -3 80 1 l79 6 35 -35 c38
-38 49 -71 68 -200 8 -59 16 -88 25 -88 9 0 13 15 13 48 0 64 22 164 44 196
20 31 47 43 134 60 63 11 74 26 21 26 -37 0 -119 28 -143 49 -32 28 -54 85
-71 182 -9 52 -18 95 -19 97 -2 1 -6 -12 -10 -29z m49 -225 c11 -20 37 -48 57
-62 l38 -25 -33 -16 c-21 -11 -41 -34 -58 -68 l-27 -52 -12 45 c-7 25 -26 59
-42 76 -16 17 -27 32 -26 33 2 1 13 7 25 14 13 6 27 29 34 51 7 22 15 40 18
40 4 0 15 -16 26 -36z"/>
<path d="M6486 7493 c-11 -11 -6 -23 9 -23 8 0 15 4 15 9 0 13 -16 22 -24 14z"/>
<path d="M3585 7440 c-3 -6 1 -7 9 -4 18 7 21 14 7 14 -6 0 -13 -4 -16 -10z"/>
<path d="M3651 7424 c0 -11 3 -14 6 -6 3 7 2 16 -1 19 -3 4 -6 -2 -5 -13z"/>
<path d="M3604 7419 c-10 -17 13 -36 27 -22 12 12 4 33 -11 33 -5 0 -12 -5
-16 -11z"/>
<path d="M3347 7312 c-4 -18 -10 -97 -13 -175 -4 -79 -13 -156 -20 -174 -12
-32 -15 -33 -71 -34 -32 -1 -83 -4 -113 -8 l-55 -6 69 -18 c107 -28 162 -62
191 -117 7 -14 17 -64 21 -110 10 -126 20 -137 27 -32 13 174 57 227 232 278
l60 18 -101 7 c-117 7 -169 22 -186 52 -7 12 -17 96 -23 187 -7 113 -13 155
-18 132z m93 -390 l50 -5 -43 -37 c-23 -21 -48 -48 -55 -61 l-13 -24 -52 50
-52 50 28 8 c15 4 33 19 39 32 11 24 12 24 30 9 10 -9 40 -19 68 -22z"/>
<path d="M7461 6511 c-19 -12 -6 -43 16 -39 21 4 31 48 11 48 -7 0 -19 -4 -27
-9z"/>
<path d="M7243 6347 c-17 -223 -32 -249 -153 -267 -127 -18 -140 -21 -140 -29
0 -4 42 -13 93 -20 109 -16 141 -30 155 -71 6 -16 21 -94 32 -173 31 -203 33
-207 41 -62 3 72 12 150 19 174 23 86 81 121 253 152 37 7 67 16 67 20 0 4
-46 9 -102 11 -190 7 -224 46 -234 264 -4 71 -10 135 -13 142 -4 7 -12 -57
-18 -141z m36 -212 c14 -24 38 -44 71 -59 l51 -24 -40 -15 c-46 -19 -76 -55
-93 -108 l-11 -39 -21 62 c-21 62 -32 73 -91 94 -17 6 -15 8 13 14 42 10 69
34 84 76 7 19 13 34 14 34 1 0 11 -16 23 -35z"/>
<path d="M3722 6394 c2 -11 11 -20 22 -22 13 -3 17 1 14 14 -2 11 -11 20 -22
22 -13 3 -17 -1 -14 -14z"/>
<path d="M6915 5330 c-11 -17 18 -42 39 -34 9 4 16 14 14 23 -4 19 -43 27 -53
11z"/>
<path d="M5108 5124 c-5 -4 -8 -29 -8 -54 0 -85 -31 -343 -50 -422 -45 -182
-78 -207 -340 -249 -68 -11 -126 -22 -128 -24 -2 -2 11 -6 29 -9 222 -34 297
-49 331 -68 98 -55 150 -224 165 -531 3 -76 9 -134 13 -130 4 4 17 103 29 218
24 230 35 292 61 345 51 101 178 152 375 151 53 0 95 4 95 10 0 5 -2 9 -3 9
-24 0 -282 53 -321 66 -152 50 -195 132 -217 409 -17 233 -24 287 -31 279z
m67 -605 c31 -47 86 -83 179 -118 l70 -25 -34 -9 c-138 -35 -205 -91 -239
-201 -11 -37 -21 -81 -21 -97 0 -48 -15 -33 -28 29 -11 55 -57 160 -84 193
-28 35 -92 69 -141 75 l-51 7 59 17 c78 21 96 32 138 80 37 44 62 116 73 215
l7 60 23 -94 c13 -52 35 -111 49 -132z"/>
<path d="M4390 4916 c0 -2 41 -27 92 -55 130 -75 253 -157 326 -219 35 -30 67
-51 70 -47 17 17 -227 193 -388 279 -79 43 -100 51 -100 42z"/>
<path d="M2620 4765 c-16 -19 -5 -47 17 -43 11 2 18 12 18 27 0 29 -17 37 -35
16z"/>
<path d="M5421 4704 c-41 -31 -82 -59 -90 -64 -9 -5 -13 -12 -9 -15 7 -7 115
62 173 110 58 47 0 23 -74 -31z"/>
<path d="M7165 4384 c-15 -15 -15 -18 -1 -33 15 -14 17 -14 32 1 17 16 13 48
-5 48 -5 0 -17 -7 -26 -16z"/>
<path d="M2875 4330 c-8 -13 3 -30 20 -30 14 0 27 24 18 34 -10 9 -31 7 -38
-4z"/>
<path d="M4825 4108 c-33 -17 -55 -33 -48 -35 13 -5 108 41 118 57 10 16 -6
11 -70 -22z"/>
<path d="M5300 4111 c0 -6 17 -22 38 -37 20 -16 49 -39 63 -52 15 -13 29 -19
33 -14 7 12 -60 74 -103 97 -17 8 -31 11 -31 6z"/>
<path d="M7018 4018 c-2 -69 -7 -89 -27 -115 -27 -36 -85 -63 -136 -63 -19 0
-35 -4 -35 -9 0 -9 48 -21 86 -21 31 0 90 -53 103 -93 5 -18 13 -76 17 -130 3
-54 8 -96 10 -95 1 2 10 61 18 130 9 70 20 138 25 151 14 36 49 57 96 58 22 0
49 4 60 9 17 6 13 9 -20 15 -72 12 -101 25 -131 56 -26 27 -29 38 -33 110 -2
56 -7 79 -16 79 -9 0 -14 -24 -17 -82z m82 -169 c0 -4 -6 -9 -14 -12 -8 -3
-22 -29 -31 -57 l-17 -52 -16 32 c-8 17 -25 39 -37 48 l-22 17 36 41 36 41 32
-26 c18 -14 33 -29 33 -32z"/>
<path d="M2817 3863 c-13 -12 -7 -53 7 -53 20 0 39 27 32 45 -6 15 -28 20 -39
8z"/>
<path d="M3021 3218 c-47 -23 -93 -79 -112 -135 -18 -56 -7 -169 24 -228 49
-98 129 -163 316 -256 64 -31 141 -73 171 -93 l55 -35 -105 1 c-84 1 -118 -4
-170 -21 -183 -63 -290 -196 -298 -368 -9 -196 87 -307 268 -307 136 0 236
120 167 200 -28 32 -64 26 -73 -12 -9 -35 2 -41 25 -13 l19 24 11 -28 c16 -42
3 -75 -42 -108 -35 -26 -48 -29 -111 -29 -160 1 -231 82 -230 260 0 71 4 94
27 141 34 71 128 161 204 197 53 25 68 27 178 27 165 0 204 -14 289 -106 165
-178 275 -539 276 -903 l0 -120 -31 50 c-132 208 -273 271 -360 160 -30 -38
-32 -102 -4 -122 25 -18 38 -13 49 19 12 34 -1 48 -20 23 -13 -19 -14 -18 -14
11 0 19 10 44 26 62 30 36 75 41 131 14 77 -36 202 -227 211 -323 8 -86 -31
-173 -98 -218 -19 -12 -40 -20 -48 -17 -16 6 -52 -11 -52 -25 0 -15 46 -12 88
6 106 44 141 125 149 339 13 349 -45 656 -167 894 -99 190 -224 300 -504 442
-159 81 -234 135 -278 201 -47 70 -61 117 -56 191 5 76 30 130 76 165 29 22
48 27 106 30 62 3 76 1 106 -20 41 -28 55 -78 22 -78 -11 0 -26 10 -35 23 -20
30 -35 12 -16 -21 19 -35 60 -41 88 -13 27 27 26 42 -1 76 -50 64 -173 85
-257 43z"/>
<path d="M6750 3170 c0 -24 26 -38 42 -22 8 8 8 15 -2 27 -18 21 -40 19 -40
-5z"/>
<path d="M6995 2895 c-53 -19 -115 -85 -115 -123 0 -16 9 -37 19 -46 23 -21
70 -18 85 6 13 21 0 36 -16 20 -18 -18 -45 -14 -51 7 -7 28 13 62 53 88 47 33
77 38 129 24 176 -47 200 -326 44 -518 -52 -64 -136 -124 -300 -214 -165 -91
-185 -104 -260 -167 -182 -153 -353 -527 -393 -858 -17 -137 -4 -199 54 -260
23 -24 50 -44 60 -44 27 0 15 31 -19 50 -35 19 -75 91 -75 135 0 60 99 186
185 236 66 38 117 39 154 1 15 -15 30 -34 33 -42 3 -8 9 -12 13 -7 17 15 -24
78 -60 93 -47 19 -72 18 -130 -10 -51 -24 -148 -115 -173 -161 -20 -40 -24
-25 -12 51 37 231 140 499 216 562 91 75 278 152 369 152 194 0 313 -189 223
-354 -25 -45 -92 -86 -140 -86 -38 0 -97 25 -104 45 -9 24 11 41 30 26 19 -16
32 4 16 24 -20 24 -59 18 -72 -10 -38 -83 111 -142 219 -87 51 27 77 59 99
124 60 181 -93 360 -295 346 -67 -5 -233 -67 -293 -109 -40 -29 -42 -23 -7 27
74 108 179 190 389 304 192 104 284 179 343 281 55 96 76 243 48 342 -19 65
-79 131 -138 151 -56 19 -76 19 -128 1z"/>
<path d="M3639 2724 c-11 -14 -10 -18 5 -29 10 -8 24 -11 32 -8 19 7 18 39 -2
47 -21 8 -20 8 -35 -10z"/>
<path d="M6464 2636 c-8 -21 13 -46 32 -39 20 8 13 47 -9 51 -9 2 -20 -4 -23
-12z"/>
<path d="M5035 2411 c148 -51 236 -83 360 -131 17 -6 26 -7 20 -1 -24 24 -431
170 -515 185 -19 3 42 -21 135 -53z"/>
<path d="M6497 2269 c-22 -13 -22 -36 1 -48 32 -17 57 24 29 47 -8 7 -18 7
-30 1z"/>
</g></svg>