<svg xmlns="http://www.w3.org/2000/svg" viewBox="0 0 440.381643 1023.340244" color="#C8A848"><rect width="440.381643" height="1023.340244" fill="#1A0A24"/><g transform="translate(-275.727930,1031.497354) scale(0.100000,-0.100000)"
fill="currentColor" stroke="none">
<path d="M5148 10165 c-10 -52 -8 -362 2 -395 16 -53 19 9 12 220 -5 141 -10
201 -14 175z"/>
<path d="M5335 9844 c-65 -63 -113 -114 -105 -114 28 0 243 211 229 224 -2 2
-58 -48 -124 -110z"/>
<path d="M4790 9942 c0 -21 243 -226 260 -220 6 2 -41 48 -106 103 -138 118
-154 131 -154 117z"/>
<path d="M4628 9643 c-10 -2 -18 -9 -18 -14 0 -5 82 -9 195 -9 181 0 240 9
164 24 -35 7 -314 6 -341 -1z"/>
<path d="M4057 9633 c-11 -10 -8 -41 4 -49 6 -3 18 1 27 9 13 13 13 19 2 31
-14 17 -23 20 -33 9z"/>
<path d="M5555 9620 c-38 -4 -114 -8 -167 -9 -94 -1 -128 -6 -128 -20 0 -7 57
-5 288 10 103 7 168 15 160 20 -15 10 -50 9 -153 -1z"/>
<path d="M4961 9455 c-105 -69 -178 -128 -163 -133 7 -2 40 18 75 45 34 27 85
64 114 82 52 32 83 61 67 61 -5 0 -47 -25 -93 -55z"/>
<path d="M6087 9503 c-4 -3 -7 -15 -7 -25 0 -22 26 -24 34 -2 10 25 -10 45
-27 27z"/>
<path d="M5290 9488 c0 -17 207 -224 216 -216 3 4 -44 57 -105 118 -61 62
-111 106 -111 98z"/>
<path d="M5166 9452 c-2 -4 -8 -111 -12 -238 -6 -217 -3 -304 14 -304 4 0 8
124 8 275 1 151 0 275 -1 275 -2 0 -6 -4 -9 -8z"/>
<path d="M4242 9347 c3 -25 21 -30 26 -6 2 9 -4 19 -13 23 -13 4 -16 1 -13
-17z"/>
<path d="M3702 9225 c-2 -5 -9 -62 -16 -126 -14 -119 -23 -147 -60 -187 -31
-35 -67 -51 -127 -57 -70 -7 -75 -15 -10 -15 65 0 99 -17 145 -73 43 -52 61
-131 52 -219 -3 -32 -3 -72 1 -90 5 -24 11 8 19 108 13 149 22 180 71 226 22
21 46 30 108 41 l80 14 -62 5 c-141 13 -182 70 -193 268 -4 63 -7 111 -8 105z
m58 -344 c18 -17 39 -31 48 -32 11 0 8 -5 -9 -12 -28 -13 -67 -56 -89 -96
l-13 -25 -17 35 c-21 39 -43 61 -85 83 -18 9 -23 16 -13 16 20 0 108 96 108
119 1 9 10 0 20 -20 11 -20 33 -51 50 -68z"/>
<path d="M6470 8986 c0 -106 -15 -145 -71 -185 -33 -25 -52 -31 -91 -31 -28 0
-48 -5 -48 -11 0 -7 14 -8 39 -4 48 8 89 -11 128 -60 31 -38 65 -185 56 -241
-3 -18 0 -34 6 -38 8 -5 11 27 11 111 0 95 4 125 18 153 23 44 90 80 152 81
42 2 40 2 -17 9 -109 12 -134 43 -157 195 -8 54 -17 100 -20 103 -3 3 -6 -34
-6 -82z m75 -202 l26 -17 -35 -34 c-19 -19 -38 -43 -41 -54 -9 -28 -19 -24
-38 16 -9 19 -30 41 -48 50 l-31 17 33 16 c19 9 43 31 54 48 l20 31 17 -28 c9
-15 29 -36 43 -45z"/>
<path d="M5832 9043 c2 -10 8 -18 13 -18 5 0 11 8 13 18 2 10 -3 17 -13 17
-10 0 -15 -7 -13 -17z"/>
<path d="M5079 8783 c-42 -38 -85 -113 -113 -198 -41 -128 -47 -190 -56 -645
-9 -460 -16 -597 -50 -931 -17 -161 -20 -256 -18 -530 3 -294 1 -342 -15 -398
-29 -105 -48 -117 -65 -38 -20 87 -31 237 -42 542 -24 682 -6 1150 60 1590 26
168 -33 293 -156 332 -75 23 -112 13 -169 -48 -59 -63 -95 -144 -128 -284 -36
-152 -44 -215 -62 -485 -9 -129 -32 -426 -51 -660 -19 -234 -41 -546 -49 -695
-9 -156 -24 -316 -35 -380 -11 -60 -43 -247 -70 -415 -81 -492 -119 -680 -138
-680 -13 0 -70 94 -98 160 -34 83 -189 533 -214 625 -11 39 -25 126 -31 195
-24 277 -69 445 -172 643 -108 210 -233 317 -377 325 -65 4 -67 4 -98 -32 -44
-50 -42 -85 12 -253 51 -159 68 -261 96 -573 21 -237 22 -243 75 -495 40 -188
83 -479 120 -800 46 -404 54 -436 195 -790 181 -454 259 -613 443 -908 221
-354 279 -502 307 -786 5 -57 10 -340 11 -630 0 -289 4 -560 8 -601 13 -122
81 -272 165 -364 20 -21 36 -40 36 -42 0 -8 -158 90 -200 124 -72 58 -257 251
-315 329 -111 147 -139 237 -102 326 12 28 22 37 39 37 44 0 64 -44 33 -70
-20 -17 -19 -30 3 -30 46 0 58 71 19 108 -58 55 -137 -2 -137 -99 0 -73 35
-168 89 -245 68 -97 325 -370 399 -424 l61 -45 -102 -6 c-105 -5 -138 -16
-203 -65 -41 -30 -59 -78 -38 -99 17 -17 19 -17 179 29 100 28 123 31 255 31
138 0 148 -1 205 -28 107 -50 162 -88 191 -134 31 -50 56 -45 30 6 -22 42
-113 112 -211 163 -205 106 -277 185 -347 378 -22 63 -23 72 -18 305 10 468 6
985 -9 1105 -30 261 -91 404 -330 790 -134 214 -285 524 -404 825 -97 246
-139 368 -157 465 -6 30 -26 190 -46 355 -50 439 -74 581 -158 970 -8 39 -24
176 -36 305 -26 302 -51 450 -100 596 -63 185 -52 231 52 222 65 -5 114 -28
173 -80 51 -45 139 -182 201 -313 62 -132 75 -196 129 -605 12 -94 33 -169
115 -418 55 -167 113 -332 130 -367 16 -34 30 -67 30 -72 0 -22 80 -100 179
-176 127 -97 304 -271 387 -382 251 -331 380 -612 448 -974 27 -141 35 -108
10 40 -39 227 -97 394 -206 594 -175 320 -361 557 -571 728 -55 45 -104 84
-108 87 -5 3 3 28 16 55 31 63 49 151 136 670 89 530 96 582 108 850 6 121 20
326 31 455 33 403 49 607 65 853 27 414 81 632 182 733 33 34 39 36 84 32 58
-6 108 -41 135 -95 25 -51 24 -157 -3 -348 -12 -82 -27 -220 -33 -305 -6 -85
-15 -218 -20 -295 -5 -77 -7 -210 -5 -295 3 -85 10 -308 15 -495 13 -438 26
-578 64 -666 10 -23 -88 -55 -214 -70 -52 -6 -97 -13 -99 -15 -16 -15 238 6
315 27 38 10 46 8 96 -20 96 -55 346 -100 394 -73 16 9 10 11 -32 12 -72 0
-190 33 -290 79 l-85 40 25 43 c48 83 59 195 52 528 -6 254 -4 324 13 505 31
319 41 512 51 955 10 441 18 515 75 650 34 82 59 116 95 135 61 32 137 -28
173 -136 27 -79 30 -148 32 -624 1 -363 6 -521 20 -695 16 -186 19 -307 17
-699 -2 -536 4 -619 58 -738 53 -115 102 -152 384 -282 98 -46 125 -48 49 -5
-197 112 -353 217 -353 237 0 6 4 28 10 47 9 35 33 289 70 740 32 387 26 634
-26 1170 -27 271 -7 502 46 530 31 16 75 11 111 -13 104 -70 147 -264 260
-1172 41 -325 48 -623 24 -975 -25 -366 -11 -562 52 -703 32 -70 91 -126 210
-198 46 -28 105 -67 131 -86 l47 -34 -45 43 c-25 24 -90 79 -143 122 -54 43
-107 92 -119 108 l-20 29 36 182 c33 167 52 281 88 522 21 146 17 462 -10 635
-32 217 -35 257 -22 349 17 122 51 201 88 201 25 0 70 -59 102 -136 43 -104
111 -375 167 -672 47 -247 47 -247 47 -457 -1 -115 -8 -293 -17 -395 -9 -102
-21 -297 -27 -435 -13 -302 -47 -844 -61 -975 -56 -523 -195 -1052 -402 -1530
-155 -360 -169 -422 -171 -800 0 -140 3 -428 8 -640 9 -433 7 -459 -58 -588
-49 -98 -119 -169 -259 -263 -67 -45 -135 -94 -150 -108 -38 -35 -62 -80 -49
-93 7 -7 17 2 30 28 11 22 28 47 38 56 39 34 210 109 278 120 91 15 242 -2
366 -42 107 -34 142 -37 161 -14 29 36 -55 121 -144 145 -20 5 -72 11 -115 12
l-78 2 75 69 c42 38 120 115 174 170 195 201 261 300 288 432 10 50 9 65 -4
96 -31 74 -95 86 -140 26 -17 -23 -19 -31 -9 -53 7 -14 22 -29 34 -34 30 -11
35 -5 15 17 -21 23 -22 56 -2 72 42 35 89 -33 81 -116 -9 -103 -96 -231 -283
-415 -137 -136 -217 -195 -378 -284 l-70 -39 53 58 c104 115 164 249 183 416
5 41 8 318 7 615 -4 712 1 745 157 1110 163 382 277 754 335 1094 12 68 27
151 35 185 36 159 65 467 85 901 17 383 39 753 55 930 21 241 19 373 -11 564
-53 343 -129 670 -195 843 -39 100 -107 178 -156 178 -59 0 -113 -100 -134
-249 -12 -83 -8 -149 22 -346 26 -174 35 -412 20 -545 -29 -256 -107 -704
-121 -695 -32 20 -45 413 -21 650 22 219 7 772 -24 910 -3 11 -23 166 -46 345
-60 481 -121 754 -188 847 -75 103 -212 109 -259 12 -49 -102 -52 -236 -16
-644 45 -510 43 -758 -12 -1345 -9 -91 -21 -223 -28 -295 l-12 -130 -17 50
c-31 94 -37 190 -37 670 0 375 -4 545 -20 775 -15 219 -20 379 -18 620 1 179
1 362 0 407 -5 257 -89 413 -221 413 -33 0 -49 -7 -82 -37z m-656 -8297 c31
-10 57 -18 57 -19 0 -1 -53 -3 -118 -3 -98 -1 -137 -7 -237 -34 -66 -17 -130
-34 -142 -37 -54 -12 -5 56 65 91 70 35 260 36 375 2z m1717 9 c66 -18 134
-63 138 -93 4 -27 0 -27 -95 2 -144 45 -167 50 -293 55 l-125 6 85 22 c100 26
212 29 290 8z"/>
<path d="M6974 8325 c-7 -18 3 -35 21 -35 15 0 28 27 19 41 -8 14 -34 11 -40
-6z"/>
<path d="M3217 8193 c-4 -3 -7 -17 -7 -30 0 -35 34 -26 38 10 3 26 -14 37 -31
20z"/>
<path d="M3486 7945 c-4 -10 1 -15 14 -15 11 0 20 7 20 15 0 8 -6 15 -14 15
-8 0 -16 -7 -20 -15z"/>
<path d="M6643 7854 c-4 -11 1 -22 12 -31 16 -11 20 -11 28 3 5 8 6 22 3 30
-7 19 -35 18 -43 -2z"/>
<path d="M3380 7546 c0 -14 5 -28 11 -31 14 -9 18 -4 21 25 2 16 -3 25 -14 28
-13 3 -18 -3 -18 -22z"/>
<path d="M4300 5295 c0 -3 42 -26 93 -51 136 -68 215 -116 307 -186 119 -90
173 -128 185 -128 5 0 -2 8 -15 17 -14 9 -54 42 -90 72 -96 80 -230 166 -358
227 -113 54 -122 58 -122 49z"/>
<path d="M5118 5111 c2 -93 -1 -193 -7 -223 -26 -144 -84 -230 -192 -288 -51
-27 -78 -34 -167 -43 -59 -5 -111 -14 -117 -20 -6 -6 9 -7 45 -3 89 9 205 -8
249 -37 43 -29 135 -157 157 -219 16 -47 29 -152 44 -352 5 -77 14 -144 20
-150 6 -6 10 -6 10 -1 0 6 2 116 4 246 3 229 4 237 29 292 28 62 105 150 150
174 38 19 258 62 321 63 27 0 46 3 42 7 -3 4 -78 7 -165 7 l-159 1 -44 30
c-50 36 -117 139 -141 217 -9 29 -23 121 -32 203 -16 159 -34 265 -44 265 -3
0 -5 -76 -3 -169z m70 -386 c46 -84 98 -149 135 -168 l38 -20 -38 -17 c-21 -9
-51 -30 -67 -46 -44 -44 -105 -142 -112 -181 l-6 -34 -34 68 c-44 90 -119 181
-171 208 l-42 21 47 16 c92 33 148 98 187 218 l18 54 12 -39 c6 -22 21 -58 33
-80z"/>
<path d="M5701 4803 c29 -35 201 -138 365 -219 93 -46 177 -84 185 -84 7 0
-58 38 -146 83 -88 46 -215 118 -281 160 -124 79 -147 90 -123 60z"/>
<path d="M4925 2491 c-25 -6 -18 -9 40 -14 144 -14 221 -30 334 -69 275 -95
326 -107 395 -94 61 12 40 21 -47 22 -63 1 -99 7 -157 28 -173 63 -299 104
-350 114 -79 15 -180 21 -215 13z"/>
<path d="M3401 2241 c-14 -25 -14 -88 -1 -96 6 -4 10 9 10 33 0 56 22 71 50
35 20 -25 22 -37 18 -113 -4 -66 -13 -109 -44 -195 -38 -108 -39 -113 -37
-235 3 -230 78 -438 209 -578 36 -40 70 -72 76 -72 6 0 -5 17 -24 38 -120 133
-212 336 -243 538 -10 64 10 178 56 320 37 116 40 137 37 207 -4 58 -10 85
-25 105 -25 34 -68 41 -82 13z"/>
<path d="M6787 2243 c-9 -2 -26 -22 -37 -43 -29 -58 -26 -138 11 -256 72 -233
80 -344 36 -506 -39 -143 -96 -250 -199 -370 -63 -74 -62 -85 3 -23 106 104
180 232 220 380 17 63 22 110 23 225 l1 145 -42 121 c-48 133 -56 220 -28 274
24 46 44 36 63 -30 l10 -35 1 47 c1 30 -5 52 -15 62 -16 17 -17 17 -47 9z"/>
<path d="M3592 1775 c-49 -21 -75 -87 -80 -201 -6 -122 11 -176 105 -344 129
-229 136 -240 208 -318 65 -70 67 -73 25 -43 -252 184 -373 258 -466 281 -72
19 -79 19 -96 3 -10 -9 -18 -26 -18 -37 0 -29 45 -93 71 -101 30 -10 35 2 12
28 -23 25 -43 60 -43 76 0 17 55 13 115 -8 62 -22 271 -160 551 -363 44 -32
84 -58 91 -58 6 0 -28 37 -75 81 -183 171 -219 219 -335 440 -87 167 -127 276
-127 346 0 101 50 203 100 203 39 0 39 -56 0 -98 l-21 -22 21 0 c35 0 60 35
60 85 0 40 -3 47 -26 55 -32 12 -32 12 -72 -5z"/>
<path d="M6555 1753 c-32 -32 3 -123 48 -123 19 0 19 1 2 20 -10 11 -18 36
-19 57 -1 35 1 38 23 35 58 -6 97 -87 95 -197 -1 -91 -32 -174 -141 -382 -96
-183 -149 -250 -301 -388 -55 -49 -98 -92 -96 -94 4 -5 277 179 434 292 116
83 223 138 284 144 41 5 46 3 46 -14 0 -11 -16 -41 -36 -67 -38 -50 -39 -65
-5 -46 32 17 81 89 81 120 0 40 -17 50 -70 40 -112 -21 -181 -60 -455 -255
-49 -35 -93 -64 -96 -64 -4 -1 23 29 60 67 37 37 86 99 108 137 199 345 205
358 207 495 1 110 -13 166 -53 209 -33 36 -88 42 -116 14z"/>
<path d="M3635 781 c-96 -23 -135 -91 -104 -180 6 -17 19 -36 29 -41 37 -20
90 19 90 65 0 12 -8 7 -26 -14 -30 -36 -49 -39 -64 -12 -18 35 -12 79 18 111
22 25 40 33 92 42 96 16 194 -11 398 -113 90 -45 166 -79 169 -76 6 6 -10 16
-142 89 -131 73 -203 103 -297 122 -82 17 -115 18 -163 7z"/>
<path d="M6464 769 c-104 -17 -333 -118 -406 -179 -42 -36 1 -21 115 39 148
79 251 113 347 114 45 1 88 -4 108 -12 49 -21 75 -85 56 -135 -13 -34 -70 -11
-87 34 -3 9 -6 5 -6 -11 -1 -30 36 -69 66 -69 31 0 55 35 61 89 4 45 1 52 -29
85 -48 53 -109 65 -225 45z"/>
</g></svg>