<svg xmlns="http://www.w3.org/2000/svg" viewBox="0 0 522.471429 909.893377" color="#C8A848"><rect width="522.471429" height="909.893377" fill="#1A0A24"/><g transform="translate(-244.912395,999.462798) scale(0.100000,-0.100000)"
fill="currentColor" stroke="none">
<path d="M5090 9846 c0 -2 7 -33 16 -68 22 -85 14 -216 -20 -323 -14 -44 -79
-186 -143 -315 -137 -271 -170 -364 -179 -500 -8 -121 10 -222 78 -430 48
-145 51 -163 56 -280 5 -154 -10 -243 -74 -430 -28 -82 -49 -162 -53 -204 -3
-38 -10 -71 -16 -72 -12 -4 -141 212 -188 316 -67 146 -93 292 -84 469 6 122
21 191 82 386 53 171 59 289 20 412 -40 129 -108 238 -166 268 -40 21 -41 20
-23 -22 43 -98 56 -245 33 -355 -18 -82 -68 -192 -151 -328 -87 -144 -119
-205 -143 -275 -39 -111 -56 -212 -62 -360 -7 -176 8 -269 63 -405 63 -155
146 -255 359 -430 116 -94 255 -243 255 -271 0 -5 -127 -9 -297 -9 -303 -1
-951 -16 -1033 -25 -120 -13 -140 -25 -140 -78 0 -42 24 -75 65 -93 44 -18 92
-60 110 -95 51 -98 113 -320 195 -698 42 -193 111 -380 206 -561 86 -162 160
-266 269 -376 107 -108 210 -182 340 -244 78 -37 261 -100 290 -100 26 0 25
-19 -2 -32 -36 -17 -40 -61 -6 -66 12 -2 25 -12 28 -22 8 -25 62 -70 84 -70
16 0 19 -15 25 -122 3 -68 7 -132 9 -142 1 -15 -6 -21 -31 -27 -49 -10 -56
-21 -43 -62 7 -20 19 -41 27 -48 13 -10 12 -14 -2 -30 -9 -10 -39 -33 -65 -50
-36 -23 -55 -45 -75 -85 -24 -49 -26 -63 -22 -134 6 -102 47 -189 125 -266 51
-50 55 -57 49 -88 -5 -26 -12 -36 -29 -38 -17 -2 -24 -13 -31 -45 -11 -52 -4
-70 31 -84 63 -24 73 -44 73 -144 0 -144 -41 -355 -101 -517 -66 -181 -188
-366 -337 -511 -111 -109 -130 -122 -205 -147 -56 -19 -68 -27 -73 -49 -3 -14
-8 -33 -10 -41 -2 -8 -35 -28 -74 -45 -38 -16 -88 -47 -110 -67 -22 -21 -46
-38 -52 -38 -6 0 -20 -8 -30 -17 -18 -16 -21 -14 -66 37 -71 81 -100 129 -122
201 -24 80 -25 130 -4 192 17 52 82 130 125 152 59 31 119 7 119 -47 0 -29 -2
-30 -30 -25 -33 7 -37 0 -17 -28 32 -43 97 12 83 70 -12 48 -49 75 -103 75
-90 0 -176 -81 -214 -200 -24 -79 -19 -132 21 -231 20 -48 24 -66 14 -62 -8 3
-14 8 -14 12 0 4 -27 37 -60 74 -33 38 -60 72 -60 77 0 5 -11 22 -25 38 -45
54 -104 177 -125 262 -31 125 -39 378 -15 486 41 187 141 304 259 304 60 0
123 -72 84 -97 -7 -4 -21 -6 -30 -5 -11 2 -18 -3 -18 -12 0 -9 4 -16 9 -16 5
0 16 -3 24 -6 23 -8 57 31 57 67 0 40 -45 85 -95 95 -55 10 -133 -18 -189 -67
-59 -52 -111 -153 -133 -257 -20 -98 -13 -356 12 -445 26 -93 13 -85 -27 17
-65 162 -81 250 -93 501 -11 226 33 428 145 660 65 136 113 192 173 202 40 6
67 -8 67 -36 0 -30 -21 -43 -42 -24 -15 14 -18 14 -18 1 0 -8 9 -23 20 -33 51
-46 108 49 60 100 -34 36 -72 40 -125 15 -55 -27 -95 -81 -165 -220 -108 -215
-138 -352 -141 -645 -1 -110 1 -222 4 -250 6 -41 1 -31 -26 51 -60 179 -146
299 -239 330 -56 18 -149 14 -196 -9 -58 -27 -64 -106 -11 -136 55 -31 116 17
84 65 -16 25 -35 28 -43 6 -2 -7 3 -12 12 -12 24 0 19 -27 -6 -33 -29 -8 -50
11 -46 42 7 60 135 84 223 41 81 -39 160 -170 236 -391 32 -92 127 -316 177
-414 13 -27 39 -66 56 -87 79 -93 61 -94 -28 -1 -172 180 -283 243 -429 243
-69 0 -89 -4 -109 -20 -99 -77 -64 -276 48 -273 44 1 66 19 62 51 -4 31 -28
42 -28 13 0 -17 -6 -21 -29 -21 -57 0 -89 81 -61 154 29 78 158 87 294 21 68
-33 101 -60 249 -204 357 -347 337 -326 287 -296 -156 92 -372 162 -470 151
-87 -10 -142 -33 -199 -83 -88 -77 -104 -154 -53 -254 33 -67 79 -99 138 -99
77 0 137 79 101 133 -22 34 -63 53 -81 38 -14 -11 -13 -16 1 -37 8 -13 24 -24
34 -24 25 0 24 -25 -1 -50 -28 -28 -81 -26 -118 5 -34 29 -67 122 -57 162 9
36 39 78 76 104 37 26 92 34 234 34 120 -1 163 -11 295 -73 41 -19 104 -47
140 -61 86 -35 90 -55 16 -71 -31 -6 -58 -15 -61 -20 -3 -5 -22 -14 -43 -21
-20 -7 -49 -21 -64 -32 -25 -19 -28 -27 -28 -82 0 -106 -171 -95 1514 -95
1094 0 1483 3 1499 11 31 17 37 28 37 80 0 35 -5 50 -22 66 -46 40 -119 82
-155 89 -21 4 -46 11 -57 16 -16 9 -17 12 -4 25 15 14 101 55 253 119 129 54
262 70 403 48 37 -6 105 -62 128 -105 17 -33 18 -102 3 -132 -6 -12 -25 -37
-42 -55 -24 -25 -39 -32 -67 -32 -39 0 -80 32 -80 63 0 20 16 23 23 5 5 -14
46 29 47 48 1 33 -80 15 -94 -21 -14 -38 -6 -77 23 -106 25 -24 38 -29 78 -29
42 0 56 5 92 37 81 69 104 176 54 250 -67 98 -164 146 -293 146 -91 -1 -249
-50 -380 -119 l-85 -45 85 83 c412 401 432 419 539 459 44 16 70 20 121 16 58
-5 67 -8 97 -41 36 -38 42 -80 22 -133 -13 -34 -26 -43 -61 -43 -22 0 -28 5
-28 21 0 12 -5 19 -12 17 -7 -3 -13 -18 -13 -33 0 -21 7 -33 28 -45 25 -14 30
-13 64 5 94 52 99 211 8 271 -20 13 -44 16 -123 12 -85 -3 -105 -8 -162 -36
-94 -46 -181 -118 -297 -246 -79 -87 -81 -74 -4 21 64 80 135 229 236 498 107
284 180 402 263 425 95 26 204 0 210 -51 3 -30 -18 -52 -42 -43 -18 7 -21 25
-5 41 14 14 -3 25 -25 17 -22 -8 -20 -57 2 -77 65 -59 147 36 92 105 -37 47
-187 60 -261 22 -42 -21 -135 -128 -165 -190 -15 -31 -36 -84 -46 -118 l-18
-61 7 75 c11 107 6 263 -11 345 -8 39 -17 93 -21 120 -14 110 -58 237 -151
430 -43 89 -127 165 -181 165 -28 0 -80 -36 -88 -60 -17 -55 50 -117 81 -75 7
10 10 23 7 28 -4 6 -9 3 -13 -7 -6 -17 -7 -17 -23 -2 -26 27 -22 64 8 72 64
16 124 -34 193 -159 83 -151 117 -261 152 -486 40 -264 15 -492 -75 -695 -25
-56 -46 -75 -26 -24 5 14 15 81 21 148 11 105 10 137 -5 233 -20 130 -52 207
-120 284 -45 51 -82 70 -170 88 -42 8 -117 -31 -129 -67 -16 -45 3 -82 42 -86
35 -4 45 16 12 25 -27 7 -26 54 1 79 31 28 105 24 160 -8 127 -74 199 -260
185 -477 -8 -120 -38 -288 -68 -376 -19 -56 -106 -210 -114 -202 -2 2 3 38 11
81 22 116 20 289 -5 361 -38 112 -108 199 -186 231 -70 29 -91 7 -21 -24 86
-39 151 -114 186 -220 25 -74 28 -221 7 -349 -8 -48 -9 -83 -4 -83 16 0 -4
-44 -29 -64 -14 -10 -39 -38 -55 -60 -32 -43 -32 -36 2 54 16 45 19 68 14 125
-8 86 -19 115 -73 183 -54 68 -94 92 -151 92 -55 0 -87 -20 -107 -68 -13 -32
-13 -37 5 -61 22 -30 60 -34 76 -9 13 21 0 36 -16 20 -19 -19 -28 -14 -28 17
0 32 30 61 64 61 31 0 98 -44 132 -87 100 -124 79 -290 -56 -452 -28 -34 -56
-61 -63 -60 -7 0 -32 16 -57 35 -89 68 -149 106 -186 119 -29 10 -38 18 -40
39 -3 28 -20 56 -35 56 -4 0 -32 9 -62 20 -106 40 -298 239 -426 442 -115 183
-205 496 -214 745 -2 63 1 74 22 97 14 14 39 31 57 38 39 14 45 25 37 73 -4
26 -13 40 -34 51 -16 8 -29 22 -29 32 0 10 -5 23 -10 28 -8 8 9 31 52 76 79
81 109 149 116 264 3 63 1 89 -13 117 -16 35 -86 106 -135 139 l-25 16 28 29
c46 49 32 88 -36 102 -28 6 -32 10 -29 37 2 16 6 80 9 142 4 111 4 112 29 112
14 0 41 16 66 40 24 22 51 43 61 46 33 10 21 36 -38 78 -18 13 -12 16 70 41
196 58 362 141 487 242 135 109 237 229 318 373 151 269 210 431 305 845 14
61 32 139 41 175 8 36 21 95 29 131 22 101 70 210 105 240 17 14 48 31 70 38
103 31 109 159 8 175 -79 13 -471 26 -943 32 -280 4 -512 8 -513 10 -2 1 9 27
24 56 37 68 158 191 254 255 200 135 340 356 375 593 41 265 -3 426 -198 730
-105 165 -99 154 -134 240 -41 100 -57 195 -50 289 6 71 38 191 59 218 5 6 13
25 18 42 12 42 -4 41 -62 -5 -73 -56 -151 -191 -188 -326 -23 -82 -28 -283 -9
-353 6 -22 41 -101 79 -176 83 -166 97 -232 81 -367 -11 -92 -53 -227 -98
-316 -14 -28 -57 -100 -96 -161 -150 -233 -210 -384 -241 -608 -7 -53 -15 -99
-18 -102 -2 -2 -15 -6 -29 -7 l-24 -3 2 121 c1 80 7 142 19 185 24 89 94 252
169 394 108 206 148 376 127 542 -14 122 -47 213 -131 368 -186 342 -210 501
-118 776 65 192 74 248 58 362 -25 180 -96 363 -175 455 -17 20 -36 29 -36 18z
m89 -195 c11 -21 34 -85 52 -142 26 -87 31 -120 31 -204 0 -94 -3 -109 -50
-250 -110 -325 -95 -438 108 -830 114 -221 134 -286 133 -430 -1 -159 -36
-274 -149 -484 -118 -220 -163 -369 -173 -566 -6 -115 -7 -120 -28 -123 -27
-4 -35 13 -51 108 -17 100 -21 212 -12 345 8 109 17 163 66 375 53 233 66 313
71 447 8 195 -9 299 -88 535 -83 250 -71 415 49 669 27 57 55 121 62 142 15
48 9 162 -9 179 -11 11 -13 9 -7 -12 26 -103 18 -142 -64 -313 -115 -239 -128
-432 -45 -682 38 -114 75 -273 86 -371 17 -141 2 -255 -85 -634 -74 -325 -82
-508 -30 -758 7 -33 6 -33 -27 -30 l-34 3 -17 85 c-10 47 -43 152 -74 235 -31
82 -60 174 -65 205 -25 153 -25 157 34 325 45 127 63 211 78 355 14 148 9 187
-50 374 -28 85 -60 204 -72 263 -20 98 -21 116 -11 201 17 134 80 286 235 572
72 135 110 257 111 362 1 49 2 88 3 88 2 0 11 -17 22 -39z m506 -738 c-9 -26
-19 -88 -22 -138 -11 -176 33 -299 191 -545 48 -74 103 -166 122 -205 72 -148
100 -344 70 -494 -49 -243 -165 -418 -381 -576 -115 -84 -194 -168 -238 -252
-42 -80 -49 -87 -77 -78 -31 10 -25 41 30 150 60 121 108 186 243 330 249 265
309 387 311 630 1 141 -21 227 -83 322 -40 60 -156 181 -166 171 -3 -3 28 -41
69 -86 79 -86 94 -109 125 -194 46 -126 50 -224 14 -383 -30 -134 -94 -242
-228 -385 -90 -95 -171 -191 -217 -255 -36 -51 -130 -232 -140 -273 -4 -14
-14 -22 -27 -22 -24 0 -25 2 -10 72 60 301 106 418 245 628 124 186 123 184
150 257 61 163 74 362 30 489 -13 39 -36 91 -52 115 -64 102 -86 168 -96 288
-8 102 -6 123 13 200 21 85 56 166 107 248 15 23 28 40 30 38 2 -2 -4 -25 -13
-52z m-1146 -109 c42 -134 36 -229 -28 -435 -50 -160 -71 -286 -71 -423 0
-137 12 -214 52 -335 32 -96 140 -319 202 -415 108 -169 246 -485 246 -564 0
-7 -16 -12 -40 -12 -28 0 -40 4 -40 14 0 28 -90 193 -157 287 -37 53 -113 145
-168 204 -133 143 -167 191 -225 310 -96 198 -104 362 -29 589 17 50 33 98 35
106 4 11 1 10 -9 -3 -8 -9 -26 -52 -41 -95 -15 -42 -31 -90 -37 -107 -6 -16
-13 -79 -16 -140 -7 -144 11 -225 80 -369 57 -118 92 -166 248 -338 108 -119
212 -269 259 -371 16 -37 30 -71 30 -77 0 -23 -19 -7 -55 48 -55 82 -144 172
-266 268 -228 179 -342 342 -385 551 -13 61 -15 111 -11 233 9 250 56 392 210
642 131 212 162 297 162 445 0 100 0 101 18 75 9 -15 26 -54 36 -88z m2011
-2244 c284 -13 337 -18 345 -38 9 -25 -4 -50 -33 -57 -31 -8 -3414 -7 -3452 1
-47 10 -80 26 -80 39 0 26 32 36 147 46 280 25 2579 32 3073 9z m15 -146 c110
-3 201 -7 204 -9 2 -2 -6 -16 -18 -32 l-22 -27 -215 3 c-170 2 -214 0 -214
-10 0 -10 -3 -10 -12 -1 -15 15 -188 17 -188 2 0 -5 30 -10 68 -11 37 0 114
-2 172 -3 58 -2 166 -4 242 -5 134 -1 136 -1 131 -22 -6 -22 -8 -22 -205 -16
-121 4 -198 2 -198 -3 0 -6 10 -9 23 -9 33 1 243 -11 306 -17 l53 -6 -5 -36
c-4 -19 -10 -39 -14 -43 -5 -5 -179 -4 -388 1 -209 5 -905 6 -1547 3 l-1166
-6 -16 38 c-9 21 -15 39 -14 41 9 8 236 14 527 14 184 0 332 2 330 5 -3 2
-196 7 -430 11 -233 3 -430 7 -436 9 -7 3 -13 12 -13 22 0 17 16 18 225 17
154 0 231 3 241 11 12 8 -44 12 -232 13 l-247 2 -28 32 -27 33 222 6 c266 7
2608 1 2891 -7z m-317 -290 c380 -6 402 -7 402 -25 0 -10 -4 -21 -10 -24 -5
-3 -10 -20 -10 -37 0 -17 -3 -28 -7 -24 -8 8 -9 13 -12 41 -2 27 -30 4 -37
-31 -8 -45 -18 -43 -30 8 -12 54 -29 58 -45 11 l-13 -38 -11 45 -11 45 -18
-52 c-18 -55 -36 -69 -36 -30 -1 12 -7 35 -14 52 l-12 30 -26 -55 -25 -55 -7
53 c-6 49 -26 74 -26 33 0 -10 -7 -36 -17 -57 l-16 -39 -9 40 c-17 79 -24 77
-53 -16 -7 -21 -6 -22 9 -10 9 7 16 20 16 27 0 8 5 14 10 14 6 0 10 -12 10
-27 0 -16 4 -34 9 -42 7 -11 12 -9 22 10 6 13 18 29 25 36 10 11 13 9 16 -9 4
-28 31 -30 36 -4 4 17 32 55 32 43 0 -3 3 -14 6 -24 5 -15 4 -16 -6 -3 -9 13
-11 12 -7 -5 2 -11 9 -19 15 -18 7 2 12 -2 12 -7 0 -23 22 -7 38 28 l17 37 3
-42 c4 -56 19 -55 34 2 7 25 16 45 20 45 4 0 11 -18 14 -40 6 -38 19 -58 31
-47 2 3 11 23 18 44 l13 38 7 -56 c12 -100 23 -94 -165 -91 -91 2 -759 4
-1485 5 l-1320 2 3 33 c1 19 11 50 21 69 l18 36 12 -49 c12 -46 13 -48 27 -29
8 11 17 30 21 43 9 36 23 25 23 -17 0 -59 15 -58 44 4 14 30 28 55 31 55 3 0
10 -10 15 -22 8 -21 9 -21 9 -3 0 11 -6 31 -13 45 -14 24 -14 24 -42 -35 l-28
-60 -9 58 c-11 66 -22 73 -32 19 -10 -63 -21 -69 -37 -21 -15 45 -38 64 -38
32 0 -11 -6 -28 -14 -38 -12 -17 -14 -15 -20 19 -5 26 -14 40 -27 43 -10 3
-19 13 -19 22 0 13 7 17 28 14 15 -2 320 1 677 5 648 9 1200 8 1963 -4z m342
-289 c0 -28 -22 -115 -29 -115 -12 0 -34 47 -27 58 8 13 -20 42 -39 42 -22 0
-34 -31 -22 -57 5 -12 14 -20 18 -17 16 9 9 -17 -13 -57 -12 -22 -26 -39 -31
-39 -5 0 -29 -20 -53 -45 -42 -42 -49 -57 -45 -97 1 -10 -3 -18 -8 -18 -6 0
-11 7 -11 16 0 9 -7 14 -17 12 -11 -2 -18 -12 -18 -27 0 -13 -5 -26 -11 -28
-15 -5 -28 28 -15 36 6 4 -28 7 -74 7 -60 0 -86 -4 -89 -13 -7 -18 -26 -16
-26 2 0 8 7 15 15 15 8 0 15 7 15 15 0 8 -8 15 -17 15 -9 0 -25 7 -35 16 -14
14 -20 14 -33 4 -20 -17 -19 -37 3 -44 9 -3 25 -19 34 -36 20 -35 53 -40 63
-9 l7 21 15 -21 c16 -24 58 -28 67 -6 8 21 23 19 29 -5 4 -15 14 -20 36 -20
17 0 31 4 31 9 0 6 12 16 27 23 15 7 29 22 31 33 8 53 14 67 37 77 14 6 25 17
25 24 0 12 38 40 45 32 4 -5 -46 -149 -92 -263 -143 -351 -271 -533 -501 -708
-168 -127 -289 -189 -486 -248 -102 -30 -139 -47 -76 -34 94 19 242 72 348
125 273 137 502 364 624 620 75 158 163 383 194 495 15 55 29 102 31 104 2 3
11 -3 20 -12 15 -15 16 -23 5 -77 -36 -174 -145 -447 -243 -610 -100 -165
-123 -195 -223 -293 -110 -108 -228 -187 -380 -256 -160 -72 -426 -136 -426
-102 0 7 -4 10 -9 7 -4 -3 -42 -6 -83 -7 -65 -1 -80 2 -118 26 -23 15 -53 28
-65 29 -33 4 -223 107 -336 182 -113 75 -266 216 -347 319 -68 86 -78 97 -62
65 50 -96 235 -282 388 -387 88 -61 228 -136 392 -210 l45 -20 -110 -1 c-60
-1 -135 3 -165 9 -215 42 -450 160 -612 308 -71 65 -193 225 -257 337 -95 165
-218 489 -260 685 -11 53 -23 103 -27 112 -6 16 97 17 1470 17 1283 0 1476 -2
1476 -15z m-1200 -1523 c31 -5 46 -12 48 -24 3 -17 -18 -18 -327 -18 -183 0
-331 4 -331 9 0 23 39 36 124 43 104 7 419 1 486 -10z m-37 -68 c41 -6 45 -9
36 -25 -9 -18 -26 -19 -272 -19 -191 0 -266 3 -275 12 -17 17 -15 26 6 31 27
7 454 8 505 1z m-387 -129 c1 -33 4 -102 8 -153 l7 -94 -23 4 c-23 3 -23 5
-26 156 -2 143 -1 153 15 150 15 -3 18 -14 19 -63z m74 -12 c0 -90 10 -92 15
-4 2 34 7 66 10 71 3 6 47 10 96 10 l90 0 -6 -54 c-4 -30 -8 -100 -8 -155 l-1
-101 -123 0 -123 0 0 139 c0 77 -3 146 -6 155 -5 13 1 16 25 16 l31 0 0 -77z
m252 -78 c-3 -150 -4 -155 -24 -155 -21 0 -21 3 -15 138 5 141 11 172 31 172
8 0 10 -44 8 -155z m76 -194 c10 -6 7 -15 -13 -39 l-27 -32 -209 0 c-210 0
-210 0 -234 25 -29 29 -31 42 -7 48 31 8 477 7 490 -2z m-15 -125 c9 -7 17
-16 17 -20 0 -3 -115 -6 -255 -6 -140 0 -255 4 -255 8 0 28 30 32 250 32 171
-1 229 -4 243 -14z m-426 -83 c-19 -32 -22 -52 -21 -133 0 -83 4 -105 32 -177
29 -72 62 -123 62 -95 0 5 -7 15 -15 22 -8 7 -15 20 -15 29 0 9 9 2 21 -18 11
-18 18 -36 15 -39 -3 -3 -1 -11 5 -19 16 -18 4 -16 -29 4 -26 17 -26 17 -13 0
12 -15 11 -17 -11 -17 -33 0 -87 79 -125 180 -22 62 -27 91 -27 167 0 76 3 96
17 110 17 17 18 17 11 -2 -8 -19 -7 -19 19 -2 31 20 51 22 42 5 -3 -7 0 -5 7
5 7 9 21 17 30 17 16 0 15 -4 -5 -37z m386 8 c14 -17 27 -27 31 -24 3 3 1 12
-6 20 -16 20 -6 24 22 10 21 -11 26 -23 34 -82 10 -80 -2 -157 -39 -248 -26
-64 -65 -127 -79 -127 -6 0 -5 5 2 12 23 23 12 29 -17 9 -45 -33 -52 -25 -27
32 44 100 59 168 60 272 1 81 -3 106 -17 128 -25 39 3 37 36 -2z m-333 0 c-10
-21 -30 -37 -30 -26 0 14 21 45 31 45 6 0 6 -7 -1 -19z m237 -3 c32 -16 33
-16 23 3 -6 11 -7 19 -1 19 19 0 41 -69 39 -127 l-1 -58 -6 62 c-3 34 -9 65
-13 68 -4 4 -4 -25 -1 -64 3 -40 1 -97 -6 -133 -20 -107 -43 -188 -54 -195 -6
-4 -8 3 -3 21 8 33 -1 34 -14 2 -9 -24 -58 -46 -105 -46 -32 0 -93 112 -115
210 -27 126 2 239 65 250 64 11 160 5 192 -12z m257 -52 c45 -95 -14 -297
-110 -374 -19 -15 -34 -35 -34 -44 0 -16 -19 -17 -197 -20 -122 -2 -203 1
-210 7 -8 7 45 11 165 13 173 3 239 8 228 19 -3 3 10 26 29 50 61 79 99 209
84 285 -11 57 -11 60 1 53 15 -9 12 1 -11 47 l-21 41 30 -22 c16 -11 37 -36
46 -55z m-686 33 c-6 -18 -9 -71 -6 -127 4 -84 9 -105 38 -162 18 -36 45 -81
61 -101 36 -46 37 -55 2 -34 -49 29 -118 133 -141 211 -24 82 -9 177 35 226
22 25 24 23 11 -13z m143 -104 l-6 -100 -7 62 c-4 34 -6 68 -4 75 3 7 7 26 11
42 11 49 12 25 6 -79z m33 -195 l7 -25 -15 25 c-9 14 -15 32 -15 40 0 13 1 13
8 0 5 -8 12 -26 15 -40z m374 -222 c7 -7 12 -20 12 -30 0 -17 -15 -18 -230
-18 l-230 0 0 23 c0 13 3 27 7 30 12 13 428 8 441 -5z m52 -92 c0 -8 -16 -23
-36 -35 -34 -20 -45 -21 -237 -16 -111 3 -210 5 -219 5 -19 0 -58 34 -58 50 0
6 98 10 275 10 229 0 275 -2 275 -14z m-124 -84 c7 -4 13 -51 16 -112 3 -58
18 -163 33 -235 78 -375 215 -627 463 -854 51 -47 92 -88 92 -93 0 -4 -11 -8
-25 -8 -130 0 -385 317 -488 605 -51 145 -105 463 -107 638 0 15 -5 27 -11 27
-12 0 -11 -25 7 -230 6 -73 9 -89 16 -110 3 -8 11 -53 18 -100 23 -167 101
-364 203 -517 75 -113 207 -268 248 -292 16 -9 29 -18 29 -21 0 -3 -288 -5
-640 -5 l-639 0 63 57 c143 129 286 356 354 559 55 168 116 561 98 634 -11 45
-18 21 -23 -77 -6 -127 -39 -352 -70 -473 -62 -239 -151 -398 -323 -579 -78
-82 -121 -111 -177 -118 -62 -9 -56 9 26 76 218 179 384 449 460 752 42 165
52 230 52 348 0 66 3 124 5 128 6 10 305 10 320 0z m751 -1358 c3 -8 1 -20 -4
-25 -12 -12 -1231 -23 -1545 -14 -223 7 -248 9 -248 25 0 9 3 20 7 23 3 4 406
7 895 7 798 0 889 -2 895 -16z m-2697 -24 c11 -7 -3 -9 -45 -9 -48 1 -54 3
-30 9 43 11 58 11 75 0z m3637 -7 c-20 -2 -52 -2 -70 0 -17 2 0 4 38 4 39 0
53 -2 32 -4z m-842 -67 l40 -19 -60 -9 c-33 -5 -140 -7 -238 -5 -98 2 -180 0
-183 -4 -7 -13 26 -14 326 -19 l215 -3 -140 -8 c-77 -3 -161 -7 -187 -8 -27 0
-48 -5 -48 -11 0 -6 70 -10 188 -10 104 1 207 -2 230 -6 40 -6 82 -37 69 -51
-4 -3 -548 -7 -1209 -7 -1112 0 -1203 1 -1206 16 -2 11 9 23 28 33 27 14 72
17 301 17 148 0 271 4 274 8 8 12 -193 23 -336 18 -70 -3 -134 -1 -141 3 -11
7 474 16 506 10 16 -3 88 11 83 16 -3 2 -122 4 -265 3 -148 0 -263 3 -266 9
-7 10 30 27 89 40 22 5 446 8 965 7 888 -1 927 -2 965 -20z m373 -226 c34 -12
62 -25 62 -30 0 -4 -648 -8 -1441 -8 -1185 0 -1438 2 -1429 13 40 48 216 54
1610 50 1134 -3 1135 -3 1198 -25z m92 -70 c27 -14 26 -48 -2 -59 -26 -9
-1472 -17 -2365 -13 -576 3 -582 3 -588 23 -4 13 0 28 11 40 16 18 38 19 468
21 995 6 2456 -1 2476 -12z"/>
<path d="M5647 8413 c16 -44 113 -196 120 -189 3 2 -15 35 -40 73 -24 37 -52
83 -61 101 -18 34 -30 44 -19 15z"/>
<path d="M4020 6334 c0 -8 5 -12 10 -9 6 4 8 11 5 16 -9 14 -15 11 -15 -7z"/>
<path d="M4050 6334 c0 -8 5 -12 10 -9 6 4 8 11 5 16 -9 14 -15 11 -15 -7z"/>
<path d="M4518 6343 c6 -2 18 -2 25 0 6 3 1 5 -13 5 -14 0 -19 -2 -12 -5z"/>
<path d="M4603 6343 c9 -2 25 -2 35 0 9 3 1 5 -18 5 -19 0 -27 -2 -17 -5z"/>
<path d="M4668 6343 c7 -3 16 -2 19 1 4 3 -2 6 -13 5 -11 0 -14 -3 -6 -6z"/>
<path d="M4788 6343 c6 -2 18 -2 25 0 6 3 1 5 -13 5 -14 0 -19 -2 -12 -5z"/>
<path d="M4860 6342 c0 -9 140 -4 149 4 2 2 -30 4 -72 4 -42 0 -77 -4 -77 -8z"/>
<path d="M5047 6343 c18 -2 50 -2 70 0 21 2 7 4 -32 4 -38 0 -55 -2 -38 -4z"/>
<path d="M5198 6343 c6 -2 18 -2 25 0 6 3 1 5 -13 5 -14 0 -19 -2 -12 -5z"/>
<path d="M5265 6340 c3 -5 12 -7 20 -3 21 7 19 13 -6 13 -11 0 -18 -4 -14 -10z"/>
<path d="M5348 6343 c18 -2 45 -2 60 0 15 2 0 4 -33 4 -33 0 -45 -2 -27 -4z"/>
<path d="M5510 6339 c0 -5 5 -7 10 -4 6 3 10 8 10 11 0 2 -4 4 -10 4 -5 0 -10
-5 -10 -11z"/>
<path d="M5618 6343 c17 -2 47 -2 65 0 17 2 3 4 -33 4 -36 0 -50 -2 -32 -4z"/>
<path d="M5758 6343 c7 -3 16 -2 19 1 4 3 -2 6 -13 5 -11 0 -14 -3 -6 -6z"/>
<path d="M5910 6340 c0 -5 7 -10 15 -10 8 0 15 5 15 10 0 6 -7 10 -15 10 -8 0
-15 -4 -15 -10z"/>
<path d="M5965 6340 c28 -12 55 -12 55 0 0 6 -17 10 -37 9 -31 0 -34 -2 -18
-9z"/>
<path d="M6030 6340 c0 -5 11 -10 24 -10 14 0 28 5 31 10 4 6 -7 10 -24 10
-17 0 -31 -4 -31 -10z"/>
<path d="M4085 6330 c3 -5 10 -10 16 -10 5 0 9 5 9 10 0 6 -7 10 -16 10 -8 0
-12 -4 -9 -10z"/>
<path d="M4133 6333 c10 -9 97 -10 97 -1 0 4 -23 8 -52 8 -28 0 -48 -3 -45 -7z"/>
<path d="M4270 6330 c0 -5 5 -10 10 -10 6 0 10 5 10 10 0 6 -4 10 -10 10 -5 0
-10 -4 -10 -10z"/>
<path d="M4315 6330 c3 -5 8 -10 11 -10 2 0 4 5 4 10 0 6 -5 10 -11 10 -5 0
-7 -4 -4 -10z"/>
<path d="M4360 6330 c0 -5 5 -10 10 -10 6 0 10 5 10 10 0 6 -4 10 -10 10 -5 0
-10 -4 -10 -10z"/>
<path d="M4408 6333 c6 -2 18 -2 25 0 6 3 1 5 -13 5 -14 0 -19 -2 -12 -5z"/>
<path d="M6160 6280 c-22 -7 -21 -8 13 -9 23 -1 36 3 32 9 -7 11 -10 11 -45 0z"/>
<path d="M6235 6280 c-3 -5 -1 -10 4 -10 6 0 11 5 11 10 0 6 -2 10 -4 10 -3 0
-8 -4 -11 -10z"/>
<path d="M6265 6280 c-3 -5 1 -10 9 -10 9 0 16 5 16 10 0 6 -4 10 -9 10 -6 0
-13 -4 -16 -10z"/>
<path d="M4433 6263 c9 -2 23 -2 30 0 6 3 -1 5 -18 5 -16 0 -22 -2 -12 -5z"/>
<path d="M4640 6087 c0 -9 -7 -20 -15 -25 -19 -10 -9 -46 11 -38 8 3 14 -1 14
-9 0 -8 5 -15 11 -15 8 0 9 14 5 43 -7 43 -26 76 -26 44z"/>
<path d="M5139 6073 c-5 -14 -8 -31 -5 -37 2 -6 5 -2 6 9 l1 20 9 -20 c5 -11
9 -36 10 -55 2 -32 3 -31 11 14 7 44 -2 96 -16 96 -3 0 -10 -12 -16 -27z"/>
<path d="M5660 6095 c0 -6 -7 -32 -15 -58 -8 -26 -10 -45 -5 -42 6 4 10 12 10
20 0 8 10 23 22 35 21 19 21 21 5 37 -9 10 -17 13 -17 8z"/>
<path d="M3900 6045 c-11 -25 -24 -45 -29 -45 -6 0 -8 -6 -5 -13 7 -19 34 -17
34 3 0 8 9 33 20 55 23 46 23 45 10 45 -6 0 -19 -20 -30 -45z"/>
<path d="M4001 6082 c-1 -6 -12 -35 -26 -64 -23 -47 -26 -75 -6 -52 14 17 43
104 38 117 -4 9 -6 9 -6 -1z"/>
<path d="M4734 6051 c-6 -23 -8 -41 -3 -41 4 0 10 8 12 18 3 9 5 -3 6 -28 1
-33 4 -41 11 -30 14 21 12 83 -3 104 -11 15 -14 13 -23 -23z"/>
<path d="M4933 6083 c-8 -3 -13 -24 -13 -56 0 -52 14 -56 23 -7 4 21 4 20 6
-7 0 -17 6 -35 11 -38 13 -8 11 42 -3 81 -7 17 -18 29 -24 27z"/>
<path d="M5259 6085 c0 -6 -2 -22 -4 -37 -3 -22 0 -28 16 -28 16 0 18 5 13 28
-7 28 -23 53 -25 37z"/>
<path d="M5336 6064 c-10 -14 -16 -28 -13 -30 2 -3 12 7 21 22 10 14 16 28 13
30 -2 3 -12 -7 -21 -22z"/>
<path d="M5477 6033 c8 -76 13 -80 13 -10 0 31 -4 58 -9 62 -6 3 -7 -18 -4
-52z"/>
<path d="M5861 6073 c0 -10 4 -36 8 -58 l9 -40 2 43 c2 23 3 47 4 54 1 6 -5
13 -11 16 -8 2 -13 -4 -12 -15z"/>
<path d="M5973 6070 c0 -14 -3 -40 -7 -59 -6 -24 -5 -31 3 -27 6 4 12 17 12
29 1 17 3 15 9 -8 7 -29 8 -28 9 11 0 22 -5 49 -13 59 -14 19 -14 19 -13 -5z"/>
<path d="M4034 6067 c3 -10 6 -42 6 -69 0 -61 5 -60 14 2 5 34 3 50 -10 65
-14 18 -15 18 -10 2z"/>
<path d="M4191 6059 c-5 -13 -12 -33 -16 -44 -5 -16 -8 -17 -15 -5 -13 21 -12
-1 2 -41 l12 -34 17 70 c17 71 17 97 0 54z"/>
<path d="M4320 6061 c-6 -12 -9 -27 -7 -34 3 -7 9 -1 15 13 9 24 10 24 20 -15
6 -22 13 -53 16 -70 2 -16 3 -2 2 33 -3 74 -25 110 -46 73z"/>
<path d="M4430 6065 c-7 -8 -10 -18 -6 -22 3 -3 6 -1 6 6 0 7 5 9 10 6 6 -3
10 -24 10 -46 0 -22 4 -38 9 -35 11 7 8 66 -6 90 -9 16 -11 16 -23 1z"/>
<path d="M4541 6073 c-1 -6 -4 -20 -7 -30 -5 -17 -5 -17 6 0 6 10 9 23 6 30
-3 9 -5 9 -5 0z"/>
<path d="M4820 6054 c-13 -32 -13 -43 0 -24 8 12 10 9 10 -11 0 -25 21 -45 34
-32 11 11 6 69 -6 81 -18 18 -27 15 -38 -14z"/>
<path d="M5033 6065 c-14 -15 -18 -95 -5 -95 4 0 6 16 4 35 -6 46 15 46 24 0
10 -54 17 -34 9 24 -7 54 -12 59 -32 36z"/>
<path d="M5580 6065 c0 -11 -2 -38 -5 -60 l-5 -40 16 42 c11 31 13 47 5 60
-10 17 -10 17 -11 -2z"/>
<path d="M5772 6059 c-4 -11 -6 -37 -4 -57 5 -41 13 -28 26 41 8 40 -9 53 -22
16z"/>
<path d="M6054 6063 c-3 -10 -10 -26 -15 -35 -14 -27 -11 -34 6 -12 15 18 16
17 10 -16 -4 -23 -3 -30 3 -20 15 24 24 100 12 100 -6 0 -13 -8 -16 -17z"/>
<path d="M6142 6068 c-5 -7 -13 -29 -16 -48 l-7 -35 20 35 c11 20 20 28 21 19
0 -20 30 -49 30 -30 0 13 -28 71 -34 71 -2 0 -8 -6 -14 -12z"/>
<path d="M4103 6020 c-14 -33 -17 -47 -8 -44 7 3 19 19 25 35 7 16 16 26 21
23 11 -6 11 -1 3 20 -10 25 -18 19 -41 -34z"/>
<path d="M4247 6063 c-4 -3 -7 -22 -6 -42 0 -35 1 -35 11 -11 11 24 12 24 18
-15 l7 -40 1 35 c3 60 -12 93 -31 73z"/>
<path d="M4557 6056 c-4 -10 -7 -34 -6 -54 l1 -37 9 45 c10 48 7 75 -4 46z"/>
<path d="M5555 6060 c-3 -5 -1 -10 4 -10 6 0 11 5 11 10 0 6 -2 10 -4 10 -3 0
-8 -4 -11 -10z"/>
<path d="M3940 6048 c0 -9 5 -20 10 -23 13 -8 13 5 0 25 -8 13 -10 13 -10 -2z"/>
<path d="M5382 6030 c0 -14 2 -19 5 -12 2 6 2 18 0 25 -3 6 -5 1 -5 -13z"/>
<path d="M5452 6025 c0 -16 2 -22 5 -12 2 9 2 23 0 30 -3 6 -5 -1 -5 -18z"/>
<path d="M5546 6025 c4 -8 8 -15 10 -15 2 0 4 7 4 15 0 8 -4 15 -10 15 -5 0
-7 -7 -4 -15z"/>
<path d="M5670 6015 c1 -26 2 -28 11 -12 8 14 8 22 0 30 -8 8 -11 3 -11 -18z"/>
<path d="M4521 6004 c0 -11 3 -14 6 -6 3 7 2 16 -1 19 -3 4 -6 -2 -5 -13z"/>
<path d="M5350 6003 c0 -13 5 -23 10 -23 13 0 13 11 0 30 -8 12 -10 11 -10 -7z"/>
<path d="M5740 6010 c0 -5 5 -10 10 -10 6 0 10 5 10 10 0 6 -4 10 -10 10 -5 0
-10 -4 -10 -10z"/>
<path d="M5241 5994 c0 -11 3 -14 6 -6 3 7 2 16 -1 19 -3 4 -6 -2 -5 -13z"/>
<path d="M5542 5980 c0 -14 2 -19 5 -12 2 6 2 18 0 25 -3 6 -5 1 -5 -13z"/>
<path d="M6342 5810 c0 -19 2 -27 5 -17 2 9 2 25 0 35 -3 9 -5 1 -5 -18z"/>
<path d="M6418 5760 c-30 -149 -30 -146 -20 -130 13 20 44 176 40 197 -2 9
-11 -21 -20 -67z"/>
<path d="M3690 5791 c0 -23 5 -31 23 -34 22 -4 22 -4 -3 -14 l-25 -11 28 -11
c15 -6 27 -17 27 -26 0 -8 5 -15 10 -15 6 0 10 -7 10 -16 0 -8 13 -26 29 -39
16 -14 38 -50 51 -84 12 -33 29 -62 37 -65 27 -11 54 -6 60 10 4 12 9 9 19
-15 15 -35 42 -40 84 -16 21 11 27 11 40 0 21 -19 64 2 68 32 2 15 11 23 29
25 14 2 32 13 41 26 13 20 13 22 -7 22 -12 0 -21 -6 -21 -15 0 -8 -4 -15 -9
-15 -17 0 -23 20 -11 35 21 25 -5 17 -29 -9 -14 -15 -19 -26 -12 -31 17 -10
13 -38 -4 -31 -8 3 -14 0 -12 -6 1 -6 -4 -13 -12 -16 -10 -3 -13 1 -8 17 6 23
-4 26 -33 11 -13 -7 -21 -5 -31 6 -8 10 -21 13 -40 9 -35 -8 -64 7 -81 42 -17
35 -46 53 -57 35 -6 -11 -10 -10 -14 5 -4 10 -15 32 -25 48 -22 34 -47 130
-38 143 8 13 -20 35 -34 27 -6 -4 -9 -14 -8 -22 2 -9 -3 -18 -9 -20 -8 -3 -13
4 -13 16 0 11 -4 23 -10 26 -6 4 -10 -6 -10 -24z m80 -79 c0 -7 -4 -10 -10 -7
-5 3 -10 16 -10 28 0 18 2 19 10 7 5 -8 10 -21 10 -28z m133 -176 c15 -33 14
-46 -6 -46 -5 0 -7 9 -4 21 4 14 2 19 -8 15 -7 -2 -16 2 -19 10 -18 47 14 46
37 0z m113 -47 c10 -17 -13 -36 -27 -22 -12 12 -4 33 11 33 5 0 12 -5 16 -11z"/>
<path d="M5095 5800 c-24 -27 -13 -54 20 -46 16 4 25 2 25 -6 0 -19 64 -107
78 -108 7 0 15 -13 18 -28 7 -35 55 -67 72 -50 15 15 16 38 1 38 -5 0 -7 -4
-4 -10 3 -5 1 -10 -5 -10 -6 0 -13 7 -16 15 -4 8 -12 15 -20 15 -8 0 -14 9
-14 20 0 11 -7 23 -14 26 -25 10 -69 75 -68 102 0 59 -38 81 -73 42z"/>
<path d="M5875 5777 c-3 -7 -2 -24 3 -38 13 -33 4 -52 -45 -94 -24 -20 -43
-41 -43 -46 0 -18 42 -9 47 10 2 10 18 28 34 40 16 12 29 28 29 36 0 19 8 19
27 0 10 -10 13 -24 9 -41 -6 -21 -2 -27 30 -40 48 -20 53 -12 15 26 -17 17
-31 36 -31 41 0 5 -9 18 -19 28 -27 27 -31 57 -8 53 13 -2 18 2 15 15 -4 22
-56 31 -63 10z m80 -147 c3 -5 1 -10 -4 -10 -6 0 -11 5 -11 10 0 6 2 10 4 10
3 0 8 -4 11 -10z"/>
<path d="M4277 5773 c-4 -3 0 -15 9 -24 23 -25 6 -63 -53 -123 -42 -43 -48
-58 -13 -36 9 5 19 5 27 -2 10 -8 13 -5 13 11 0 12 10 36 22 54 13 18 24 34
26 37 5 8 83 -85 98 -117 14 -33 26 -43 23 -20 -4 33 0 40 17 26 9 -7 14 -22
11 -36 -5 -26 28 -53 67 -53 22 0 23 2 13 25 -7 14 -21 28 -32 31 -10 4 -28
17 -38 30 -10 13 -23 24 -29 24 -18 0 -108 100 -108 119 0 9 5 22 11 28 6 6 8
16 5 22 -8 12 -59 15 -69 4z"/>
<path d="M6327 5728 c-3 -18 -9 -42 -13 -53 -4 -11 -4 -17 0 -13 12 10 36 98
27 98 -5 0 -11 -15 -14 -32z"/>
<path d="M5029 5700 c-22 -22 -44 -40 -48 -40 -5 0 -12 -11 -15 -24 -3 -14
-13 -23 -22 -22 -9 0 -19 -5 -22 -13 -3 -10 0 -12 11 -8 9 3 18 1 20 -6 6 -18
37 11 37 34 0 12 7 19 19 19 12 0 21 8 23 21 2 12 13 28 25 36 20 13 23 12 34
-8 9 -17 9 -24 0 -27 -6 -2 -8 -8 -5 -14 4 -6 1 -14 -6 -18 -6 -4 -13 -20 -16
-36 -2 -16 -6 -43 -10 -60 -5 -28 -2 -35 25 -55 29 -22 30 -24 12 -31 -28 -10
-38 -71 -17 -103 19 -28 57 -33 76 -10 18 21 15 73 -5 95 -15 16 -14 20 6 55
21 36 22 40 7 66 -14 24 -14 30 -2 40 19 16 18 46 -3 58 -10 5 -29 28 -43 50
-14 23 -29 41 -33 41 -5 0 -26 -18 -48 -40z m111 -75 c10 -12 8 -16 -11 -24
-28 -10 -44 1 -36 23 8 20 31 21 47 1z m-9 -67 c5 -56 -14 -79 -41 -50 -20 21
-25 43 -13 55 11 12 53 8 54 -5z m-3 -174 c-5 -26 -38 -31 -38 -7 0 24 21 46
33 34 5 -5 7 -17 5 -27z"/>
<path d="M6445 5710 c-4 -12 -5 -24 -2 -27 3 -2 8 5 12 17 4 12 5 24 2 27 -3
2 -8 -5 -12 -17z"/>
<path d="M3976 5665 c4 -8 8 -15 10 -15 2 0 4 7 4 15 0 8 -4 15 -10 15 -5 0
-7 -7 -4 -15z"/>
<path d="M4304 5659 c-3 -6 -1 -16 5 -22 8 -8 11 -5 11 11 0 24 -5 28 -16 11z"/>
<path d="M6300 5600 c-7 -28 -10 -53 -7 -56 3 -3 10 18 16 47 15 68 7 75 -9 9z"/>
<path d="M3761 5601 c-3 -80 173 -484 283 -649 89 -134 273 -306 421 -394 119
-71 318 -149 410 -162 22 -3 -7 10 -65 29 -140 46 -346 150 -450 229 -110 82
-246 225 -310 323 -66 100 -177 329 -225 463 -56 156 -64 176 -64 161z"/>
<path d="M3986 5587 c3 -10 9 -15 12 -12 3 3 0 11 -7 18 -10 9 -11 8 -5 -6z"/>
<path d="M5710 5581 c-22 -15 -5 -24 18 -10 11 7 27 9 37 5 16 -6 17 -8 1 -25
-20 -22 -10 -34 16 -20 12 6 18 19 16 32 -2 17 -11 23 -38 25 -19 1 -42 -2
-50 -7z"/>
<path d="M6212 5565 c0 -16 2 -22 5 -12 2 9 2 23 0 30 -3 6 -5 -1 -5 -18z"/>
<path d="M4841 5551 c-18 -16 -96 -45 -143 -55 -4 0 -4 -7 0 -13 5 -7 29 -15
54 -18 53 -7 83 13 72 47 -5 18 -4 18 16 8 11 -6 33 -10 48 -8 21 2 28 9 30
31 2 15 -2 27 -8 27 -6 0 -10 -8 -8 -17 2 -13 -5 -19 -22 -21 -20 -3 -23 -1
-12 9 29 31 6 39 -27 10z m-41 -50 c0 -12 -20 -25 -27 -18 -7 7 6 27 18 27 5
0 9 -4 9 -9z"/>
<path d="M5343 5563 c-17 -6 -16 -38 1 -52 7 -6 24 -10 38 -9 13 1 41 -8 62
-21 31 -20 42 -22 62 -12 38 17 31 47 -13 55 -21 3 -48 6 -60 6 -13 0 -32 9
-43 20 -21 21 -26 22 -47 13z m37 -29 c0 -9 -5 -14 -12 -12 -18 6 -21 28 -4
28 9 0 16 -7 16 -16z m119 -45 c-14 -8 -29 -3 -29 11 0 4 9 6 21 3 15 -4 17
-8 8 -14z"/>
<path d="M5660 5546 c-18 -22 -5 -48 22 -44 17 2 23 10 23 28 0 29 -26 38 -45
16z m30 -10 c0 -3 -4 -8 -10 -11 -5 -3 -10 -1 -10 4 0 6 5 11 10 11 6 0 10 -2
10 -4z"/>
<path d="M5560 5519 c-15 -6 -20 -13 -13 -17 6 -4 10 -11 10 -17 -3 -15 42
-18 59 -5 7 7 14 21 14 31 0 21 -28 24 -70 8z m50 -8 c0 -12 -20 -25 -27 -18
-7 7 6 27 18 27 5 0 9 -4 9 -9z"/>
<path d="M4560 5512 c0 -10 22 -32 31 -32 4 0 9 6 12 13 2 6 3 4 1 -6 -1 -9 7
-22 19 -28 17 -10 24 -8 40 12 18 22 18 24 1 36 -19 14 -104 18 -104 5z m90
-22 c0 -5 -4 -10 -10 -10 -5 0 -10 5 -10 10 0 6 5 10 10 10 6 0 10 -4 10 -10z"/>
<path d="M3920 5451 c0 -57 128 -328 222 -468 149 -222 410 -430 663 -526 90
-34 145 -51 145 -43 0 2 -35 16 -77 31 -289 101 -564 314 -724 557 -65 100
-159 285 -194 386 -23 63 -35 86 -35 63z"/>
<path d="M6275 5385 c-149 -406 -384 -677 -760 -877 -110 -58 -105 -63 8 -7
290 144 537 390 682 679 48 95 98 227 92 244 -2 6 -12 -12 -22 -39z"/>
<path d="M6148 5343 c-9 -32 -15 -59 -13 -61 5 -5 37 97 33 108 -2 5 -11 -16
-20 -47z"/>
<path d="M4060 5379 c0 -21 51 -142 87 -207 36 -65 93 -149 93 -137 0 6 -14
30 -31 55 -40 60 -75 128 -115 225 -19 44 -34 73 -34 64z"/>
<path d="M6067 5373 c-4 -3 -7 -13 -7 -22 1 -13 3 -13 11 2 11 19 8 33 -4 20z"/>
<path d="M6051 5314 c0 -11 3 -14 6 -6 3 7 2 16 -1 19 -3 4 -6 -2 -5 -13z"/>
<path d="M6035 5279 c-4 -6 -5 -12 -2 -15 2 -3 7 2 10 11 7 17 1 20 -8 4z"/>
<path d="M6107 5230 c-8 -22 -14 -40 -11 -40 2 0 12 18 23 40 10 22 16 40 12
40 -5 0 -15 -18 -24 -40z"/>
<path d="M5976 5156 c-36 -75 -32 -84 5 -12 16 32 28 60 26 63 -3 2 -17 -20
-31 -51z"/>
<path d="M6051 5121 c-151 -248 -412 -496 -649 -615 -30 -15 -52 -30 -49 -32
8 -8 133 63 237 134 116 80 303 265 386 382 66 94 118 179 113 184 -2 2 -19
-21 -38 -53z"/>
<path d="M4325 5021 c8 -17 19 -33 25 -36 5 -3 1 10 -11 29 -25 43 -36 48 -14
7z"/>
<path d="M5906 5035 c-9 -26 -7 -32 5 -12 6 10 9 21 6 23 -2 3 -7 -2 -11 -11z"/>
<path d="M4481 4923 c7 -12 15 -20 18 -17 3 2 -3 12 -13 22 -17 16 -18 16 -5
-5z"/>
<path d="M4415 4890 c10 -11 20 -20 23 -20 3 0 -3 9 -13 20 -10 11 -20 20 -23
20 -3 0 3 -9 13 -20z"/>
<path d="M4538 4845 c17 -30 102 -122 101 -110 0 6 -25 37 -56 70 -31 33 -51
51 -45 40z"/>
<path d="M4660 4820 c6 -11 13 -20 16 -20 2 0 0 9 -6 20 -6 11 -13 20 -16 20
-2 0 0 -9 6 -20z"/>
<path d="M4490 4806 c0 -2 8 -10 18 -17 15 -13 16 -12 3 4 -13 16 -21 21 -21
13z"/>
<path d="M5607 4772 c-26 -27 -36 -49 -17 -37 10 6 53 65 48 65 -3 0 -16 -13
-31 -28z"/>
<path d="M4710 4761 c0 -6 4 -13 10 -16 6 -3 7 1 4 9 -7 18 -14 21 -14 7z"/>
<path d="M5464 4628 c-61 -63 -67 -72 -29 -41 62 51 120 111 114 118 -3 2 -41
-32 -85 -77z"/>
<path d="M5404 4639 c-19 -22 -19 -22 4 -8 12 8 22 17 22 21 0 12 -6 9 -26
-13z"/>
<path d="M4675 4630 c3 -5 11 -10 16 -10 6 0 7 5 4 10 -3 6 -11 10 -16 10 -6
0 -7 -4 -4 -10z"/>
<path d="M4835 4620 c3 -5 8 -10 11 -10 2 0 4 5 4 10 0 6 -5 10 -11 10 -5 0
-7 -4 -4 -10z"/>
<path d="M4750 4616 c0 -2 8 -10 18 -17 15 -13 16 -12 3 4 -13 16 -21 21 -21
13z"/>
<path d="M5300 4539 c0 -5 5 -7 10 -4 6 3 10 8 10 11 0 2 -4 4 -10 4 -5 0 -10
-5 -10 -11z"/>
<path d="M5349 4513 c-13 -16 -12 -17 4 -4 16 13 21 21 13 21 -2 0 -10 -8 -17
-17z"/>
<path d="M5288 4447 c-21 -11 -36 -22 -34 -24 5 -5 86 35 86 42 0 9 -14 4 -52
-18z"/>
<path d="M5365 4440 c-3 -6 1 -7 9 -4 18 7 21 14 7 14 -6 0 -13 -4 -16 -10z"/>
<path d="M5205 4430 c-3 -6 1 -7 9 -4 18 7 21 14 7 14 -6 0 -13 -4 -16 -10z"/>
<path d="M5328 4423 c7 -3 16 -2 19 1 4 3 -2 6 -13 5 -11 0 -14 -3 -6 -6z"/>
<path d="M4998 4393 c7 -3 16 -2 19 1 4 3 -2 6 -13 5 -11 0 -14 -3 -6 -6z"/>
<path d="M5146 4140 c-3 -17 -1 -52 4 -78 5 -26 11 -60 13 -77 2 -16 5 18 6
78 1 103 -10 140 -23 77z"/>
<path d="M5167 2828 c-4 -29 -3 -56 2 -61 5 -5 11 15 13 48 4 72 -7 82 -15 13z"/>
<path d="M5045 2803 c-4 -38 -9 -85 -11 -107 -1 -21 -6 -68 -10 -105 -11 -106
5 -64 21 55 26 189 29 224 18 224 -6 0 -14 -30 -18 -67z"/>
<path d="M5201 2552 c-2 -60 39 -286 75 -405 19 -65 55 -162 79 -215 47 -99
169 -292 186 -292 12 0 12 17 0 22 -18 6 -116 166 -167 273 -59 121 -117 310
-139 449 -32 202 -32 202 -34 168z"/>
<path d="M5001 2465 c-7 -33 -17 -70 -22 -83 -5 -13 -9 -41 -9 -63 0 -22 -7
-50 -15 -63 -8 -12 -16 -36 -17 -52 -1 -16 -5 -33 -8 -39 -4 -5 -8 -17 -8 -25
-4 -83 -113 -323 -199 -442 -19 -27 -30 -48 -25 -48 15 0 95 123 141 216 22
44 56 126 75 184 38 113 110 430 103 458 -2 9 -9 -10 -16 -43z"/>
<path d="M5085 1420 c-178 -3 -248 -8 -222 -14 20 -4 153 -6 295 -3 289 6 262
5 262 15 0 8 -4 8 -335 2z"/>
<path d="M5505 1420 c-3 -5 -1 -10 4 -10 6 0 11 5 11 10 0 6 -2 10 -4 10 -3 0
-8 -4 -11 -10z"/>
<path d="M5530 1418 c0 -5 30 -8 67 -8 36 0 63 3 60 7 -10 9 -127 10 -127 1z"/>
<path d="M4641 1416 c8 -8 168 -11 175 -3 4 4 -35 7 -86 7 -51 0 -91 -2 -89
-4z"/>
<path d="M5443 1413 c9 -2 23 -2 30 0 6 3 -1 5 -18 5 -16 0 -22 -2 -12 -5z"/>
<path d="M5788 1373 c6 -2 18 -2 25 0 6 3 1 5 -13 5 -14 0 -19 -2 -12 -5z"/>
<path d="M6695 9151 c-3 -5 5 -17 17 -25 20 -14 23 -14 31 -1 4 8 5 20 2 25
-8 13 -42 13 -50 1z"/>
<path d="M3413 9064 c-8 -22 18 -37 36 -20 7 8 10 19 7 25 -10 16 -36 13 -43
-5z"/>
<path d="M6890 8689 c0 -68 -3 -188 -7 -267 l-6 -143 -46 43 c-88 83 -111 102
-117 95 -3 -3 30 -44 75 -92 45 -47 81 -90 81 -95 0 -6 -88 -10 -230 -10 -126
0 -230 -4 -230 -9 0 -11 150 -21 312 -21 70 0 128 -3 128 -7 0 -4 -39 -47 -86
-94 -58 -58 -82 -89 -74 -94 8 -5 45 25 101 83 l89 90 2 -196 c3 -227 5 -330
7 -354 2 -29 16 -20 17 10 0 15 1 149 2 297 l3 270 87 -93 c48 -51 90 -93 95
-92 14 0 7 17 -19 46 -71 80 -114 132 -114 135 0 2 82 6 183 7 252 5 252 22
-1 22 -111 0 -202 2 -202 5 0 3 33 47 74 98 41 50 72 96 69 100 -3 5 -43 -31
-89 -80 l-83 -88 -2 255 c-3 296 -2 287 -12 296 -4 4 -7 -49 -7 -117z"/>
<path d="M3208 8620 c-4 -30 -8 -161 -8 -290 l0 -235 -38 41 c-60 68 -142 138
-142 123 0 -8 36 -50 80 -94 44 -44 80 -83 80 -87 0 -5 -80 -8 -179 -8 -186 0
-271 -7 -271 -21 0 -5 95 -9 210 -9 116 0 210 -4 210 -8 0 -5 -12 -19 -26 -33
-33 -30 -118 -148 -112 -155 3 -2 42 39 88 91 46 52 87 95 92 95 4 0 8 -140 8
-311 0 -170 4 -308 8 -305 5 3 12 135 16 293 4 158 9 289 11 292 3 2 41 -29
85 -69 44 -40 83 -71 85 -68 3 3 -31 44 -76 91 l-81 87 184 0 c100 0 189 4
196 9 13 8 -177 21 -310 21 -38 0 -68 3 -68 6 0 8 56 77 113 139 26 29 47 55
47 59 0 18 -45 -21 -110 -94 l-70 -80 -1 107 c-1 60 -4 189 -8 288 -5 141 -8
168 -13 125z"/>
<path d="M2596 7384 c-8 -21 1 -34 24 -34 19 0 34 25 24 41 -9 15 -41 10 -48
-7z"/>
<path d="M7460 7360 c0 -23 26 -38 41 -23 14 14 0 43 -22 43 -12 0 -19 -7 -19
-20z"/>
<path d="M3654 7345 c-7 -18 3 -35 22 -35 20 0 30 30 13 41 -20 12 -29 11 -35
-6z"/>
<path d="M6454 7345 c-7 -18 3 -35 22 -35 20 0 30 30 13 41 -20 12 -29 11 -35
-6z"/>
<path d="M6935 6980 c-4 -7 -3 -16 3 -22 14 -14 45 -2 40 15 -6 16 -34 21 -43
7z"/>
<path d="M3157 6974 c-11 -11 3 -24 24 -24 12 0 19 5 17 13 -5 14 -31 21 -41
11z"/>
<path d="M7384 6296 c-3 -9 -3 -23 0 -31 8 -22 48 0 44 23 -4 22 -36 28 -44 8z"/>
<path d="M2806 6264 c-7 -19 1 -34 19 -34 15 0 28 27 19 41 -9 14 -31 10 -38
-7z"/>
<path d="M3082 4078 c3 -7 13 -15 22 -16 12 -3 17 1 14 10 -3 7 -13 15 -22 16
-12 3 -17 -1 -14 -10z"/>
<path d="M7087 4083 c-11 -11 -8 -20 9 -27 21 -8 34 1 27 19 -5 16 -25 20 -36
8z"/>
<path d="M4100 3870 c-13 -25 -5 -40 20 -40 24 0 33 15 25 40 -8 26 -31 26
-45 0z"/>
<path d="M6080 3875 c-19 -23 -4 -47 27 -43 32 4 39 20 18 42 -20 20 -29 20
-45 1z"/>
<path d="M3231 3481 c-12 -21 -5 -31 20 -31 24 0 33 18 19 35 -17 20 -27 19
-39 -4z"/>
<path d="M6955 3481 c-9 -28 1 -40 26 -34 13 4 19 12 17 27 -4 28 -34 33 -43
7z"/>
<path d="M3485 3140 c-4 -7 -3 -16 3 -22 14 -14 45 -2 40 15 -6 16 -34 21 -43
7z"/>
<path d="M6707 3143 c-8 -7 11 -33 24 -33 5 0 9 9 9 20 0 19 -20 27 -33 13z"/>
<path d="M3871 3031 c-12 -21 -5 -31 20 -31 24 0 33 18 19 35 -17 20 -27 19
-39 -4z"/>
<path d="M6311 3032 c-12 -23 -5 -32 26 -32 20 0 24 5 21 22 -4 29 -34 35 -47
10z"/>
<path d="M7492 2918 c-20 -20 -14 -38 13 -38 27 0 33 21 12 39 -10 8 -17 7
-25 -1z"/>
<path d="M2697 2913 c-3 -5 -2 -15 3 -22 10 -17 43 -6 38 12 -6 15 -34 22 -41
10z"/>
<path d="M4206 2411 c-8 -13 20 -45 32 -37 20 12 14 46 -7 46 -11 0 -22 -4
-25 -9z"/>
<path d="M5977 2414 c-11 -12 13 -43 28 -38 22 9 19 44 -3 44 -10 0 -22 -3
-25 -6z"/>
<path d="M7161 2352 c-7 -13 -6 -23 1 -30 27 -27 54 -3 36 31 -11 22 -25 22
-37 -1z"/>
<path d="M3033 2344 c-8 -21 13 -42 28 -27 13 13 5 43 -11 43 -6 0 -13 -7 -17
-16z"/>
<path d="M3768 2336 c-101 -36 -189 -158 -209 -290 -21 -134 6 -379 43 -402 8
-5 9 -1 4 12 -14 34 -27 237 -21 319 8 93 26 163 55 210 30 48 102 111 143
124 21 7 37 19 37 27 0 17 -4 17 -52 0z"/>
<path d="M3785 2255 c-10 -17 -28 -46 -40 -65 -66 -105 -125 -289 -125 -388 0
-64 8 -49 25 49 22 128 60 231 132 353 34 59 42 106 8 51z"/>
<path d="M6420 2277 c0 -5 27 -59 59 -120 63 -118 100 -238 102 -324 0 -26 5
-57 10 -68 6 -13 8 13 5 80 -6 122 -38 229 -97 327 -45 75 -78 118 -79 105z"/>
<path d="M7060 2251 c-11 -22 0 -34 24 -25 20 8 21 44 1 44 -8 0 -19 -9 -25
-19z"/>
<path d="M3130 2251 c0 -12 29 -35 36 -28 11 10 -5 37 -21 37 -8 0 -15 -4 -15
-9z"/>
<path d="M6946 1407 c34 -18 74 -43 89 -55 32 -25 45 -28 45 -8 0 27 -124 96
-172 96 -16 0 -5 -10 38 -33z"/>
<path d="M3203 1394 c-37 -22 -56 -44 -37 -44 9 0 94 51 100 61 10 17 -21 9
-63 -17z"/>
</g></svg>