<?xml version="1.0" standalone="no"?>
<!DOCTYPE svg PUBLIC "-//W3C//DTD SVG 20010904//EN"
 "http://www.w3.org/TR/2001/REC-SVG-20010904/DTD/svg10.dtd">
<svg version="1.0" xmlns="http://www.w3.org/2000/svg"
 width="466.577535pt" height="986.490972pt" viewBox="0 0 466.577535 986.490972"
 preserveAspectRatio="xMidYMid meet">
<metadata>
Created by potrace 1.16, written by Peter Selinger 2001-2019
</metadata>
<g transform="translate(-276.115155,1006.479074) scale(0.100000,-0.100000)"
fill="currentColor" stroke="none">
<path d="M5126 9912 c-2 -4 -3 -194 -1 -422 2 -228 4 -523 5 -655 2 -250 6
-295 23 -295 7 0 8 150 4 478 -4 262 -7 573 -7 690 0 191 -5 234 -24 204z"/>
<path d="M4386 9622 c-7 -12 5 -69 47 -207 16 -55 42 -149 58 -210 15 -60 44
-162 64 -225 19 -63 60 -212 90 -330 85 -328 109 -393 137 -365 3 3 -7 39 -23
79 -16 40 -53 171 -84 291 -30 120 -62 232 -71 249 -21 40 -49 136 -70 239 -9
45 -32 132 -51 192 -19 61 -43 148 -55 195 -21 88 -31 109 -42 92z"/>
<path d="M5871 9593 c-6 -21 -11 -43 -11 -50 0 -7 -14 -54 -31 -105 -16 -51
-41 -145 -55 -208 -13 -63 -58 -232 -98 -375 -41 -143 -78 -278 -81 -300 -4
-22 -20 -93 -36 -157 -34 -137 -33 -128 -14 -128 8 0 15 4 15 8 0 31 81 351
145 572 42 146 85 308 96 360 10 52 28 127 40 165 17 56 68 242 69 253 0 1 -7
2 -15 2 -8 0 -19 -16 -24 -37z"/>
<path d="M5417 9082 c-9 -48 -19 -123 -23 -167 -3 -44 -14 -127 -24 -185 -26
-145 -29 -205 -10 -205 11 0 16 13 18 45 1 25 9 88 17 140 8 52 19 149 25 215
6 66 14 144 19 172 13 89 -4 77 -22 -15z"/>
<path d="M4864 9143 c3 -10 10 -81 16 -158 18 -217 47 -439 59 -443 5 -2 7
-11 4 -20 -5 -14 -3 -15 7 -5 10 10 10 32 -4 120 -9 59 -23 164 -32 233 -28
236 -36 290 -46 290 -5 0 -7 -8 -4 -17z"/>
<path d="M3695 9119 c-4 -6 11 -36 34 -67 22 -31 64 -94 93 -140 72 -113 142
-217 211 -315 82 -115 351 -525 371 -566 16 -30 20 -32 33 -19 13 13 -12 54
-211 351 -124 185 -244 369 -267 409 -42 73 -233 343 -249 353 -5 3 -12 0 -15
-6z m235 -324 c53 -79 65 -105 27 -58 -30 36 -87 120 -87 127 0 16 13 0 60
-69z"/>
<path d="M6518 9012 c-47 -64 -104 -148 -127 -187 -23 -38 -75 -114 -115 -170
-40 -55 -131 -187 -200 -294 -70 -107 -148 -221 -173 -253 -28 -37 -43 -65
-39 -75 6 -14 8 -14 26 2 17 16 157 221 316 466 142 218 269 405 337 498 42
57 77 108 77 112 0 30 -27 3 -102 -99z"/>
<path d="M4286 8881 c-3 -4 29 -80 70 -167 142 -299 194 -423 194 -462 0 -47
23 -83 41 -65 9 9 9 19 1 40 -6 15 -21 63 -33 106 -12 44 -28 81 -36 84 -7 3
-13 12 -13 21 0 8 -11 38 -24 66 -123 258 -186 386 -190 386 -3 0 -7 -4 -10
-9z"/>
<path d="M5964 8813 c-20 -43 -51 -114 -69 -158 -18 -45 -55 -128 -82 -185
-71 -151 -83 -179 -83 -198 0 -10 -7 -28 -16 -40 -16 -23 -13 -52 4 -52 10 0
18 18 50 115 10 33 45 115 76 183 31 68 56 129 56 136 0 7 27 68 60 134 61
124 68 142 50 142 -6 0 -27 -35 -46 -77z"/>
<path d="M7032 8534 c-47 -52 -154 -151 -303 -278 -57 -49 -180 -162 -274
-250 -93 -89 -192 -182 -218 -206 -26 -24 -46 -48 -44 -54 3 -6 -5 -22 -17
-35 -11 -13 -16 -22 -9 -20 7 2 108 99 225 214 117 116 263 252 323 304 61 52
128 113 150 135 23 23 84 82 138 133 53 50 97 94 97 97 0 19 -34 0 -68 -40z"/>
<path d="M3190 8557 c0 -22 135 -146 265 -242 68 -52 217 -184 350 -311 273
-263 301 -288 315 -279 18 11 10 30 -27 57 -19 15 -142 128 -272 252 -130 123
-287 263 -350 312 -62 49 -146 119 -186 156 -72 67 -95 80 -95 55z m190 -163
c34 -36 34 -37 5 -17 -16 12 -46 38 -65 59 -34 36 -34 37 -5 17 17 -12 46 -38
65 -59z"/>
<path d="M3830 8393 c0 -11 19 -40 42 -63 49 -51 265 -311 326 -393 44 -59 58
-68 69 -41 3 10 -7 29 -29 52 -19 20 -56 64 -84 97 -27 32 -73 84 -102 113
-29 30 -59 69 -66 86 -8 17 -46 62 -85 101 -57 55 -71 65 -71 48z"/>
<path d="M6445 8396 c-20 -28 -171 -203 -249 -289 -45 -49 -93 -107 -108 -129
-15 -22 -35 -46 -44 -53 -19 -14 -12 -49 8 -43 7 3 26 28 43 56 31 53 153 202
292 356 45 50 81 94 81 99 -1 15 -13 17 -23 3z"/>
<path d="M5063 8311 c-69 -43 -113 -171 -133 -391 -7 -78 -13 -472 -15 -1050
-4 -937 -9 -1192 -24 -1218 -6 -10 -13 17 -22 74 -13 87 -13 198 -6 1689 1
347 -32 499 -124 568 -34 24 -89 24 -131 0 -94 -54 -142 -298 -153 -773 -6
-238 -23 -455 -52 -655 -13 -93 -14 -160 -8 -425 13 -496 5 -665 -32 -677 -40
-14 -47 941 -9 1197 20 138 21 439 1 534 -26 123 -80 186 -159 186 -69 0 -134
-87 -170 -225 -28 -110 -57 -345 -66 -539 -4 -105 -11 -198 -14 -206 -16 -45
-36 -322 -41 -585 -3 -165 -8 -327 -10 -360 -3 -33 -7 -94 -10 -135 -27 -440
-28 -469 -17 -685 7 -121 12 -314 12 -430 0 -220 18 -448 45 -575 49 -237 128
-482 215 -670 37 -80 85 -197 108 -260 l40 -115 12 -240 c7 -132 14 -420 15
-640 2 -286 6 -409 15 -432 12 -34 25 -42 32 -20 7 18 -10 1050 -20 1223 -5
83 -12 157 -17 165 -5 8 14 -7 42 -33 28 -26 64 -50 80 -53 15 -4 34 -8 41
-11 27 -8 10 7 -25 21 -20 8 -65 45 -100 81 -57 59 -69 78 -112 187 -26 67
-64 154 -83 192 -51 102 -81 187 -137 390 -78 279 -101 470 -101 830 0 105 -5
288 -12 407 -8 164 -9 257 0 385 20 291 32 538 42 868 6 181 17 363 25 420 9
55 20 183 25 285 22 453 93 710 195 710 31 0 71 -48 92 -110 26 -78 26 -473 0
-635 -14 -90 -17 -179 -18 -485 -1 -498 19 -740 59 -740 10 0 -28 -27 -83 -59
-100 -59 -191 -129 -181 -139 3 -3 14 2 23 10 32 28 296 166 403 211 168 70
361 107 562 107 74 0 157 3 184 8 41 6 31 8 -71 12 -66 3 -151 2 -190 -1 -38
-4 -71 -6 -72 -5 -1 1 4 26 12 56 30 111 46 542 40 1020 -8 551 8 1322 29
1468 24 161 69 242 135 242 55 0 107 -86 130 -216 23 -127 33 -273 41 -639 5
-209 14 -445 21 -525 6 -80 12 -379 14 -665 2 -553 1 -531 51 -697 4 -13 0
-18 -15 -18 -12 0 -21 -5 -21 -11 0 -7 51 -10 158 -8 86 1 200 -2 252 -8 56
-7 99 -7 105 -2 5 5 -5 9 -27 9 -20 0 -72 7 -115 15 -43 8 -120 15 -172 15
-85 0 -93 2 -86 18 18 46 29 372 27 877 -1 484 -4 572 -23 745 -17 160 -20
228 -15 380 9 249 30 332 98 383 59 44 121 -22 158 -168 29 -113 60 -337 71
-515 10 -160 46 -518 54 -531 12 -18 35 -352 35 -504 1 -337 31 -705 70 -856
6 -19 14 -96 19 -170 12 -164 46 -405 67 -478 17 -60 77 -186 94 -196 14 -9
-7 -45 -26 -45 -38 0 -158 -78 -264 -171 -199 -174 -186 -170 42 11 59 47 134
100 168 118 l62 32 -7 -32 c-6 -28 -1 -24 34 31 23 35 51 65 61 68 34 9 59 62
220 464 34 85 61 170 65 205 10 79 58 230 107 332 115 241 269 385 442 415 59
10 67 9 86 -8 34 -30 26 -80 -26 -168 -25 -43 -60 -117 -79 -165 -37 -97 -135
-414 -135 -438 0 -9 -33 -115 -74 -237 -75 -227 -123 -423 -151 -627 -25 -178
-81 -324 -197 -518 -28 -46 -66 -122 -85 -169 -41 -103 -145 -313 -207 -416
-24 -42 -82 -126 -129 -189 -46 -62 -89 -123 -96 -135 -6 -13 -16 -23 -21 -23
-5 0 -36 -18 -69 -40 -119 -79 -190 -110 -255 -110 -62 0 -174 29 -241 62 -51
26 -131 85 -217 161 -75 66 -98 111 -119 234 -14 80 -29 104 -29 48 0 -50 44
-217 66 -251 10 -14 56 -53 103 -86 47 -33 104 -75 126 -93 49 -40 87 -56 183
-79 152 -38 285 -5 401 100 28 25 51 44 51 41 0 -2 -11 -29 -24 -58 -46 -104
-49 -146 -48 -612 1 -241 4 -442 6 -446 3 -4 6 -132 7 -284 1 -152 6 -277 11
-277 5 0 16 17 25 37 14 34 15 74 7 343 -5 168 -9 483 -9 700 1 356 3 400 19
450 29 87 81 179 158 281 126 165 222 333 316 551 32 75 93 196 134 270 118
208 168 349 188 529 16 141 68 364 127 534 30 88 70 219 89 290 19 72 57 201
85 287 45 142 67 193 153 352 18 34 26 64 26 99 0 43 -4 53 -35 84 l-36 36
-72 -6 c-183 -16 -365 -175 -495 -433 -45 -88 -98 -248 -111 -334 -11 -71 -50
-186 -112 -330 -89 -209 -128 -295 -133 -292 -3 1 -17 2 -31 2 -30 0 -66 52
-83 120 -16 65 -50 325 -61 465 -5 66 -21 183 -35 260 -35 193 -46 318 -52
620 -6 327 -20 538 -44 685 -10 63 -25 212 -34 330 -48 638 -104 866 -222 899
-92 25 -164 -44 -199 -191 -25 -105 -30 -407 -10 -583 17 -149 30 -569 30
-945 0 -251 -14 -609 -24 -628 -5 -9 -12 6 -20 45 -9 40 -14 214 -16 573 -2
283 -8 576 -14 650 -6 74 -15 313 -20 530 -12 501 -33 676 -95 799 -14 27 -37
58 -52 70 -34 27 -98 28 -141 2z m-346 -376 c31 -22 61 -94 79 -192 22 -124
29 -410 15 -573 -15 -163 -15 -1104 -1 -1325 11 -158 25 -294 35 -326 4 -10
13 -19 21 -19 8 0 14 -4 14 -8 0 -5 -66 -19 -147 -32 -87 -14 -178 -35 -221
-52 -40 -15 -76 -28 -81 -28 -5 0 -5 16 0 38 21 88 27 335 16 650 -12 339 -12
323 33 697 13 103 20 226 20 345 1 306 31 611 71 729 33 96 91 134 146 96z"/>
<path d="M4595 7110 l-40 -7 50 -2 c28 -1 68 -4 90 -7 27 -5 37 -3 30 4 -14
14 -83 21 -130 12z"/>
<path d="M4493 6372 c16 -25 184 -43 215 -23 8 5 -17 11 -65 15 -43 4 -95 9
-117 13 -25 3 -36 2 -33 -5z"/>
<path d="M3530 7871 c0 -11 51 -52 140 -111 36 -24 118 -84 184 -132 65 -49
125 -88 134 -86 19 4 28 28 10 28 -17 0 -102 57 -188 125 -75 60 -259 185
-271 185 -5 0 -9 -4 -9 -9z"/>
<path d="M6634 7812 c-56 -37 -118 -82 -139 -101 -40 -35 -158 -113 -187 -124
-17 -6 -26 -37 -11 -37 13 0 111 67 205 140 53 41 124 91 158 110 54 30 89 64
78 75 -2 2 -49 -27 -104 -63z"/>
<path d="M3022 7819 c8 -23 134 -92 405 -221 142 -68 302 -146 355 -175 95
-52 133 -64 126 -42 -5 16 -161 101 -332 181 -82 38 -238 113 -345 166 -108
53 -200 98 -205 100 -5 3 -6 -2 -4 -9z"/>
<path d="M7185 7783 c-38 -20 -106 -51 -150 -68 -44 -18 -181 -82 -305 -142
-124 -60 -262 -127 -307 -148 -77 -37 -97 -55 -74 -70 12 -7 257 120 291 151
26 24 83 51 135 65 33 8 374 162 444 200 25 13 46 30 49 37 6 18 -6 15 -83
-25z"/>
<path d="M5036 7422 c-10 -17 79 -26 147 -15 l62 10 -65 2 c-36 1 -81 4 -101
7 -21 4 -39 2 -43 -4z"/>
<path d="M6800 7294 c-19 -8 -65 -23 -101 -33 -36 -11 -90 -30 -120 -44 -30
-13 -66 -28 -81 -31 -16 -4 -28 -11 -28 -16 0 -19 49 -10 107 19 32 16 75 32
96 35 51 9 181 62 185 75 5 15 -16 13 -58 -5z"/>
<path d="M3397 7294 c-10 -10 53 -37 138 -59 39 -10 93 -28 121 -41 29 -12 67
-25 85 -29 30 -7 32 -6 20 9 -7 9 -20 16 -28 16 -7 0 -31 9 -51 19 -20 10 -84
33 -142 51 -58 17 -112 33 -120 36 -9 3 -19 2 -23 -2z"/>
<path d="M5697 7094 c-3 -3 -43 -6 -89 -6 -71 0 -78 -2 -48 -10 43 -12 136 -6
152 10 8 8 8 12 2 12 -6 0 -13 -3 -17 -6z"/>
<path d="M3150 7051 c0 -18 46 -31 113 -31 34 0 127 -12 207 -26 185 -32 270
-40 270 -26 0 19 -250 62 -420 72 -69 4 -135 11 -147 15 -15 5 -23 3 -23 -4z"/>
<path d="M7027 7050 c-16 -5 -76 -13 -134 -19 -57 -6 -109 -14 -115 -17 -6 -4
-60 -10 -120 -14 -60 -4 -114 -12 -119 -17 -14 -14 195 -7 301 11 155 25 313
56 318 61 9 8 -101 4 -131 -5z"/>
<path d="M6275 6960 c-9 -15 4 -30 26 -30 12 0 19 7 19 20 0 21 -33 29 -45 10z"/>
<path d="M3604 6636 c-10 -26 4 -48 28 -44 17 2 23 10 23 28 0 18 -6 26 -23
28 -13 2 -25 -3 -28 -12z"/>
<path d="M6531 6560 c-22 -127 -50 -157 -163 -180 -33 -6 -58 -13 -56 -15 1
-2 32 -11 67 -20 107 -28 131 -53 155 -168 l12 -62 7 60 c13 104 56 150 162
174 30 7 53 16 51 20 -3 4 -29 13 -58 20 -68 15 -115 44 -130 79 -6 15 -16 59
-23 97 l-11 70 -13 -75z m42 -168 l27 -28 -27 -26 -28 -27 -28 25 -28 24 23
30 c13 16 26 29 29 29 3 1 17 -12 32 -27z"/>
<path d="M5220 6595 c-36 -8 -82 -14 -103 -14 -23 -1 -36 -5 -32 -11 14 -22
180 1 208 29 13 13 10 13 -73 -4z"/>
<path d="M4110 6561 c-63 -6 -64 -6 -25 -13 60 -11 89 -10 111 7 22 17 30 16
-86 6z"/>
<path d="M5571 6411 c-37 -23 95 -38 159 -18 l45 14 -75 0 c-41 0 -84 2 -95 6
-11 4 -26 3 -34 -2z"/>
<path d="M3210 6287 c0 -61 -31 -130 -70 -159 -14 -10 -54 -24 -90 -32 -36 -8
-58 -16 -50 -19 8 -3 40 -13 70 -23 91 -28 149 -104 150 -194 1 -52 17 -52 23
0 13 112 74 180 175 196 23 4 44 10 47 13 2 4 -22 13 -54 19 -108 23 -151 70
-172 191 -14 75 -29 79 -29 8z m60 -256 l-35 -36 -41 40 -40 40 35 40 36 40
40 -44 40 -43 -35 -37z"/>
<path d="M4050 5995 l-45 -13 35 -1 c67 -2 172 12 158 20 -19 12 -96 9 -148
-6z"/>
<path d="M6201 5842 c-12 -23 -5 -32 26 -32 20 0 24 5 21 22 -4 29 -34 35 -47
10z"/>
<path d="M3472 5491 c-19 -11 -11 -45 11 -49 9 -2 20 4 23 13 9 21 -16 47 -34
36z"/>
<path d="M2916 5311 c-18 -20 -13 -46 11 -55 33 -13 57 36 31 62 -16 16 -22
15 -42 -7z"/>
<path d="M6575 5079 c22 -10 51 -18 65 -18 22 1 20 3 -15 20 -22 10 -51 18
-65 18 -22 -1 -20 -3 15 -20z"/>
<path d="M5098 5080 c-3 -8 -9 -78 -12 -155 -12 -285 -72 -441 -209 -541 -62
-46 -164 -84 -225 -84 -49 0 -29 -14 40 -29 178 -38 314 -179 363 -376 18 -76
34 -216 36 -320 3 -164 15 -137 27 60 6 110 19 228 27 262 49 207 182 344 370
384 l60 12 -62 13 c-122 26 -220 94 -293 204 -64 95 -104 280 -113 520 -1 36
-5 58 -9 50z m129 -679 c26 -30 66 -66 90 -81 l42 -27 -49 -32 c-70 -45 -125
-113 -174 -212 l-42 -86 -13 41 c-26 85 -113 195 -206 262 l-29 20 46 32 c70
48 136 128 176 213 l36 77 37 -77 c21 -42 59 -100 86 -130z"/>
<path d="M5794 5007 c-77 -69 -356 -298 -414 -340 -22 -15 -19 -15 15 2 22 10
61 36 87 57 25 22 100 82 165 136 107 87 225 198 212 198 -3 0 -32 -24 -65
-53z"/>
<path d="M3227 4875 c-11 -186 -86 -278 -250 -307 l-62 -11 45 -14 c105 -33
136 -48 178 -87 58 -53 78 -102 93 -225 7 -55 15 -98 18 -95 3 3 6 40 8 82 7
188 89 290 261 324 l57 12 -65 16 c-80 19 -151 59 -186 105 -33 44 -60 129
-69 223 -4 39 -10 72 -15 72 -4 0 -10 -43 -13 -95z m93 -275 c3 -3 16 -13 29
-22 l23 -16 -61 -60 c-34 -33 -61 -65 -61 -71 0 -7 -29 18 -64 54 l-63 67 47
44 c27 25 53 58 60 74 l12 29 36 -47 c19 -26 38 -49 42 -52z"/>
<path d="M4885 4839 c-130 -99 -500 -220 -726 -236 l-104 -8 80 -6 c110 -7
243 14 400 66 164 54 265 102 343 160 34 26 62 49 62 51 0 10 -18 1 -55 -27z"/>
<path d="M7158 4599 c-40 -23 -3 -78 42 -64 22 7 25 26 10 56 -12 21 -26 23
-52 8z"/>
<path d="M5864 4553 c-15 -26 -35 -63 -46 -82 -25 -45 -16 -51 13 -9 28 39 71
129 65 135 -2 3 -17 -17 -32 -44z"/>
<path d="M4525 3958 l-40 -43 43 40 c39 36 47 45 39 45 -2 0 -21 -19 -42 -42z"/>
<path d="M7040 3884 c0 -22 -7 -64 -15 -92 -20 -66 -62 -99 -144 -115 -34 -6
-61 -14 -61 -17 0 -3 33 -15 74 -27 91 -28 131 -67 142 -140 12 -83 21 -94 29
-38 10 70 39 127 76 149 17 10 58 26 92 36 59 17 60 18 32 25 -83 20 -102 26
-131 44 -37 22 -62 72 -70 138 -9 66 -23 89 -24 37z m45 -196 l34 -33 -30 -31
-30 -31 -34 34 -33 33 26 29 c15 16 28 29 30 30 1 0 18 -14 37 -31z"/>
<path d="M4423 3838 c-38 -51 -76 -114 -56 -93 11 11 85 112 97 133 18 30 -5
8 -41 -40z"/>
<path d="M3545 3790 c-10 -17 20 -44 40 -36 9 3 15 14 13 23 -4 21 -43 30 -53
13z"/>
<path d="M3207 3473 c-13 -12 -7 -41 10 -47 21 -8 48 17 40 38 -6 16 -38 22
-50 9z"/>
<path d="M3380 2900 c-169 -78 -212 -282 -84 -400 50 -46 76 -54 145 -48 62 6
100 33 112 78 7 29 6 37 -13 52 -12 10 -31 18 -41 18 -28 0 -41 -39 -23 -67
13 -20 12 -23 -8 -34 -40 -21 -103 -15 -141 14 -116 88 -85 278 58 350 149 75
374 -40 500 -254 71 -121 104 -225 175 -544 36 -163 87 -502 77 -512 -3 -2
-17 27 -32 64 -63 158 -244 378 -363 441 -123 66 -194 64 -288 -7 -62 -46 -87
-106 -88 -209 -1 -69 1 -75 27 -98 38 -32 81 -32 103 2 23 34 6 53 -31 36 -15
-7 -31 -10 -36 -7 -5 4 -9 38 -9 77 0 128 67 201 184 202 80 0 141 -31 233
-121 111 -108 252 -344 302 -508 12 -38 44 -117 71 -175 l50 -105 -35 40 c-34
38 -105 153 -105 170 0 4 7 1 17 -6 15 -13 15 -12 3 11 -48 93 -219 279 -277
301 -106 40 -226 -37 -252 -163 -14 -65 -2 -127 29 -158 61 -61 228 -11 205
61 -10 31 -67 23 -75 -11 -5 -20 -13 -26 -44 -28 -42 -4 -60 8 -83 51 -47 92
57 237 160 222 49 -7 153 -60 172 -88 24 -34 17 -43 -12 -16 -35 31 -16 4 47
-67 25 -28 83 -120 130 -204 46 -85 98 -169 114 -188 41 -47 197 -122 253
-122 23 0 45 4 48 10 3 6 11 10 17 10 25 0 -17 -30 -50 -36 -48 -9 -113 9
-182 51 -55 33 -157 65 -212 65 -41 0 -88 -52 -88 -99 0 -48 24 -81 59 -81 33
0 51 16 51 46 0 33 -18 39 -44 14 -22 -19 -25 -20 -40 -5 -22 22 -20 32 9 60
45 46 151 27 260 -48 54 -37 67 -42 130 -45 65 -3 73 -2 113 27 68 50 79 103
36 177 -45 76 -87 92 -129 49 -30 -29 -33 -73 -7 -105 23 -28 59 -20 68 16 7
27 -14 60 -23 37 -6 -17 -33 -17 -33 0 0 18 33 47 53 47 23 0 48 -41 54 -91 7
-51 -11 -69 -71 -69 -29 0 -58 11 -108 41 -65 40 -96 65 -64 53 26 -10 19 8
-27 69 -77 102 -124 259 -162 535 -29 206 -33 229 -91 505 -24 115 -56 239
-70 275 -70 176 -184 331 -280 380 -22 11 -46 27 -53 36 -7 8 -24 17 -39 21
-15 3 -38 8 -52 12 -66 17 -155 13 -200 -7z m285 -30 c8 -13 -5 -13 -25 0 -13
8 -13 10 2 10 9 0 20 -4 23 -10z"/>
<path d="M6638 2901 c-140 -45 -298 -191 -378 -351 -55 -109 -110 -322 -155
-608 -49 -304 -63 -398 -70 -460 -7 -72 -51 -205 -100 -302 -38 -76 -135 -189
-179 -209 -24 -11 -27 -15 -14 -18 10 -2 57 12 105 31 120 49 159 90 269 283
49 86 107 177 129 202 22 25 53 63 69 84 74 101 187 103 259 5 31 -41 34 -133
8 -175 -18 -28 -27 -33 -59 -33 -45 0 -56 8 -41 26 8 10 5 16 -14 25 -31 14
-64 -2 -69 -33 -2 -18 5 -27 36 -40 88 -40 173 -10 197 71 27 91 -41 227 -133
265 -41 17 -50 17 -89 5 -25 -8 -48 -23 -53 -34 -5 -11 -33 -40 -63 -64 -55
-44 -147 -154 -137 -163 5 -5 -68 -127 -138 -231 -22 -32 -42 -56 -45 -54 -2
3 7 28 22 57 14 28 39 89 56 136 116 329 319 627 484 709 77 38 177 43 222 9
57 -42 94 -143 78 -214 -7 -30 -8 -31 -45 -25 -44 7 -55 -3 -35 -33 19 -27 70
-38 92 -20 31 26 55 96 48 141 -10 58 -42 138 -67 164 -58 62 -199 70 -304 17
-133 -67 -265 -229 -386 -472 -34 -67 -62 -121 -64 -119 -3 3 31 255 51 367
51 293 69 379 105 500 22 74 56 167 75 205 86 170 272 322 419 340 146 19 275
-83 276 -218 0 -62 -19 -105 -64 -145 -29 -26 -45 -32 -81 -32 -57 0 -98 18
-89 39 17 41 16 59 -5 71 -48 25 -81 -18 -60 -78 30 -86 176 -94 268 -16 44
38 62 80 63 151 2 107 -49 190 -144 237 -64 32 -163 35 -250 7z m-738 -1834
c0 -2 -10 -12 -21 -23 -22 -19 -22 -19 -10 4 10 18 31 31 31 19z"/>
<path d="M4789 2675 c-37 -7 -81 -20 -97 -29 -19 -10 -56 -16 -97 -16 -36 0
-64 -4 -61 -8 8 -13 148 -15 156 -2 10 16 139 50 190 50 25 -1 65 -5 90 -10
57 -11 64 -5 17 15 -43 18 -108 18 -198 0z"/>
<path d="M5147 2349 c-9 -201 -9 -446 1 -589 5 -88 8 -15 12 305 5 425 -1 562
-13 284z"/>
<path d="M5021 2440 c-12 -302 -17 -628 -12 -685 5 -47 10 49 15 285 4 195 6
378 4 405 l-4 50 -3 -55z"/>
<path d="M3734 2316 c-40 -40 -43 -56 -11 -56 47 0 142 -88 219 -200 50 -73
49 -44 -1 40 -50 83 -125 168 -157 176 -31 8 -31 22 0 30 43 10 65 -6 107 -77
23 -38 44 -68 46 -65 2 2 -12 38 -32 80 -53 111 -108 135 -171 72z"/>
<path d="M6393 2328 c-24 -27 -63 -101 -63 -120 0 -7 13 7 29 32 15 25 34 50
42 56 21 17 71 24 91 13 21 -11 24 -29 6 -29 -7 0 -39 -20 -72 -45 -32 -24
-62 -45 -66 -47 -13 -5 -61 -89 -76 -132 -13 -38 -13 -39 2 -21 9 11 25 38 36
60 45 87 136 165 193 165 19 0 35 4 35 9 0 5 -18 25 -40 45 -47 42 -86 47
-117 14z"/>
<path d="M6235 2020 c-26 -42 -31 -55 -16 -46 10 7 53 86 46 86 -3 0 -16 -18
-30 -40z"/>
<path d="M5637 1179 c-29 -17 -46 -63 -48 -135 -2 -52 2 -76 15 -96 23 -35 84
-58 155 -58 49 0 70 6 123 35 137 76 196 95 252 81 28 -7 50 -40 42 -62 -5
-12 -9 -12 -26 -2 -16 11 -23 10 -37 -4 -16 -16 -16 -19 2 -38 23 -26 50 -25
76 1 17 17 20 29 16 63 -15 110 -132 116 -307 15 -91 -53 -166 -63 -222 -29
-86 50 -70 208 19 198 16 -2 29 -10 31 -19 2 -13 -3 -15 -23 -11 -24 4 -26 2
-23 -23 2 -15 11 -33 21 -39 15 -9 22 -7 38 13 26 32 24 67 -6 96 -25 26 -67
32 -98 14z"/>
<path d="M5078 1138 c-10 -12 -18 -35 -18 -50 0 -27 -2 -28 -47 -28 -45 -1
-47 -2 -28 -16 11 -8 35 -14 55 -12 33 3 36 6 45 52 10 46 12 48 28 32 9 -10
17 -33 17 -52 l0 -35 52 3 c61 4 77 25 22 30 -33 3 -39 7 -46 35 -7 27 -40 63
-58 63 -3 0 -13 -10 -22 -22z"/>
<path d="M4930 1005 c0 -3 17 -12 38 -20 66 -27 121 -143 122 -255 0 -78 -30
-126 -135 -213 l-29 -25 39 -11 c47 -13 75 -14 75 -3 0 5 -12 12 -27 18 l-28
9 46 33 c26 19 52 45 58 58 9 21 13 23 31 12 11 -7 20 -18 20 -23 0 -25 29
-47 68 -55 61 -11 60 3 -3 36 -29 16 -52 30 -50 33 2 2 -2 16 -10 32 -47 91
29 335 111 355 29 8 32 24 3 24 -28 0 -61 -19 -54 -31 4 -5 -8 -26 -26 -46
-17 -20 -41 -57 -52 -82 l-20 -46 -14 55 c-9 34 -25 66 -43 85 -16 17 -37 38
-46 48 -14 15 -74 25 -74 12z"/>
<path d="M5312 900 c-90 -55 -80 -222 18 -287 108 -74 233 -62 357 32 52 40
96 92 85 99 -5 3 -39 -17 -75 -44 -114 -86 -224 -111 -312 -71 -73 33 -117
110 -101 176 15 60 103 99 126 56 14 -27 13 -30 -10 -24 -16 4 -20 0 -20 -20
0 -38 24 -53 55 -33 42 28 33 96 -16 121 -38 20 -68 19 -107 -5z"/>
<path d="M4795 885 c-30 -29 -33 -75 -6 -99 25 -23 59 -13 67 19 8 32 -3 47
-29 39 -19 -6 -20 -5 -8 10 15 18 53 21 82 6 31 -17 52 -68 46 -116 -10 -91
-82 -143 -198 -144 -106 0 -171 42 -272 174 -16 20 -32 34 -37 31 -11 -7 -3
-32 22 -65 122 -160 273 -215 409 -147 76 37 113 90 113 161 0 62 -24 110 -67
136 -45 28 -92 26 -122 -5z"/>
<path d="M5198 493 c-36 -5 -36 -19 -1 -26 31 -6 73 7 73 23 0 10 -20 11 -72
3z"/>
<path d="M5065 436 c-12 -77 15 -112 61 -81 27 17 39 54 30 90 -10 39 -25 30
-28 -17 -3 -37 -7 -44 -27 -46 -23 -4 -24 -2 -18 42 4 25 2 48 -3 51 -5 3 -12
-15 -15 -39z"/>
</g>
</svg>
