<svg xmlns="http://www.w3.org/2000/svg" viewBox="0 0 554.01593 1002.834863" color="#C8A848"><rect width="554.01593" height="1002.834863" fill="#1A0A24"/><g transform="translate(-223.884070,1031.900000) scale(0.100000,-0.100000)"
fill="currentColor" stroke="none">
<path d="M5064 10135 c-11 -50 -11 -869 0 -950 8 -55 9 -58 20 -35 15 34 14
952 -1 995 l-10 30 -9 -40z"/>
<path d="M4436 10043 c14 -101 219 -897 247 -965 l15 -33 -5 45 c-7 60 -7 61
-117 495 -94 369 -133 505 -142 505 -3 0 -2 -21 2 -47z"/>
<path d="M5707 9950 c-25 -81 -135 -453 -218 -739 -35 -121 -61 -241 -53 -241
13 0 255 791 289 942 25 116 14 140 -18 38z"/>
<path d="M3850 9866 c0 -21 44 -122 229 -525 94 -205 181 -397 193 -425 32
-73 68 -134 68 -114 0 33 -33 115 -155 378 -67 146 -166 363 -220 483 -89 196
-115 243 -115 203z"/>
<path d="M6271 9728 c-7 -11 -61 -111 -121 -222 -59 -111 -167 -310 -239 -444
-130 -241 -164 -309 -141 -286 17 17 357 633 446 808 43 85 76 157 73 160 -3
3 -11 -4 -18 -16z"/>
<path d="M3282 9723 c4 -22 43 -25 43 -3 0 8 -11 16 -23 18 -19 3 -23 0 -20
-15z"/>
<path d="M6756 9439 c-36 -46 -66 -87 -66 -91 0 -19 19 -2 70 64 63 81 74 98
67 105 -3 3 -35 -33 -71 -78z"/>
<path d="M3517 9273 c100 -136 292 -383 417 -537 67 -81 127 -155 133 -164 7
-8 15 -13 18 -10 3 3 -36 59 -88 124 -51 66 -164 214 -252 329 -184 244 -239
311 -266 326 -12 6 4 -23 38 -68z"/>
<path d="M6468 9063 c-77 -90 -261 -314 -402 -491 -33 -40 -57 -75 -54 -77 5
-6 43 39 325 380 181 220 231 285 220 285 -3 0 -43 -44 -89 -97z"/>
<path d="M2930 9124 c47 -55 406 -365 735 -633 77 -63 162 -133 188 -154 26
-22 50 -37 53 -35 2 3 -71 70 -163 149 -93 79 -280 240 -416 358 -339 293
-460 390 -397 315z"/>
<path d="M7108 9051 c-20 -15 -122 -102 -225 -193 -103 -91 -313 -274 -465
-408 -153 -133 -278 -244 -278 -246 0 -16 45 21 748 625 80 69 270 250 262
250 -3 0 -22 -12 -42 -28z"/>
<path d="M4984 8820 c-47 -11 -123 -70 -150 -116 -36 -61 -73 -219 -80 -345
-4 -60 -11 -109 -16 -109 -4 0 -8 8 -8 18 0 31 -47 118 -75 140 -39 31 -91 29
-146 -6 -79 -50 -114 -102 -153 -226 -78 -241 -99 -398 -136 -1006 -6 -96 -19
-263 -30 -370 -11 -107 -27 -310 -35 -450 -23 -370 -110 -1120 -155 -1325 -5
-22 -14 -91 -21 -152 -9 -72 -17 -113 -25 -113 -13 0 -42 75 -78 205 -37 136
-56 247 -66 386 -11 157 -51 341 -96 438 -117 254 -356 486 -563 546 -96 28
-154 23 -193 -15 -39 -39 -36 -64 31 -220 98 -231 153 -432 166 -605 3 -49 13
-121 21 -160 116 -542 142 -710 154 -965 16 -332 16 -332 170 -695 54 -126
141 -338 195 -470 104 -256 180 -413 298 -617 78 -132 113 -226 143 -378 35
-173 29 -762 -11 -1135 -8 -77 -24 -225 -35 -330 -11 -104 -20 -212 -19 -240
l1 -50 13 30 c8 17 14 24 15 16 1 -44 13 21 44 235 82 563 86 609 93 972 7
366 -2 479 -48 637 -16 55 -31 110 -34 123 -2 13 -18 47 -35 77 l-31 54 84
-39 c46 -22 103 -42 128 -45 34 -5 25 0 -44 24 -162 57 -175 67 -261 205 -92
147 -168 306 -289 606 -63 157 -138 337 -167 400 -113 250 -140 358 -140 560
0 218 -18 347 -120 839 -27 133 -54 289 -59 345 -21 216 -65 369 -191 670 -22
54 -39 105 -36 112 8 20 92 18 157 -5 173 -59 353 -226 472 -438 64 -113 116
-291 117 -397 0 -58 -46 -151 -97 -196 -19 -17 -29 -30 -23 -30 18 0 87 69
100 100 7 17 16 30 20 30 8 0 8 -5 -5 -62 -3 -15 -20 -44 -38 -64 -25 -29 -27
-35 -10 -26 12 7 31 24 42 38 36 45 23 10 -15 -42 l-35 -49 42 45 42 45 -7
-43 c-4 -24 -16 -62 -27 -84 -11 -22 -15 -37 -9 -33 7 4 22 29 35 56 l22 48
11 -78 c11 -74 10 -83 -13 -143 -22 -56 -22 -60 -5 -40 11 13 22 39 26 59 5
25 9 31 15 21 13 -20 11 -91 -6 -137 -18 -53 -9 -53 13 0 l18 42 19 -64 c10
-35 30 -83 43 -107 21 -37 24 -52 19 -108 -6 -76 5 -77 14 -1 l5 52 18 -39
c14 -31 17 -57 13 -120 -2 -45 -8 -92 -11 -106 -7 -23 -6 -23 9 3 9 16 19 53
22 83 5 48 7 52 19 36 7 -9 14 -35 15 -57 l2 -40 6 37 c5 29 9 35 20 29 17
-11 10 -113 -13 -181 -14 -39 -14 -42 -1 -25 22 28 35 82 35 143 0 50 14 69
26 37 4 -8 10 -12 15 -9 5 3 28 -8 51 -24 24 -16 58 -37 77 -47 80 -41 186
-164 325 -378 42 -65 79 -117 82 -117 4 0 0 10 -8 23 -8 12 -33 54 -55 92 -23
39 -71 111 -109 160 -76 101 -278 320 -324 350 -16 11 -30 25 -30 30 0 6 -15
20 -34 32 -53 34 -67 74 -57 171 5 46 11 86 14 89 3 3 49 -11 102 -32 53 -20
98 -35 100 -33 3 2 -43 22 -101 43 l-104 40 6 45 c3 25 21 144 39 265 72 466
110 808 131 1165 8 140 26 370 39 510 14 140 29 345 35 455 27 535 99 908 196
1015 68 75 127 79 161 10 64 -130 72 -277 54 -1010 -7 -261 -16 -693 -22 -960
-5 -272 -15 -520 -22 -565 l-12 -80 -100 -12 c-114 -14 -211 -37 -115 -27 30
3 106 9 168 14 75 5 118 12 127 21 25 27 33 188 65 1369 6 212 15 502 19 645
5 143 6 314 4 381 -9 199 23 476 64 559 48 95 148 135 205 82 30 -28 61 -106
82 -210 18 -85 36 -342 36 -517 0 -63 7 -180 16 -260 19 -183 33 -664 42
-1440 l7 -604 45 -33 c25 -18 65 -48 90 -66 100 -75 220 -153 220 -144 0 3
-42 35 -92 70 -107 76 -168 129 -152 134 11 4 149 -54 245 -102 28 -15 53 -24
55 -22 8 7 -210 114 -259 127 -37 10 -51 19 -59 39 -6 16 -12 203 -14 492 -3
559 -21 1307 -34 1476 -13 164 -13 465 -1 533 6 30 28 89 48 130 41 80 85 120
133 120 98 0 164 -258 215 -845 9 -99 27 -299 40 -445 13 -146 31 -355 40
-465 8 -110 18 -211 20 -225 3 -14 9 -250 14 -525 7 -410 11 -506 23 -535 16
-36 155 -177 196 -199 38 -20 25 -4 -39 45 -36 29 -67 63 -76 84 -19 44 -22
285 -9 790 7 311 6 382 -10 575 -26 300 -24 511 5 632 26 105 51 150 103 178
45 24 59 15 88 -61 30 -82 100 -485 121 -699 48 -504 66 -760 94 -1330 8 -170
22 -380 31 -465 20 -187 22 -548 5 -745 -18 -214 -60 -561 -77 -645 -8 -41
-22 -117 -29 -167 -50 -324 -208 -759 -321 -882 -53 -58 -133 -122 -204 -164
-66 -39 -38 -33 34 7 74 42 138 96 179 150 16 23 27 33 23 23 -3 -10 -9 -37
-12 -60 -4 -23 -17 -85 -30 -137 -12 -52 -26 -131 -30 -175 -3 -44 -8 -89 -10
-100 -2 -11 -4 -204 -5 -430 0 -403 7 -543 42 -785 26 -181 78 -422 89 -415 4
3 10 -1 13 -7 2 -7 8 -2 11 12 4 15 -2 80 -13 145 -46 279 -70 614 -75 1035
-4 306 6 476 35 625 25 127 37 165 114 355 198 490 290 967 339 1772 14 224
14 226 -24 703 -6 72 -15 279 -20 460 -20 668 -63 1120 -155 1632 -47 263 -62
316 -102 371 -49 66 -105 65 -181 -3 -42 -37 -53 -56 -75 -122 -27 -82 -47
-203 -47 -280 0 -86 -10 -37 -20 98 -18 242 -70 762 -85 854 -50 296 -119 425
-228 425 -21 0 -51 -7 -66 -15 -50 -25 -110 -103 -130 -169 -10 -34 -23 -61
-27 -61 -5 0 -12 52 -15 115 -10 173 -63 336 -131 396 -20 19 -81 46 -97 43
-3 -1 -20 -4 -37 -9z"/>
<path d="M2772 8630 c46 -36 639 -409 826 -519 67 -40 126 -71 131 -69 5 2
-48 39 -117 82 -70 44 -219 140 -332 214 -305 200 -436 282 -482 298 -53 18
-56 18 -26 -6z"/>
<path d="M7287 8593 c-4 -3 -7 -15 -7 -25 0 -21 20 -24 38 -6 18 18 15 38 -6
38 -10 0 -22 -3 -25 -7z"/>
<path d="M7060 8421 c-47 -26 -177 -104 -290 -173 -113 -68 -258 -155 -323
-192 -65 -38 -116 -71 -113 -74 7 -7 174 87 516 291 324 193 331 197 309 197
-8 0 -53 -22 -99 -49z"/>
<path d="M2757 7990 c-4 -25 -14 -97 -22 -160 -22 -163 -38 -212 -80 -249 -53
-46 -90 -63 -195 -87 -94 -22 -95 -23 -41 -23 66 -1 165 -26 209 -53 18 -11
41 -36 51 -57 30 -58 62 -205 70 -320 5 -58 9 -83 10 -56 2 80 29 245 51 311
28 84 65 117 170 149 47 15 90 28 95 29 6 2 -15 9 -45 16 -188 45 -243 134
-259 415 -5 103 -8 121 -14 85z m82 -481 l39 -33 -48 -43 c-26 -23 -53 -56
-60 -73 l-13 -31 -17 38 c-18 41 -75 97 -110 108 -19 6 -18 9 17 34 45 32 103
96 103 114 1 7 12 -9 25 -35 14 -26 42 -61 64 -79z"/>
<path d="M7316 7910 c-12 -117 -43 -265 -64 -312 -32 -71 -87 -106 -197 -123
l-50 -8 50 -9 c136 -24 192 -64 220 -161 17 -61 34 -172 36 -242 1 -42 3 -37
10 30 10 102 26 187 45 248 23 70 84 105 229 133 l40 7 -72 13 c-94 16 -139
39 -173 86 -38 52 -52 118 -59 278 l-7 135 -8 -75z m65 -396 c19 -17 41 -34
49 -36 11 -3 6 -9 -15 -20 -36 -19 -67 -52 -88 -92 l-15 -30 -20 41 c-12 22
-35 52 -52 66 l-31 26 39 36 c22 19 45 49 52 65 l13 31 17 -28 c10 -15 33 -42
51 -59z"/>
<path d="M3267 7924 c-8 -8 1 -24 14 -24 5 0 9 7 9 15 0 15 -12 20 -23 9z"/>
<path d="M5040 7884 c37 -8 88 -9 84 -2 -3 4 -26 7 -52 7 -26 -1 -40 -3 -32
-5z"/>
<path d="M5035 7814 c46 -7 123 -8 118 -1 -2 4 -34 6 -71 6 -37 -1 -58 -3 -47
-5z"/>
<path d="M5055 7739 c56 -11 95 -11 95 1 0 6 -28 10 -67 9 -63 -1 -65 -2 -28
-10z"/>
<path d="M5575 7590 c-14 -6 -4 -9 38 -9 36 -1 56 3 52 9 -7 12 -62 12 -90 0z"/>
<path d="M4498 7532 c-9 -4 21 -7 67 -7 46 0 78 3 72 7 -15 9 -116 9 -139 0z"/>
<path d="M5562 7486 c-29 -8 -54 -15 -56 -17 -3 -2 36 -4 85 -4 49 0 89 1 89
3 0 1 -10 7 -22 13 -22 9 -21 9 4 6 15 -2 25 0 22 4 -7 12 -59 10 -122 -5z"/>
<path d="M4545 7452 c11 -5 44 -12 74 -15 41 -5 52 -4 43 5 -6 6 -40 13 -74
15 -42 2 -56 0 -43 -5z"/>
<path d="M4654 7393 c5 -9 -2 -11 -26 -8 -18 3 -26 2 -18 -1 8 -4 29 -14 45
-22 29 -14 29 -14 15 3 -8 10 -14 21 -13 24 1 3 -1 8 -4 11 -4 3 -3 -1 1 -7z"/>
<path d="M4630 7326 c0 -3 9 -10 20 -16 11 -6 20 -8 20 -6 0 3 -9 10 -20 16
-11 6 -20 8 -20 6z"/>
<path d="M4650 7256 c0 -2 8 -10 18 -17 15 -13 16 -12 3 4 -13 16 -21 21 -21
13z"/>
<path d="M3343 6944 c-9 -24 10 -49 38 -49 20 0 24 5 24 30 0 25 -4 30 -28 33
-18 2 -29 -2 -34 -14z"/>
<path d="M4965 6873 c-49 -12 -27 -18 55 -15 50 2 90 8 90 13 0 9 -108 11
-145 2z"/>
<path d="M4980 6760 c-16 -5 13 -8 80 -8 67 0 96 3 80 8 -14 4 -50 8 -80 8
-30 0 -66 -4 -80 -8z"/>
<path d="M4965 6680 c-13 -6 14 -7 70 -3 50 3 92 7 94 9 9 8 -145 2 -164 -6z"/>
<path d="M4425 6655 l-40 -14 45 7 c58 9 126 9 170 0 l35 -8 -30 15 c-38 18
-128 18 -180 0z"/>
<path d="M5612 6650 c-29 -4 -56 -11 -60 -15 -4 -5 8 -5 27 -1 18 3 63 6 100
7 48 1 59 3 41 9 -30 10 -40 10 -108 0z"/>
<path d="M6058 6643 c17 -2 47 -2 65 0 17 2 3 4 -33 4 -36 0 -50 -2 -32 -4z"/>
<path d="M4415 6593 c-48 -12 -26 -18 68 -20 56 -1 115 -6 130 -12 17 -7 26
-7 22 -1 -17 27 -157 48 -220 33z"/>
<path d="M5591 6596 c2 -2 35 -6 72 -10 46 -5 67 -3 62 4 -3 5 -36 10 -72 10
-37 0 -64 -2 -62 -4z"/>
<path d="M5565 6530 c-26 -11 100 -11 135 0 18 6 5 8 -45 8 -38 0 -79 -3 -90
-8z"/>
<path d="M7152 6395 c-7 -27 -17 -83 -22 -124 -13 -95 -14 -95 -143 -124 l-59
-13 90 -27 c115 -34 127 -48 137 -159 3 -46 10 -99 15 -118 l8 -35 1 40 c1 22
11 84 23 139 25 110 20 105 131 126 37 8 64 17 60 21 -5 3 -42 14 -83 24 -101
24 -110 29 -111 68 0 18 -8 77 -18 132 l-17 100 -12 -50z m32 -272 c4 -10 0
-14 -16 -11 -13 2 -24 11 -26 20 -4 21 34 13 42 -9z"/>
<path d="M6053 6072 c-7 -4 7 -7 30 -7 23 0 58 -3 77 -7 l35 -8 -30 15 c-33
15 -93 19 -112 7z"/>
<path d="M6125 6030 c11 -5 34 -8 50 -8 29 0 29 0 5 8 -14 4 -36 8 -50 8 -23
1 -23 0 -5 -8z"/>
<path d="M5018 5772 c-10 -4 18 -7 62 -7 43 0 73 3 67 7 -15 9 -106 9 -129 0z"/>
<path d="M4573 5743 c15 -2 37 -2 50 0 12 2 0 4 -28 4 -27 0 -38 -2 -22 -4z"/>
<path d="M4973 5702 c-6 -4 12 -7 40 -7 29 0 81 -3 117 -7 64 -6 64 -6 25 7
-43 15 -163 19 -182 7z"/>
<path d="M5980 5315 c36 -39 230 -156 258 -155 4 0 -24 18 -61 40 -38 22 -103
63 -145 91 -54 36 -70 43 -52 24z"/>
<path d="M4771 5283 c56 -73 145 -175 185 -213 l48 -45 -50 55 c-27 30 -80 92
-118 138 -37 45 -70 82 -73 82 -3 0 1 -8 8 -17z"/>
<path d="M6896 5207 c-26 -19 -18 -61 12 -65 44 -7 67 32 36 62 -19 19 -25 20
-48 3z"/>
<path d="M5140 5146 c0 -2 8 -10 18 -17 15 -13 16 -12 3 4 -13 16 -21 21 -21
13z"/>
<path d="M5250 5000 c91 -90 200 -181 200 -167 0 3 -26 24 -57 48 -32 24 -101
84 -154 134 -92 87 -92 86 11 -15z"/>
<path d="M5080 5020 c125 -121 402 -353 460 -385 21 -11 6 2 -60 56 -84 67
-339 286 -395 339 -89 82 -93 75 -5 -10z"/>
<path d="M5225 5085 c22 -18 86 -53 70 -38 -5 6 -28 20 -50 32 -22 13 -31 15
-20 6z"/>
<path d="M4389 4915 c103 -56 286 -169 372 -230 57 -41 60 -42 24 -9 -61 55
-248 177 -360 233 -124 63 -150 67 -36 6z"/>
<path d="M5280 4898 c0 -10 172 -150 261 -213 52 -37 121 -81 154 -97 76 -38
62 -25 -45 42 -74 46 -237 165 -337 246 -18 15 -33 25 -33 22z"/>
<path d="M4288 4873 c7 -3 16 -2 19 1 4 3 -2 6 -13 5 -11 0 -14 -3 -6 -6z"/>
<path d="M5088 4810 c-4 -8 -11 -71 -17 -140 -13 -145 -40 -271 -68 -309 -45
-59 -155 -109 -268 -120 l-70 -7 80 -7 c115 -10 194 -36 243 -80 46 -42 90
-248 93 -434 1 -87 16 -48 18 47 2 83 23 201 52 287 30 90 65 125 155 152 74
23 237 43 276 34 18 -4 20 -3 8 6 -8 6 -35 11 -60 11 -79 0 -210 20 -263 40
-57 22 -99 56 -120 98 -20 38 -38 165 -46 312 -4 69 -10 118 -13 110z m74
-524 c23 -20 48 -36 55 -36 7 0 13 -4 13 -10 0 -5 -4 -10 -10 -10 -21 0 -85
-68 -106 -114 l-23 -49 -16 39 c-18 43 -65 97 -107 123 l-27 17 52 35 c30 19
61 50 72 71 l20 37 17 -33 c10 -19 36 -50 60 -70z"/>
<path d="M4140 4766 c0 -2 8 -10 18 -17 15 -13 16 -12 3 4 -13 16 -21 21 -21
13z"/>
<path d="M4180 4737 c0 -4 50 -43 178 -140 6 -5 12 -7 12 -5 0 3 -37 33 -82
68 -46 35 -89 68 -95 73 -7 5 -13 7 -13 4z"/>
<path d="M4100 4676 c0 -2 8 -10 18 -17 15 -13 16 -12 3 4 -13 16 -21 21 -21
13z"/>
<path d="M4050 4646 c0 -7 71 -49 75 -44 3 2 -13 15 -35 27 -22 12 -40 20 -40
17z"/>
<path d="M4204 4596 c11 -9 24 -16 30 -16 12 0 7 5 -24 19 -24 11 -24 11 -6
-3z"/>
<path d="M4186 4514 c32 -19 71 -47 86 -61 15 -15 30 -24 33 -21 12 11 -140
118 -169 118 -5 0 17 -16 50 -36z"/>
<path d="M6145 4392 c147 -89 189 -112 192 -108 8 8 -193 126 -214 126 -4 0 6
-8 22 -18z"/>
<path d="M7188 4265 c-9 -38 -20 -88 -23 -110 -9 -52 -20 -65 -61 -65 -18 0
-57 -5 -86 -12 l-53 -11 83 -19 c130 -28 124 -21 138 -181 4 -43 8 -76 10 -74
7 7 34 164 34 199 0 42 2 43 104 53 78 8 75 13 -21 45 -34 12 -66 27 -72 34
-5 6 -16 57 -24 111 l-13 100 -16 -70z"/>
<path d="M6267 3875 c-24 -50 -20 -58 4 -12 11 22 19 41 17 43 -3 2 -12 -12
-21 -31z"/>
<path d="M4755 3713 c16 -38 25 -52 25 -39 0 12 -29 76 -35 76 -3 0 2 -17 10
-37z"/>
<path d="M4786 3640 c3 -14 11 -32 16 -40 6 -10 7 -7 2 10 -3 14 -11 32 -16
40 -6 10 -7 7 -2 -10z"/>
<path d="M6206 3559 c-8 -19 -24 -56 -35 -83 -12 -27 -20 -51 -18 -53 2 -2 21
33 41 78 20 45 34 84 31 87 -2 3 -11 -10 -19 -29z"/>
<path d="M6200 3413 c-30 -65 -70 -166 -66 -170 2 -2 22 40 45 93 23 53 40 98
38 100 -2 2 -10 -8 -17 -23z"/>
<path d="M6150 3180 c-34 -67 -39 -90 -10 -45 22 36 53 105 45 105 -2 0 -18
-27 -35 -60z"/>
<path d="M5016 3032 c-4 -68 -6 -125 -3 -128 7 -8 19 153 15 206 -2 27 -7 -5
-12 -78z"/>
<path d="M6110 3041 c-11 -23 -18 -41 -16 -41 8 0 48 71 43 76 -3 3 -15 -12
-27 -35z"/>
<path d="M4892 2905 c-23 -143 -26 -172 -17 -163 7 7 46 269 43 287 -2 9 -14
-47 -26 -124z"/>
<path d="M5999 2963 c-13 -16 -12 -17 4 -4 16 13 21 21 13 21 -2 0 -10 -8 -17
-17z"/>
<path d="M6064 2898 c-15 -29 -33 -63 -42 -75 -8 -13 -10 -23 -4 -23 11 0 86
139 79 147 -3 3 -18 -19 -33 -49z"/>
<path d="M4991 2796 c-6 -37 -10 -70 -7 -73 7 -7 28 104 24 125 -2 9 -10 -14
-17 -52z"/>
<path d="M5904 2694 c-18 -14 -18 -15 4 -4 12 6 22 13 22 15 0 8 -5 6 -26 -11z"/>
<path d="M5917 2610 c-37 -44 -84 -92 -105 -107 -57 -42 -61 -48 -13 -22 46
26 144 125 174 177 10 18 17 32 15 32 -2 0 -34 -36 -71 -80z"/>
<path d="M4303 2593 c9 -2 25 -2 35 0 9 3 1 5 -18 5 -19 0 -27 -2 -17 -5z"/>
<path d="M4222 2506 c15 -9 67 -29 116 -46 74 -25 105 -30 173 -29 l84 2 -72
7 c-58 6 -160 31 -312 76 -9 3 -4 -2 11 -10z"/>
<path d="M4180 2480 c41 -32 211 -120 270 -140 57 -19 105 -24 200 -19 46 2
40 3 -35 9 -111 8 -164 25 -330 106 -71 35 -119 54 -105 44z"/>
<path d="M4182 2440 c14 -19 36 -54 48 -77 13 -24 25 -41 28 -39 7 8 -50 104
-76 128 l-25 23 25 -35z"/>
<path d="M5836 2364 c-107 -99 -221 -164 -286 -164 -16 0 -31 -4 -34 -8 -3 -5
22 -5 56 0 72 10 154 51 226 114 43 37 102 105 90 104 -2 -1 -25 -21 -52 -46z"/>
<path d="M5851 2274 c-14 -25 -56 -75 -95 -112 -71 -66 -43 -59 31 8 41 37 97
123 91 140 -1 5 -14 -11 -27 -36z"/>
<path d="M5010 2229 c41 -5 123 -19 182 -30 59 -12 112 -19 119 -17 28 9 -173
48 -271 52 -104 5 -104 5 -30 -5z"/>
<path d="M5828 2137 c-19 -40 -52 -95 -73 -122 l-38 -50 37 35 c35 33 125 194
115 205 -3 2 -21 -28 -41 -68z"/>
<path d="M4270 2151 c0 -6 4 -13 10 -16 6 -3 7 1 4 9 -7 18 -14 21 -14 7z"/>
<path d="M4256 2090 c3 -14 11 -32 16 -40 6 -10 7 -7 2 10 -3 14 -11 32 -16
40 -6 10 -7 7 -2 -10z"/>
<path d="M5813 1981 c-22 -48 -62 -110 -88 -139 -26 -29 -42 -52 -37 -52 12 0
59 53 102 115 29 42 76 153 68 160 -2 2 -22 -36 -45 -84z"/>
<path d="M5824 1895 c-9 -31 -31 -80 -49 -108 -17 -29 -39 -65 -49 -82 l-18
-30 21 25 c45 51 82 117 102 179 10 35 17 66 15 68 -2 2 -12 -21 -22 -52z"/>
<path d="M4986 1743 c-10 -134 -16 -599 -7 -573 8 26 25 650 17 650 -2 0 -7
-35 -10 -77z"/>
<path d="M5816 1732 c-15 -42 -50 -115 -78 -162 -27 -47 -40 -76 -29 -65 36
36 90 136 117 217 34 103 27 110 -10 10z"/>
<path d="M5816 1615 c-9 -26 -7 -32 5 -12 6 10 9 21 6 23 -2 3 -7 -2 -11 -11z"/>
<path d="M5850 1605 c0 -9 -9 -41 -20 -72 -23 -65 -20 -84 3 -25 18 45 32 112
23 112 -3 0 -6 -7 -6 -15z"/>
<path d="M5831 1428 c-5 -13 -16 -40 -25 -62 -17 -42 -21 -60 -6 -36 15 26 50
120 45 120 -3 0 -9 -10 -14 -22z"/>
<path d="M5826 1305 c-9 -26 -7 -32 5 -12 6 10 9 21 6 23 -2 3 -7 -2 -11 -11z"/>
</g></svg>