<?xml version="1.0" standalone="no"?>
<!DOCTYPE svg PUBLIC "-//W3C//DTD SVG 20010904//EN"
 "http://www.w3.org/TR/2001/REC-SVG-20010904/DTD/svg10.dtd">
<svg version="1.0" xmlns="http://www.w3.org/2000/svg"
 width="589.619287pt" height="1039.540043pt" viewBox="0 0 589.619287 1039.540043"
 preserveAspectRatio="xMidYMid meet">
<metadata>
Created by potrace 1.16, written by Peter Selinger 2001-2019
</metadata>
<g transform="translate(-218.600000,1038.400000) scale(0.100000,-0.100000)"
fill="currentColor" stroke="none">
<path d="M5080 9755 c0 -317 3 -485 10 -485 7 0 10 168 10 485 0 317 -3 485
-10 485 -7 0 -10 -168 -10 -485z"/>
<path d="M6131 10092 c-19 -37 -299 -729 -393 -965 -30 -78 2 -51 35 29 83
199 366 904 377 937 17 55 8 54 -19 -1z"/>
<path d="M4097 10095 c3 -16 15 -52 25 -80 11 -27 71 -190 133 -361 105 -289
213 -573 221 -583 2 -2 7 -1 10 2 4 4 -46 147 -110 319 -64 172 -146 397 -183
499 -38 102 -76 196 -85 210 l-18 24 7 -30z"/>
<path d="M6856 9857 c-159 -227 -540 -772 -622 -888 -101 -142 -114 -164 -95
-157 14 5 655 910 744 1050 35 56 12 52 -27 -5z"/>
<path d="M3381 9787 c42 -82 674 -997 690 -997 5 0 9 2 9 4 0 3 -129 193 -287
423 -159 231 -315 460 -348 511 -64 97 -100 131 -64 59z"/>
<path d="M5559 9783 c-19 -49 -109 -446 -114 -503 l-5 -55 15 50 c15 50 108
442 119 503 7 39 -1 42 -15 5z"/>
<path d="M4626 9750 c12 -73 111 -500 118 -507 19 -19 13 23 -24 189 -64 281
-79 341 -91 353 -7 7 -8 -4 -3 -35z"/>
<path d="M3975 9480 c15 -52 38 -98 151 -306 108 -199 134 -241 134 -214 0 12
-268 520 -282 535 -7 7 -8 2 -3 -15z"/>
<path d="M6187 9388 c-83 -145 -218 -412 -215 -426 5 -21 26 15 156 271 56
108 97 197 92 197 -5 0 -20 -19 -33 -42z"/>
<path d="M7327 9168 c-135 -107 -513 -411 -692 -557 -77 -63 -142 -116 -144
-118 -2 -1 -2 -6 2 -9 3 -4 138 99 299 228 161 128 365 291 453 360 89 70 171
139 185 153 46 49 1 24 -103 -57z"/>
<path d="M2817 9226 c4 -7 172 -145 373 -307 201 -161 408 -328 461 -371 52
-43 102 -78 110 -78 9 0 5 9 -11 24 -27 25 -726 593 -849 689 -72 56 -100 70
-84 43z"/>
<path d="M5040 9103 c-67 -34 -110 -89 -140 -177 -26 -78 -50 -219 -50 -296
l-1 -55 -42 85 c-54 109 -86 134 -170 128 -46 -4 -63 -10 -88 -34 -81 -77
-151 -301 -178 -569 -6 -60 -18 -277 -26 -481 -8 -204 -24 -452 -35 -550 -25
-226 -40 -615 -40 -1039 0 -199 -4 -336 -10 -345 -7 -11 -9 -7 -5 15 2 17 6
428 9 915 6 937 4 999 -41 1135 -22 68 -38 90 -80 110 -73 35 -148 -3 -200
-102 -46 -86 -78 -210 -123 -482 -44 -266 -62 -452 -85 -866 -8 -148 -20 -326
-25 -395 -6 -69 -17 -245 -25 -392 -14 -247 -32 -404 -70 -617 -34 -192 -48
-416 -41 -674 10 -415 40 -760 86 -1014 69 -376 138 -626 255 -923 121 -311
143 -421 154 -775 12 -365 5 -629 -30 -1190 -15 -244 -18 -337 -10 -358 6 -16
15 -26 20 -23 15 10 20 58 42 426 30 488 33 1283 6 1465 -26 171 -50 259 -119
430 -107 267 -154 415 -213 673 -78 341 -109 567 -125 922 -6 129 -15 287 -20
350 -14 183 1 428 46 713 14 87 31 168 38 180 10 16 16 83 20 232 4 116 15
334 26 485 10 151 24 370 30 485 30 567 107 1099 188 1285 37 86 106 146 138
119 23 -19 53 -134 59 -226 18 -268 23 -535 14 -675 -6 -84 -15 -414 -20 -733
-12 -741 -13 -762 -45 -793 l-24 -25 0 58 c0 75 -6 68 -13 -14 -6 -76 -9 -79
-117 -117 -43 -15 -91 -38 -107 -51 l-28 -24 40 17 c151 62 185 78 204 95 11
10 33 19 49 19 17 0 39 8 49 18 33 28 101 146 124 214 22 61 23 81 30 638 4
316 12 620 18 675 5 55 17 165 25 245 9 80 20 278 26 440 17 491 33 646 86
826 33 117 68 186 110 223 57 51 78 43 118 -43 39 -83 59 -180 77 -366 13
-133 18 -518 7 -610 -3 -33 -3 -41 2 -20 6 30 8 25 11 -35 1 -38 6 18 9 125 6
225 -4 492 -25 666 -14 118 -36 197 -70 265 -17 32 -17 33 -1 20 57 -48 98
-204 117 -449 13 -167 6 -746 -11 -982 -5 -69 -10 -240 -10 -380 -1 -389 -18
-889 -35 -1044 -13 -118 -13 -142 -2 -153 18 -18 61 -2 79 29 10 19 12 158 10
718 -2 440 0 770 8 900 6 113 11 392 11 620 -1 618 17 829 78 964 40 88 119
151 167 132 23 -9 73 -128 94 -225 27 -125 50 -375 57 -612 l6 -206 -34 -6
c-19 -4 -77 -11 -129 -18 -52 -6 -99 -15 -105 -20 -6 -7 4 -8 30 -5 22 3 80
10 129 16 50 6 93 13 96 15 4 2 12 -105 19 -238 39 -728 34 -1945 -9 -1990 -4
-5 -17 -6 -28 -3 -17 6 -18 12 -12 49 4 23 10 159 14 302 3 143 8 296 11 340
3 60 2 71 -5 45 -5 -19 -14 -185 -20 -368 -6 -183 -13 -339 -17 -347 -4 -12
-28 -15 -113 -15 -166 0 -143 -18 27 -22 136 -3 201 4 176 21 -7 4 -6 34 1 86
15 115 14 1506 -1 1795 -7 124 -15 335 -18 470 -11 481 -50 783 -116 898 -10
17 -14 32 -9 32 12 0 56 -75 75 -130 28 -78 63 -311 74 -481 6 -90 13 -337 17
-549 9 -549 20 -672 24 -265 4 447 19 333 26 -205 6 -424 2 -589 -33 -1326
-16 -342 -16 -363 0 -388 21 -32 34 -32 78 -3 28 19 34 29 33 58 -21 478 -26
689 -28 1239 -2 360 -7 792 -11 960 -8 327 -3 402 37 507 26 70 84 133 122
133 24 0 32 -9 66 -82 62 -135 93 -270 135 -593 9 -66 18 -135 21 -152 5 -32
4 -33 -32 -33 -45 0 -166 -21 -177 -30 -4 -4 18 -3 50 1 157 21 163 21 163 0
0 -14 -8 -21 -27 -24 -27 -4 -26 -4 4 -6 24 -1 33 -6 36 -23 3 -18 5 -17 6 7
2 54 -60 507 -85 625 -14 63 -41 153 -59 200 -19 46 -32 86 -30 88 2 2 16 -15
30 -38 81 -128 120 -300 150 -650 19 -224 49 -521 75 -730 20 -161 53 -468 70
-650 6 -58 19 -274 30 -480 11 -206 26 -413 35 -460 64 -351 106 -795 84 -870
-13 -42 -29 -38 -29 6 0 17 -5 20 -23 17 -27 -5 -130 31 -147 52 -7 8 -17 15
-23 15 -18 0 40 -39 88 -60 26 -11 58 -20 71 -20 13 0 24 -6 25 -12 0 -7 2
-24 5 -37 5 -28 -10 -50 -34 -46 -9 1 -11 0 -4 -2 37 -13 -16 -53 -73 -54 -37
-1 -38 -2 -10 -8 21 -4 26 -9 17 -15 -7 -4 -25 -5 -38 -2 -17 5 -23 3 -19 -4
9 -15 47 -12 73 6 13 9 26 14 29 11 9 -9 -99 -66 -157 -83 -172 -50 -307 -186
-454 -457 -27 -48 -47 -90 -44 -92 2 -2 30 44 63 103 106 189 222 325 325 384
25 14 79 36 120 48 41 12 86 28 98 37 47 30 31 4 -35 -57 -37 -35 -57 -57 -43
-50 14 7 61 49 104 94 44 44 76 74 71 66 -24 -44 -84 -114 -118 -137 -48 -33
-64 -61 -42 -70 11 -4 33 10 66 43 l49 49 -5 -35 c-4 -24 0 -18 13 20 24 71
61 142 70 136 4 -3 8 3 9 13 1 10 20 58 42 107 23 51 47 127 56 175 19 103 51
237 72 304 14 44 15 63 3 155 -7 58 -14 116 -15 130 -2 14 -8 61 -15 105 -13
88 -8 198 16 313 28 135 95 357 131 431 50 104 152 201 212 201 l24 0 -5 -117
c-7 -168 9 -498 26 -558 8 -27 31 -94 50 -148 20 -54 36 -102 36 -107 0 -5
-12 -11 -27 -13 -27 -4 -26 -4 4 -6 30 -1 32 -4 39 -48 15 -94 7 -226 -24
-388 -40 -211 -50 -321 -57 -620 -3 -137 -11 -279 -17 -315 -34 -208 -121
-424 -276 -685 -80 -136 -169 -272 -198 -305 -26 -29 -133 -201 -113 -183 7 7
36 48 63 92 28 43 76 111 107 152 59 78 229 354 229 372 0 6 3 8 6 5 13 -14
-181 -366 -283 -513 -27 -38 -66 -95 -87 -125 l-39 -55 37 40 c19 22 50 62 67
88 46 69 47 50 2 -30 -21 -37 -45 -83 -52 -100 -7 -18 -17 -31 -21 -28 -5 3
-18 -8 -29 -24 -26 -36 -157 -147 -225 -190 -28 -17 -46 -31 -40 -31 37 1 238
157 274 214 46 72 14 0 -61 -134 -92 -167 -158 -303 -166 -342 -3 -15 -9 -26
-13 -23 -4 3 -42 -11 -83 -30 -86 -40 -95 -42 -76 -17 12 15 11 15 -8 -1 -12
-10 -63 -31 -115 -47 -51 -16 -84 -29 -73 -29 26 -1 214 52 244 68 41 23 31 5
-19 -33 -28 -21 -76 -49 -108 -62 -36 -15 -49 -24 -34 -24 28 0 108 40 149 74
17 14 50 37 74 51 24 14 37 25 29 25 -11 0 -11 3 -2 12 18 18 22 6 15 -52 -6
-49 -12 -60 -79 -132 -40 -43 -93 -94 -117 -113 -62 -47 -113 -95 -103 -95 26
0 141 103 256 230 l32 35 -6 -39 c-4 -33 -19 -54 -79 -115 -79 -82 -189 -207
-202 -231 -11 -20 -8 -17 119 127 58 66 117 128 131 137 23 15 24 15 20 -17
-3 -17 -7 -57 -10 -88 -6 -51 -12 -64 -64 -126 -56 -66 -114 -158 -78 -123 9
8 43 53 76 99 l61 84 0 -50 c0 -50 -20 -87 -124 -223 -10 -13 -9 -13 7 -1 11
8 39 43 64 78 25 35 45 63 46 63 1 0 0 -33 -3 -74 -3 -47 -11 -81 -21 -92 -41
-48 -164 -272 -155 -282 3 -3 6 -1 6 5 0 13 137 243 157 263 13 13 15 7 11
-50 -3 -56 -9 -71 -40 -112 -32 -41 -129 -229 -128 -247 1 -3 29 50 64 118 35
68 73 133 85 145 l22 21 -4 -61 c-4 -52 -11 -70 -54 -135 -68 -103 -68 -103
-54 -95 7 5 32 39 57 77 24 38 46 69 48 69 3 0 0 -15 -5 -32 -11 -40 -11 -41
1 -33 5 3 11 -21 13 -57 2 -35 4 45 5 178 4 439 24 716 67 928 15 75 28 102
245 516 300 574 390 752 390 772 0 10 21 64 46 120 63 141 124 328 135 418 5
41 14 197 19 345 14 341 24 449 57 594 22 96 27 142 27 261 1 158 -1 167 -73
372 -35 97 -43 135 -50 235 -11 139 -9 488 2 500 21 20 27 -42 27 -277 0 -140
5 -284 11 -320 5 -36 35 -142 65 -235 82 -256 81 -242 30 -545 -29 -170 -50
-407 -71 -790 -9 -175 -20 -297 -30 -335 -43 -162 -458 -1020 -617 -1276 -121
-195 -145 -246 -167 -354 -38 -189 -61 -571 -61 -1020 0 -506 61 -1196 104
-1182 19 6 18 82 -3 256 -36 292 -51 568 -51 942 0 654 31 970 113 1134 16 33
66 123 112 200 174 298 551 1073 607 1248 20 66 33 195 48 507 15 306 36 519
71 715 41 225 38 270 -30 479 -80 245 -81 249 -81 536 -1 280 -6 329 -40 366
-46 48 -144 26 -230 -52 -88 -80 -136 -187 -212 -474 -46 -172 -47 -192 -37
-675 4 -191 -2 -249 -43 -425 l-12 -55 -7 140 c-7 149 -34 367 -74 606 -17 97
-28 221 -35 370 -24 524 -31 611 -105 1234 -19 160 -48 439 -65 620 -33 364
-50 481 -87 600 -51 160 -103 233 -182 255 -131 35 -237 -126 -242 -370 -2
-54 -5 -24 -9 85 -17 403 -85 681 -177 729 -58 29 -94 29 -153 -1z m-871
-1261 c50 -129 66 -318 55 -667 -5 -154 -9 -514 -9 -800 -1 -633 -9 -800 -37
-841 l-20 -29 7 50 c3 28 8 291 10 585 3 294 10 667 16 829 16 410 -1 768 -41
873 -12 33 -14 46 -5 38 7 -6 18 -23 24 -38z m1242 -1996 c2 -64 0 -91 -9 -94
-9 -3 -12 71 -10 330 l1 333 7 -240 c4 -132 9 -280 11 -329z m-581 117 c0 -99
-3 -143 -10 -133 -5 8 -10 38 -10 65 0 62 12 215 16 215 2 0 4 -66 4 -147z
m1145 -1573 c-16 -16 -34 -30 -39 -30 -10 1 53 60 63 60 3 0 -8 -13 -24 -30z
m275 -1271 c-7 -11 -14 -18 -17 -15 -3 3 0 12 7 21 18 21 23 19 10 -6z m-440
-789 c-8 -5 -19 -10 -25 -10 -5 0 -3 5 5 10 8 5 20 10 25 10 6 0 3 -5 -5 -10z"/>
<path d="M6619 8962 c-236 -241 -292 -302 -286 -308 9 -9 306 285 364 359 25
32 43 60 41 62 -2 3 -56 -48 -119 -113z"/>
<path d="M3500 9053 c0 -12 318 -348 363 -384 19 -14 27 -16 27 -7 0 7 -88
101 -195 208 -107 107 -195 190 -195 183z"/>
<path d="M5095 8898 l-20 -21 23 12 c12 6 22 16 22 21 0 13 -2 12 -25 -12z"/>
<path d="M2415 8584 c11 -9 47 -29 80 -44 89 -41 1019 -481 1028 -487 4 -2 7
0 7 6 0 11 -122 71 -703 347 -224 107 -413 194 -420 194 -7 0 -3 -8 8 -16z"/>
<path d="M4659 8583 c-13 -16 -12 -17 4 -4 9 7 17 15 17 17 0 8 -8 3 -21 -13z"/>
<path d="M4690 8568 c-12 -22 -12 -22 6 -6 10 10 15 20 12 24 -4 3 -12 -5 -18
-18z"/>
<path d="M7470 8429 c-532 -246 -730 -341 -730 -351 0 -5 3 -7 8 -5 4 3 216
100 472 217 256 117 498 227 538 246 39 18 72 37 72 43 0 6 -3 11 -7 10 -5 0
-163 -72 -353 -160z"/>
<path d="M3156 8551 c37 -27 388 -246 434 -271 12 -6 24 -9 27 -6 6 6 -84 65
-319 209 -151 93 -225 128 -142 68z"/>
<path d="M7075 8564 c-78 -41 -435 -269 -426 -272 12 -4 402 227 449 265 31
26 20 29 -23 7z"/>
<path d="M5243 8460 c0 -41 2 -58 4 -37 2 20 2 54 0 75 -2 20 -4 3 -4 -38z"/>
<path d="M4680 8449 c-35 -31 -35 -31 -3 -9 18 11 35 25 38 30 10 16 2 11 -35
-21z"/>
<path d="M4696 8355 c-11 -8 -15 -15 -9 -15 6 0 16 7 23 15 16 19 11 19 -14 0z"/>
<path d="M5231 8284 c0 -11 3 -14 6 -6 3 7 2 16 -1 19 -3 4 -6 -2 -5 -13z"/>
<path d="M4748 8247 c-3 -19 -2 -25 4 -19 6 6 8 18 6 28 -3 14 -5 12 -10 -9z"/>
<path d="M5153 8235 c0 -22 2 -30 4 -17 2 12 2 30 0 40 -3 9 -5 -1 -4 -23z"/>
<path d="M5147 8183 c18 -2 50 -2 70 0 21 2 7 4 -32 4 -38 0 -55 -2 -38 -4z"/>
<path d="M4770 8147 c0 -12 -7 -34 -16 -47 l-16 -25 21 24 c18 20 30 71 16 71
-3 0 -5 -10 -5 -23z"/>
<path d="M4653 8025 c0 -33 2 -45 4 -27 2 18 2 45 0 60 -2 15 -4 0 -4 -33z"/>
<path d="M4693 8005 c0 -22 2 -30 4 -17 2 12 2 30 0 40 -3 9 -5 -1 -4 -23z"/>
<path d="M4760 8013 c0 -17 -10 -36 -27 -51 l-28 -24 29 17 c27 16 29 16 23 0
-4 -9 -7 -56 -7 -105 l0 -88 -92 -36 c-98 -38 -125 -52 -118 -60 8 -7 223 83
240 100 14 15 13 16 -3 10 -18 -6 -18 1 -11 129 3 74 4 135 0 135 -3 0 -6 -12
-6 -27z"/>
<path d="M2790 7981 c8 -5 94 -25 190 -46 96 -20 231 -50 299 -66 130 -31 161
-35 145 -20 -15 15 -581 141 -629 141 -16 -1 -17 -2 -5 -9z"/>
<path d="M7390 7983 c-38 -6 -532 -112 -557 -119 -20 -5 -33 -24 -18 -24 3 0
105 22 228 49 122 27 259 57 305 66 45 10 82 22 82 26 0 5 -3 8 -7 8 -5 -1
-19 -4 -33 -6z"/>
<path d="M4694 7865 c-25 -19 -14 -19 22 0 16 8 22 15 13 15 -8 0 -24 -7 -35
-15z"/>
<path d="M5745 7800 l-40 -7 37 -2 c20 0 40 4 43 9 3 6 5 9 3 9 -2 -1 -21 -5
-43 -9z"/>
<path d="M5678 7783 c7 -3 16 -2 19 1 4 3 -2 6 -13 5 -11 0 -14 -3 -6 -6z"/>
<path d="M4120 7762 c0 -6 -12 -24 -26 -41 -14 -17 -20 -29 -12 -26 17 7 52
64 44 72 -3 4 -6 1 -6 -5z"/>
<path d="M4121 7676 l-24 -31 28 27 c16 15 27 29 24 31 -2 3 -15 -10 -28 -27z"/>
<path d="M5725 7665 c23 -8 85 -10 85 -3 0 4 -21 8 -47 7 -27 0 -43 -2 -38 -4z"/>
<path d="M2330 7650 c0 -10 47 -17 175 -25 55 -4 240 -17 410 -31 425 -34 481
-38 474 -31 -9 11 -370 45 -824 77 -77 5 -161 12 -187 15 -27 2 -48 0 -48 -5z"/>
<path d="M4715 7650 c-8 -13 5 -13 25 0 13 8 13 10 -2 10 -9 0 -20 -4 -23 -10z"/>
<path d="M7710 7649 c-73 -8 -548 -48 -768 -66 -40 -3 -75 -10 -78 -14 -7 -12
2 -11 201 6 94 8 301 24 460 35 313 21 379 28 410 41 26 10 -112 9 -225 -2z"/>
<path d="M5610 7630 c25 -5 84 -9 133 -9 l87 -1 0 -57 c0 -56 12 -180 44 -464
9 -74 19 -176 24 -228 l8 -93 -66 7 c-125 14 -240 20 -240 14 0 -7 33 -12 197
-30 62 -7 116 -10 119 -6 7 6 -14 238 -45 497 -11 91 -22 212 -26 270 l-7 105
-136 2 c-99 1 -125 -1 -92 -7z"/>
<path d="M4774 7360 c0 -146 2 -205 3 -132 2 72 2 192 0 265 -1 72 -3 13 -3
-133z"/>
<path d="M6530 7601 c0 -43 -31 -92 -67 -108 l-36 -15 40 -18 c47 -21 52 -30
60 -126 3 -41 10 -74 14 -74 5 0 9 34 9 75 0 67 3 79 25 100 13 14 30 25 38
25 8 0 20 7 27 15 10 12 9 15 -8 15 -49 0 -82 40 -82 100 0 16 -4 30 -10 30
-5 0 -10 -8 -10 -19z"/>
<path d="M4714 7268 c1 -185 5 -303 10 -298 12 12 11 351 -1 495 -8 92 -9 60
-9 -197z"/>
<path d="M5252 7475 c-1 -38 -5 -81 -8 -95 -5 -19 -4 -22 5 -14 8 7 11 39 8
95 l-3 84 -2 -70z"/>
<path d="M5214 7385 c0 -66 1 -92 3 -57 2 34 2 88 0 120 -2 31 -3 3 -3 -63z"/>
<path d="M5827 7245 c6 -238 10 -305 19 -314 4 -3 3 48 -1 114 -4 66 -11 181
-15 255 -7 116 -7 108 -3 -55z"/>
<path d="M4144 7260 c0 -58 1 -81 3 -52 2 28 2 76 0 105 -2 28 -3 5 -3 -53z"/>
<path d="M5273 7195 c0 -44 2 -61 4 -37 2 23 2 59 0 80 -2 20 -4 1 -4 -43z"/>
<path d="M5203 7190 c0 -41 2 -58 4 -37 2 20 2 54 0 75 -2 20 -4 3 -4 -38z"/>
<path d="M5242 7205 c0 -16 2 -22 5 -12 2 9 2 23 0 30 -3 6 -5 -1 -5 -18z"/>
<path d="M3315 7200 c-8 -13 20 -24 41 -16 20 8 9 26 -16 26 -10 0 -22 -5 -25
-10z"/>
<path d="M2950 7145 c-7 -9 -10 -18 -7 -21 10 -11 37 5 37 21 0 19 -14 19 -30
0z"/>
<path d="M4093 7103 c15 -2 37 -2 50 0 12 2 0 4 -28 4 -27 0 -38 -2 -22 -4z"/>
<path d="M4751 7064 c0 -27 4 -67 9 -89 6 -29 7 -16 3 45 -6 95 -13 120 -12
44z"/>
<path d="M5130 7100 c-36 -6 -28 -7 38 -6 45 0 82 4 82 8 0 9 -56 8 -120 -2z"/>
<path d="M5260 7100 c0 -5 10 -10 23 -10 18 0 19 2 7 10 -19 13 -30 13 -30 0z"/>
<path d="M5363 7075 c0 -22 2 -30 4 -17 2 12 2 30 0 40 -3 9 -5 -1 -4 -23z"/>
<path d="M4065 7070 c28 -5 64 -8 80 -8 26 -1 27 1 10 8 -11 5 -47 8 -80 8
l-60 -1 50 -7z"/>
<path d="M2981 7035 c-1 -5 -6 -58 -10 -116 -10 -143 -35 -197 -103 -220 -26
-8 -50 -18 -54 -21 -3 -3 18 -14 46 -23 38 -13 59 -27 80 -57 35 -48 37 -53
45 -150 4 -43 11 -78 16 -78 5 0 9 35 9 78 0 112 24 156 108 199 l63 31 -51
17 c-56 19 -100 64 -119 123 -6 20 -15 80 -20 132 -4 52 -9 91 -10 85z m100
-352 l29 -6 -32 -16 c-18 -9 -42 -33 -53 -53 l-21 -36 -46 52 -46 53 28 17
c16 9 32 25 35 37 6 19 8 18 42 -11 19 -17 48 -33 64 -37z"/>
<path d="M4663 6995 c0 -27 2 -38 4 -22 2 15 2 37 0 50 -2 12 -4 0 -4 -28z"/>
<path d="M7100 6960 c0 -139 -22 -175 -124 -212 l-61 -22 35 -9 c19 -5 55 -16
80 -26 41 -15 47 -21 67 -76 12 -33 22 -84 22 -114 1 -73 9 -60 21 34 6 46 18
91 31 111 20 34 83 74 114 74 30 0 14 19 -23 30 -98 26 -142 85 -142 190 0 36
-5 72 -10 80 -7 10 -10 -8 -10 -60z m85 -207 l36 -19 -31 -22 c-16 -12 -39
-39 -49 -60 -19 -35 -20 -35 -21 -11 0 33 -35 79 -60 79 -10 0 -26 3 -36 7
-14 5 -11 9 17 18 24 8 39 22 53 49 l18 37 19 -30 c10 -16 34 -38 54 -48z"/>
<path d="M4074 7010 c-44 -4 -89 -12 -100 -18 -15 -8 -6 -10 41 -6 108 9 145
15 145 25 0 5 -1 8 -2 8 -2 -1 -39 -5 -84 -9z"/>
<path d="M5010 7001 c0 -6 61 -9 148 -9 102 1 135 3 107 9 -57 11 -255 11
-255 0z"/>
<path d="M4705 6940 l-20 -9 20 0 c11 0 27 4 35 9 13 9 13 10 0 9 -8 0 -24 -4
-35 -9z"/>
<path d="M5822 6900 c0 -14 2 -19 5 -12 2 6 2 18 0 25 -3 6 -5 1 -5 -13z"/>
<path d="M4710 6889 c0 -5 9 -9 20 -9 11 0 20 4 20 8 0 4 -9 8 -20 9 -11 1
-20 -2 -20 -8z"/>
<path d="M5082 6870 c7 -5 56 -10 108 -13 69 -4 82 -4 45 3 -72 12 -169 18
-153 10z"/>
<path d="M4711 6839 c-1 -34 0 -35 29 -31 17 2 30 8 30 12 0 4 -11 5 -24 3
-21 -4 -25 -1 -29 23 -4 26 -4 25 -6 -7z"/>
<path d="M5681 6866 c2 -2 49 -6 104 -8 55 -3 89 -2 75 2 -25 8 -187 13 -179
6z"/>
<path d="M4505 6770 c-13 -5 29 -9 110 -9 72 0 139 4 150 9 13 5 -29 9 -110 9
-71 0 -139 -4 -150 -9z"/>
<path d="M4691 6715 c-1 -16 -3 -75 -5 -130 -1 -55 -8 -138 -14 -185 -6 -47
-16 -161 -22 -255 -6 -93 -14 -197 -17 -230 -3 -33 -3 -58 0 -55 3 3 13 88 21
190 9 102 21 239 27 305 7 66 14 163 16 216 l4 96 42 11 42 11 -42 -3 c-40 -4
-42 -3 -46 28 l-4 31 -2 -30z"/>
<path d="M5914 6685 c6 -63 22 -385 35 -718 4 -108 11 -200 14 -204 10 -9 8
73 -8 432 -14 311 -31 535 -42 545 -3 3 -3 -22 1 -55z"/>
<path d="M4063 6625 c0 -27 2 -38 4 -22 2 15 2 37 0 50 -2 12 -4 0 -4 -28z"/>
<path d="M4767 6618 c-4 -29 -6 -116 -5 -193 l1 -140 7 190 c4 105 6 191 5
193 -1 1 -5 -21 -8 -50z"/>
<path d="M5695 6639 c39 -4 100 -12 138 -17 37 -4 67 -6 67 -2 0 8 -184 31
-235 29 -28 -1 -20 -4 30 -10z"/>
<path d="M4588 6633 c17 -2 47 -2 65 0 17 2 3 4 -33 4 -36 0 -50 -2 -32 -4z"/>
<path d="M4133 6590 c0 -25 2 -35 4 -22 2 12 2 32 0 45 -2 12 -4 2 -4 -23z"/>
<path d="M4734 6510 c0 -52 1 -74 3 -47 2 26 2 68 0 95 -2 26 -3 4 -3 -48z"/>
<path d="M4053 6490 c0 -36 2 -50 4 -32 2 17 2 47 0 65 -2 17 -4 3 -4 -33z"/>
<path d="M4122 6470 c0 -19 2 -27 5 -17 2 9 2 25 0 35 -3 9 -5 1 -5 -18z"/>
<path d="M5213 6380 c0 -25 2 -35 4 -22 2 12 2 32 0 45 -2 12 -4 2 -4 -23z"/>
<path d="M4727 6305 c-5 -44 -15 -139 -23 -212 -15 -143 -17 -179 -8 -171 8 9
45 376 42 422 -3 31 -5 22 -11 -39z"/>
<path d="M5902 6080 c-7 -151 -12 -296 -12 -322 0 -27 -4 -48 -8 -48 -5 0 -69
16 -143 35 -133 34 -203 46 -149 24 30 -13 302 -81 306 -77 5 5 26 623 22 643
-2 11 -9 -104 -16 -255z"/>
<path d="M4088 6323 c6 -2 18 -2 25 0 6 3 1 5 -13 5 -14 0 -19 -2 -12 -5z"/>
<path d="M5203 6245 c0 -27 2 -38 4 -22 2 15 2 37 0 50 -2 12 -4 0 -4 -28z"/>
<path d="M4004 6269 c-28 -4 -61 -13 -75 -19 -20 -9 -16 -10 21 -5 25 3 80 8
123 12 48 4 73 9 65 14 -16 10 -65 10 -134 -2z"/>
<path d="M4752 6090 c-7 -107 -15 -222 -17 -255 -4 -56 -4 -57 4 -15 11 57 35
420 29 446 -2 10 -9 -69 -16 -176z"/>
<path d="M4122 5999 c1 -141 6 -252 11 -245 8 12 -1 488 -10 496 -3 3 -3 -110
-1 -251z"/>
<path d="M5166 6118 c-4 -68 -8 -157 -11 -198 -4 -71 -4 -72 5 -20 10 66 25
340 18 340 -3 0 -8 -55 -12 -122z"/>
<path d="M4035 6145 c-28 -8 -39 -13 -25 -13 14 0 43 5 65 13 51 17 25 17 -40
0z"/>
<path d="M4084 5785 c0 -121 2 -169 3 -107 2 62 2 161 0 220 -1 59 -3 8 -3
-113z"/>
<path d="M5262 5920 c0 -14 2 -19 5 -12 2 6 2 18 0 25 -3 6 -5 1 -5 -13z"/>
<path d="M4681 5884 c0 -11 3 -14 6 -6 3 7 2 16 -1 19 -3 4 -6 -2 -5 -13z"/>
<path d="M2577 5866 c-3 -8 0 -19 7 -25 18 -15 48 -3 44 18 -4 21 -44 27 -51
7z"/>
<path d="M4702 5850 c0 -19 2 -27 5 -17 2 9 2 25 0 35 -3 9 -5 1 -5 -18z"/>
<path d="M5842 5840 c0 -19 2 -27 5 -17 2 9 2 25 0 35 -3 9 -5 1 -5 -18z"/>
<path d="M7612 5858 c6 -18 28 -21 28 -4 0 9 -7 16 -16 16 -9 0 -14 -5 -12
-12z"/>
<path d="M4662 5798 c-7 -36 -12 -75 -12 -86 0 -27 -64 -49 -197 -67 -77 -10
-87 -13 -48 -14 157 -3 326 57 325 116 -1 14 -4 13 -15 -7 -13 -25 -13 -25
-18 15 l-4 40 -1 -42 c-2 -38 -16 -63 -28 -50 -3 2 0 34 6 70 7 37 10 72 8 78
-2 7 -9 -17 -16 -53z"/>
<path d="M4615 5765 c-4 -36 -5 -68 -3 -71 3 -2 8 25 12 62 4 37 5 69 2 71 -2
3 -7 -25 -11 -62z"/>
<path d="M5763 5803 c9 -2 25 -2 35 0 9 3 1 5 -18 5 -19 0 -27 -2 -17 -5z"/>
<path d="M5835 5790 c3 -5 8 -10 11 -10 2 0 4 5 4 10 0 6 -5 10 -11 10 -5 0
-7 -4 -4 -10z"/>
<path d="M5842 5750 c0 -14 2 -19 5 -12 2 6 2 18 0 25 -3 6 -5 1 -5 -13z"/>
<path d="M6648 5743 c6 -2 18 -2 25 0 6 3 1 5 -13 5 -14 0 -19 -2 -12 -5z"/>
<path d="M5960 5689 c-13 -9 -12 -10 3 -5 12 4 17 0 17 -12 0 -9 7 -66 15
-127 9 -60 24 -189 35 -286 11 -97 24 -208 29 -245 5 -38 13 -98 16 -132 l6
-64 -28 5 c-15 3 -50 9 -78 12 -27 4 -58 11 -69 17 -34 18 -8 -9 31 -32 28
-17 33 -18 22 -4 -12 15 -12 16 6 11 11 -3 41 -8 67 -12 38 -5 48 -10 51 -28
13 -69 4 136 -12 265 -11 84 -22 180 -25 213 -12 113 -60 435 -65 435 -3 0
-13 -5 -21 -11z"/>
<path d="M6658 5683 c12 -2 30 -2 40 0 9 3 -1 5 -23 4 -22 0 -30 -2 -17 -4z"/>
<path d="M7450 5501 c0 -51 -17 -78 -54 -92 -44 -16 -45 -22 -4 -34 37 -12 45
-24 53 -87 8 -62 25 -62 25 0 0 53 14 72 63 91 32 13 27 31 -8 31 -31 0 -55
35 -55 82 0 21 -4 38 -10 38 -5 0 -10 -13 -10 -29z"/>
<path d="M5944 5438 c3 -46 10 -161 15 -256 5 -96 12 -177 16 -180 4 -4 4 54
1 128 -8 170 -27 390 -34 390 -3 0 -2 -37 2 -82z"/>
<path d="M2985 5460 c-4 -27 -4 -73 0 -101 9 -66 -9 -132 -46 -163 -15 -13
-52 -29 -81 -35 -29 -7 -64 -15 -78 -18 -18 -4 -5 -9 49 -19 136 -23 166 -68
166 -246 0 -65 3 -118 8 -118 9 0 7 -15 17 127 10 152 21 175 102 205 32 11
58 22 58 24 0 2 -25 18 -55 35 -39 22 -63 45 -83 78 -24 42 -27 57 -31 164 -3
123 -14 151 -26 67z m84 -301 l31 -23 -30 -12 c-18 -8 -37 -28 -47 -49 -16
-33 -18 -34 -27 -16 -6 11 -25 35 -42 53 l-31 35 28 19 c16 10 33 32 39 49
l11 29 19 -31 c10 -17 33 -42 49 -54z"/>
<path d="M6690 5486 c0 -2 18 -6 39 -8 22 -2 37 0 35 4 -5 8 -74 11 -74 4z"/>
<path d="M4045 5470 c-3 -5 -1 -10 4 -10 6 0 11 5 11 10 0 6 -2 10 -4 10 -3 0
-8 -4 -11 -10z"/>
<path d="M3983 5453 c9 -2 25 -2 35 0 9 3 1 5 -18 5 -19 0 -27 -2 -17 -5z"/>
<path d="M4035 5430 c-3 -5 -2 -10 4 -10 5 0 13 5 16 10 3 6 2 10 -4 10 -5 0
-13 -4 -16 -10z"/>
<path d="M6320 5415 c13 -14 26 -25 28 -25 3 0 -5 11 -18 25 -13 14 -26 25
-28 25 -3 0 5 -11 18 -25z"/>
<path d="M4313 5395 c9 -16 23 -39 32 -50 9 -11 7 -2 -6 20 -27 49 -47 72 -26
30z"/>
<path d="M5297 5321 c-95 -196 -317 -382 -670 -562 -176 -89 -319 -145 -586
-225 -118 -36 -230 -74 -250 -85 -40 -22 -42 -23 89 20 52 17 158 49 235 71
466 136 921 398 1102 635 51 66 121 191 112 199 -2 3 -17 -22 -32 -53z"/>
<path d="M6680 5356 c0 -2 15 -6 34 -8 19 -2 32 0 30 4 -5 8 -64 12 -64 4z"/>
<path d="M6340 5325 c13 -14 26 -25 28 -25 3 0 -5 11 -18 25 -13 14 -26 25
-28 25 -3 0 5 -11 18 -25z"/>
<path d="M6699 5285 c43 -19 67 -20 50 -2 -6 6 -28 13 -48 14 l-36 2 34 -14z"/>
<path d="M5892 5255 c0 -16 2 -22 5 -12 2 9 2 23 0 30 -3 6 -5 -1 -5 -18z"/>
<path d="M6681 5199 c17 -11 69 -12 69 -1 0 4 -19 8 -42 9 -28 1 -37 -2 -27
-8z"/>
<path d="M5902 5175 c0 -16 2 -22 5 -12 2 9 2 23 0 30 -3 6 -5 -1 -5 -18z"/>
<path d="M6330 5186 c0 -2 8 -10 18 -17 15 -13 16 -12 3 4 -13 16 -21 21 -21
13z"/>
<path d="M6683 5173 c9 -2 23 -2 30 0 6 3 -1 5 -18 5 -16 0 -22 -2 -12 -5z"/>
<path d="M5914 5035 c0 -60 1 -84 3 -52 2 32 2 81 0 110 -2 29 -3 3 -3 -58z"/>
<path d="M6682 5050 c0 -19 2 -27 5 -17 2 9 2 25 0 35 -3 9 -5 1 -5 -18z"/>
<path d="M5640 4990 c-8 -5 -10 -10 -5 -10 6 0 17 5 25 10 8 5 11 10 5 10 -5
0 -17 -5 -25 -10z"/>
<path d="M6671 4964 c0 -11 3 -14 6 -6 3 7 2 16 -1 19 -3 4 -6 -2 -5 -13z"/>
<path d="M5435 4891 c-203 -105 -435 -252 -655 -414 -111 -82 -296 -234 -325
-268 -11 -13 12 3 50 35 151 125 252 204 347 272 169 120 466 305 613 381 77
40 136 72 130 72 -5 1 -77 -35 -160 -78z"/>
<path d="M5817 4885 c-434 -180 -797 -869 -824 -1565 -4 -121 -2 -165 16 -265
20 -115 58 -261 66 -253 3 2 -2 26 -11 53 -130 433 -18 1088 263 1545 197 319
459 514 660 494 44 -5 63 -3 63 5 0 7 -29 11 -87 11 -70 -1 -100 -6 -146 -25z"/>
<path d="M5940 4876 c0 -3 9 -10 20 -16 11 -6 20 -8 20 -6 0 3 -9 10 -20 16
-11 6 -20 8 -20 6z"/>
<path d="M6643 4685 c0 -44 2 -61 4 -37 2 23 2 59 0 80 -2 20 -4 1 -4 -43z"/>
<path d="M5890 4681 c0 -7 122 -71 135 -71 3 0 5 7 5 16 0 10 -6 14 -14 11 -7
-3 -39 7 -70 23 -31 16 -56 25 -56 21z"/>
<path d="M6658 4405 c2 -110 6 -202 8 -204 7 -8 2 231 -6 319 -5 53 -6 10 -2
-115z"/>
<path d="M5810 4586 c0 -3 9 -10 20 -16 11 -6 20 -8 20 -6 0 3 -9 10 -20 16
-11 6 -20 8 -20 6z"/>
<path d="M7451 4483 c0 -45 -6 -104 -12 -132 -14 -66 -43 -84 -184 -117 -26
-6 -22 -9 40 -20 60 -12 74 -19 102 -50 40 -45 53 -88 53 -176 0 -37 5 -70 10
-73 6 -4 10 24 10 77 0 134 41 195 148 220 28 7 52 16 52 19 0 4 -24 10 -54
13 -41 6 -63 15 -95 42 -44 38 -47 46 -60 189 l-8 90 -2 -82z m89 -243 c19 0
10 -15 -20 -32 -16 -9 -38 -31 -49 -48 l-19 -31 -7 28 c-10 39 -22 52 -61 59
l-34 6 43 28 c24 15 47 35 51 45 5 15 12 12 46 -19 22 -20 45 -36 50 -36z"/>
<path d="M6607 4365 c8 -143 9 -315 1 -375 l-7 -55 15 55 c12 44 14 88 8 215
-3 88 -10 180 -14 205 -5 31 -6 16 -3 -45z"/>
<path d="M4905 4320 c-33 -64 -80 -206 -101 -301 -22 -100 -30 -387 -15 -503
11 -80 67 -283 76 -274 2 2 -9 47 -25 100 -87 291 -50 732 81 991 11 20 17 37
14 37 -2 0 -16 -23 -30 -50z"/>
<path d="M2742 4243 c2 -10 12 -18 23 -18 11 0 21 8 23 18 3 13 -3 17 -23 17
-20 0 -26 -4 -23 -17z"/>
<path d="M6578 4125 c-4 -38 -19 -108 -32 -154 -13 -46 -20 -79 -15 -74 22 22
60 179 57 238 l-3 60 -7 -70z"/>
<path d="M4394 4158 l-19 -23 23 19 c21 18 27 26 19 26 -2 0 -12 -10 -23 -22z"/>
<path d="M6500 3985 c-13 -47 -21 -88 -18 -91 3 -2 15 34 27 82 12 48 20 88
18 90 -2 3 -14 -34 -27 -81z"/>
<path d="M6461 3924 c0 -11 3 -14 6 -6 3 7 2 16 -1 19 -3 4 -6 -2 -5 -13z"/>
<path d="M6380 3732 c-30 -59 -94 -176 -142 -262 -48 -85 -77 -142 -65 -127
38 45 273 484 265 492 -2 2 -28 -44 -58 -103z"/>
<path d="M6387 3605 c-53 -108 -109 -215 -125 -238 -34 -49 -55 -87 -48 -87 2
0 25 30 49 68 66 99 240 452 223 452 -2 0 -46 -88 -99 -195z"/>
<path d="M3000 3563 c0 -95 -14 -118 -85 -144 l-30 -11 46 -14 c51 -15 63 -33
77 -114 l9 -45 12 45 c19 74 28 88 65 101 20 7 36 16 36 19 0 4 -18 14 -40 23
-47 18 -59 43 -67 140 -3 37 -10 67 -14 67 -5 0 -9 -30 -9 -67z m39 -144 l28
-21 -21 -21 -21 -22 -25 25 c-22 22 -23 27 -10 42 19 21 16 21 49 -3z"/>
<path d="M4600 3461 c0 -6 4 -13 10 -16 6 -3 7 1 4 9 -7 18 -14 21 -14 7z"/>
<path d="M4645 3385 c14 -28 37 -64 51 -80 15 -18 9 -5 -13 31 -57 92 -66 104
-38 49z"/>
<path d="M6163 3203 c-62 -114 -97 -164 -178 -258 l-76 -90 70 73 c38 40 90
103 114 140 52 79 121 202 113 202 -3 0 -22 -30 -43 -67z"/>
<path d="M7121 3239 c9 -17 13 -19 20 -8 14 22 11 29 -11 29 -18 0 -19 -3 -9
-21z"/>
<path d="M5979 3023 c-13 -16 -12 -17 4 -4 9 7 17 15 17 17 0 8 -8 3 -21 -13z"/>
<path d="M5871 2911 c-46 -46 -71 -75 -55 -63 35 25 150 140 143 144 -2 2 -42
-35 -88 -81z"/>
<path d="M5975 2843 c-22 -19 -31 -31 -20 -25 19 9 74 63 64 62 -2 -1 -22 -17
-44 -37z"/>
<path d="M6919 2757 c-4 -117 -6 -126 -31 -160 -23 -29 -39 -38 -90 -50 -35
-8 -56 -17 -48 -19 130 -41 135 -43 150 -73 8 -16 17 -68 20 -115 6 -92 15
-90 24 5 11 109 67 170 163 177 39 4 26 15 -26 22 -97 13 -128 60 -142 218 -5
62 -11 113 -13 115 -2 3 -6 -52 -7 -120z m70 -209 c21 -15 21 -16 -18 -55 -39
-39 -40 -39 -46 -16 -3 14 -20 30 -40 40 l-35 16 30 19 c17 10 36 29 42 43
l11 25 18 -29 c9 -16 27 -35 38 -43z"/>
<path d="M4931 2850 c0 -8 4 -22 9 -30 12 -18 12 -2 0 25 -6 13 -9 15 -9 5z"/>
<path d="M4950 2796 c0 -13 41 -88 46 -83 3 2 -5 22 -17 43 -24 43 -29 51 -29
40z"/>
<path d="M5885 2790 c-3 -6 1 -7 9 -4 18 7 21 14 7 14 -6 0 -13 -4 -16 -10z"/>
<path d="M5969 2673 l-24 -28 28 24 c15 14 27 26 27 28 0 8 -8 1 -31 -24z"/>
<path d="M5908 2599 c-18 -23 -70 -68 -115 -101 -109 -78 -118 -96 -12 -22 77
53 179 144 161 144 -4 0 0 5 8 10 9 6 10 10 3 10 -7 0 -27 -18 -45 -41z"/>
<path d="M5630 2543 c-41 -25 -93 -52 -115 -60 -37 -13 -38 -13 -6 -8 37 6
233 118 199 115 -2 0 -37 -21 -78 -47z"/>
<path d="M5705 2515 c-55 -28 -118 -58 -140 -67 -32 -14 -34 -16 -10 -11 43 8
227 96 244 116 7 9 12 16 10 15 -2 0 -49 -24 -104 -53z"/>
<path d="M5855 2463 c-27 -25 -41 -41 -30 -35 19 10 94 82 84 82 -2 -1 -26
-22 -54 -47z"/>
<path d="M3232 2380 c-11 -18 -9 -21 15 -31 44 -17 71 9 41 39 -18 18 -42 15
-56 -8z"/>
<path d="M5505 2350 l-40 -7 35 -1 c19 -1 42 3 50 8 16 11 14 11 -45 0z"/>
<path d="M4885 2249 c-405 -145 -536 -174 -655 -144 -23 6 -23 5 4 -11 69 -39
281 4 612 125 106 38 203 71 215 74 20 3 19 4 -6 5 -16 1 -93 -22 -170 -49z"/>
<path d="M5715 2189 c-87 -73 -100 -90 -27 -33 104 80 107 84 97 84 -5 0 -37
-23 -70 -51z"/>
<path d="M4468 2203 c7 -3 16 -2 19 1 4 3 -2 6 -13 5 -11 0 -14 -3 -6 -6z"/>
<path d="M4418 2193 c6 -2 18 -2 25 0 6 3 1 5 -13 5 -14 0 -19 -2 -12 -5z"/>
<path d="M5110 2185 c-25 -7 -63 -16 -85 -20 -22 -4 -34 -10 -28 -12 16 -6
109 14 148 32 38 17 24 17 -35 0z"/>
<path d="M4358 2183 c6 -2 18 -2 25 0 6 3 1 5 -13 5 -14 0 -19 -2 -12 -5z"/>
<path d="M4938 2153 c7 -3 16 -2 19 1 4 3 -2 6 -13 5 -11 0 -14 -3 -6 -6z"/>
<path d="M5744 1973 c-27 -32 -69 -82 -93 -113 -24 -30 -63 -75 -85 -99 -31
-33 -34 -39 -13 -25 33 23 259 294 245 294 -2 0 -26 -26 -54 -57z"/>
<path d="M4423 1993 c9 -2 25 -2 35 0 9 3 1 5 -18 5 -19 0 -27 -2 -17 -5z"/>
<path d="M5092 1813 c-38 -140 -45 -246 -38 -568 3 -165 11 -313 16 -330 8
-24 9 -17 5 35 -2 36 -7 169 -11 295 -7 253 4 417 36 554 26 107 19 117 -8 14z"/>
<path d="M6533 1763 c-15 -5 -17 -39 -4 -47 12 -8 44 31 36 43 -7 12 -13 12
-32 4z"/>
<path d="M5236 1654 c-4 -14 -5 -28 -3 -31 3 -2 8 8 11 23 4 14 5 28 3 31 -3
2 -8 -8 -11 -23z"/>
<path d="M5634 1583 c-15 -20 -23 -33 -16 -29 13 8 56 66 49 66 -3 0 -17 -17
-33 -37z"/>
<path d="M5222 1585 c0 -16 2 -22 5 -12 2 9 2 23 0 30 -3 6 -5 -1 -5 -18z"/>
<path d="M5211 1534 c0 -11 3 -14 6 -6 3 7 2 16 -1 19 -3 4 -6 -2 -5 -13z"/>
<path d="M5748 1232 c-36 -54 -80 -143 -74 -149 2 -3 17 19 32 49 14 29 38 72
51 96 31 52 24 55 -9 4z"/>
<path d="M5756 1110 c-25 -27 -46 -54 -46 -60 0 -6 12 3 27 22 15 18 38 45 52
61 13 15 22 27 19 27 -3 0 -26 -22 -52 -50z"/>
<path d="M5811 1100 c-2 -19 -2 -47 -1 -62 1 -15 -22 -69 -55 -132 -31 -58
-55 -106 -52 -106 2 0 30 46 61 101 55 99 57 103 53 168 -2 36 -4 50 -6 31z"/>
<path d="M5797 861 c-9 -16 -17 -33 -17 -38 0 -4 9 7 21 26 11 18 18 35 17 37
-2 2 -12 -10 -21 -25z"/>
<path d="M5809 793 c-13 -16 -12 -17 4 -4 9 7 17 15 17 17 0 8 -8 3 -21 -13z"/>
<path d="M5768 753 c-19 -23 -31 -43 -24 -43 2 0 14 14 26 30 23 33 22 40 -2
13z"/>
<path d="M5735 692 c3 -3 0 -11 -7 -19 -6 -7 -9 -15 -7 -17 2 -2 12 6 21 18
13 18 14 23 2 23 -8 0 -12 -3 -9 -5z"/>
<path d="M5841 483 c-1 -6 -4 -20 -7 -30 -5 -17 -5 -17 6 0 6 10 9 23 6 30 -3
9 -5 9 -5 0z"/>
<path d="M5724 385 c-7 -19 -14 -45 -13 -57 1 -17 4 -14 11 12 5 19 14 45 19
58 14 36 -1 25 -17 -13z"/>
<path d="M5860 360 c0 -11 -9 -43 -20 -72 -23 -61 -18 -79 6 -22 18 42 31 114
20 114 -3 0 -6 -9 -6 -20z"/>
<path d="M5775 329 c-4 -6 -5 -12 -2 -15 2 -3 7 2 10 11 7 17 1 20 -8 4z"/>
</g>
</svg>
